<svg version="1.1" xmlns="http://www.w3.org/2000/svg" viewBox="0 0 401.50574856999367 783.5266709400895" width="401.50574856999367" height="783.5266709400895" class="excalidraw-svg">
  <!-- svg-source:excalidraw -->
  
  <defs>
    <style class="style-fonts">
      @font-face {
        font-family: "Virgil";
        src: url("https://excalidraw.com/Virgil.woff2");
      }
      @font-face {
        font-family: "Cascadia";
        src: url("https://excalidraw.com/Cascadia.woff2");
      }
      @font-face {
        font-family: "Assistant";
        src: url("https://excalidraw.com/Assistant-Regular.woff2");
      }
    </style>
    
  </defs>
  <g transform="translate(130.86143446396508 17.090491367828577) rotate(0 68.56934954105742 117.41628741673793)" stroke="none"><path d="M7.59 2.36 C6.65 2.14, 6.24 -1.63, 4.36 -1.85 C2.49 -2.07, -0.39 -0.36, -3.64 1.05 C-6.89 2.47, -11.37 3.57, -15.15 6.63 C-18.92 9.69, -22.44 14.34, -26.31 19.42 C-30.18 24.49, -35.38 31.11, -38.38 37.1 C-41.38 43.09, -41.63 48.34, -44.32 55.34 C-47 62.33, -51.51 70.2, -54.49 79.06 C-57.47 87.91, -60.57 98.94, -62.19 108.48 C-63.8 118.02, -64.11 129.03, -64.18 136.3 C-64.25 143.56, -63.52 146.71, -62.62 152.06 C-61.71 157.41, -59.52 164.05, -58.74 168.38 C-57.95 172.72, -59.49 174.91, -57.9 178.06 C-56.3 181.22, -52.28 183.76, -49.17 187.29 C-46.07 190.83, -43.89 193.96, -39.28 199.28 C-34.66 204.61, -26.54 214.98, -21.49 219.25 C-16.44 223.52, -13.82 222.3, -8.97 224.89 C-4.12 227.48, 1.7 232.48, 7.58 234.8 C13.47 237.12, 18.21 237.85, 26.34 238.81 C34.47 239.77, 47.27 240.24, 56.38 240.54 C65.49 240.85, 74.44 240.91, 81.01 240.63 C87.57 240.35, 90.56 239.52, 95.78 238.86 C101 238.2, 103.29 239.64, 112.33 236.65 C121.37 233.67, 141.33 224.5, 150.01 220.95 C158.69 217.39, 160.56 217.53, 164.43 215.32 C168.3 213.11, 170.56 210.16, 173.24 207.7 C175.93 205.25, 177.76 202.88, 180.56 200.59 C183.36 198.31, 187.77 198.59, 190.04 194.01 C192.32 189.42, 193.01 180.57, 194.21 173.09 C195.42 165.61, 195.76 158.96, 197.29 149.13 C198.82 139.3, 203.06 124.39, 203.38 114.11 C203.7 103.84, 202.45 98.51, 199.21 87.5 C195.97 76.48, 187.05 56.34, 183.95 48.02 C180.85 39.7, 182.49 41, 180.62 37.59 C178.75 34.18, 176.54 30.6, 172.73 27.57 C168.93 24.53, 162.82 22.63, 157.79 19.39 C152.76 16.14, 150.26 11.27, 142.57 8.08 C134.88 4.89, 121.4 2.97, 111.65 0.24 C101.9 -2.48, 90.47 -7.32, 84.06 -8.29 C77.64 -9.26, 80.42 -5.7, 73.18 -5.57 C65.94 -5.45, 47.69 -7.61, 40.6 -7.53 C33.51 -7.44, 36.51 -7.53, 30.65 -5.07 C24.79 -2.6, 9.86 5.06, 5.42 7.27" stroke="none" stroke-width="0" fill="#ffffff" fill-rule="evenodd"></path><path fill="#1e1e1e" d="M 7.54,11.60 Q 7.54,11.60 4.75,11.40 1.96,11.20 -3.05,14.48 -8.08,17.77 -11.10,20.78 -14.12,23.79 -19.26,30.55 -24.40,37.31 -27.97,43.00 -31.54,48.68 -34.66,54.69 -37.78,60.69 -40.52,67.13 -43.26,73.57 -45.63,80.53 -48.01,87.49 -49.80,94.53 -51.59,101.58 -52.59,107.99 -53.59,114.41 -54.27,121.40 -54.94,128.40 -55.19,135.77 -55.43,143.14 -54.72,149.35 -54.01,155.56 -52.46,161.13 -50.90,166.69 -48.47,171.86 -46.04,177.04 -42.79,182.11 -39.55,187.18 -35.70,191.76 -31.85,196.34 -27.58,200.35 -23.30,204.37 -17.99,208.36 -12.67,212.36 -5.75,216.47 1.16,220.58 9.01,223.80 16.87,227.01 24.10,228.91 31.32,230.82 39.04,232.00 46.76,233.18 55.93,233.99 65.10,234.79 73.89,234.73 82.69,234.67 90.71,233.72 98.74,232.76 112.65,228.29 126.57,223.82 137.00,219.74 147.44,215.67 154.31,212.12 161.18,208.57 165.80,204.92 170.42,201.27 173.63,197.50 176.85,193.73 179.14,189.86 181.44,185.98 183.12,181.79 184.80,177.60 186.08,172.83 187.36,168.06 188.36,162.45 189.35,156.84 190.62,145.28 191.89,133.72 192.47,124.34 193.04,114.96 192.93,106.72 192.83,98.49 189.07,84.56 185.31,70.64 182.14,61.82 178.96,53.01 175.64,47.41 172.33,41.82 168.91,37.98 165.49,34.15 161.90,31.28 158.32,28.41 154.44,26.04 150.57,23.66 146.48,21.67 142.38,19.67 138.14,18.07 133.90,16.47 129.26,14.97 124.63,13.47 119.99,12.10 115.35,10.72 110.90,9.62 106.46,8.52 100.04,6.97 93.62,5.41 88.90,4.72 84.19,4.04 76.88,3.83 69.58,3.62 63.06,3.81 56.54,4.01 51.53,4.49 46.53,4.98 41.79,6.16 37.04,7.34 32.59,8.72 28.14,10.09 23.24,11.98 18.35,13.87 12.84,16.29 7.33,18.72 5.32,19.05 3.31,19.38 1.30,19.05 -0.70,18.72 -2.50,17.76 -4.30,16.81 -5.70,15.33 -7.11,13.85 -7.96,12.00 -8.82,10.15 -9.04,8.12 -9.26,6.10 -8.82,4.11 -8.38,2.12 -7.33,0.37 -6.28,-1.37 -4.73,-2.69 -3.17,-4.00 -1.28,-4.76 0.60,-5.51 2.64,-5.62 4.67,-5.73 6.64,-5.19 8.60,-4.64 10.29,-3.50 11.97,-2.36 13.21,-0.73 14.44,0.88 15.09,2.81 15.74,4.74 15.74,6.78 15.74,8.82 15.09,10.75 14.44,12.68 13.21,14.30 11.97,15.93 10.29,17.07 8.60,18.21 6.63,18.76 4.67,19.30 2.64,19.19 0.60,19.08 -1.28,18.33 -3.18,17.57 -4.73,16.25 -6.28,14.93 -7.33,13.19 -8.38,11.44 -8.82,9.45 -9.26,7.46 -9.04,5.43 -8.82,3.41 -7.96,1.56 -7.11,-0.28 -5.70,-1.76 -4.30,-3.24 -2.50,-4.19 -0.70,-5.15 -0.70,-5.15 -0.70,-5.15 0.63,-5.63 1.97,-6.11 6.09,-7.55 10.22,-8.99 15.51,-10.62 20.80,-12.25 29.67,-14.81 38.55,-17.36 44.37,-17.79 50.18,-18.21 56.76,-17.97 63.34,-17.73 71.12,-17.13 78.90,-16.53 83.22,-15.88 87.53,-15.23 92.53,-14.22 97.53,-13.22 104.66,-11.93 111.79,-10.64 116.58,-9.17 121.38,-7.70 126.17,-5.99 130.96,-4.28 136.06,-2.30 141.16,-0.33 146.04,2.00 150.91,4.34 155.56,7.22 160.20,10.09 164.58,13.58 168.96,17.06 172.88,21.26 176.81,25.45 180.24,30.56 183.67,35.67 186.91,42.23 190.16,48.79 193.77,58.04 197.38,67.28 201.72,82.56 206.07,97.84 206.70,106.58 207.32,115.31 207.42,125.08 207.51,134.85 207.04,147.49 206.56,160.13 205.21,166.70 203.87,173.26 201.81,179.05 199.76,184.83 196.95,189.90 194.13,194.98 190.53,199.40 186.92,203.82 182.32,207.80 177.73,211.79 172.01,215.27 166.30,218.75 158.91,222.35 151.51,225.96 140.78,230.26 130.04,234.56 115.13,239.40 100.21,244.24 91.57,245.37 82.93,246.50 73.58,246.80 64.24,247.09 54.61,246.58 44.97,246.07 36.46,244.99 27.95,243.91 20.01,241.89 12.08,239.88 3.10,236.81 -5.86,233.74 -14.14,229.72 -22.42,225.69 -28.75,221.15 -35.09,216.60 -39.95,211.79 -44.81,206.98 -49.22,201.48 -53.64,195.99 -57.39,189.86 -61.13,183.72 -63.86,177.20 -66.59,170.69 -68.14,163.91 -69.70,157.14 -70.30,150.05 -70.91,142.96 -70.96,135.03 -71.02,127.09 -70.50,119.47 -69.99,111.85 -68.90,104.90 -67.81,97.95 -66.30,90.25 -64.79,82.55 -62.82,74.76 -60.86,66.97 -58.42,59.63 -55.99,52.29 -53.15,45.38 -50.31,38.47 -46.97,31.46 -43.63,24.45 -40.25,19.25 -36.87,14.05 -33.84,10.60 -30.80,7.16 -27.23,3.55 -23.66,-0.04 -20.32,-2.82 -16.98,-5.61 -10.39,-8.22 -3.80,-10.84 0.52,-10.40 4.85,-9.97 7.59,-9.42 10.33,-8.86 11.54,-8.55 12.74,-8.23 13.84,-7.64 14.93,-7.04 15.85,-6.20 16.77,-5.36 17.46,-4.33 18.16,-3.29 18.58,-2.12 19.00,-0.95 19.14,0.28 19.27,1.52 19.10,2.75 18.93,3.99 18.47,5.15 18.01,6.30 17.29,7.32 16.57,8.33 15.62,9.14 14.68,9.96 13.57,10.52 12.46,11.08 11.24,11.36 10.03,11.64 8.78,11.62 7.54,11.60 7.54,11.60 L 7.54,11.60 Z"></path></g><g transform="translate(192.950729905244 100.5618082066494) rotate(0 0.00005000000000165983 0.00004999999998744897)" stroke="none"><path fill="#1e1e1e" d="M 6.28,-6.28 Q 6.28,-6.28 7.11,-5.11 7.95,-3.94 8.37,-2.57 8.80,-1.19 8.76,0.23 8.72,1.67 8.22,3.02 7.73,4.37 6.83,5.49 5.93,6.61 4.72,7.38 3.50,8.15 2.11,8.50 0.72,8.85 -0.71,8.73 -2.14,8.61 -3.46,8.05 -4.78,7.48 -5.85,6.52 -6.92,5.56 -7.63,4.31 -8.33,3.06 -8.60,1.65 -8.87,0.23 -8.68,-1.18 -8.49,-2.60 -7.85,-3.89 -7.21,-5.18 -6.19,-6.19 -5.18,-7.21 -3.89,-7.85 -2.60,-8.49 -1.18,-8.68 0.24,-8.87 1.65,-8.60 3.06,-8.33 4.31,-7.62 5.56,-6.92 6.52,-5.85 7.48,-4.78 8.05,-3.46 8.62,-2.14 8.73,-0.70 8.85,0.72 8.50,2.11 8.15,3.51 7.38,4.72 6.61,5.93 5.48,6.83 4.36,7.73 3.02,8.22 1.67,8.72 0.23,8.76 -1.20,8.80 -2.57,8.37 -3.94,7.95 -5.11,7.11 -6.28,6.27 -6.28,6.27 -6.28,6.28 -6.94,5.43 -7.60,4.59 -8.04,3.61 -8.48,2.64 -8.67,1.58 -8.86,0.53 -8.80,-0.53 -8.73,-1.60 -8.41,-2.62 -8.09,-3.64 -7.54,-4.56 -6.99,-5.47 -6.23,-6.23 -5.47,-6.99 -4.56,-7.54 -3.64,-8.10 -2.62,-8.41 -1.60,-8.73 -0.53,-8.80 0.53,-8.86 1.59,-8.67 2.64,-8.48 3.61,-8.04 4.59,-7.60 5.43,-6.94 6.28,-6.28 6.28,-6.28 L 6.28,-6.28 Z"></path></g><g transform="translate(274.0263161384629 111.98494303347547) rotate(0 0.00005000000000165983 0.00004999999998744897)" stroke="none"><path fill="#1e1e1e" d="M 6.28,-6.28 Q 6.28,-6.28 7.11,-5.11 7.95,-3.94 8.37,-2.57 8.80,-1.19 8.76,0.23 8.72,1.67 8.22,3.02 7.73,4.37 6.83,5.49 5.93,6.61 4.72,7.38 3.50,8.15 2.11,8.50 0.72,8.85 -0.71,8.73 -2.14,8.61 -3.46,8.05 -4.78,7.48 -5.85,6.52 -6.92,5.56 -7.63,4.31 -8.33,3.06 -8.60,1.65 -8.87,0.23 -8.68,-1.18 -8.49,-2.60 -7.85,-3.89 -7.21,-5.18 -6.19,-6.19 -5.18,-7.21 -3.89,-7.85 -2.60,-8.49 -1.18,-8.68 0.24,-8.87 1.65,-8.60 3.06,-8.33 4.31,-7.62 5.56,-6.92 6.52,-5.85 7.48,-4.78 8.05,-3.46 8.62,-2.14 8.73,-0.70 8.85,0.72 8.50,2.11 8.15,3.51 7.38,4.72 6.61,5.93 5.48,6.83 4.36,7.73 3.02,8.22 1.67,8.72 0.23,8.76 -1.20,8.80 -2.57,8.37 -3.94,7.95 -5.11,7.11 -6.28,6.27 -6.28,6.27 -6.28,6.28 -6.94,5.43 -7.60,4.59 -8.04,3.61 -8.48,2.64 -8.67,1.58 -8.86,0.53 -8.80,-0.53 -8.73,-1.60 -8.41,-2.62 -8.09,-3.64 -7.54,-4.56 -6.99,-5.47 -6.23,-6.23 -5.47,-6.99 -4.56,-7.54 -3.64,-8.10 -2.62,-8.41 -1.60,-8.73 -0.53,-8.80 0.53,-8.86 1.59,-8.67 2.64,-8.48 3.61,-8.04 4.59,-7.60 5.43,-6.94 6.28,-6.28 6.28,-6.28 L 6.28,-6.28 Z"></path></g><g transform="translate(166.0141286968566 289.93220182726554) rotate(0 97.98683702523704 64.08114757765497)" stroke="none"><path fill="#1e1e1e" d="M 10.11,0 Q 10.11,0 9.72,7.64 9.32,15.29 9.37,21.08 9.41,26.88 9.57,31.57 9.73,36.26 10.12,42.50 10.51,48.73 10.92,54.12 11.34,59.51 17.87,61.70 24.40,63.89 32.59,67.36 40.78,70.84 52.03,74.89 63.29,78.93 76.74,83.23 90.19,87.52 103.91,91.79 117.63,96.06 129.23,99.76 140.84,103.45 150.00,106.38 159.16,109.30 166.36,111.43 173.55,113.57 178.62,114.82 183.70,116.07 189.32,117.45 194.94,118.83 196.46,119.24 197.98,119.65 199.23,120.30 200.47,120.96 201.45,121.97 202.42,122.99 203.02,124.27 203.62,125.54 203.78,126.94 203.94,128.34 203.64,129.72 203.34,131.10 202.62,132.31 201.90,133.52 200.84,134.44 199.77,135.35 198.46,135.88 197.15,136.41 195.75,136.49 194.34,136.58 192.98,136.21 191.62,135.84 190.45,135.05 189.28,134.27 188.42,133.15 187.57,132.03 187.11,130.70 186.65,129.37 186.65,127.96 186.64,126.55 187.08,125.21 187.53,123.87 188.37,122.75 189.22,121.62 190.38,120.83 191.54,120.03 192.90,119.65 194.25,119.26 195.66,119.33 197.07,119.40 198.38,119.92 199.69,120.43 200.77,121.34 201.85,122.25 202.58,123.45 203.31,124.65 203.62,126.03 203.93,127.40 203.79,128.80 203.64,130.20 203.06,131.49 202.47,132.77 201.51,133.79 200.54,134.82 199.30,135.49 198.06,136.15 196.67,136.39 195.28,136.62 193.89,136.40 192.50,136.18 192.50,136.18 192.50,136.18 190.71,135.50 188.91,134.81 184.06,132.35 179.20,129.89 174.45,127.95 169.71,126.00 162.63,123.72 155.56,121.44 146.30,118.91 137.04,116.37 125.35,113.22 113.67,110.07 99.76,106.52 85.85,102.96 71.98,99.58 58.12,96.19 46.31,93.33 34.51,90.47 25.63,88.50 16.76,86.52 7.62,83.60 -1.52,80.68 -5.87,77.02 -10.22,73.37 -10.78,66.44 -11.34,59.51 -10.92,54.12 -10.51,48.73 -10.12,42.50 -9.73,36.26 -9.57,31.57 -9.41,26.88 -9.37,21.08 -9.32,15.29 -9.72,7.64 -10.11,0 -9.96,-1.21 -9.82,-2.42 -9.39,-3.56 -8.95,-4.70 -8.26,-5.70 -7.57,-6.70 -6.65,-7.51 -5.74,-8.32 -4.66,-8.89 -3.58,-9.45 -2.40,-9.75 -1.21,-10.04 0.00,-10.04 1.21,-10.04 2.40,-9.75 3.58,-9.45 4.66,-8.89 5.74,-8.32 6.66,-7.51 7.57,-6.70 8.26,-5.70 8.95,-4.70 9.39,-3.56 9.82,-2.42 9.96,-1.20 10.11,0.00 10.11,0.00 L 10.11,0 Z"></path></g><g transform="translate(271.78590383173207 247.1061954874799) rotate(0 59.8599223691308 36.75495700945959)" stroke="none"><path fill="#1e1e1e" d="M 3.68,-8.97 Q 3.68,-8.97 9.28,-6.64 14.88,-4.30 20.61,-1.66 26.34,0.98 32.19,3.77 38.04,6.57 43.78,9.35 49.52,12.13 54.79,14.87 60.06,17.60 64.93,20.36 69.79,23.11 74.16,25.70 78.53,28.29 82.47,30.81 86.42,33.34 93.37,38.30 100.33,43.26 103.73,45.93 107.12,48.61 112.92,53.17 118.72,57.73 122.15,60.40 125.58,63.06 126.21,63.37 126.83,63.68 127.78,64.76 128.72,65.84 129.37,67.11 130.03,68.39 130.36,69.79 130.69,71.18 130.68,72.61 130.67,74.05 130.31,75.44 129.96,76.83 129.28,78.09 128.60,79.36 127.64,80.42 126.68,81.49 125.50,82.29 124.31,83.10 122.97,83.59 121.62,84.09 120.20,84.25 118.77,84.41 117.35,84.23 115.93,84.04 114.59,83.52 113.25,83.00 112.08,82.18 110.91,81.35 107.76,76.51 104.62,71.66 103.89,69.85 103.16,68.03 103.05,66.08 102.93,64.13 103.45,62.24 103.97,60.36 105.06,58.74 106.15,57.12 107.70,55.93 109.25,54.74 111.10,54.11 112.95,53.48 114.91,53.47 116.86,53.47 118.72,54.08 120.57,54.70 122.13,55.88 123.69,57.06 124.79,58.67 125.90,60.29 126.43,62.17 126.95,64.05 126.86,66.00 126.76,67.95 126.04,69.77 125.32,71.59 124.06,73.08 122.80,74.58 121.13,75.59 119.46,76.60 117.55,77.03 115.64,77.46 113.70,77.25 111.76,77.05 109.98,76.23 108.20,75.42 106.78,74.08 105.36,72.74 104.43,71.01 103.51,69.29 103.19,67.36 102.87,65.43 103.18,63.50 103.49,61.57 104.40,59.84 105.31,58.11 106.72,56.77 108.14,55.42 109.91,54.59 111.68,53.76 113.62,53.55 115.56,53.33 117.47,53.74 119.38,54.16 121.06,55.16 122.74,56.16 124.01,57.65 125.28,59.13 125.28,59.13 125.28,59.13 126.06,61.40 126.83,63.68 127.78,64.76 128.72,65.84 129.37,67.11 130.03,68.39 130.36,69.78 130.69,71.18 130.68,72.61 130.67,74.05 130.31,75.44 129.96,76.83 129.28,78.09 128.61,79.35 127.65,80.42 126.69,81.49 125.50,82.29 124.31,83.09 122.97,83.59 121.62,84.09 120.20,84.25 118.77,84.41 117.35,84.23 115.93,84.04 114.59,83.52 113.25,83.00 112.08,82.18 110.91,81.35 109.34,79.90 107.77,78.45 103.42,74.48 99.07,70.52 93.12,65.29 87.18,60.06 81.06,55.04 74.95,50.03 71.53,47.50 68.11,44.97 64.08,42.31 60.06,39.65 55.64,36.95 51.22,34.24 46.37,31.59 41.51,28.95 35.82,26.29 30.13,23.63 24.28,21.01 18.42,18.39 12.99,15.95 7.56,13.52 1.94,11.24 -3.68,8.97 -4.70,8.40 -5.72,7.83 -6.57,7.03 -7.43,6.23 -8.06,5.25 -8.70,4.27 -9.09,3.17 -9.47,2.06 -9.58,0.90 -9.69,-0.26 -9.52,-1.41 -9.35,-2.57 -8.90,-3.65 -8.46,-4.73 -7.77,-5.68 -7.08,-6.62 -6.18,-7.37 -5.29,-8.12 -4.24,-8.64 -3.19,-9.15 -2.05,-9.40 -0.90,-9.65 0.26,-9.62 1.42,-9.59 2.55,-9.28 3.68,-8.97 3.68,-8.97 L 3.68,-8.97 Z"></path></g><g transform="translate(125.24836563743625 519.333793976368) rotate(0 -2.419677634177333 126.92617772495123)" stroke="none"><path fill="#1e1e1e" d="M 9.37,-0.87 Q 9.37,-0.87 9.73,6.97 10.09,14.81 11.22,20.78 12.36,26.74 13.72,31.91 15.08,37.08 16.50,41.96 17.91,46.83 19.57,51.56 21.22,56.29 23.13,61.43 25.03,66.57 26.94,71.92 28.85,77.26 30.72,82.46 32.58,87.66 34.43,92.80 36.27,97.93 37.95,102.19 39.63,106.45 41.94,111.28 44.24,116.11 44.18,123.69 44.12,131.28 38.74,137.42 33.35,143.56 27.46,149.35 21.56,155.13 15.30,161.65 9.03,168.16 3.50,174.50 -2.02,180.83 -6.59,186.78 -11.15,192.72 -14.44,197.64 -17.73,202.56 -20.06,206.32 -22.40,210.09 -25.24,215.11 -28.08,220.14 -30.44,224.59 -32.80,229.03 -34.43,221.40 -36.05,213.76 -29.50,216.97 -22.95,220.17 -19.38,222.80 -15.80,225.42 -12.16,228.12 -8.51,230.82 -2.87,234.77 2.76,238.73 6.99,242.11 11.21,245.49 12.28,247.10 13.36,248.72 13.86,250.59 14.36,252.47 14.23,254.41 14.11,256.34 13.37,258.14 12.64,259.93 11.37,261.40 10.10,262.86 8.43,263.85 6.75,264.83 4.85,265.23 2.96,265.63 1.03,265.40 -0.89,265.17 -2.64,264.34 -4.39,263.51 -5.79,262.16 -7.18,260.81 -8.08,259.09 -8.97,257.37 -9.26,255.45 -9.56,253.53 -9.22,251.62 -8.89,249.71 -7.97,248.00 -7.04,246.30 -5.62,244.98 -4.20,243.66 -2.43,242.86 -0.66,242.06 1.26,241.87 3.19,241.68 5.08,242.12 6.97,242.55 8.63,243.57 10.28,244.59 11.52,246.08 12.76,247.57 13.46,249.38 14.16,251.19 14.25,253.13 14.33,255.06 13.79,256.93 13.26,258.79 12.15,260.39 11.05,261.98 9.49,263.14 7.93,264.30 6.09,264.90 4.25,265.50 2.31,265.48 0.37,265.46 -1.46,264.83 -3.29,264.19 -4.82,263.00 -6.35,261.81 -6.35,261.81 -6.35,261.81 -8.81,259.69 -11.27,257.56 -16.71,253.31 -22.16,249.06 -25.78,246.33 -29.40,243.60 -32.86,240.96 -36.33,238.31 -40.62,234.53 -44.92,230.75 -47.06,223.78 -49.21,216.80 -46.56,213.02 -43.91,209.23 -40.13,204.67 -36.35,200.11 -33.53,196.68 -30.72,193.25 -27.05,188.45 -23.37,183.64 -18.89,177.41 -14.40,171.17 -9.41,164.02 -4.42,156.87 0.99,149.46 6.40,142.05 11.25,135.38 16.11,128.70 20.16,126.49 24.22,124.28 22.41,118.82 20.60,113.36 19.12,108.90 17.63,104.44 15.88,99.28 14.13,94.11 12.34,88.88 10.56,83.64 8.76,78.35 6.97,73.07 5.06,67.60 3.15,62.14 1.55,56.80 -0.04,51.46 -1.20,46.32 -2.36,41.19 -3.55,35.56 -4.73,29.92 -5.96,23.17 -7.19,16.42 -8.28,8.64 -9.37,0.87 -9.34,-0.26 -9.30,-1.39 -9.00,-2.49 -8.70,-3.58 -8.14,-4.57 -7.59,-5.56 -6.81,-6.39 -6.04,-7.21 -5.08,-7.83 -4.13,-8.45 -3.06,-8.82 -1.99,-9.20 -0.86,-9.30 0.26,-9.41 1.38,-9.24 2.50,-9.07 3.55,-8.64 4.60,-8.20 5.52,-7.53 6.43,-6.86 7.16,-5.99 7.89,-5.12 8.39,-4.10 8.89,-3.08 9.13,-1.97 9.37,-0.87 9.37,-0.87 L 9.37,-0.87 Z"></path></g><g transform="translate(197.8985520691451 505.2616495168078) rotate(0 55.0951460430515 134.13251071164086)" stroke="none"><path fill="#1e1e1e" d="M 5.34,-6.15 Q 5.34,-6.15 13.43,1.39 21.52,8.93 29.45,16.36 37.38,23.79 44.90,31.06 52.42,38.33 59.10,45.01 65.77,51.68 71.58,57.75 77.39,63.83 82.26,68.80 87.13,73.77 91.08,77.45 95.03,81.12 98.34,84.29 101.65,87.45 106.52,92.12 111.40,96.79 113.97,106.90 116.54,117.01 111.96,122.77 107.39,128.53 102.10,134.73 96.81,140.93 90.28,149.62 83.75,158.31 77.10,168.26 70.46,178.21 64.93,187.37 59.40,196.53 55.25,203.88 51.11,211.23 48.31,217.23 45.51,223.23 43.73,227.59 41.96,231.95 40.18,236.65 38.40,241.35 34.67,236.88 30.94,232.41 36.18,234.21 41.42,236.02 46.92,239.01 52.42,242.00 56.35,244.33 60.27,246.67 65.20,249.55 70.13,252.42 72.60,254.54 75.07,256.66 76.84,257.43 78.61,258.20 80.05,259.50 81.48,260.79 82.42,262.48 83.37,264.17 83.72,266.07 84.08,267.97 83.81,269.88 83.54,271.80 82.68,273.52 81.81,275.25 80.44,276.61 79.07,277.97 77.33,278.83 75.60,279.68 73.68,279.93 71.76,280.18 69.87,279.81 67.97,279.44 66.29,278.48 64.61,277.52 63.33,276.08 62.04,274.64 61.29,272.86 60.53,271.08 60.38,269.15 60.23,267.22 60.71,265.35 61.18,263.48 62.23,261.85 63.28,260.23 64.79,259.02 66.30,257.82 68.12,257.16 69.93,256.50 71.87,256.46 73.80,256.41 75.64,256.99 77.49,257.56 79.06,258.70 80.62,259.83 81.74,261.40 82.86,262.98 83.42,264.83 83.98,266.68 83.92,268.61 83.86,270.54 83.19,272.35 82.51,274.17 81.29,275.67 80.08,277.17 78.44,278.20 76.81,279.24 74.93,279.70 73.06,280.15 71.13,279.99 69.20,279.82 69.21,279.82 69.21,279.82 63.28,275.75 57.35,271.67 53.06,268.58 48.77,265.50 42.20,261.25 35.64,257.01 30.98,253.34 26.32,249.67 24.55,241.51 22.77,233.35 25.56,229.23 28.34,225.10 30.79,221.06 33.25,217.01 36.49,211.10 39.72,205.19 43.57,197.47 47.42,189.75 52.58,180.03 57.73,170.32 63.87,159.67 70.01,149.01 75.81,139.48 81.62,129.94 86.16,122.56 90.70,115.17 97.21,108.55 103.71,101.92 100.82,105.45 97.93,108.98 93.91,103.46 89.89,97.95 87.24,94.44 84.58,90.93 81.10,86.68 77.63,82.44 73.24,77.28 68.86,72.11 63.09,66.26 57.32,60.41 50.53,54.05 43.73,47.69 36.03,40.83 28.34,33.97 20.09,27.02 11.83,20.07 3.24,13.11 -5.34,6.15 -6.00,5.42 -6.66,4.69 -7.13,3.82 -7.59,2.96 -7.83,2.00 -8.08,1.05 -8.09,0.07 -8.10,-0.90 -7.87,-1.86 -7.64,-2.82 -7.20,-3.69 -6.75,-4.56 -6.10,-5.31 -5.46,-6.05 -4.65,-6.61 -3.85,-7.18 -2.93,-7.54 -2.02,-7.89 -1.04,-8.02 -0.07,-8.15 0.90,-8.04 1.87,-7.93 2.80,-7.59 3.72,-7.25 4.53,-6.70 5.34,-6.15 5.34,-6.15 L 5.34,-6.15 Z"></path></g><g transform="translate(268.5067661580248 156.876633933226) rotate(0 -35.1793443986619 24.182996191701307)" stroke="none"><path fill="#1e1e1e" d="M 0.15,10.35 Q 0.15,10.35 -5.64,10.39 -11.44,10.42 -16.82,10.48 -22.20,10.54 -27.12,10.63 -32.03,10.71 -39.32,10.99 -46.62,11.27 -50.66,13.15 -54.70,15.03 -55.82,19.60 -56.94,24.16 -53.52,27.62 -50.10,31.07 -45.80,32.61 -41.50,34.16 -40.11,34.62 -38.72,35.08 -36.75,36.15 -34.79,37.21 -33.26,38.85 -31.74,40.49 -30.82,42.53 -29.90,44.57 -29.68,46.79 -29.46,49.02 -29.96,51.20 -30.46,53.37 -31.63,55.28 -32.81,57.19 -34.52,58.62 -36.24,60.05 -38.33,60.86 -40.41,61.66 -42.65,61.76 -44.88,61.86 -47.03,61.25 -49.18,60.63 -51.02,59.35 -52.86,58.08 -54.19,56.29 -55.53,54.50 -56.22,52.37 -56.92,50.24 -56.89,48.01 -56.87,45.77 -56.14,43.66 -55.40,41.55 -54.03,39.78 -52.66,38.01 -50.80,36.78 -48.94,35.54 -46.78,34.96 -44.62,34.38 -42.39,34.53 -40.15,34.67 -38.08,35.52 -36.02,36.36 -34.32,37.83 -32.63,39.29 -31.50,41.22 -30.37,43.15 -29.91,45.33 -29.45,47.52 -29.71,49.74 -29.97,51.96 -30.93,53.98 -31.89,56.00 -33.44,57.61 -35.00,59.22 -36.98,60.25 -38.97,61.28 -41.18,61.62 -43.39,61.96 -45.59,61.58 -47.80,61.19 -47.79,61.19 -47.79,61.19 -52.40,59.40 -57.02,57.61 -61.16,55.77 -65.31,53.94 -70.57,50.57 -75.84,47.21 -78.83,43.02 -81.82,38.82 -82.48,33.53 -83.13,28.25 -82.44,23.38 -81.76,18.51 -79.77,12.41 -77.79,6.31 -74.10,0.99 -70.41,-4.32 -64.83,-7.49 -59.26,-10.66 -52.95,-10.66 -46.64,-10.66 -39.37,-10.40 -32.10,-10.14 -27.22,-10.09 -22.35,-10.03 -17.05,-10.05 -11.75,-10.07 -5.95,-10.21 -0.15,-10.35 1.08,-10.22 2.32,-10.09 3.49,-9.66 4.67,-9.24 5.71,-8.55 6.74,-7.85 7.59,-6.93 8.43,-6.01 9.03,-4.91 9.62,-3.82 9.94,-2.61 10.26,-1.40 10.28,-0.15 10.30,1.09 10.02,2.30 9.74,3.52 9.17,4.63 8.61,5.75 7.80,6.70 6.98,7.64 5.96,8.37 4.95,9.09 3.79,9.55 2.63,10.01 1.39,10.18 0.15,10.35 0.15,10.35 L 0.15,10.35 Z"></path></g><g transform="translate(84.84383044531486 259.20205675442344) rotate(18.740966530386913 93.81004383748541 133.86809008569853)" stroke="none"><path d="M0.62 1.96 C7.34 1.85, 30.9 1.2, 40.06 0.79 C49.22 0.38, 44.03 1.49, 55.56 -0.49 C67.09 -2.47, 98.52 -7.91, 109.25 -11.1 C119.98 -14.3, 117.4 -17.15, 119.96 -19.66 C122.51 -22.16, 124.14 -26.45, 124.58 -26.14 C125.01 -25.83, 122.08 -21.58, 122.54 -17.78 C123 -13.98, 125 -9.93, 127.33 -3.35 C129.67 3.22, 128.46 0.59, 136.54 21.66 C144.62 42.73, 164.21 96.43, 175.82 123.06 C187.43 149.69, 199.97 168.8, 206.18 181.44 C212.4 194.08, 210.8 193.03, 213.12 198.89 C215.43 204.76, 225.5 210.98, 220.07 216.65 C214.65 222.32, 189.02 229.3, 180.54 232.9 C172.07 236.5, 174.7 235.55, 169.23 238.24 C163.76 240.94, 155.36 245.61, 147.71 249.09 C140.05 252.56, 130.47 256.46, 123.32 259.12 C116.16 261.77, 115.13 263.44, 104.78 265.03 C94.43 266.61, 69.31 267.53, 61.23 268.62 C53.15 269.72, 71.95 267.6, 56.29 271.6 C40.63 275.59, -18.09 295.99, -32.72 292.61 C-47.36 289.23, -31.65 262.13, -31.54 251.33 C-31.43 240.52, -32.16 244.91, -32.06 227.79 C-31.96 210.67, -31.94 169.05, -30.93 148.61 C-29.93 128.18, -28.49 120.72, -26.05 105.18 C-23.61 89.63, -19.05 68.21, -16.28 55.37 C-13.52 42.53, -12.47 37.63, -9.47 28.14 C-6.48 18.66, 0.28 3.57, 1.69 -1.53" stroke="none" stroke-width="0" fill="#ffffff" fill-rule="evenodd"></path><path fill="#1e1e1e" d="M 0.10,-4.52 Q 0.10,-4.52 3.56,-4.38 7.02,-4.24 10.64,-4.10 14.27,-3.95 18.52,-3.63 22.77,-3.31 27.57,-2.95 32.38,-2.58 35.50,-2.60 38.62,-2.62 41.71,-2.89 44.81,-3.15 47.55,-3.46 50.29,-3.77 55.60,-4.63 60.91,-5.48 65.61,-6.25 70.31,-7.02 73.34,-7.78 76.36,-8.55 78.65,-9.22 80.94,-9.90 84.24,-10.93 87.54,-11.95 90.71,-13.26 93.88,-14.57 96.44,-15.45 99.01,-16.33 101.03,-16.98 103.06,-17.63 105.92,-18.79 108.79,-19.94 110.83,-20.82 112.87,-21.71 114.76,-22.72 116.65,-23.74 118.25,-25.83 119.85,-27.92 120.08,-28.10 120.31,-28.28 120.84,-28.94 121.37,-29.60 122.03,-30.11 122.70,-30.62 123.47,-30.96 124.24,-31.29 125.07,-31.44 125.90,-31.58 126.74,-31.52 127.58,-31.46 128.38,-31.20 129.18,-30.94 129.90,-30.50 130.61,-30.05 131.20,-29.45 131.79,-28.85 132.22,-28.13 132.64,-27.40 132.89,-26.60 133.13,-25.79 133.17,-24.95 133.21,-24.11 133.05,-23.28 132.89,-22.46 132.53,-21.69 132.18,-20.93 132.02,-18.10 131.87,-15.28 131.84,-12.43 131.81,-9.57 132.26,-5.09 132.70,-0.61 134.30,5.85 135.89,12.31 138.67,20.70 141.46,29.09 145.25,38.94 149.04,48.78 153.26,59.14 157.48,69.50 161.52,79.10 165.56,88.69 169.64,98.20 173.73,107.71 178.83,119.18 183.93,130.65 188.59,140.96 193.25,151.27 196.13,157.64 199.02,164.02 200.86,168.06 202.70,172.10 204.05,174.46 205.39,176.82 206.73,178.73 208.07,180.65 210.13,183.09 212.19,185.54 213.91,188.30 215.63,191.06 217.65,195.13 219.66,199.21 220.49,201.33 221.32,203.44 222.53,206.70 223.74,209.96 224.74,212.50 225.74,215.03 225.31,218.63 224.88,222.22 222.78,223.60 220.68,224.99 218.42,226.08 216.17,227.17 213.43,228.32 210.70,229.47 208.26,230.41 205.83,231.36 203.40,232.38 200.96,233.40 198.38,234.49 195.80,235.59 193.85,236.48 191.90,237.36 189.42,238.54 186.94,239.72 184.87,240.72 182.79,241.73 179.53,242.71 176.27,243.68 173.89,244.61 171.50,245.54 169.49,246.62 167.47,247.70 165.52,248.89 163.58,250.08 161.75,251.25 159.93,252.41 156.96,253.97 153.99,255.53 151.75,256.57 149.51,257.61 146.79,258.70 144.08,259.78 141.85,260.74 139.62,261.69 137.68,262.73 135.74,263.77 133.61,264.55 131.48,265.33 128.80,266.27 126.12,267.20 123.02,268.07 119.91,268.93 117.45,269.59 115.00,270.26 111.20,270.99 107.41,271.73 104.05,272.21 100.69,272.70 97.94,273.00 95.19,273.31 92.33,273.52 89.47,273.73 86.78,273.92 84.08,274.10 81.06,274.24 78.05,274.37 74.91,274.59 71.76,274.80 69.04,274.86 66.31,274.93 63.25,275.32 60.20,275.71 57.64,276.11 55.08,276.52 52.82,277.10 50.57,277.67 47.94,278.37 45.31,279.07 42.17,279.84 39.03,280.61 36.39,281.52 33.74,282.43 31.49,283.05 29.24,283.67 24.00,284.57 18.77,285.47 16.52,286.05 14.28,286.64 11.70,287.46 9.12,288.29 7.03,288.94 4.94,289.59 2.82,290.26 0.70,290.94 -4.06,291.93 -8.83,292.92 -12.12,293.83 -15.42,294.73 -17.89,295.64 -20.37,296.56 -22.73,297.29 -25.10,298.02 -29.27,297.76 -33.44,297.50 -35.35,295.11 -37.27,292.73 -37.38,289.81 -37.50,286.89 -37.32,280.78 -37.14,274.67 -37.24,271.46 -37.33,268.24 -37.49,265.68 -37.65,263.13 -38.01,259.41 -38.38,255.68 -38.56,253.12 -38.75,250.56 -38.87,246.87 -38.99,243.18 -39.06,240.56 -39.13,237.95 -39.19,235.48 -39.24,233.02 -39.21,229.75 -39.17,226.49 -38.84,221.58 -38.51,216.67 -37.88,211.01 -37.25,205.35 -36.74,200.64 -36.23,195.93 -35.85,189.39 -35.46,182.86 -35.12,178.22 -34.78,173.58 -34.60,169.84 -34.41,166.11 -34.36,162.98 -34.30,159.84 -34.40,157.61 -34.49,155.37 -34.55,151.42 -34.60,147.46 -34.41,145.06 -34.22,142.66 -33.94,139.94 -33.65,137.23 -32.83,132.52 -32.00,127.81 -31.40,123.83 -30.80,119.86 -30.23,115.84 -29.66,111.81 -29.08,107.92 -28.51,104.03 -28.01,100.67 -27.51,97.31 -27.17,94.58 -26.83,91.86 -26.61,89.70 -26.40,87.55 -25.92,83.87 -25.43,80.18 -25.05,76.55 -24.67,72.93 -24.17,68.76 -23.67,64.60 -23.32,62.20 -22.96,59.80 -22.45,57.22 -21.94,54.64 -21.11,51.54 -20.28,48.44 -19.53,45.54 -18.78,42.64 -18.25,39.84 -17.71,37.04 -17.33,34.93 -16.95,32.83 -16.24,29.93 -15.54,27.03 -14.48,23.58 -13.42,20.12 -11.66,16.40 -9.91,12.69 -9.11,10.41 -8.32,8.14 -7.60,5.64 -6.89,3.15 -6.08,-0.51 -5.27,-4.17 -5.02,-4.85 -4.76,-5.53 -4.35,-6.13 -3.94,-6.72 -3.40,-7.21 -2.86,-7.69 -2.22,-8.02 -1.57,-8.36 -0.87,-8.54 -0.17,-8.71 0.55,-8.71 1.27,-8.71 1.98,-8.54 2.68,-8.37 3.32,-8.03 3.97,-7.70 4.51,-7.22 5.05,-6.74 5.47,-6.14 5.88,-5.54 6.14,-4.87 6.39,-4.19 6.48,-3.47 6.57,-2.75 6.48,-2.03 6.40,-1.31 6.45,-1.55 6.49,-1.79 6.19,-0.86 5.88,0.05 5.29,0.83 4.70,1.60 3.90,2.15 3.10,2.70 2.16,2.96 1.22,3.22 0.25,3.17 -0.71,3.12 -1.62,2.77 -2.52,2.41 -3.26,1.78 -4.01,1.15 -4.51,0.32 -5.01,-0.50 -5.23,-1.45 -5.44,-2.40 -5.33,-3.37 -5.23,-4.34 -4.83,-5.22 -4.42,-6.10 -3.75,-6.81 -3.09,-7.52 -2.23,-7.98 -1.37,-8.44 -0.41,-8.60 0.54,-8.76 1.50,-8.60 2.46,-8.45 3.32,-7.99 4.18,-7.54 4.85,-6.83 5.53,-6.13 5.94,-5.25 6.35,-4.37 6.45,-3.40 6.56,-2.43 6.36,-1.48 6.15,-0.53 5.65,0.29 5.15,1.13 4.41,1.76 3.67,2.39 2.77,2.75 1.86,3.12 0.89,3.17 -0.07,3.23 -1.01,2.97 -1.94,2.71 -2.75,2.17 -3.56,1.62 -4.15,0.85 -4.74,0.08 -5.05,-0.83 -5.37,-1.76 -5.32,-2.96 -5.27,-4.17 -5.02,-4.85 -4.76,-5.53 -4.35,-6.13 -3.94,-6.72 -3.40,-7.21 -2.86,-7.69 -2.22,-8.02 -1.57,-8.36 -0.87,-8.54 -0.17,-8.71 0.55,-8.71 1.27,-8.71 1.98,-8.54 2.68,-8.37 3.32,-8.03 3.97,-7.70 4.51,-7.22 5.05,-6.74 5.46,-6.14 5.88,-5.55 6.14,-4.87 6.39,-4.19 6.48,-3.47 6.57,-2.75 6.48,-2.03 6.40,-1.31 6.04,0.40 5.68,2.13 4.78,4.52 3.88,6.91 2.89,9.35 1.91,11.80 1.06,14.14 0.20,16.49 -0.82,20.19 -1.85,23.90 -2.97,27.16 -4.08,30.41 -4.92,33.02 -5.76,35.62 -6.40,37.65 -7.04,39.67 -7.87,42.37 -8.71,45.06 -9.36,47.99 -10.01,50.92 -10.64,53.85 -11.26,56.78 -11.74,59.12 -12.21,61.45 -12.59,63.81 -12.97,66.16 -13.70,70.27 -14.42,74.37 -15.23,78.28 -16.03,82.18 -16.98,85.58 -17.92,88.98 -18.43,91.10 -18.94,93.23 -19.53,95.89 -20.13,98.56 -20.74,101.77 -21.35,104.97 -21.80,108.80 -22.24,112.62 -22.55,116.68 -22.86,120.74 -23.14,124.75 -23.42,128.76 -23.66,133.56 -23.90,138.36 -24.24,141.06 -24.57,143.77 -24.91,145.98 -25.25,148.19 -25.70,151.89 -26.15,155.59 -26.37,157.89 -26.58,160.19 -26.81,163.32 -27.04,166.44 -27.19,170.12 -27.33,173.80 -27.27,178.41 -27.21,183.01 -27.07,189.63 -26.92,196.25 -26.74,200.99 -26.56,205.72 -26.32,211.43 -26.09,217.14 -26.13,222.05 -26.17,226.96 -26.25,229.99 -26.33,233.02 -26.39,235.48 -26.44,237.94 -26.51,240.56 -26.58,243.17 -26.67,246.74 -26.76,250.31 -26.80,252.60 -26.85,254.88 -26.66,258.61 -26.47,262.35 -26.28,264.86 -26.08,267.38 -25.68,270.61 -25.28,273.84 -24.46,278.72 -23.64,283.61 -24.01,286.30 -24.37,288.99 -26.24,287.00 -28.10,285.01 -25.66,284.49 -23.21,283.98 -20.92,283.35 -18.62,282.72 -15.21,281.86 -11.80,281.01 -8.63,279.97 -5.46,278.92 -3.00,278.28 -0.55,277.63 2.44,276.87 5.44,276.12 8.17,275.36 10.90,274.61 13.19,273.92 15.48,273.23 20.70,271.51 25.92,269.79 28.31,269.13 30.70,268.46 33.08,267.69 35.47,266.92 38.43,266.11 41.39,265.29 44.34,264.51 47.30,263.72 49.89,263.13 52.48,262.54 55.11,262.09 57.73,261.65 60.65,261.19 63.56,260.73 65.69,260.77 67.82,260.81 70.39,260.80 72.96,260.79 75.32,260.65 77.68,260.51 80.39,260.37 83.11,260.23 85.78,260.05 88.45,259.86 91.15,259.65 93.85,259.44 96.30,259.18 98.75,258.91 101.59,258.46 104.43,258.01 106.66,257.43 108.89,256.84 111.07,256.28 113.25,255.71 115.89,254.95 118.52,254.18 120.66,253.58 122.80,252.98 125.26,252.17 127.73,251.37 129.83,250.66 131.93,249.95 134.72,248.72 137.50,247.50 139.97,246.60 142.45,245.70 145.08,244.64 147.71,243.59 150.30,242.23 152.89,240.88 154.75,239.79 156.61,238.69 158.78,237.46 160.96,236.22 164.37,234.65 167.79,233.07 170.20,232.32 172.60,231.57 176.02,230.54 179.44,229.50 181.77,228.59 184.10,227.69 187.44,226.25 190.79,224.80 193.30,223.53 195.82,222.26 198.31,221.01 200.81,219.76 204.79,217.97 208.77,216.18 210.82,215.38 212.88,214.58 214.95,213.87 217.02,213.16 215.21,214.34 213.39,215.52 212.75,213.03 212.10,210.54 210.95,206.99 209.81,203.44 208.99,201.44 208.16,199.43 206.66,196.16 205.15,192.90 204.10,190.54 203.05,188.18 202.13,186.25 201.21,184.32 200.38,181.93 199.56,179.53 198.62,176.97 197.68,174.42 195.79,170.39 193.90,166.37 190.95,160.02 188.00,153.67 183.24,143.39 178.48,133.11 173.25,121.67 168.01,110.23 163.75,100.78 159.49,91.33 155.21,81.81 150.92,72.29 146.37,62.02 141.81,51.74 137.54,41.93 133.27,32.12 129.83,23.67 126.39,15.23 123.92,8.43 121.44,1.63 119.96,-3.56 118.48,-8.76 118.07,-13.78 117.67,-18.79 117.92,-21.10 118.18,-23.41 119.25,-25.84 120.31,-28.28 120.84,-28.94 121.36,-29.60 122.03,-30.11 122.70,-30.62 123.47,-30.96 124.24,-31.29 125.07,-31.44 125.90,-31.58 126.74,-31.52 127.58,-31.46 128.38,-31.20 129.18,-30.94 129.90,-30.50 130.61,-30.05 131.20,-29.45 131.79,-28.85 132.22,-28.13 132.64,-27.40 132.88,-26.60 133.13,-25.79 133.17,-24.95 133.21,-24.11 133.05,-23.28 132.89,-22.46 132.54,-21.69 132.18,-20.93 132.31,-22.12 132.44,-23.30 131.09,-20.75 129.73,-18.21 128.10,-16.80 126.47,-15.40 124.54,-13.63 122.61,-11.86 120.12,-10.80 117.63,-9.74 115.42,-8.93 113.21,-8.12 111.03,-7.41 108.84,-6.70 106.56,-6.18 104.28,-5.65 102.04,-5.18 99.79,-4.70 97.22,-4.06 94.64,-3.43 92.23,-2.92 89.81,-2.42 86.41,-1.86 83.01,-1.29 80.66,-0.85 78.31,-0.41 75.19,0.28 72.08,0.99 67.41,2.29 62.74,3.58 56.73,4.73 50.71,5.89 47.70,5.71 44.69,5.53 41.55,5.16 38.42,4.79 35.25,4.59 32.08,4.40 27.33,4.36 22.58,4.32 18.35,4.42 14.12,4.53 10.47,4.54 6.81,4.56 3.35,4.54 -0.10,4.52 -0.64,4.44 -1.18,4.36 -1.68,4.16 -2.19,3.95 -2.63,3.63 -3.07,3.31 -3.43,2.90 -3.78,2.48 -4.02,1.99 -4.26,1.50 -4.38,0.97 -4.50,0.44 -4.49,-0.10 -4.47,-0.64 -4.33,-1.17 -4.19,-1.70 -3.92,-2.17 -3.66,-2.65 -3.29,-3.05 -2.92,-3.45 -2.46,-3.75 -2.01,-4.05 -1.49,-4.23 -0.98,-4.41 -0.43,-4.47 0.10,-4.52 0.10,-4.52 L 0.10,-4.52 Z"></path></g></svg>