<svg version="1.1" xmlns="http://www.w3.org/2000/svg" viewBox="0 0 459.5689516562225 724.2288248106092" width="459.5689516562225" height="724.2288248106092" class="excalidraw-svg">
  <!-- svg-source:excalidraw -->
  
  <defs>
    <style class="style-fonts">
      @font-face {
        font-family: "Virgil";
        src: url("https://excalidraw.com/Virgil.woff2");
      }
      @font-face {
        font-family: "Cascadia";
        src: url("https://excalidraw.com/Cascadia.woff2");
      }
      @font-face {
        font-family: "Assistant";
        src: url("https://excalidraw.com/Assistant-Regular.woff2");
      }
    </style>
    
  </defs>
  <g transform="translate(233.87509652514905 17.090491367828577) rotate(0 68.56934954105742 117.41628741673793)" stroke="none"><path d="M11.21 3.42 C10.72 3.25, 7.39 1.94, 4.64 1.81 C1.89 1.68, -2.2 2.24, -5.28 2.63 C-8.36 3.02, -10.38 1.1, -13.84 4.14 C-17.29 7.18, -21.7 15.15, -25.98 20.88 C-30.26 26.61, -36.12 33.18, -39.53 38.53 C-42.93 43.88, -44.08 45.8, -46.44 52.98 C-48.79 60.17, -50.84 72.09, -53.63 81.63 C-56.42 91.17, -61.54 100.66, -63.2 110.23 C-64.86 119.81, -63.16 131.94, -63.58 139.06 C-64 146.19, -65.89 148.29, -65.71 153 C-65.53 157.71, -63.73 162.84, -62.5 167.34 C-61.26 171.84, -60.63 176.21, -58.3 180 C-55.97 183.78, -50.95 186.57, -48.54 190.06 C-46.14 193.55, -47.89 196.68, -43.84 200.96 C-39.8 205.23, -30.42 211.37, -24.25 215.69 C-18.08 220.02, -11.94 224.28, -6.81 226.89 C-1.68 229.5, 1.27 229.37, 6.52 231.33 C11.77 233.29, 15.74 237.13, 24.7 238.65 C33.65 240.18, 51.39 239.83, 60.25 240.49 C69.11 241.14, 71.9 242.24, 77.89 242.57 C83.88 242.91, 90.32 243.42, 96.2 242.49 C102.07 241.57, 103.91 240.65, 113.12 237 C122.33 233.35, 143.15 224.73, 151.44 220.6 C159.73 216.47, 159.22 214.42, 162.88 212.2 C166.54 209.99, 170.02 209.54, 173.42 207.32 C176.82 205.1, 180.56 201.02, 183.28 198.88 C186 196.74, 187.61 198.53, 189.76 194.48 C191.91 190.43, 194.41 182.29, 196.18 174.59 C197.95 166.89, 199.33 157.79, 200.4 148.29 C201.48 138.78, 203.04 128.12, 202.63 117.57 C202.22 107.02, 200.63 96.4, 197.94 85 C195.25 73.59, 189.47 56.65, 186.49 49.12 C183.51 41.59, 182.31 43.23, 180.05 39.84 C177.79 36.44, 176.89 32.05, 172.92 28.73 C168.96 25.42, 162.11 23.27, 156.26 19.92 C150.41 16.58, 145.46 12.1, 137.84 8.67 C130.22 5.24, 119.43 1.98, 110.57 -0.65 C101.71 -3.27, 91.09 -6.22, 84.69 -7.08 C78.28 -7.93, 79.51 -5.7, 72.12 -5.78 C64.73 -5.86, 46.99 -7.6, 40.34 -7.56 C33.69 -7.52, 38.78 -7.8, 32.24 -5.54 C25.7 -3.29, 5.78 3.65, 1.1 5.96" stroke="none" stroke-width="0" fill="#ffffff" fill-rule="evenodd"></path><path fill="#1e1e1e" d="M 7.54,11.60 Q 7.54,11.60 4.75,11.40 1.96,11.20 -3.05,14.48 -8.08,17.77 -11.10,20.78 -14.12,23.79 -19.26,30.55 -24.40,37.31 -27.97,43.00 -31.54,48.68 -34.66,54.69 -37.78,60.69 -40.52,67.13 -43.26,73.57 -45.63,80.53 -48.01,87.49 -49.80,94.53 -51.59,101.58 -52.59,107.99 -53.59,114.41 -54.27,121.40 -54.94,128.40 -55.19,135.77 -55.43,143.14 -54.72,149.35 -54.01,155.56 -52.46,161.13 -50.90,166.69 -48.47,171.86 -46.04,177.04 -42.79,182.11 -39.55,187.18 -35.70,191.76 -31.85,196.34 -27.58,200.35 -23.30,204.37 -17.99,208.36 -12.67,212.36 -5.75,216.47 1.16,220.58 9.01,223.80 16.87,227.01 24.10,228.91 31.32,230.82 39.04,232.00 46.76,233.18 55.93,233.99 65.10,234.79 73.89,234.73 82.69,234.67 90.71,233.72 98.74,232.76 112.65,228.29 126.57,223.82 137.00,219.74 147.44,215.67 154.31,212.12 161.18,208.57 165.80,204.92 170.42,201.27 173.63,197.50 176.85,193.73 179.14,189.86 181.44,185.98 183.12,181.79 184.80,177.60 186.08,172.83 187.36,168.06 188.36,162.45 189.35,156.84 190.62,145.28 191.89,133.72 192.47,124.34 193.04,114.96 192.93,106.72 192.83,98.49 189.07,84.56 185.31,70.64 182.14,61.82 178.96,53.01 175.64,47.41 172.33,41.82 168.91,37.98 165.49,34.15 161.90,31.28 158.32,28.41 154.44,26.04 150.57,23.66 146.48,21.67 142.38,19.67 138.14,18.07 133.90,16.47 129.26,14.97 124.63,13.47 119.99,12.10 115.35,10.72 110.90,9.62 106.46,8.52 100.04,6.97 93.62,5.41 88.90,4.72 84.19,4.04 76.88,3.83 69.58,3.62 63.06,3.81 56.54,4.01 51.53,4.49 46.53,4.98 41.79,6.16 37.04,7.34 32.59,8.72 28.14,10.09 23.24,11.98 18.35,13.87 12.84,16.29 7.33,18.72 5.32,19.05 3.31,19.38 1.30,19.05 -0.70,18.72 -2.50,17.76 -4.30,16.81 -5.70,15.33 -7.11,13.85 -7.96,12.00 -8.82,10.15 -9.04,8.12 -9.26,6.10 -8.82,4.11 -8.38,2.12 -7.33,0.37 -6.28,-1.37 -4.73,-2.69 -3.17,-4.00 -1.28,-4.76 0.60,-5.51 2.64,-5.62 4.67,-5.73 6.64,-5.19 8.60,-4.64 10.29,-3.50 11.97,-2.36 13.21,-0.73 14.44,0.88 15.09,2.81 15.74,4.74 15.74,6.78 15.74,8.82 15.09,10.75 14.44,12.68 13.21,14.30 11.97,15.93 10.29,17.07 8.60,18.21 6.63,18.76 4.67,19.30 2.64,19.19 0.60,19.08 -1.28,18.33 -3.18,17.57 -4.73,16.25 -6.28,14.93 -7.33,13.19 -8.38,11.44 -8.82,9.45 -9.26,7.46 -9.04,5.43 -8.82,3.41 -7.96,1.56 -7.11,-0.28 -5.70,-1.76 -4.30,-3.24 -2.50,-4.19 -0.70,-5.15 -0.70,-5.15 -0.70,-5.15 0.63,-5.63 1.97,-6.11 6.09,-7.55 10.22,-8.99 15.51,-10.62 20.80,-12.25 29.67,-14.81 38.55,-17.36 44.37,-17.79 50.18,-18.21 56.76,-17.97 63.34,-17.73 71.12,-17.13 78.90,-16.53 83.22,-15.88 87.53,-15.23 92.53,-14.22 97.53,-13.22 104.66,-11.93 111.79,-10.64 116.58,-9.17 121.38,-7.70 126.17,-5.99 130.96,-4.28 136.06,-2.30 141.16,-0.33 146.04,2.00 150.91,4.34 155.56,7.22 160.20,10.09 164.58,13.58 168.96,17.06 172.88,21.26 176.81,25.45 180.24,30.56 183.67,35.67 186.91,42.23 190.16,48.79 193.77,58.04 197.38,67.28 201.72,82.56 206.07,97.84 206.70,106.58 207.32,115.31 207.42,125.08 207.51,134.85 207.04,147.49 206.56,160.13 205.21,166.70 203.87,173.26 201.81,179.05 199.76,184.83 196.95,189.90 194.13,194.98 190.53,199.40 186.92,203.82 182.32,207.80 177.73,211.79 172.01,215.27 166.30,218.75 158.91,222.35 151.51,225.96 140.78,230.26 130.04,234.56 115.13,239.40 100.21,244.24 91.57,245.37 82.93,246.50 73.58,246.80 64.24,247.09 54.61,246.58 44.97,246.07 36.46,244.99 27.95,243.91 20.01,241.89 12.08,239.88 3.10,236.81 -5.86,233.74 -14.14,229.72 -22.42,225.69 -28.75,221.15 -35.09,216.60 -39.95,211.79 -44.81,206.98 -49.22,201.48 -53.64,195.99 -57.39,189.86 -61.13,183.72 -63.86,177.20 -66.59,170.69 -68.14,163.91 -69.70,157.14 -70.30,150.05 -70.91,142.96 -70.96,135.03 -71.02,127.09 -70.50,119.47 -69.99,111.85 -68.90,104.90 -67.81,97.95 -66.30,90.25 -64.79,82.55 -62.82,74.76 -60.86,66.97 -58.42,59.63 -55.99,52.29 -53.15,45.38 -50.31,38.47 -46.97,31.46 -43.63,24.45 -40.25,19.25 -36.87,14.05 -33.84,10.60 -30.80,7.16 -27.23,3.55 -23.66,-0.04 -20.32,-2.82 -16.98,-5.61 -10.39,-8.22 -3.80,-10.84 0.52,-10.40 4.85,-9.97 7.59,-9.42 10.33,-8.86 11.54,-8.55 12.74,-8.23 13.84,-7.64 14.93,-7.04 15.85,-6.20 16.77,-5.36 17.46,-4.33 18.16,-3.29 18.58,-2.12 19.00,-0.95 19.14,0.28 19.27,1.52 19.10,2.75 18.93,3.99 18.47,5.15 18.01,6.30 17.29,7.32 16.57,8.33 15.62,9.14 14.68,9.96 13.57,10.52 12.46,11.08 11.24,11.36 10.03,11.64 8.78,11.62 7.54,11.60 7.54,11.60 L 7.54,11.60 Z"></path></g><g transform="translate(216.45886452674137 252.751642977495) rotate(0 -103.22943226337068 75.25885680362501)" stroke="none"><path fill="#1e1e1e" d="M 0,9.12 Q 0,9.12 -10.04,8.61 -20.09,8.10 -28.77,7.72 -37.45,7.34 -44.67,7.36 -51.89,7.37 -57.85,7.59 -63.82,7.80 -68.13,8.12 -72.43,8.43 -76.75,8.90 -81.07,9.38 -85.45,14.97 -89.83,20.56 -93.87,25.49 -97.91,30.41 -104.54,37.82 -111.18,45.23 -119.34,54.79 -127.50,64.36 -135.33,73.53 -143.15,82.70 -149.72,90.46 -156.28,98.22 -161.80,104.89 -167.31,111.55 -171.53,117.11 -175.76,122.66 -179.01,127.19 -182.26,131.72 -184.64,135.32 -187.01,138.91 -190.05,143.64 -193.08,148.37 -199.05,154.42 -205.02,160.48 -206.65,160.42 -208.28,160.35 -209.80,159.77 -211.32,159.19 -212.58,158.15 -213.83,157.12 -214.69,155.73 -215.55,154.35 -215.93,152.77 -216.30,151.18 -216.15,149.56 -216.00,147.94 -215.33,146.45 -214.67,144.96 -213.57,143.76 -212.47,142.56 -211.04,141.78 -209.61,141.00 -208.01,140.71 -206.40,140.42 -204.79,140.66 -203.18,140.90 -201.73,141.64 -200.28,142.39 -199.14,143.55 -198.01,144.72 -197.30,146.19 -196.60,147.65 -196.40,149.27 -196.20,150.89 -196.52,152.48 -196.85,154.08 -197.67,155.49 -198.49,156.89 -199.72,157.97 -200.94,159.04 -202.45,159.66 -203.95,160.29 -205.58,160.40 -207.20,160.51 -208.78,160.10 -210.35,159.69 -211.71,158.79 -213.07,157.90 -214.08,156.61 -215.08,155.33 -215.63,153.80 -216.17,152.26 -216.19,150.63 -216.22,149.00 -215.72,147.45 -215.22,145.90 -214.25,144.59 -213.29,143.28 -211.95,142.35 -210.62,141.41 -209.05,140.95 -207.49,140.50 -207.49,140.50 -207.49,140.50 -210.19,142.01 -212.90,143.52 -210.23,140.19 -207.56,136.86 -203.70,132.88 -199.84,128.90 -196.85,125.62 -193.86,122.35 -190.14,118.25 -186.42,114.15 -181.97,108.85 -177.52,103.55 -172.34,96.56 -167.15,89.58 -161.08,81.43 -155.00,73.28 -147.88,63.65 -140.76,54.02 -133.50,43.80 -126.23,33.59 -120.79,25.37 -115.35,17.15 -111.76,12.05 -108.18,6.96 -104.15,2.13 -100.13,-2.69 -95.86,-5.71 -91.59,-8.73 -86.33,-9.05 -81.07,-9.38 -76.75,-8.90 -72.43,-8.43 -68.13,-8.12 -63.82,-7.80 -57.85,-7.59 -51.89,-7.37 -44.67,-7.36 -37.45,-7.34 -28.77,-7.72 -20.09,-8.10 -10.04,-8.61 0,-9.12 1.09,-8.99 2.18,-8.85 3.21,-8.46 4.23,-8.07 5.14,-7.45 6.05,-6.82 6.77,-6.00 7.50,-5.18 8.01,-4.20 8.53,-3.23 8.79,-2.16 9.05,-1.09 9.05,0.00 9.05,1.10 8.79,2.16 8.53,3.23 8.01,4.20 7.50,5.18 6.77,6.00 6.04,6.82 5.14,7.45 4.23,8.07 3.21,8.46 2.18,8.85 1.09,8.99 -0.00,9.12 -0.00,9.12 L 0,9.12 Z"></path></g><g transform="translate(357.394420692192 247.69321206620538) rotate(0 44.092801970251344 96.65430918927058)" stroke="none"><path fill="#1e1e1e" d="M 8.59,-4.69 Q 8.59,-4.69 11.89,1.99 15.19,8.68 18.45,14.33 21.71,19.99 24.94,25.16 28.16,30.34 31.16,35.44 34.15,40.55 36.88,45.48 39.60,50.41 42.00,54.61 44.39,58.81 48.20,64.40 52.01,70.00 54.70,73.33 57.39,76.66 61.22,80.55 65.05,84.43 68.34,88.27 71.63,92.10 74.50,95.73 77.36,99.37 80.26,103.69 83.16,108.01 85.29,112.58 87.42,117.15 89.45,121.29 91.47,125.43 94.31,129.75 97.15,134.07 99.34,141.90 101.53,149.72 99.62,153.76 97.71,157.79 92.53,162.77 87.34,167.74 82.75,171.98 78.16,176.22 73.85,180.24 69.55,184.25 64.90,188.26 60.26,192.27 56.31,195.48 52.37,198.69 48.61,201.05 44.85,203.42 42.56,204.54 40.27,205.67 38.06,206.31 35.86,206.95 33.57,206.85 31.28,206.76 29.14,205.93 27.00,205.11 25.23,203.65 23.47,202.18 22.26,200.23 21.06,198.28 20.54,196.05 20.02,193.82 20.24,191.53 20.46,189.25 21.39,187.16 22.33,185.06 23.89,183.38 25.45,181.70 27.46,180.60 29.47,179.50 31.73,179.10 33.99,178.70 36.26,179.05 38.52,179.39 40.56,180.44 42.60,181.49 44.20,183.14 45.79,184.78 46.78,186.85 47.77,188.92 48.05,191.20 48.32,193.47 47.85,195.72 47.39,197.97 46.23,199.94 45.07,201.92 43.34,203.43 41.61,204.93 39.49,205.81 37.37,206.68 35.08,206.83 32.79,206.99 30.58,206.40 28.36,205.81 26.45,204.55 24.53,203.28 23.12,201.47 21.72,199.66 20.96,197.50 20.20,195.34 20.17,193.04 20.14,190.75 20.85,188.57 21.56,186.39 22.92,184.54 24.29,182.70 26.17,181.39 28.06,180.08 28.05,180.08 28.05,180.09 31.60,178.31 35.14,176.54 38.56,173.81 41.98,171.08 46.17,167.37 50.36,163.67 54.60,159.58 58.85,155.49 63.00,151.49 67.16,147.49 71.29,145.59 75.42,143.68 75.75,148.57 76.08,153.45 73.30,149.22 70.51,145.00 67.61,139.67 64.72,134.34 62.94,129.28 61.16,124.22 59.06,120.08 56.96,115.95 54.23,111.67 51.49,107.40 48.58,103.20 45.66,99.00 42.66,94.70 39.65,90.40 36.98,85.73 34.31,81.07 30.80,74.48 27.29,67.89 25.15,63.54 23.01,59.20 20.59,54.42 18.17,49.63 15.48,44.74 12.79,39.84 9.52,34.51 6.24,29.18 2.67,23.33 -0.90,17.47 -4.75,11.08 -8.59,4.69 -9.03,3.59 -9.47,2.50 -9.63,1.33 -9.79,0.16 -9.67,-1.01 -9.54,-2.18 -9.14,-3.29 -8.74,-4.40 -8.09,-5.39 -7.43,-6.37 -6.56,-7.17 -5.69,-7.97 -4.66,-8.53 -3.62,-9.10 -2.48,-9.40 -1.34,-9.70 -0.15,-9.72 1.02,-9.74 2.17,-9.47 3.32,-9.21 4.37,-8.68 5.43,-8.15 6.32,-7.38 7.22,-6.61 7.91,-5.65 8.59,-4.69 8.59,-4.69 L 8.59,-4.69 Z"></path></g><g transform="translate(217.92295189991074 543.0477025042983) rotate(0 115.82299987815588 85.59056115315542)" stroke="none"><path fill="#1e1e1e" d="M 6.37,-3.69 Q 6.37,-3.69 10.53,4.05 14.70,11.80 19.18,18.31 23.66,24.82 28.58,31.11 33.50,37.41 38.32,43.19 43.14,48.96 47.69,54.37 52.23,59.77 56.67,65.06 61.11,70.35 66.88,77.72 72.65,85.08 78.48,92.31 84.32,99.54 88.41,103.63 92.49,107.72 98.20,112.80 103.92,117.88 108.20,121.52 112.49,125.15 116.14,128.17 119.79,131.19 123.11,134.61 126.43,138.04 129.47,141.75 132.51,145.46 135.21,148.78 137.90,152.09 140.75,155.39 143.60,158.69 139.70,156.25 135.79,153.82 140.84,153.78 145.89,153.74 150.97,154.12 156.06,154.50 161.91,155.14 167.76,155.78 173.58,156.33 179.39,156.88 184.74,157.37 190.09,157.86 194.36,158.12 198.64,158.38 205.24,158.64 211.85,158.91 217.17,158.77 222.49,158.64 226.11,157.98 229.73,157.33 231.28,157.52 232.83,157.71 234.29,158.27 235.75,158.82 237.04,159.71 238.33,160.60 239.36,161.77 240.40,162.94 241.12,164.33 241.85,165.71 242.22,167.23 242.60,168.75 242.59,170.31 242.59,171.88 242.22,173.39 241.84,174.91 241.11,176.29 240.39,177.68 239.35,178.85 238.31,180.02 237.02,180.90 235.74,181.79 234.27,182.35 232.81,182.90 231.26,183.09 229.71,183.27 225.26,181.50 220.81,179.73 219.53,178.06 218.26,176.39 217.59,174.40 216.92,172.41 216.92,170.31 216.92,168.21 217.58,166.22 218.25,164.24 219.52,162.56 220.79,160.89 222.53,159.71 224.26,158.53 226.28,157.97 228.31,157.41 230.40,157.52 232.50,157.63 234.45,158.41 236.40,159.18 238.00,160.54 239.60,161.90 240.68,163.70 241.76,165.49 242.22,167.54 242.67,169.59 242.44,171.68 242.22,173.76 241.34,175.67 240.46,177.57 239.02,179.10 237.57,180.62 235.72,181.61 233.87,182.59 231.80,182.93 229.73,183.27 227.66,182.93 225.58,182.60 223.73,181.61 221.87,180.63 220.43,179.11 218.99,177.59 218.10,175.68 217.22,173.78 216.99,171.69 216.77,169.61 217.22,167.56 217.67,165.51 218.75,163.71 219.83,161.91 221.43,160.55 223.02,159.19 224.97,158.41 226.92,157.64 229.02,157.52 231.11,157.41 233.14,157.97 235.16,158.53 232.44,157.93 229.73,157.33 231.28,157.52 232.83,157.71 234.29,158.27 235.75,158.82 237.04,159.71 238.33,160.60 239.36,161.77 240.40,162.94 241.12,164.33 241.85,165.71 242.22,167.23 242.59,168.75 242.59,170.31 242.59,171.87 242.22,173.39 241.84,174.91 241.11,176.29 240.39,177.68 239.35,178.85 238.31,180.02 237.02,180.90 235.74,181.79 234.28,182.34 232.81,182.90 231.26,183.09 229.71,183.27 229.05,183.65 228.39,184.03 223.83,183.76 219.26,183.49 214.76,183.17 210.26,182.85 203.68,182.26 197.11,181.66 192.76,181.36 188.41,181.05 183.25,180.78 178.10,180.50 172.13,180.42 166.16,180.33 160.45,180.21 154.74,180.10 150.29,179.99 145.83,179.88 139.81,179.79 133.79,179.69 128.68,177.22 123.57,174.75 120.97,171.00 118.36,167.25 115.62,162.95 112.88,158.65 110.39,154.18 107.91,149.72 104.65,145.62 101.39,141.53 98.55,137.92 95.70,134.31 91.52,128.96 87.34,123.61 84.74,120.24 82.14,116.88 78.47,112.21 74.81,107.54 68.65,100.50 62.50,93.46 56.31,86.34 50.11,79.21 45.89,73.75 41.66,68.28 37.39,62.73 33.12,57.18 28.35,51.25 23.59,45.33 18.31,38.86 13.04,32.38 7.99,25.50 2.94,18.62 -1.71,11.16 -6.37,3.69 -6.72,2.88 -7.07,2.06 -7.21,1.18 -7.36,0.31 -7.29,-0.57 -7.22,-1.45 -6.94,-2.30 -6.66,-3.14 -6.18,-3.89 -5.71,-4.64 -5.07,-5.26 -4.43,-5.88 -3.66,-6.32 -2.90,-6.77 -2.04,-7.02 -1.19,-7.26 -0.30,-7.30 0.57,-7.34 1.44,-7.16 2.31,-6.99 3.12,-6.61 3.92,-6.23 4.61,-5.67 5.30,-5.11 5.83,-4.40 6.37,-3.69 6.37,-3.69 L 6.37,-3.69 Z"></path></g><g transform="translate(305.95939795586224 544.0821999497678) rotate(0 -89.67149899545379 82.728213738519)" stroke="none"><path fill="#1e1e1e" d="M 10.35,0 Q 10.35,0 10.49,4.03 10.62,8.07 10.93,12.96 11.23,17.85 11.54,22.15 11.85,26.44 12.18,31.15 12.52,35.86 9.82,42.46 7.12,49.06 2.50,51.55 -2.11,54.04 -10.12,56.56 -18.14,59.08 -25.61,61.17 -33.09,63.26 -42.05,65.97 -51.01,68.68 -60.67,71.87 -70.33,75.07 -79.78,78.31 -89.23,81.56 -97.99,84.52 -106.75,87.49 -114.40,90.12 -122.05,92.76 -128.50,95.29 -134.96,97.82 -140.37,100.19 -145.78,102.55 -150.04,104.58 -154.30,106.61 -160.34,109.70 -166.38,112.78 -161.65,117.85 -156.93,122.92 -154.40,126.49 -151.87,130.07 -147.61,135.83 -143.35,141.59 -140.44,145.10 -137.53,148.61 -135.81,152.89 -134.10,157.17 -133.90,160.53 -133.70,163.88 -133.96,165.90 -134.23,167.91 -135.12,169.73 -136.01,171.55 -137.44,173.00 -138.87,174.44 -140.69,175.35 -142.50,176.26 -144.51,176.54 -146.52,176.82 -148.51,176.45 -150.51,176.08 -152.28,175.09 -154.05,174.10 -155.41,172.59 -156.78,171.09 -157.59,169.23 -158.40,167.37 -158.57,165.34 -158.74,163.32 -158.26,161.35 -157.78,159.38 -156.70,157.66 -155.61,155.95 -154.04,154.67 -152.46,153.39 -150.56,152.68 -148.66,151.97 -146.63,151.91 -144.60,151.85 -142.66,152.43 -140.71,153.02 -139.06,154.20 -137.41,155.37 -136.21,157.02 -135.02,158.66 -134.42,160.60 -133.81,162.53 -133.86,164.56 -133.91,166.59 -134.60,168.50 -135.29,170.41 -136.55,172.00 -137.82,173.58 -139.52,174.68 -141.23,175.78 -143.20,176.28 -145.16,176.78 -147.19,176.63 -149.21,176.47 -151.08,175.68 -152.95,174.88 -154.46,173.53 -155.98,172.18 -156.99,170.42 -157.99,168.66 -158.38,166.67 -158.77,164.68 -158.77,164.68 -158.77,164.68 -157.96,163.94 -157.15,163.19 -159.86,159.02 -162.57,154.84 -166.52,148.92 -170.47,143.00 -173.09,139.18 -175.70,135.36 -180.30,128.27 -184.90,121.18 -186.40,114.78 -187.89,108.37 -185.79,104.19 -183.68,100.00 -178.58,97.80 -173.49,95.60 -166.91,93.52 -160.34,91.45 -155.77,89.97 -151.21,88.49 -145.52,86.56 -139.84,84.64 -133.24,82.34 -126.64,80.03 -119.17,77.21 -111.70,74.38 -103.26,70.85 -94.82,67.32 -85.70,63.27 -76.58,59.22 -67.31,54.95 -58.04,50.68 -49.49,46.54 -40.94,42.41 -33.73,38.97 -26.52,35.53 -21.02,33.29 -15.52,31.05 -9.46,29.43 -3.41,27.80 -7.96,31.83 -12.52,35.86 -12.18,31.15 -11.85,26.44 -11.54,22.15 -11.23,17.85 -10.93,12.96 -10.62,8.07 -10.49,4.03 -10.35,0 -10.20,-1.23 -10.05,-2.47 -9.61,-3.64 -9.17,-4.81 -8.46,-5.84 -7.75,-6.86 -6.81,-7.69 -5.88,-8.52 -4.77,-9.10 -3.67,-9.68 -2.46,-9.98 -1.24,-10.28 0.00,-10.28 1.24,-10.28 2.46,-9.98 3.67,-9.68 4.77,-9.10 5.88,-8.52 6.81,-7.69 7.75,-6.86 8.46,-5.83 9.17,-4.81 9.61,-3.64 10.05,-2.47 10.20,-1.23 10.35,0.00 10.35,0.00 L 10.35,0 Z"></path></g><g transform="translate(292.1764383574477 129.73134871576565) rotate(323.11566432383484 -0.17232435863783735 0)" stroke="none"><path fill="#1e1e1e" d="M -0.19,8.93 Q -0.19,8.93 -1.62,8.69 -3.04,8.46 -4.32,7.78 -5.60,7.10 -6.59,6.06 -7.59,5.01 -8.19,3.70 -8.80,2.38 -8.95,0.95 -9.11,-0.48 -8.80,-1.89 -8.49,-3.30 -7.74,-4.54 -7.00,-5.78 -5.90,-6.71 -4.80,-7.65 -3.45,-8.18 -2.11,-8.72 -0.67,-8.80 0.76,-8.87 2.16,-8.49 3.55,-8.10 4.74,-7.29 5.94,-6.48 6.81,-5.33 7.69,-4.18 8.15,-2.81 8.61,-1.44 8.61,0.00 8.61,1.44 8.15,2.81 7.69,4.18 6.81,5.33 5.94,6.48 4.74,7.29 3.55,8.10 2.15,8.49 0.76,8.87 -0.67,8.80 -2.11,8.72 -3.46,8.18 -4.80,7.65 -5.90,6.71 -7.00,5.78 -7.75,4.54 -8.49,3.30 -8.80,1.89 -9.11,0.48 -8.95,-0.95 -8.80,-2.39 -8.19,-3.70 -7.58,-5.01 -6.59,-6.06 -5.60,-7.11 -4.32,-7.78 -3.04,-8.46 -1.62,-8.69 -0.19,-8.93 -0.19,-8.93 -0.19,-8.93 0.87,-8.82 1.94,-8.71 2.95,-8.35 3.97,-7.99 4.87,-7.40 5.77,-6.81 6.50,-6.02 7.23,-5.23 7.75,-4.29 8.28,-3.35 8.56,-2.31 8.84,-1.27 8.86,-0.19 8.88,0.88 8.65,1.93 8.42,2.98 7.94,3.94 7.46,4.91 6.76,5.73 6.07,6.55 5.19,7.18 4.32,7.81 3.32,8.22 2.32,8.62 1.26,8.77 0.19,8.93 -0.00,8.93 L -0.19,8.93 Z"></path></g><g transform="translate(362.2174714251111 86.40994169238309) rotate(323.11566432383484 0.00004999999999988347 0.00004999999998744897)" stroke="none"><path fill="#1e1e1e" d="M 6.28,-6.28 Q 6.28,-6.28 7.11,-5.11 7.95,-3.94 8.37,-2.57 8.80,-1.19 8.76,0.23 8.72,1.67 8.22,3.02 7.73,4.37 6.83,5.49 5.93,6.61 4.72,7.38 3.50,8.15 2.11,8.50 0.72,8.85 -0.71,8.73 -2.14,8.61 -3.46,8.05 -4.78,7.48 -5.85,6.52 -6.92,5.56 -7.63,4.31 -8.33,3.06 -8.60,1.65 -8.87,0.23 -8.68,-1.18 -8.49,-2.60 -7.85,-3.89 -7.21,-5.18 -6.19,-6.19 -5.18,-7.21 -3.89,-7.85 -2.60,-8.49 -1.18,-8.68 0.24,-8.87 1.65,-8.60 3.06,-8.33 4.31,-7.62 5.56,-6.92 6.52,-5.85 7.48,-4.78 8.05,-3.46 8.62,-2.14 8.73,-0.70 8.85,0.72 8.50,2.11 8.15,3.51 7.38,4.72 6.61,5.93 5.48,6.83 4.36,7.73 3.02,8.22 1.67,8.72 0.23,8.76 -1.20,8.80 -2.57,8.37 -3.94,7.95 -5.11,7.11 -6.28,6.27 -6.28,6.27 -6.28,6.28 -6.94,5.43 -7.60,4.59 -8.04,3.61 -8.48,2.64 -8.67,1.58 -8.86,0.53 -8.80,-0.53 -8.73,-1.60 -8.41,-2.62 -8.09,-3.64 -7.54,-4.56 -6.99,-5.47 -6.23,-6.23 -5.47,-6.99 -4.56,-7.54 -3.64,-8.10 -2.62,-8.41 -1.60,-8.73 -0.53,-8.80 0.53,-8.86 1.59,-8.67 2.64,-8.48 3.61,-8.04 4.59,-7.60 5.43,-6.94 6.28,-6.28 6.28,-6.28 L 6.28,-6.28 Z"></path></g><g transform="translate(394.6300250609582 130.82269442948098) rotate(318.50673884304206 -35.1793443986619 24.18299619170125)" stroke="none"><path fill="#1e1e1e" d="M 0.15,10.35 Q 0.15,10.35 -5.64,10.39 -11.44,10.42 -16.82,10.48 -22.20,10.54 -27.12,10.63 -32.03,10.71 -39.32,10.99 -46.62,11.27 -50.66,13.15 -54.70,15.03 -55.82,19.60 -56.94,24.16 -53.52,27.62 -50.10,31.07 -45.80,32.61 -41.50,34.16 -40.11,34.62 -38.72,35.08 -36.75,36.15 -34.79,37.21 -33.26,38.85 -31.74,40.49 -30.82,42.53 -29.90,44.57 -29.68,46.79 -29.46,49.02 -29.96,51.20 -30.46,53.37 -31.63,55.28 -32.81,57.19 -34.52,58.62 -36.24,60.05 -38.33,60.86 -40.41,61.66 -42.65,61.76 -44.88,61.86 -47.03,61.25 -49.18,60.63 -51.02,59.35 -52.86,58.08 -54.19,56.29 -55.53,54.50 -56.22,52.37 -56.92,50.24 -56.89,48.01 -56.87,45.77 -56.14,43.66 -55.40,41.55 -54.03,39.78 -52.66,38.01 -50.80,36.78 -48.94,35.54 -46.78,34.96 -44.62,34.38 -42.39,34.53 -40.15,34.67 -38.08,35.52 -36.02,36.36 -34.32,37.83 -32.63,39.29 -31.50,41.22 -30.37,43.15 -29.91,45.33 -29.45,47.52 -29.71,49.74 -29.97,51.96 -30.93,53.98 -31.89,56.00 -33.44,57.61 -35.00,59.22 -36.98,60.25 -38.97,61.28 -41.18,61.62 -43.39,61.96 -45.59,61.58 -47.80,61.19 -47.79,61.19 -47.79,61.19 -52.40,59.40 -57.02,57.61 -61.16,55.77 -65.31,53.94 -70.57,50.57 -75.84,47.21 -78.83,43.02 -81.82,38.82 -82.48,33.53 -83.13,28.25 -82.44,23.38 -81.76,18.51 -79.77,12.41 -77.79,6.31 -74.10,0.99 -70.41,-4.32 -64.83,-7.49 -59.26,-10.66 -52.95,-10.66 -46.64,-10.66 -39.37,-10.40 -32.10,-10.14 -27.22,-10.09 -22.35,-10.03 -17.05,-10.05 -11.75,-10.07 -5.95,-10.21 -0.15,-10.35 1.08,-10.22 2.32,-10.09 3.49,-9.66 4.67,-9.24 5.71,-8.55 6.74,-7.85 7.59,-6.93 8.43,-6.01 9.03,-4.91 9.62,-3.82 9.94,-2.61 10.26,-1.40 10.28,-0.15 10.30,1.09 10.02,2.30 9.74,3.52 9.17,4.63 8.61,5.75 7.80,6.70 6.98,7.64 5.96,8.37 4.95,9.09 3.79,9.55 2.63,10.01 1.39,10.18 0.15,10.35 0.15,10.35 L 0.15,10.35 Z"></path></g><g transform="translate(209.68722960967347 268.42142679410614) rotate(12.441209352523432 93.81004383748541 133.8680900856985)" stroke="none"><path d="M0.87 0.63 C7.15 0.41, 29.06 -0.84, 38.61 -1.14 C48.17 -1.44, 46.95 1.1, 58.21 -1.17 C69.47 -3.44, 95.88 -11.93, 106.17 -14.77 C116.46 -17.6, 116.3 -16.94, 119.93 -18.18 C123.57 -19.43, 126.94 -21.73, 127.97 -22.24 C129.01 -22.75, 126.35 -24.08, 126.14 -21.25 C125.92 -18.42, 125.08 -12.69, 126.67 -5.27 C128.26 2.15, 127.62 1.64, 135.67 23.28 C143.71 44.92, 163.14 98.08, 174.96 124.58 C186.77 151.07, 199.97 170.04, 206.55 182.25 C213.12 194.45, 212.1 191.41, 214.4 197.79 C216.71 204.16, 225.51 214.55, 220.37 220.5 C215.24 226.45, 192.05 230.16, 183.6 233.48 C175.16 236.8, 175.6 237.25, 169.7 240.43 C163.8 243.62, 155.72 248.96, 148.19 252.59 C140.66 256.23, 132.06 260.02, 124.52 262.24 C116.98 264.47, 113.24 264.8, 102.96 265.95 C92.68 267.11, 70.69 268.7, 62.83 269.16 C54.97 269.61, 71.01 264.9, 55.82 268.69 C40.64 272.48, -13.21 294.39, -28.28 291.89 C-43.36 289.4, -34.26 264.31, -34.64 253.72 C-35.03 243.14, -31.38 246.05, -30.59 228.37 C-29.8 210.7, -31.14 167.89, -29.91 147.69 C-28.69 127.48, -24.99 122.53, -23.23 107.14 C-21.48 91.74, -21.29 68.12, -19.37 55.32 C-17.44 42.51, -14.83 39.88, -11.69 30.32 C-8.55 20.76, -2.96 3.23, -0.55 -2.03" stroke="none" stroke-width="0" fill="#ffffff" fill-rule="evenodd"></path><path fill="#1e1e1e" d="M 0.10,-4.52 Q 0.10,-4.52 3.56,-4.38 7.02,-4.24 10.64,-4.10 14.27,-3.95 18.52,-3.63 22.77,-3.31 27.57,-2.95 32.38,-2.58 35.50,-2.60 38.62,-2.62 41.71,-2.89 44.81,-3.15 47.55,-3.46 50.29,-3.77 55.60,-4.63 60.91,-5.48 65.61,-6.25 70.31,-7.02 73.34,-7.78 76.36,-8.55 78.65,-9.22 80.94,-9.90 84.24,-10.93 87.54,-11.95 90.71,-13.26 93.88,-14.57 96.44,-15.45 99.01,-16.33 101.03,-16.98 103.06,-17.63 105.92,-18.79 108.79,-19.94 110.83,-20.82 112.87,-21.71 114.76,-22.72 116.65,-23.74 118.25,-25.83 119.85,-27.92 120.08,-28.10 120.31,-28.28 120.84,-28.94 121.37,-29.60 122.03,-30.11 122.70,-30.62 123.47,-30.96 124.24,-31.29 125.07,-31.44 125.90,-31.58 126.74,-31.52 127.58,-31.46 128.38,-31.20 129.18,-30.94 129.90,-30.50 130.61,-30.05 131.20,-29.45 131.79,-28.85 132.22,-28.13 132.64,-27.40 132.89,-26.60 133.13,-25.79 133.17,-24.95 133.21,-24.11 133.05,-23.28 132.89,-22.46 132.53,-21.69 132.18,-20.93 132.02,-18.10 131.87,-15.28 131.84,-12.43 131.81,-9.57 132.26,-5.09 132.70,-0.61 134.30,5.85 135.89,12.31 138.67,20.70 141.46,29.09 145.25,38.94 149.04,48.78 153.26,59.14 157.48,69.50 161.52,79.10 165.56,88.69 169.64,98.20 173.73,107.71 178.83,119.18 183.93,130.65 188.59,140.96 193.25,151.27 196.13,157.64 199.02,164.02 200.86,168.06 202.70,172.10 204.05,174.46 205.39,176.82 206.73,178.73 208.07,180.65 210.13,183.09 212.19,185.54 213.91,188.30 215.63,191.06 217.65,195.13 219.66,199.21 220.49,201.33 221.32,203.44 222.53,206.70 223.74,209.96 224.74,212.50 225.74,215.03 225.31,218.63 224.88,222.22 222.78,223.60 220.68,224.99 218.42,226.08 216.17,227.17 213.43,228.32 210.70,229.47 208.26,230.41 205.83,231.36 203.40,232.38 200.96,233.40 198.38,234.49 195.80,235.59 193.85,236.48 191.90,237.36 189.42,238.54 186.94,239.72 184.87,240.72 182.79,241.73 179.53,242.71 176.27,243.68 173.89,244.61 171.50,245.54 169.49,246.62 167.47,247.70 165.52,248.89 163.58,250.08 161.75,251.25 159.93,252.41 156.96,253.97 153.99,255.53 151.75,256.57 149.51,257.61 146.79,258.70 144.08,259.78 141.85,260.74 139.62,261.69 137.68,262.73 135.74,263.77 133.61,264.55 131.48,265.33 128.80,266.27 126.12,267.20 123.02,268.07 119.91,268.93 117.45,269.59 115.00,270.26 111.20,270.99 107.41,271.73 104.05,272.21 100.69,272.70 97.94,273.00 95.19,273.31 92.33,273.52 89.47,273.73 86.78,273.92 84.08,274.10 81.06,274.24 78.05,274.37 74.91,274.59 71.76,274.80 69.04,274.86 66.31,274.93 63.25,275.32 60.20,275.71 57.64,276.11 55.08,276.52 52.82,277.10 50.57,277.67 47.94,278.37 45.31,279.07 42.17,279.84 39.03,280.61 36.39,281.52 33.74,282.43 31.49,283.05 29.24,283.67 24.00,284.57 18.77,285.47 16.52,286.05 14.28,286.64 11.70,287.46 9.12,288.29 7.03,288.94 4.94,289.59 2.82,290.26 0.70,290.94 -4.06,291.93 -8.83,292.92 -12.12,293.83 -15.42,294.73 -17.89,295.64 -20.37,296.56 -22.73,297.29 -25.10,298.02 -29.27,297.76 -33.44,297.50 -35.35,295.11 -37.27,292.73 -37.38,289.81 -37.50,286.89 -37.32,280.78 -37.14,274.67 -37.24,271.46 -37.33,268.24 -37.49,265.68 -37.65,263.13 -38.01,259.41 -38.38,255.68 -38.56,253.12 -38.75,250.56 -38.87,246.87 -38.99,243.18 -39.06,240.56 -39.13,237.95 -39.19,235.48 -39.24,233.02 -39.21,229.75 -39.17,226.49 -38.84,221.58 -38.51,216.67 -37.88,211.01 -37.25,205.35 -36.74,200.64 -36.23,195.93 -35.85,189.39 -35.46,182.86 -35.12,178.22 -34.78,173.58 -34.60,169.84 -34.41,166.11 -34.36,162.98 -34.30,159.84 -34.40,157.61 -34.49,155.37 -34.55,151.42 -34.60,147.46 -34.41,145.06 -34.22,142.66 -33.94,139.94 -33.65,137.23 -32.83,132.52 -32.00,127.81 -31.40,123.83 -30.80,119.86 -30.23,115.84 -29.66,111.81 -29.08,107.92 -28.51,104.03 -28.01,100.67 -27.51,97.31 -27.17,94.58 -26.83,91.86 -26.61,89.70 -26.40,87.55 -25.92,83.87 -25.43,80.18 -25.05,76.55 -24.67,72.93 -24.17,68.76 -23.67,64.60 -23.32,62.20 -22.96,59.80 -22.45,57.22 -21.94,54.64 -21.11,51.54 -20.28,48.44 -19.53,45.54 -18.78,42.64 -18.25,39.84 -17.71,37.04 -17.33,34.93 -16.95,32.83 -16.24,29.93 -15.54,27.03 -14.48,23.58 -13.42,20.12 -11.66,16.40 -9.91,12.69 -9.11,10.41 -8.32,8.14 -7.60,5.64 -6.89,3.15 -6.08,-0.51 -5.27,-4.17 -5.02,-4.85 -4.76,-5.53 -4.35,-6.13 -3.94,-6.72 -3.40,-7.21 -2.86,-7.69 -2.22,-8.02 -1.57,-8.36 -0.87,-8.54 -0.17,-8.71 0.55,-8.71 1.27,-8.71 1.98,-8.54 2.68,-8.37 3.32,-8.03 3.97,-7.70 4.51,-7.22 5.05,-6.74 5.47,-6.14 5.88,-5.54 6.14,-4.87 6.39,-4.19 6.48,-3.47 6.57,-2.75 6.48,-2.03 6.40,-1.31 6.45,-1.55 6.49,-1.79 6.19,-0.86 5.88,0.05 5.29,0.83 4.70,1.60 3.90,2.15 3.10,2.70 2.16,2.96 1.22,3.22 0.25,3.17 -0.71,3.12 -1.62,2.77 -2.52,2.41 -3.26,1.78 -4.01,1.15 -4.51,0.32 -5.01,-0.50 -5.23,-1.45 -5.44,-2.40 -5.33,-3.37 -5.23,-4.34 -4.83,-5.22 -4.42,-6.10 -3.75,-6.81 -3.09,-7.52 -2.23,-7.98 -1.37,-8.44 -0.41,-8.60 0.54,-8.76 1.50,-8.60 2.46,-8.45 3.32,-7.99 4.18,-7.54 4.85,-6.83 5.53,-6.13 5.94,-5.25 6.35,-4.37 6.45,-3.40 6.56,-2.43 6.36,-1.48 6.15,-0.53 5.65,0.29 5.15,1.13 4.41,1.76 3.67,2.39 2.77,2.75 1.86,3.12 0.89,3.17 -0.07,3.23 -1.01,2.97 -1.94,2.71 -2.75,2.17 -3.56,1.62 -4.15,0.85 -4.74,0.08 -5.05,-0.83 -5.37,-1.76 -5.32,-2.96 -5.27,-4.17 -5.02,-4.85 -4.76,-5.53 -4.35,-6.13 -3.94,-6.72 -3.40,-7.21 -2.86,-7.69 -2.22,-8.02 -1.57,-8.36 -0.87,-8.54 -0.17,-8.71 0.55,-8.71 1.27,-8.71 1.98,-8.54 2.68,-8.37 3.32,-8.03 3.97,-7.70 4.51,-7.22 5.05,-6.74 5.46,-6.14 5.88,-5.55 6.14,-4.87 6.39,-4.19 6.48,-3.47 6.57,-2.75 6.48,-2.03 6.40,-1.31 6.04,0.40 5.68,2.13 4.78,4.52 3.88,6.91 2.89,9.35 1.91,11.80 1.06,14.14 0.20,16.49 -0.82,20.19 -1.85,23.90 -2.97,27.16 -4.08,30.41 -4.92,33.02 -5.76,35.62 -6.40,37.65 -7.04,39.67 -7.87,42.37 -8.71,45.06 -9.36,47.99 -10.01,50.92 -10.64,53.85 -11.26,56.78 -11.74,59.12 -12.21,61.45 -12.59,63.81 -12.97,66.16 -13.70,70.27 -14.42,74.37 -15.23,78.28 -16.03,82.18 -16.98,85.58 -17.92,88.98 -18.43,91.10 -18.94,93.23 -19.53,95.89 -20.13,98.56 -20.74,101.77 -21.35,104.97 -21.80,108.80 -22.24,112.62 -22.55,116.68 -22.86,120.74 -23.14,124.75 -23.42,128.76 -23.66,133.56 -23.90,138.36 -24.24,141.06 -24.57,143.77 -24.91,145.98 -25.25,148.19 -25.70,151.89 -26.15,155.59 -26.37,157.89 -26.58,160.19 -26.81,163.32 -27.04,166.44 -27.19,170.12 -27.33,173.80 -27.27,178.41 -27.21,183.01 -27.07,189.63 -26.92,196.25 -26.74,200.99 -26.56,205.72 -26.32,211.43 -26.09,217.14 -26.13,222.05 -26.17,226.96 -26.25,229.99 -26.33,233.02 -26.39,235.48 -26.44,237.94 -26.51,240.56 -26.58,243.17 -26.67,246.74 -26.76,250.31 -26.80,252.60 -26.85,254.88 -26.66,258.61 -26.47,262.35 -26.28,264.86 -26.08,267.38 -25.68,270.61 -25.28,273.84 -24.46,278.72 -23.64,283.61 -24.01,286.30 -24.37,288.99 -26.24,287.00 -28.10,285.01 -25.66,284.49 -23.21,283.98 -20.92,283.35 -18.62,282.72 -15.21,281.86 -11.80,281.01 -8.63,279.97 -5.46,278.92 -3.00,278.28 -0.55,277.63 2.44,276.87 5.44,276.12 8.17,275.36 10.90,274.61 13.19,273.92 15.48,273.23 20.70,271.51 25.92,269.79 28.31,269.13 30.70,268.46 33.08,267.69 35.47,266.92 38.43,266.11 41.39,265.29 44.34,264.51 47.30,263.72 49.89,263.13 52.48,262.54 55.11,262.09 57.73,261.65 60.65,261.19 63.56,260.73 65.69,260.77 67.82,260.81 70.39,260.80 72.96,260.79 75.32,260.65 77.68,260.51 80.39,260.37 83.11,260.23 85.78,260.05 88.45,259.86 91.15,259.65 93.85,259.44 96.30,259.18 98.75,258.91 101.59,258.46 104.43,258.01 106.66,257.43 108.89,256.84 111.07,256.28 113.25,255.71 115.89,254.95 118.52,254.18 120.66,253.58 122.80,252.98 125.26,252.17 127.73,251.37 129.83,250.66 131.93,249.95 134.72,248.72 137.50,247.50 139.97,246.60 142.45,245.70 145.08,244.64 147.71,243.59 150.30,242.23 152.89,240.88 154.75,239.79 156.61,238.69 158.78,237.46 160.96,236.22 164.37,234.65 167.79,233.07 170.20,232.32 172.60,231.57 176.02,230.54 179.44,229.50 181.77,228.59 184.10,227.69 187.44,226.25 190.79,224.80 193.30,223.53 195.82,222.26 198.31,221.01 200.81,219.76 204.79,217.97 208.77,216.18 210.82,215.38 212.88,214.58 214.95,213.87 217.02,213.16 215.21,214.34 213.39,215.52 212.75,213.03 212.10,210.54 210.95,206.99 209.81,203.44 208.99,201.44 208.16,199.43 206.66,196.16 205.15,192.90 204.10,190.54 203.05,188.18 202.13,186.25 201.21,184.32 200.38,181.93 199.56,179.53 198.62,176.97 197.68,174.42 195.79,170.39 193.90,166.37 190.95,160.02 188.00,153.67 183.24,143.39 178.48,133.11 173.25,121.67 168.01,110.23 163.75,100.78 159.49,91.33 155.21,81.81 150.92,72.29 146.37,62.02 141.81,51.74 137.54,41.93 133.27,32.12 129.83,23.67 126.39,15.23 123.92,8.43 121.44,1.63 119.96,-3.56 118.48,-8.76 118.07,-13.78 117.67,-18.79 117.92,-21.10 118.18,-23.41 119.25,-25.84 120.31,-28.28 120.84,-28.94 121.36,-29.60 122.03,-30.11 122.70,-30.62 123.47,-30.96 124.24,-31.29 125.07,-31.44 125.90,-31.58 126.74,-31.52 127.58,-31.46 128.38,-31.20 129.18,-30.94 129.90,-30.50 130.61,-30.05 131.20,-29.45 131.79,-28.85 132.22,-28.13 132.64,-27.40 132.88,-26.60 133.13,-25.79 133.17,-24.95 133.21,-24.11 133.05,-23.28 132.89,-22.46 132.54,-21.69 132.18,-20.93 132.31,-22.12 132.44,-23.30 131.09,-20.75 129.73,-18.21 128.10,-16.80 126.47,-15.40 124.54,-13.63 122.61,-11.86 120.12,-10.80 117.63,-9.74 115.42,-8.93 113.21,-8.12 111.03,-7.41 108.84,-6.70 106.56,-6.18 104.28,-5.65 102.04,-5.18 99.79,-4.70 97.22,-4.06 94.64,-3.43 92.23,-2.92 89.81,-2.42 86.41,-1.86 83.01,-1.29 80.66,-0.85 78.31,-0.41 75.19,0.28 72.08,0.99 67.41,2.29 62.74,3.58 56.73,4.73 50.71,5.89 47.70,5.71 44.69,5.53 41.55,5.16 38.42,4.79 35.25,4.59 32.08,4.40 27.33,4.36 22.58,4.32 18.35,4.42 14.12,4.53 10.47,4.54 6.81,4.56 3.35,4.54 -0.10,4.52 -0.64,4.44 -1.18,4.36 -1.68,4.16 -2.19,3.95 -2.63,3.63 -3.07,3.31 -3.43,2.90 -3.78,2.48 -4.02,1.99 -4.26,1.50 -4.38,0.97 -4.50,0.44 -4.49,-0.10 -4.47,-0.64 -4.33,-1.17 -4.19,-1.70 -3.92,-2.17 -3.66,-2.65 -3.29,-3.05 -2.92,-3.45 -2.46,-3.75 -2.01,-4.05 -1.49,-4.23 -0.98,-4.41 -0.43,-4.47 0.10,-4.52 0.10,-4.52 L 0.10,-4.52 Z"></path></g></svg>