<svg version="1.1" xmlns="http://www.w3.org/2000/svg" viewBox="0 0 464.44782798943163 632.591324463567" width="464.44782798943163" height="632.591324463567" class="excalidraw-svg">
  <!-- svg-source:excalidraw -->
  
  <defs>
    <style class="style-fonts">
      @font-face {
        font-family: "Virgil";
        src: url("https://excalidraw.com/Virgil.woff2");
      }
      @font-face {
        font-family: "Cascadia";
        src: url("https://excalidraw.com/Cascadia.woff2");
      }
      @font-face {
        font-family: "Assistant";
        src: url("https://excalidraw.com/Assistant-Regular.woff2");
      }
    </style>
    
  </defs>
  <g transform="translate(252.2274574746649 314.77064834286466) rotate(0 101.11018525738336 2.5337014371277746)" stroke="none"><path fill="#1e1e1e" d="M 2.60,-2.97 Q 2.60,-2.97 6.73,0.87 10.85,4.72 15.39,8.74 19.93,12.77 23.11,15.52 26.29,18.28 28.58,19.88 30.86,21.49 34.01,23.14 37.17,24.79 42.77,26.14 48.37,27.50 52.93,28.39 57.50,29.28 62.53,29.91 67.56,30.54 70.87,30.67 74.18,30.79 77.55,30.39 80.91,29.99 85.22,28.62 89.53,27.24 95.22,24.86 100.90,22.49 106.64,19.89 112.39,17.30 118.42,14.45 124.45,11.61 130.77,8.54 137.09,5.47 143.96,1.88 150.83,-1.71 157.46,-5.37 164.09,-9.02 168.97,-11.82 173.85,-14.62 177.62,-16.85 181.39,-19.09 184.39,-21.06 187.39,-23.03 189.49,-24.66 191.59,-26.29 194.22,-28.68 196.85,-31.07 198.42,-32.10 199.98,-33.12 200.62,-33.34 201.26,-33.56 201.94,-33.57 202.61,-33.57 203.25,-33.36 203.90,-33.15 204.44,-32.74 204.98,-32.33 205.36,-31.78 205.74,-31.22 205.93,-30.57 206.11,-29.92 206.08,-29.24 206.05,-28.57 205.80,-27.94 205.55,-27.31 205.12,-26.79 204.68,-26.27 204.11,-25.92 203.53,-25.57 202.87,-25.42 202.21,-25.27 201.54,-25.34 200.86,-25.41 200.25,-25.69 199.63,-25.97 199.14,-26.43 198.65,-26.89 198.33,-27.49 198.01,-28.08 197.89,-28.75 197.78,-29.42 197.89,-30.09 197.99,-30.75 198.31,-31.35 198.62,-31.95 199.11,-32.42 199.60,-32.89 200.21,-33.17 200.82,-33.46 201.49,-33.54 202.16,-33.62 202.82,-33.47 203.49,-33.33 204.07,-32.99 204.65,-32.64 205.09,-32.13 205.53,-31.62 205.78,-30.99 206.04,-30.36 206.08,-29.69 206.12,-29.01 205.94,-28.36 205.76,-27.71 205.39,-27.15 205.01,-26.58 204.47,-26.17 203.94,-25.76 203.94,-25.76 203.94,-25.76 202.87,-25.14 201.81,-24.51 198.54,-22.59 195.27,-20.68 192.85,-19.34 190.43,-18.00 187.28,-16.24 184.13,-14.48 180.34,-12.21 176.54,-9.94 171.64,-7.10 166.74,-4.26 160.07,-0.54 153.41,3.17 146.49,6.85 139.58,10.52 133.27,13.67 126.96,16.81 120.93,19.76 114.90,22.72 109.15,25.46 103.39,28.21 97.52,30.85 91.66,33.50 86.69,35.28 81.72,37.05 77.73,37.46 73.75,37.86 70.32,37.56 66.90,37.25 61.64,36.87 56.38,36.49 51.63,35.94 46.87,35.40 39.99,33.80 33.11,32.20 29.78,29.59 26.46,26.97 24.36,25.06 22.26,23.14 18.93,20.50 15.61,17.86 10.86,14.00 6.10,10.13 1.74,6.55 -2.60,2.97 -2.92,2.62 -3.24,2.26 -3.46,1.84 -3.69,1.42 -3.80,0.96 -3.92,0.49 -3.92,0.02 -3.93,-0.45 -3.81,-0.91 -3.70,-1.38 -3.48,-1.80 -3.26,-2.23 -2.95,-2.58 -2.64,-2.94 -2.24,-3.22 -1.85,-3.49 -1.41,-3.66 -0.96,-3.83 -0.49,-3.89 -0.02,-3.95 0.45,-3.90 0.92,-3.84 1.37,-3.68 1.82,-3.51 2.21,-3.24 2.60,-2.97 2.60,-2.97 L 2.60,-2.97 Z"></path></g><g transform="translate(224.59012340337716 20.57858930005915) rotate(0 -14.591633388976902 130.3585385322763)" stroke="none"><path fill="#1e1e1e" d="M 0.36,3.12 Q 0.36,3.12 -3.58,3.58 -7.54,4.04 -14.48,6.13 -21.42,8.22 -31.15,12.04 -40.87,15.85 -52.52,21.48 -64.17,27.11 -75.65,33.65 -87.13,40.19 -95.69,45.75 -104.25,51.32 -112.52,58.07 -120.79,64.81 -128.72,72.96 -136.64,81.11 -141.97,88.58 -147.30,96.04 -150.41,103.04 -153.53,110.03 -155.14,117.38 -156.75,124.72 -157.55,131.92 -158.35,139.12 -158.64,146.02 -158.94,152.91 -156.97,165.40 -155.00,177.89 -152.35,186.64 -149.70,195.39 -146.45,202.05 -143.20,208.70 -139.27,214.55 -135.34,220.40 -131.25,225.34 -127.16,230.28 -122.63,234.50 -118.09,238.73 -112.56,242.65 -107.02,246.58 -101.27,249.69 -95.51,252.81 -88.57,255.44 -81.63,258.07 -72.97,260.38 -64.32,262.70 -55.23,264.24 -46.14,265.78 -36.82,266.61 -27.50,267.43 -17.19,267.20 -6.88,266.97 6.34,263.54 19.56,260.11 35.56,252.51 51.55,244.91 62.31,238.27 73.06,231.63 80.72,225.34 88.38,219.04 95.72,209.06 103.06,199.07 107.86,190.66 112.66,182.24 115.95,174.29 119.24,166.34 121.53,158.30 123.82,150.25 125.28,142.07 126.75,133.89 127.65,125.64 128.54,117.39 129.07,110.09 129.60,102.80 129.78,96.65 129.97,90.51 129.63,84.95 129.28,79.39 128.30,74.62 127.32,69.85 125.90,65.63 124.48,61.41 122.68,57.62 120.89,53.83 116.84,48.12 112.79,42.41 108.67,37.76 104.54,33.12 100.02,29.12 95.51,25.12 91.19,21.85 86.87,18.57 83.27,16.05 79.68,13.52 76.11,11.28 72.53,9.04 69.16,7.21 65.79,5.39 62.36,3.80 58.93,2.22 55.52,0.93 52.12,-0.36 48.19,-1.65 44.27,-2.93 41.22,-3.51 38.18,-4.10 35.42,-4.47 32.67,-4.83 28.56,-5.48 24.44,-6.12 21.47,-6.27 18.49,-6.42 16.16,-6.41 13.82,-6.39 10.62,-6.19 7.42,-5.98 5.11,-5.70 2.81,-5.43 0.02,-3.61 -2.76,-1.79 -3.55,1.72 -4.34,5.23 -4.51,6.24 -4.68,7.24 -5.16,8.14 -5.64,9.04 -6.38,9.73 -7.12,10.43 -8.05,10.86 -8.97,11.28 -9.99,11.39 -11.00,11.49 -11.99,11.27 -12.99,11.04 -13.86,10.52 -14.73,9.99 -15.38,9.21 -16.04,8.43 -16.41,7.48 -16.79,6.53 -16.84,5.52 -16.89,4.50 -16.61,3.52 -16.34,2.54 -15.76,1.70 -15.19,0.86 -14.37,0.25 -13.56,-0.36 -12.59,-0.68 -11.63,-1.00 -10.61,-0.99 -9.59,-0.99 -8.62,-0.66 -7.66,-0.33 -6.85,0.28 -6.04,0.90 -5.48,1.74 -4.91,2.59 -4.64,3.57 -4.37,4.55 -4.43,5.57 -4.49,6.59 -4.87,7.53 -5.25,8.48 -5.92,9.25 -6.58,10.02 -7.45,10.54 -8.33,11.06 -9.32,11.28 -10.32,11.49 -11.33,11.38 -12.34,11.26 -13.27,10.83 -14.19,10.40 -14.92,9.70 -15.66,8.99 -16.13,8.09 -16.61,7.19 -16.77,6.19 -16.93,5.18 -16.93,5.18 -16.93,5.18 -16.89,3.18 -16.85,1.18 -16.39,-1.00 -15.92,-3.19 -14.70,-5.35 -13.47,-7.50 -11.42,-9.28 -9.36,-11.06 -6.25,-12.82 -3.14,-14.58 -0.33,-15.09 2.46,-15.59 5.03,-15.34 7.61,-15.08 10.98,-14.68 14.35,-14.28 16.77,-13.95 19.20,-13.61 22.23,-13.17 25.27,-12.74 29.66,-12.31 34.06,-11.89 36.90,-11.16 39.73,-10.44 42.88,-9.50 46.03,-8.55 50.23,-7.30 54.42,-6.04 57.94,-4.53 61.46,-3.02 65.01,-1.24 68.55,0.54 71.94,2.56 75.32,4.59 79.01,6.90 82.70,9.22 86.37,11.80 90.04,14.39 94.52,17.79 99.00,21.19 103.73,25.41 108.47,29.63 112.78,34.51 117.09,39.38 121.36,45.48 125.64,51.59 127.55,55.66 129.46,59.74 130.96,64.27 132.46,68.80 133.50,73.93 134.53,79.06 134.87,84.86 135.22,90.66 135.03,96.92 134.84,103.18 134.30,110.56 133.76,117.95 132.84,126.39 131.92,134.82 130.40,143.25 128.87,151.69 126.48,160.02 124.09,168.35 120.66,176.60 117.23,184.84 112.26,193.52 107.28,202.19 99.51,212.63 91.74,223.07 83.78,229.59 75.83,236.10 64.82,242.88 53.81,249.65 37.35,257.43 20.89,265.20 7.07,268.71 -6.73,272.22 -17.35,272.44 -27.96,272.67 -37.49,271.81 -47.02,270.96 -56.35,269.37 -65.67,267.77 -74.59,265.38 -83.50,262.98 -90.76,260.20 -98.02,257.43 -104.04,254.14 -110.06,250.86 -115.87,246.72 -121.68,242.57 -126.44,238.10 -131.21,233.63 -135.46,228.48 -139.71,223.33 -143.82,217.17 -147.93,211.01 -151.33,203.97 -154.74,196.92 -157.47,187.82 -160.20,178.71 -162.20,165.71 -164.20,152.71 -163.90,145.62 -163.60,138.53 -162.76,131.05 -161.92,123.58 -160.15,115.73 -158.38,107.88 -155.01,100.42 -151.65,92.96 -146.07,85.17 -140.49,77.38 -132.35,69.00 -124.21,60.63 -115.72,53.69 -107.24,46.75 -98.56,41.07 -89.88,35.38 -78.26,28.71 -66.64,22.04 -54.83,16.25 -43.01,10.47 -33.10,6.49 -23.19,2.50 -15.74,0.16 -8.29,-2.17 -4.33,-2.65 -0.36,-3.12 0.01,-3.12 0.39,-3.12 0.75,-3.03 1.12,-2.93 1.46,-2.76 1.79,-2.58 2.08,-2.33 2.36,-2.07 2.57,-1.76 2.79,-1.45 2.92,-1.09 3.05,-0.74 3.10,-0.36 3.14,0.01 3.10,0.38 3.05,0.76 2.91,1.11 2.78,1.47 2.56,1.78 2.34,2.09 2.06,2.34 1.77,2.59 1.44,2.77 1.10,2.94 0.73,3.03 0.36,3.12 0.36,3.12 L 0.36,3.12 Z"></path></g><g transform="translate(118.46288211316187 278.1974312911977) rotate(0 11.131815142594917 130.44510794089555)" stroke="none"><path fill="#1e1e1e" d="M 2.15,2.26 Q 2.15,2.26 -1.76,5.90 -5.67,9.54 -11.02,15.63 -16.37,21.72 -23.28,30.93 -30.19,40.13 -38.16,52.08 -46.12,64.03 -53.78,76.71 -61.44,89.39 -67.97,101.29 -74.50,113.18 -80.09,124.68 -85.68,136.17 -89.65,145.61 -93.61,155.04 -95.93,161.36 -98.24,167.67 -99.82,172.28 -101.39,176.88 -102.34,180.32 -103.29,183.77 -103.65,185.97 -104.02,188.17 -104.25,190.56 -104.49,192.95 -104.45,192.86 -104.41,192.77 -104.57,193.24 -104.73,193.71 -104.99,194.12 -105.26,194.54 -105.62,194.88 -105.98,195.22 -106.41,195.46 -106.84,195.71 -107.31,195.84 -107.79,195.97 -108.28,195.99 -108.78,196.01 -109.26,195.90 -109.74,195.80 -110.19,195.59 -110.63,195.37 -111.01,195.06 -111.39,194.74 -111.69,194.34 -111.98,193.95 -112.17,193.49 -112.36,193.03 -112.43,192.55 -112.51,192.06 -112.47,191.57 -112.42,191.07 -111.43,188.91 -110.44,186.76 -107.94,184.64 -105.43,182.52 -102.71,181.37 -100.00,180.21 -96.59,179.28 -93.19,178.35 -90.72,177.69 -88.26,177.04 -83.77,176.95 -79.27,176.86 -74.04,177.01 -68.81,177.17 -62.97,178.53 -57.13,179.88 -50.20,182.73 -43.28,185.58 -36.43,189.44 -29.58,193.29 -22.11,198.17 -14.65,203.05 -7.89,207.76 -1.12,212.47 8.51,219.73 18.14,226.99 24.93,232.33 31.72,237.67 36.27,241.35 40.81,245.03 44.60,248.18 48.38,251.33 50.58,252.84 52.77,254.34 55.70,255.22 58.64,256.10 63.02,256.01 67.41,255.93 70.96,255.37 74.51,254.80 78.82,253.53 83.13,252.26 87.37,250.38 91.61,248.51 94.60,246.80 97.60,245.10 99.55,243.62 101.50,242.14 105.17,238.73 108.83,235.32 113.63,228.72 118.42,222.12 120.84,217.75 123.26,213.39 124.55,208.51 125.84,203.64 126.43,199.09 127.01,194.55 127.28,188.75 127.55,182.95 127.68,176.15 127.81,169.35 127.87,161.86 127.93,154.37 127.97,147.26 128.00,140.15 127.95,133.40 127.91,126.66 127.79,119.82 127.68,112.99 127.53,106.72 127.38,100.45 127.19,95.55 127.01,90.66 126.67,87.17 126.33,83.69 125.94,81.06 125.54,78.42 124.91,75.24 124.27,72.07 123.46,68.54 122.65,65.02 121.95,61.44 121.25,57.86 120.89,55.66 120.54,53.47 120.33,50.88 120.13,48.29 120.09,45.27 120.06,42.26 120.12,38.98 120.18,35.70 120.20,32.65 120.22,29.60 120.20,27.18 120.17,24.77 120.28,22.38 120.38,19.98 120.53,17.75 120.68,15.52 120.81,12.10 120.95,8.69 120.98,7.12 121.02,5.56 121.22,4.67 121.41,3.77 121.89,2.99 122.36,2.20 123.05,1.61 123.75,1.01 124.60,0.67 125.45,0.33 126.37,0.28 127.28,0.23 128.16,0.48 129.04,0.72 129.80,1.23 130.56,1.74 131.12,2.47 131.67,3.20 131.97,4.07 132.26,4.94 132.26,5.85 132.26,6.77 131.97,7.64 131.68,8.50 131.13,9.23 130.57,9.96 129.82,10.48 129.06,10.99 128.18,11.24 127.29,11.49 126.38,11.44 125.47,11.39 124.61,11.05 123.76,10.71 123.07,10.12 122.37,9.53 121.89,8.75 121.42,7.96 121.22,7.07 121.02,6.17 121.12,5.26 121.22,4.35 121.60,3.52 121.99,2.69 122.62,2.02 123.24,1.36 124.05,0.93 124.86,0.50 125.77,0.35 126.67,0.20 127.57,0.35 128.48,0.49 129.29,0.92 130.10,1.35 130.73,2.01 131.36,2.68 131.74,3.51 132.13,4.34 132.23,5.25 132.33,6.16 132.33,6.16 132.33,6.16 132.20,7.81 132.07,9.47 131.65,12.99 131.23,16.50 130.77,20.71 130.32,24.92 130.22,27.24 130.13,29.56 130.18,32.59 130.22,35.61 130.34,38.82 130.45,42.03 130.55,44.82 130.64,47.62 130.75,49.85 130.85,52.09 131.08,54.26 131.30,56.42 131.58,60.01 131.85,63.59 132.14,67.48 132.44,71.36 132.34,74.66 132.25,77.96 132.23,80.66 132.20,83.37 132.25,86.91 132.29,90.45 132.49,95.39 132.68,100.32 132.84,106.61 133.00,112.89 133.13,119.75 133.26,126.61 133.33,133.39 133.39,140.16 133.38,147.28 133.38,154.41 133.35,161.92 133.32,169.44 133.24,176.31 133.16,183.18 132.94,189.21 132.72,195.25 132.16,200.19 131.59,205.12 130.16,210.70 128.74,216.27 126.25,221.08 123.76,225.90 118.76,233.11 113.76,240.33 109.75,244.43 105.74,248.54 103.36,249.90 100.98,251.25 97.76,252.96 94.54,254.66 90.02,256.96 85.50,259.26 80.79,261.04 76.08,262.82 71.85,263.77 67.63,264.72 64.40,264.70 61.16,264.69 58.64,264.17 56.12,263.64 52.43,261.45 48.74,259.25 46.83,257.37 44.93,255.50 41.16,252.39 37.38,249.29 32.85,245.66 28.31,242.04 21.53,236.78 14.75,231.52 5.16,224.39 -4.41,217.26 -11.16,212.69 -17.91,208.11 -25.26,203.47 -32.61,198.82 -39.18,195.32 -45.75,191.82 -52.19,189.39 -58.63,186.97 -63.68,186.05 -68.72,185.13 -73.69,185.45 -78.65,185.78 -82.31,186.26 -85.97,186.75 -88.19,187.21 -90.41,187.68 -95.31,189.29 -100.20,190.91 -102.30,191.84 -104.41,192.77 -104.57,193.24 -104.73,193.71 -104.99,194.12 -105.26,194.54 -105.62,194.88 -105.98,195.22 -106.41,195.46 -106.84,195.71 -107.31,195.84 -107.79,195.97 -108.28,195.99 -108.77,196.01 -109.26,195.90 -109.74,195.80 -110.19,195.59 -110.63,195.37 -111.01,195.06 -111.39,194.74 -111.69,194.34 -111.98,193.95 -112.17,193.49 -112.36,193.03 -112.43,192.55 -112.51,192.06 -112.47,191.57 -112.42,191.07 -112.32,190.92 -112.23,190.77 -111.38,188.57 -110.53,186.37 -109.69,184.19 -108.84,182.01 -107.62,178.59 -106.40,175.17 -104.81,170.51 -103.23,165.85 -100.88,159.41 -98.53,152.98 -94.52,143.40 -90.50,133.83 -84.87,122.21 -79.24,110.59 -72.68,98.58 -66.11,86.57 -58.42,73.77 -50.73,60.97 -42.72,48.87 -34.70,36.76 -27.72,27.35 -20.74,17.94 -15.27,11.57 -9.80,5.21 -5.98,1.47 -2.15,-2.26 -1.85,-2.48 -1.55,-2.71 -1.20,-2.85 -0.85,-3.00 -0.48,-3.06 -0.11,-3.12 0.26,-3.09 0.63,-3.05 0.99,-2.93 1.35,-2.81 1.66,-2.61 1.98,-2.41 2.24,-2.13 2.50,-1.86 2.69,-1.54 2.87,-1.21 2.98,-0.85 3.08,-0.48 3.09,-0.11 3.11,0.26 3.03,0.63 2.95,1.00 2.79,1.34 2.63,1.68 2.39,1.97 2.15,2.26 2.15,2.26 L 2.15,2.26 Z"></path></g><g transform="translate(109.32200548057108 276.376491306548) rotate(0 -38.582922840596694 -56.080841914786674)" stroke="none"><path fill="#1e1e1e" d="M 0.52,5.30 Q 0.52,5.30 -1.81,5.55 -4.14,5.81 -6.48,5.96 -8.82,6.11 -12.48,6.28 -16.14,6.46 -18.40,6.59 -20.67,6.71 -23.11,6.81 -25.56,6.91 -29.66,6.44 -33.75,5.98 -36.64,4.92 -39.52,3.87 -41.88,2.87 -44.23,1.86 -46.23,0.79 -48.23,-0.27 -51.33,-2.70 -54.42,-5.13 -56.31,-8.05 -58.19,-10.97 -58.95,-13.89 -59.72,-16.80 -60.77,-20.73 -61.83,-24.65 -62.62,-27.16 -63.41,-29.67 -64.26,-32.39 -65.11,-35.11 -66.03,-38.03 -66.94,-40.96 -67.88,-43.89 -68.83,-46.83 -69.77,-49.88 -70.70,-52.92 -71.59,-55.79 -72.47,-58.65 -73.31,-61.26 -74.15,-63.86 -74.93,-66.64 -75.72,-69.42 -76.39,-72.34 -77.07,-75.25 -77.64,-77.86 -78.21,-80.48 -78.66,-82.87 -79.10,-85.27 -79.75,-88.97 -80.39,-92.67 -80.79,-95.01 -81.18,-97.34 -81.39,-99.59 -81.61,-101.83 -81.91,-104.64 -82.22,-107.44 -82.62,-108.86 -83.02,-110.27 -83.21,-111.29 -83.39,-112.31 -83.24,-113.34 -83.09,-114.37 -82.62,-115.30 -82.15,-116.22 -81.41,-116.95 -80.67,-117.68 -79.73,-118.13 -78.80,-118.58 -77.77,-118.71 -76.74,-118.84 -75.72,-118.64 -74.70,-118.43 -73.80,-117.91 -72.90,-117.39 -72.21,-116.61 -71.53,-115.83 -71.13,-114.87 -70.72,-113.91 -70.65,-112.88 -70.58,-111.84 -70.84,-110.84 -71.10,-109.83 -71.67,-108.96 -72.23,-108.09 -73.05,-107.45 -73.87,-106.80 -74.84,-106.46 -75.82,-106.11 -76.86,-106.09 -77.90,-106.07 -78.89,-106.39 -79.88,-106.70 -80.72,-107.31 -81.56,-107.93 -82.15,-108.78 -82.75,-109.63 -83.05,-110.62 -83.34,-111.62 -83.30,-112.66 -83.27,-113.70 -82.90,-114.67 -82.53,-115.64 -81.87,-116.44 -81.21,-117.25 -80.33,-117.80 -79.45,-118.35 -78.44,-118.59 -77.43,-118.83 -76.40,-118.74 -75.36,-118.64 -74.41,-118.22 -73.46,-117.80 -72.69,-117.10 -71.93,-116.40 -71.42,-115.49 -70.92,-114.58 -70.92,-114.58 -70.92,-114.58 -70.12,-109.64 -69.32,-104.69 -69.48,-102.07 -69.63,-99.44 -69.56,-96.85 -69.49,-94.25 -69.13,-90.62 -68.76,-86.98 -68.45,-84.79 -68.14,-82.61 -67.63,-80.11 -67.12,-77.62 -66.46,-74.93 -65.81,-72.25 -65.06,-69.65 -64.31,-67.05 -63.46,-64.45 -62.62,-61.85 -61.67,-59.08 -60.72,-56.31 -59.64,-53.41 -58.56,-50.51 -57.42,-47.62 -56.28,-44.73 -55.14,-41.87 -54.00,-39.00 -52.97,-36.36 -51.94,-33.71 -50.92,-31.07 -49.89,-28.42 -48.97,-25.77 -48.04,-23.13 -47.38,-20.11 -46.71,-17.10 -45.60,-14.76 -44.50,-12.42 -42.06,-10.78 -39.62,-9.14 -37.61,-8.33 -35.61,-7.51 -33.39,-6.81 -31.17,-6.11 -28.37,-5.71 -25.57,-5.31 -22.17,-5.17 -18.76,-5.02 -15.86,-4.93 -12.96,-4.83 -9.08,-4.86 -5.19,-4.90 -2.86,-5.10 -0.52,-5.30 0.12,-5.28 0.76,-5.27 1.38,-5.10 2.00,-4.93 2.56,-4.62 3.12,-4.31 3.59,-3.87 4.06,-3.43 4.41,-2.90 4.77,-2.36 4.98,-1.76 5.19,-1.15 5.26,-0.51 5.32,0.12 5.23,0.75 5.14,1.39 4.89,1.98 4.65,2.58 4.28,3.10 3.90,3.62 3.41,4.03 2.92,4.45 2.34,4.73 1.77,5.02 1.14,5.16 0.52,5.30 0.52,5.30 L 0.52,5.30 Z"></path></g><g transform="translate(91.5313479933265 477.91833812030563) rotate(0 -35.58407609745203 52.2091240414386)" stroke="none"><path fill="#1e1e1e" d="M 2.93,2.13 Q 2.93,2.13 -1.06,7.40 -5.06,12.67 -11.41,20.76 -17.76,28.86 -23.03,35.74 -28.31,42.63 -34.75,51.76 -41.18,60.89 -45.45,67.14 -49.71,73.39 -52.88,78.21 -56.04,83.04 -58.28,86.67 -60.53,90.31 -61.95,93.06 -63.37,95.82 -64.66,98.99 -65.95,102.16 -66.50,102.47 -67.05,102.78 -67.32,103.25 -67.59,103.71 -67.97,104.10 -68.34,104.49 -68.80,104.77 -69.26,105.06 -69.77,105.23 -70.28,105.39 -70.81,105.44 -71.35,105.48 -71.88,105.39 -72.41,105.30 -72.91,105.09 -73.40,104.87 -73.83,104.55 -74.26,104.22 -74.60,103.80 -74.94,103.38 -75.17,102.90 -75.39,102.41 -75.50,101.88 -75.60,101.35 -75.58,100.82 -75.56,100.28 -75.40,99.76 -75.25,99.24 -75.33,99.47 -75.41,99.69 -75.09,99.04 -74.77,98.39 -74.25,97.88 -73.74,97.38 -73.09,97.06 -72.44,96.74 -71.73,96.65 -71.01,96.55 -70.30,96.69 -69.59,96.83 -68.97,97.19 -68.34,97.55 -67.86,98.09 -67.38,98.63 -67.09,99.29 -66.81,99.96 -66.76,100.68 -66.70,101.40 -66.88,102.10 -67.06,102.80 -67.45,103.40 -67.84,104.01 -68.40,104.46 -68.97,104.91 -69.65,105.16 -70.33,105.40 -71.05,105.42 -71.77,105.44 -72.46,105.22 -73.15,105.01 -73.74,104.58 -74.32,104.16 -74.74,103.57 -75.16,102.98 -75.37,102.29 -75.58,101.60 -75.56,100.88 -75.53,100.15 -75.28,99.48 -75.03,98.80 -74.57,98.24 -74.12,97.68 -73.51,97.29 -72.90,96.90 -72.20,96.73 -71.49,96.56 -70.77,96.62 -70.05,96.69 -69.39,96.97 -68.73,97.26 -68.19,97.75 -67.66,98.23 -67.30,98.86 -66.95,99.49 -66.82,100.20 -66.69,100.91 -66.87,101.85 -67.05,102.78 -67.32,103.25 -67.59,103.71 -67.97,104.10 -68.34,104.49 -68.80,104.77 -69.25,105.06 -69.77,105.23 -70.28,105.39 -70.81,105.44 -71.35,105.48 -71.88,105.39 -72.41,105.30 -72.91,105.09 -73.40,104.87 -73.83,104.55 -74.26,104.22 -74.60,103.80 -74.94,103.38 -75.17,102.90 -75.39,102.41 -75.50,101.88 -75.60,101.35 -75.58,100.82 -75.56,100.28 -75.40,99.76 -75.25,99.25 -74.63,99.70 -74.00,100.15 -72.61,98.14 -71.23,96.12 -69.98,94.38 -68.72,92.63 -66.96,90.04 -65.19,87.46 -62.94,83.74 -60.69,80.02 -57.55,75.12 -54.40,70.22 -50.18,63.89 -45.95,57.57 -39.54,48.28 -33.12,39.00 -27.94,32.01 -22.76,25.01 -16.62,16.87 -10.49,8.72 -6.71,3.29 -2.93,-2.13 -2.63,-2.45 -2.33,-2.77 -1.97,-3.00 -1.60,-3.24 -1.19,-3.39 -0.78,-3.53 -0.34,-3.58 0.08,-3.62 0.52,-3.55 0.95,-3.49 1.35,-3.33 1.76,-3.16 2.11,-2.90 2.46,-2.65 2.74,-2.31 3.03,-1.98 3.22,-1.59 3.41,-1.20 3.51,-0.77 3.60,-0.34 3.59,0.08 3.58,0.52 3.46,0.94 3.35,1.36 3.14,1.74 2.93,2.13 2.93,2.13 L 2.93,2.13 Z"></path></g><g transform="translate(152.19256631910832 525.2105553337132) rotate(0 0.1367794998927252 48.690384564926944)" stroke="none"><path fill="#1e1e1e" d="M 3.56,-0.07 Q 3.56,-0.07 3.54,5.11 3.51,10.30 3.47,16.44 3.42,22.58 3.37,28.33 3.32,34.08 3.28,40.32 3.23,46.56 3.20,53.17 3.17,59.77 3.14,65.03 3.12,70.28 3.10,74.60 3.08,78.92 3.24,82.34 3.39,85.75 3.55,88.27 3.71,90.79 3.75,94.08 3.79,97.38 3.66,97.99 3.54,98.61 3.22,99.15 2.91,99.69 2.44,100.11 1.97,100.52 1.39,100.76 0.81,101.01 0.18,101.05 -0.43,101.09 -1.04,100.94 -1.65,100.78 -2.17,100.43 -2.70,100.09 -3.09,99.60 -3.47,99.10 -3.68,98.51 -3.89,97.92 -3.90,97.29 -3.91,96.67 -3.72,96.07 -3.53,95.47 -3.16,94.97 -2.79,94.46 -2.28,94.10 -1.76,93.74 -1.16,93.56 -0.56,93.38 0.06,93.41 0.69,93.43 1.27,93.65 1.86,93.88 2.34,94.28 2.83,94.67 3.16,95.21 3.49,95.74 3.64,96.35 3.78,96.96 3.72,97.58 3.67,98.21 3.41,98.78 3.16,99.36 2.73,99.82 2.31,100.28 1.76,100.58 1.21,100.89 0.59,101.00 -0.02,101.11 -0.64,101.02 -1.26,100.93 -1.82,100.64 -2.37,100.36 -2.81,99.91 -3.25,99.46 -3.52,98.89 -3.80,98.33 -3.87,97.71 -3.95,97.08 -3.95,97.08 -3.95,97.08 -3.58,93.86 -3.20,90.64 -2.94,88.19 -2.67,85.75 -2.51,82.34 -2.36,78.92 -2.38,74.60 -2.40,70.28 -2.43,65.03 -2.46,59.77 -2.50,53.17 -2.54,46.57 -2.59,40.33 -2.65,34.10 -2.74,28.36 -2.82,22.63 -2.96,16.53 -3.10,10.43 -3.33,5.25 -3.56,0.07 -3.52,-0.35 -3.47,-0.78 -3.33,-1.18 -3.19,-1.59 -2.95,-1.95 -2.71,-2.31 -2.39,-2.60 -2.08,-2.89 -1.70,-3.10 -1.33,-3.30 -0.91,-3.41 -0.50,-3.53 -0.07,-3.53 0.35,-3.54 0.77,-3.45 1.19,-3.35 1.58,-3.16 1.96,-2.97 2.29,-2.69 2.62,-2.41 2.87,-2.06 3.12,-1.71 3.28,-1.32 3.44,-0.92 3.50,-0.49 3.56,-0.07 3.56,-0.07 L 3.56,-0.07 Z"></path></g><g transform="translate(157.6971705764537 102.18479039023674) rotate(0 -3.3132355479624493 14.196682647773116)" stroke="none"><path fill="#1e1e1e" d="M 0,4.84 Q 0,4.84 -3.21,4.79 -6.43,4.75 -8.87,4.81 -11.32,4.88 -14.57,5.68 -17.83,6.47 -19.46,8.50 -21.08,10.53 -21.62,13.23 -22.15,15.92 -22.16,19.29 -22.17,22.65 -21.44,26.11 -20.71,29.57 -19.24,31.39 -17.77,33.22 -15.86,34.24 -13.96,35.27 -11.73,35.81 -9.49,36.35 -7.10,36.43 -4.71,36.52 -2.51,35.96 -0.31,35.40 1.75,34.10 3.81,32.80 6.08,30.58 8.36,28.35 10.24,25.72 12.13,23.08 13.21,20.38 14.29,17.67 15.09,14.55 15.90,11.43 16.25,8.79 16.61,6.14 16.69,3.92 16.78,1.70 15.29,-1.51 13.80,-4.74 11.29,-6.03 8.77,-7.32 7.13,-7.73 5.48,-8.14 4.66,-8.48 3.84,-8.81 3.17,-9.39 2.50,-9.97 2.04,-10.73 1.59,-11.49 1.41,-12.36 1.22,-13.23 1.32,-14.11 1.42,-14.99 1.80,-15.79 2.18,-16.59 2.79,-17.23 3.40,-17.87 4.19,-18.28 4.98,-18.69 5.85,-18.83 6.73,-18.97 7.60,-18.82 8.48,-18.67 9.26,-18.25 10.04,-17.83 10.64,-17.18 11.25,-16.53 11.62,-15.73 11.98,-14.92 12.07,-14.04 12.16,-13.16 11.97,-12.29 11.77,-11.43 11.31,-10.67 10.85,-9.91 10.17,-9.34 9.49,-8.77 8.66,-8.45 7.84,-8.13 6.95,-8.09 6.07,-8.04 5.21,-8.29 4.36,-8.53 3.63,-9.03 2.90,-9.53 2.37,-10.24 1.84,-10.95 1.56,-11.79 1.28,-12.64 1.29,-13.52 1.29,-14.41 1.58,-15.25 1.87,-16.09 2.41,-16.79 2.95,-17.49 3.69,-17.98 4.42,-18.48 5.28,-18.71 6.14,-18.94 7.02,-18.89 7.91,-18.83 7.91,-18.83 7.90,-18.83 10.65,-17.96 13.40,-17.08 16.34,-15.09 19.28,-13.10 20.74,-11.30 22.19,-9.51 23.54,-6.71 24.89,-3.91 25.33,-0.74 25.78,2.42 25.44,4.99 25.09,7.56 24.51,10.51 23.93,13.46 23.00,17.18 22.08,20.89 20.59,24.38 19.09,27.87 16.85,31.17 14.61,34.47 11.58,37.64 8.56,40.81 5.15,42.68 1.75,44.55 -1.74,45.19 -5.25,45.82 -8.66,45.52 -12.07,45.21 -15.44,44.09 -18.81,42.97 -21.85,40.80 -24.90,38.63 -27.08,35.38 -29.27,32.12 -30.70,27.73 -32.13,23.34 -32.65,18.76 -33.17,14.19 -32.55,11.10 -31.92,8.00 -30.76,5.88 -29.59,3.76 -27.84,1.80 -26.09,-0.14 -23.71,-1.70 -21.33,-3.27 -18.69,-4.00 -16.06,-4.74 -13.69,-4.81 -11.32,-4.88 -8.87,-4.81 -6.43,-4.75 -3.21,-4.79 0,-4.84 0.57,-4.77 1.15,-4.70 1.70,-4.49 2.25,-4.28 2.73,-3.95 3.21,-3.62 3.59,-3.18 3.98,-2.75 4.25,-2.23 4.52,-1.71 4.66,-1.15 4.80,-0.58 4.80,0.00 4.80,0.58 4.66,1.15 4.52,1.71 4.25,2.23 3.98,2.75 3.59,3.18 3.21,3.62 2.73,3.95 2.25,4.28 1.70,4.49 1.15,4.70 0.57,4.77 -0.00,4.84 -0.00,4.84 L 0,4.84 Z"></path></g><g transform="translate(158.26457115544332 108.42646706428923) rotate(0 0 0.16607249108210453)" stroke="none"><path fill="#1e1e1e" d="M 4.48,0.19 Q 4.48,0.19 4.36,0.90 4.25,1.62 3.91,2.26 3.57,2.90 3.04,3.40 2.51,3.90 1.85,4.20 1.20,4.51 0.47,4.59 -0.24,4.67 -0.95,4.51 -1.66,4.35 -2.28,3.98 -2.90,3.61 -3.37,3.05 -3.84,2.50 -4.11,1.82 -4.38,1.15 -4.42,0.43 -4.46,-0.29 -4.26,-0.99 -4.07,-1.69 -3.66,-2.29 -3.25,-2.89 -2.67,-3.33 -2.10,-3.77 -1.41,-4.00 -0.72,-4.23 0.00,-4.23 0.72,-4.23 1.41,-4.00 2.10,-3.77 2.68,-3.33 3.25,-2.89 3.66,-2.29 4.07,-1.69 4.26,-0.99 4.46,-0.29 4.42,0.43 4.38,1.15 4.11,1.83 3.84,2.50 3.37,3.05 2.90,3.61 2.28,3.98 1.65,4.35 0.95,4.51 0.24,4.67 -0.47,4.59 -1.20,4.51 -1.86,4.20 -2.51,3.90 -3.04,3.40 -3.57,2.90 -3.91,2.26 -4.25,1.62 -4.36,0.90 -4.48,0.18 -4.48,0.19 -4.48,0.19 -4.44,-0.34 -4.40,-0.88 -4.23,-1.40 -4.06,-1.91 -3.77,-2.37 -3.48,-2.83 -3.09,-3.20 -2.70,-3.58 -2.23,-3.85 -1.76,-4.12 -1.24,-4.27 -0.73,-4.43 -0.18,-4.45 0.35,-4.47 0.88,-4.37 1.41,-4.26 1.90,-4.03 2.39,-3.80 2.81,-3.45 3.23,-3.11 3.55,-2.68 3.88,-2.25 4.09,-1.75 4.31,-1.25 4.39,-0.72 4.48,-0.19 4.48,0.00 L 4.48,0.19 Z"></path></g><g transform="translate(260.5449227406009 94.94112249681885) rotate(0 -4.93796482073995 25.301614797856843)" stroke="none"><path fill="#1e1e1e" d="M -0.85,5.03 Q -0.85,5.03 -3.03,4.72 -5.22,4.41 -8.74,4.35 -12.26,4.29 -16.27,4.33 -20.27,4.37 -24.03,5.11 -27.79,5.85 -31.08,8.22 -34.36,10.60 -36.59,14.31 -38.82,18.03 -39.53,20.45 -40.25,22.88 -40.65,25.61 -41.06,28.34 -41.23,31.31 -41.39,34.29 -40.97,37.43 -40.55,40.56 -39.15,43.79 -37.74,47.01 -35.55,49.70 -33.37,52.40 -30.68,54.46 -27.99,56.53 -24.77,58.13 -21.54,59.74 -17.55,60.92 -13.57,62.10 -8.88,62.68 -4.19,63.26 0.36,62.78 4.92,62.30 9.09,60.47 13.25,58.64 16.96,55.48 20.67,52.32 23.63,48.03 26.59,43.73 28.56,39.02 30.52,34.31 31.56,29.34 32.60,24.37 32.88,19.42 33.17,14.48 32.65,10.32 32.14,6.17 31.10,3.04 30.06,-0.07 28.98,-2.01 27.91,-3.95 25.17,-6.77 22.43,-9.60 19.53,-10.83 16.64,-12.06 15.98,-12.38 15.32,-12.71 14.80,-13.23 14.28,-13.75 13.96,-14.40 13.63,-15.06 13.53,-15.79 13.43,-16.52 13.57,-17.24 13.71,-17.96 14.07,-18.60 14.43,-19.24 14.97,-19.73 15.52,-20.22 16.19,-20.51 16.87,-20.81 17.60,-20.87 18.33,-20.93 19.04,-20.75 19.76,-20.57 20.38,-20.18 21.00,-19.78 21.46,-19.21 21.92,-18.64 22.17,-17.95 22.43,-17.26 22.45,-16.53 22.47,-15.79 22.25,-15.09 22.04,-14.39 21.61,-13.79 21.18,-13.19 20.59,-12.76 19.99,-12.34 19.29,-12.12 18.59,-11.90 17.85,-11.92 17.12,-11.94 16.43,-12.19 15.74,-12.45 15.17,-12.91 14.59,-13.37 14.20,-13.98 13.80,-14.60 13.62,-15.31 13.44,-16.03 13.50,-16.76 13.56,-17.49 13.85,-18.17 14.14,-18.84 14.63,-19.39 15.12,-19.94 15.76,-20.30 16.40,-20.66 17.12,-20.80 17.84,-20.94 18.57,-20.84 19.30,-20.74 19.30,-20.74 19.30,-20.74 23.88,-17.97 28.47,-15.21 30.05,-13.22 31.63,-11.24 32.91,-8.93 34.19,-6.62 34.98,-4.14 35.76,-1.67 36.60,1.92 37.43,5.52 37.98,10.15 38.52,14.78 38.21,20.13 37.89,25.47 36.73,30.94 35.57,36.41 33.36,41.64 31.16,46.87 27.76,51.74 24.35,56.61 20.00,60.27 15.64,63.93 10.65,66.09 5.67,68.26 0.42,68.89 -4.83,69.53 -10.06,69.05 -15.30,68.57 -19.97,67.41 -24.64,66.26 -28.60,64.42 -32.55,62.58 -35.93,60.03 -39.31,57.49 -42.27,54.11 -45.22,50.73 -47.47,46.48 -49.72,42.22 -50.53,38.11 -51.33,33.99 -51.28,30.50 -51.23,27.00 -50.82,23.51 -50.41,20.01 -49.46,16.60 -48.52,13.19 -47.00,10.16 -45.49,7.13 -43.57,4.68 -41.64,2.23 -39.27,0.24 -36.90,-1.73 -33.94,-3.36 -30.98,-4.99 -27.99,-5.80 -25.01,-6.61 -22.61,-6.76 -20.21,-6.91 -16.05,-6.78 -11.89,-6.66 -7.68,-6.27 -3.47,-5.89 -1.30,-5.46 0.85,-5.03 1.44,-4.86 2.03,-4.68 2.56,-4.37 3.09,-4.06 3.53,-3.63 3.98,-3.20 4.30,-2.67 4.63,-2.15 4.82,-1.57 5.01,-0.98 5.05,-0.37 5.10,0.24 5.00,0.84 4.89,1.45 4.65,2.02 4.40,2.58 4.03,3.07 3.65,3.56 3.17,3.95 2.69,4.33 2.14,4.59 1.58,4.85 0.97,4.97 0.37,5.09 -0.24,5.06 -0.85,5.03 -0.85,5.03 L -0.85,5.03 Z"></path></g><g transform="translate(253.08540115455128 108.22439893516355) rotate(0 0.15083028306617052 0.8262252846633231)" stroke="none"><path fill="#1e1e1e" d="M 4.31,-1.32 Q 4.31,-1.32 4.52,-0.86 4.73,-0.41 4.83,0.33 4.93,1.07 4.79,1.81 4.65,2.55 4.28,3.20 3.91,3.86 3.35,4.36 2.79,4.86 2.10,5.16 1.40,5.45 0.66,5.51 -0.08,5.58 -0.81,5.39 -1.54,5.21 -2.18,4.81 -2.81,4.40 -3.28,3.82 -3.75,3.23 -4.01,2.52 -4.27,1.82 -4.29,1.07 -4.31,0.32 -4.09,-0.39 -3.86,-1.11 -3.43,-1.72 -2.99,-2.33 -2.38,-2.77 -1.77,-3.21 -1.05,-3.43 -0.33,-3.65 0.41,-3.63 1.16,-3.61 1.87,-3.35 2.58,-3.09 3.16,-2.62 3.75,-2.14 4.15,-1.51 4.56,-0.88 4.74,-0.15 4.92,0.57 4.86,1.32 4.79,2.07 4.50,2.76 4.20,3.45 3.70,4.01 3.19,4.57 2.54,4.94 1.89,5.31 1.15,5.45 0.41,5.59 -0.33,5.49 -1.07,5.39 -1.74,5.05 -2.42,4.72 -2.95,4.18 -3.48,3.65 -3.81,2.98 -4.15,2.31 -4.15,2.31 -4.15,2.31 -4.23,1.81 -4.31,1.32 -4.40,0.78 -4.50,0.25 -4.46,-0.29 -4.43,-0.83 -4.26,-1.35 -4.10,-1.87 -3.82,-2.33 -3.53,-2.79 -3.15,-3.18 -2.76,-3.56 -2.29,-3.84 -1.83,-4.12 -1.31,-4.28 -0.79,-4.44 -0.24,-4.47 0.29,-4.50 0.82,-4.40 1.36,-4.29 1.85,-4.07 2.35,-3.84 2.77,-3.51 3.20,-3.17 3.53,-2.74 3.87,-2.31 4.09,-1.81 4.31,-1.32 4.31,-1.32 L 4.31,-1.32 Z"></path></g><g transform="translate(145.61795348660007 205.27892571390868) rotate(0 22.018818615065072 19.750522774079485)" stroke="none"><path fill="#1e1e1e" d="M -2.10,-3.93 Q -2.10,-3.93 0.83,-5.48 3.78,-7.03 6.10,-8.17 8.41,-9.31 11.44,-10.23 14.47,-11.15 18.69,-11.59 22.91,-12.03 27.13,-12.11 31.35,-12.20 34.77,-12.27 38.20,-12.34 41.37,-11.89 44.54,-11.44 47.38,-10.12 50.22,-8.79 52.70,-6.25 55.17,-3.72 56.97,0.32 58.77,4.37 59.66,8.65 60.55,12.94 60.73,16.85 60.90,20.77 60.29,24.52 59.67,28.27 58.49,31.55 57.31,34.83 55.69,37.63 54.07,40.44 52.03,42.75 49.99,45.06 47.94,46.72 45.88,48.37 43.06,49.59 40.23,50.80 36.71,51.41 33.19,52.02 28.96,51.52 24.73,51.01 20.18,48.77 15.63,46.53 11.39,42.91 7.15,39.30 3.64,35.23 0.13,31.16 -2.58,27.24 -5.30,23.32 -7.46,19.76 -9.61,16.19 -11.27,13.32 -12.92,10.44 -14.12,8.29 -15.33,6.13 -16.32,3.82 -17.31,1.50 -17.43,0.87 -17.56,0.23 -17.48,-0.40 -17.39,-1.04 -17.11,-1.62 -16.82,-2.20 -16.37,-2.66 -15.91,-3.13 -15.34,-3.42 -14.76,-3.71 -14.12,-3.80 -13.47,-3.89 -12.84,-3.77 -12.20,-3.65 -11.64,-3.34 -11.07,-3.02 -10.63,-2.54 -10.20,-2.07 -9.94,-1.47 -9.68,-0.88 -9.62,-0.23 -9.57,0.40 -9.72,1.03 -9.87,1.66 -10.22,2.21 -10.56,2.76 -11.07,3.16 -11.57,3.57 -12.17,3.80 -12.78,4.03 -13.43,4.05 -14.08,4.07 -14.70,3.88 -15.32,3.70 -15.84,3.32 -16.37,2.95 -16.75,2.43 -17.13,1.90 -17.33,1.28 -17.52,0.67 -17.51,0.02 -17.49,-0.62 -17.27,-1.23 -17.06,-1.84 -16.65,-2.35 -16.25,-2.85 -15.71,-3.20 -15.16,-3.56 -14.53,-3.72 -13.91,-3.88 -13.26,-3.83 -12.62,-3.78 -12.02,-3.53 -11.42,-3.27 -10.94,-2.85 -10.45,-2.42 -10.13,-1.85 -9.81,-1.29 -9.81,-1.29 -9.81,-1.29 -9.13,0.83 -8.46,2.97 -7.67,5.13 -6.88,7.30 -5.57,10.11 -4.26,12.93 -2.21,16.26 -0.15,19.59 2.50,23.11 5.16,26.63 8.48,30.12 11.79,33.62 15.42,36.42 19.05,39.21 22.46,40.61 25.87,42.01 28.79,42.30 31.70,42.60 34.30,42.17 36.90,41.74 40.23,40.30 43.57,38.86 45.19,37.36 46.82,35.86 48.22,33.83 49.63,31.79 50.70,29.30 51.78,26.81 52.37,23.93 52.95,21.05 52.84,17.89 52.73,14.73 51.83,11.31 50.94,7.90 49.60,5.05 48.27,2.21 45.58,-0.47 42.89,-3.17 40.58,-3.72 38.28,-4.28 35.04,-4.26 31.81,-4.24 27.97,-3.86 24.12,-3.48 20.56,-2.81 17.01,-2.14 14.58,-1.51 12.14,-0.89 10.04,-0.07 7.94,0.74 5.02,2.34 2.10,3.93 1.60,4.12 1.10,4.32 0.57,4.39 0.03,4.46 -0.49,4.40 -1.03,4.34 -1.53,4.15 -2.04,3.96 -2.48,3.66 -2.93,3.36 -3.29,2.96 -3.65,2.56 -3.90,2.09 -4.16,1.61 -4.29,1.09 -4.42,0.57 -4.43,0.03 -4.43,-0.50 -4.31,-1.02 -4.18,-1.54 -3.94,-2.02 -3.69,-2.50 -3.34,-2.91 -2.98,-3.31 -2.54,-3.62 -2.10,-3.93 -2.10,-3.93 L -2.10,-3.93 Z"></path></g></svg>