<svg version="1.1" xmlns="http://www.w3.org/2000/svg" viewBox="0 0 531.4162383673586 707.992804099818" width="531.4162383673586" height="707.992804099818" class="excalidraw-svg">
  <!-- svg-source:excalidraw -->
  
  <defs>
    <style class="style-fonts">
      @font-face {
        font-family: "Virgil";
        src: url("https://excalidraw.com/Virgil.woff2");
      }
      @font-face {
        font-family: "Cascadia";
        src: url("https://excalidraw.com/Cascadia.woff2");
      }
      @font-face {
        font-family: "Assistant";
        src: url("https://excalidraw.com/Assistant-Regular.woff2");
      }
    </style>
    
  </defs>
  <g transform="translate(164.7775396319083 265.1141351274397) rotate(16.705704269690266 93.8100438374854 133.86809008569853)" stroke="none"><path d="M2.42 1.65 C9.25 1.7, 31.49 -1.29, 40.94 -1.16 C50.39 -1.03, 48.16 4.38, 59.14 2.44 C70.11 0.49, 96.91 -9.55, 106.79 -12.84 C116.68 -16.13, 114.87 -15.38, 118.46 -17.32 C122.05 -19.26, 126.91 -23.98, 128.32 -24.46 C129.73 -24.94, 127.48 -23.51, 126.9 -20.19 C126.31 -16.88, 123.45 -12.26, 124.8 -4.57 C126.16 3.11, 126.62 4.5, 135.05 25.92 C143.48 47.34, 164.13 98.01, 175.37 123.93 C186.6 149.85, 196.13 168.8, 202.46 181.45 C208.78 194.09, 210.06 193.45, 213.32 199.8 C216.59 206.14, 226.99 213.52, 222.05 219.51 C217.11 225.5, 192.64 232.15, 183.68 235.72 C174.73 239.3, 174.14 238.38, 168.31 240.94 C162.49 243.51, 156.34 248.01, 148.72 251.11 C141.09 254.21, 129.9 257.22, 122.57 259.54 C115.24 261.87, 114.46 263.85, 104.75 265.06 C95.05 266.27, 72.43 265.77, 64.36 266.79 C56.29 267.8, 72.46 266.98, 56.33 271.16 C40.2 275.34, -17.77 295.22, -32.42 291.87 C-47.06 288.51, -31.4 261.94, -31.54 251.01 C-31.69 240.08, -33.78 243.23, -33.29 226.28 C-32.8 209.33, -29.87 169.22, -28.6 149.31 C-27.33 129.4, -27.46 121.79, -25.67 106.82 C-23.87 91.84, -20.65 72.39, -17.8 59.46 C-14.96 46.52, -11.56 39.72, -8.6 29.21 C-5.65 18.7, -1.25 1.66, -0.06 -3.61" stroke="none" stroke-width="0" fill="#ffffff" fill-rule="evenodd"></path><path fill="#1e1e1e" d="M 0.10,-4.52 Q 0.10,-4.52 3.56,-4.38 7.02,-4.24 10.64,-4.10 14.27,-3.95 18.52,-3.63 22.77,-3.31 27.57,-2.95 32.38,-2.58 35.50,-2.60 38.62,-2.62 41.71,-2.89 44.81,-3.15 47.55,-3.46 50.29,-3.77 55.60,-4.63 60.91,-5.48 65.61,-6.25 70.31,-7.02 73.34,-7.78 76.36,-8.55 78.65,-9.22 80.94,-9.90 84.24,-10.93 87.54,-11.95 90.71,-13.26 93.88,-14.57 96.44,-15.45 99.01,-16.33 101.03,-16.98 103.06,-17.63 105.92,-18.79 108.79,-19.94 110.83,-20.82 112.87,-21.71 114.76,-22.72 116.65,-23.74 118.25,-25.83 119.85,-27.92 120.08,-28.10 120.31,-28.28 120.84,-28.94 121.37,-29.60 122.03,-30.11 122.70,-30.62 123.47,-30.96 124.24,-31.29 125.07,-31.44 125.90,-31.58 126.74,-31.52 127.58,-31.46 128.38,-31.20 129.18,-30.94 129.90,-30.50 130.61,-30.05 131.20,-29.45 131.79,-28.85 132.22,-28.13 132.64,-27.40 132.89,-26.60 133.13,-25.79 133.17,-24.95 133.21,-24.11 133.05,-23.28 132.89,-22.46 132.53,-21.69 132.18,-20.93 132.02,-18.10 131.87,-15.28 131.84,-12.43 131.81,-9.57 132.26,-5.09 132.70,-0.61 134.30,5.85 135.89,12.31 138.67,20.70 141.46,29.09 145.25,38.94 149.04,48.78 153.26,59.14 157.48,69.50 161.52,79.10 165.56,88.69 169.64,98.20 173.73,107.71 178.83,119.18 183.93,130.65 188.59,140.96 193.25,151.27 196.13,157.64 199.02,164.02 200.86,168.06 202.70,172.10 204.05,174.46 205.39,176.82 206.73,178.73 208.07,180.65 210.13,183.09 212.19,185.54 213.91,188.30 215.63,191.06 217.65,195.13 219.66,199.21 220.49,201.33 221.32,203.44 222.53,206.70 223.74,209.96 224.74,212.50 225.74,215.03 225.31,218.63 224.88,222.22 222.78,223.60 220.68,224.99 218.42,226.08 216.17,227.17 213.43,228.32 210.70,229.47 208.26,230.41 205.83,231.36 203.40,232.38 200.96,233.40 198.38,234.49 195.80,235.59 193.85,236.48 191.90,237.36 189.42,238.54 186.94,239.72 184.87,240.72 182.79,241.73 179.53,242.71 176.27,243.68 173.89,244.61 171.50,245.54 169.49,246.62 167.47,247.70 165.52,248.89 163.58,250.08 161.75,251.25 159.93,252.41 156.96,253.97 153.99,255.53 151.75,256.57 149.51,257.61 146.79,258.70 144.08,259.78 141.85,260.74 139.62,261.69 137.68,262.73 135.74,263.77 133.61,264.55 131.48,265.33 128.80,266.27 126.12,267.20 123.02,268.07 119.91,268.93 117.45,269.59 115.00,270.26 111.20,270.99 107.41,271.73 104.05,272.21 100.69,272.70 97.94,273.00 95.19,273.31 92.33,273.52 89.47,273.73 86.78,273.92 84.08,274.10 81.06,274.24 78.05,274.37 74.91,274.59 71.76,274.80 69.04,274.86 66.31,274.93 63.25,275.32 60.20,275.71 57.64,276.11 55.08,276.52 52.82,277.10 50.57,277.67 47.94,278.37 45.31,279.07 42.17,279.84 39.03,280.61 36.39,281.52 33.74,282.43 31.49,283.05 29.24,283.67 24.00,284.57 18.77,285.47 16.52,286.05 14.28,286.64 11.70,287.46 9.12,288.29 7.03,288.94 4.94,289.59 2.82,290.26 0.70,290.94 -4.06,291.93 -8.83,292.92 -12.12,293.83 -15.42,294.73 -17.89,295.64 -20.37,296.56 -22.73,297.29 -25.10,298.02 -29.27,297.76 -33.44,297.50 -35.35,295.11 -37.27,292.73 -37.38,289.81 -37.50,286.89 -37.32,280.78 -37.14,274.67 -37.24,271.46 -37.33,268.24 -37.49,265.68 -37.65,263.13 -38.01,259.41 -38.38,255.68 -38.56,253.12 -38.75,250.56 -38.87,246.87 -38.99,243.18 -39.06,240.56 -39.13,237.95 -39.19,235.48 -39.24,233.02 -39.21,229.75 -39.17,226.49 -38.84,221.58 -38.51,216.67 -37.88,211.01 -37.25,205.35 -36.74,200.64 -36.23,195.93 -35.85,189.39 -35.46,182.86 -35.12,178.22 -34.78,173.58 -34.60,169.84 -34.41,166.11 -34.36,162.98 -34.30,159.84 -34.40,157.61 -34.49,155.37 -34.55,151.42 -34.60,147.46 -34.41,145.06 -34.22,142.66 -33.94,139.94 -33.65,137.23 -32.83,132.52 -32.00,127.81 -31.40,123.83 -30.80,119.86 -30.23,115.84 -29.66,111.81 -29.08,107.92 -28.51,104.03 -28.01,100.67 -27.51,97.31 -27.17,94.58 -26.83,91.86 -26.61,89.70 -26.40,87.55 -25.92,83.87 -25.43,80.18 -25.05,76.55 -24.67,72.93 -24.17,68.76 -23.67,64.60 -23.32,62.20 -22.96,59.80 -22.45,57.22 -21.94,54.64 -21.11,51.54 -20.28,48.44 -19.53,45.54 -18.78,42.64 -18.25,39.84 -17.71,37.04 -17.33,34.93 -16.95,32.83 -16.24,29.93 -15.54,27.03 -14.48,23.58 -13.42,20.12 -11.66,16.40 -9.91,12.69 -9.11,10.41 -8.32,8.14 -7.60,5.64 -6.89,3.15 -6.08,-0.51 -5.27,-4.17 -5.02,-4.85 -4.76,-5.53 -4.35,-6.13 -3.94,-6.72 -3.40,-7.21 -2.86,-7.69 -2.22,-8.02 -1.57,-8.36 -0.87,-8.54 -0.17,-8.71 0.55,-8.71 1.27,-8.71 1.98,-8.54 2.68,-8.37 3.32,-8.03 3.97,-7.70 4.51,-7.22 5.05,-6.74 5.47,-6.14 5.88,-5.54 6.14,-4.87 6.39,-4.19 6.48,-3.47 6.57,-2.75 6.48,-2.03 6.40,-1.31 6.45,-1.55 6.49,-1.79 6.19,-0.86 5.88,0.05 5.29,0.83 4.70,1.60 3.90,2.15 3.10,2.70 2.16,2.96 1.22,3.22 0.25,3.17 -0.71,3.12 -1.62,2.77 -2.52,2.41 -3.26,1.78 -4.01,1.15 -4.51,0.32 -5.01,-0.50 -5.23,-1.45 -5.44,-2.40 -5.33,-3.37 -5.23,-4.34 -4.83,-5.22 -4.42,-6.10 -3.75,-6.81 -3.09,-7.52 -2.23,-7.98 -1.37,-8.44 -0.41,-8.60 0.54,-8.76 1.50,-8.60 2.46,-8.45 3.32,-7.99 4.18,-7.54 4.85,-6.83 5.53,-6.13 5.94,-5.25 6.35,-4.37 6.45,-3.40 6.56,-2.43 6.36,-1.48 6.15,-0.53 5.65,0.29 5.15,1.13 4.41,1.76 3.67,2.39 2.77,2.75 1.86,3.12 0.89,3.17 -0.07,3.23 -1.01,2.97 -1.94,2.71 -2.75,2.17 -3.56,1.62 -4.15,0.85 -4.74,0.08 -5.05,-0.83 -5.37,-1.76 -5.32,-2.96 -5.27,-4.17 -5.02,-4.85 -4.76,-5.53 -4.35,-6.13 -3.94,-6.72 -3.40,-7.21 -2.86,-7.69 -2.22,-8.02 -1.57,-8.36 -0.87,-8.54 -0.17,-8.71 0.55,-8.71 1.27,-8.71 1.98,-8.54 2.68,-8.37 3.32,-8.03 3.97,-7.70 4.51,-7.22 5.05,-6.74 5.46,-6.14 5.88,-5.55 6.14,-4.87 6.39,-4.19 6.48,-3.47 6.57,-2.75 6.48,-2.03 6.40,-1.31 6.04,0.40 5.68,2.13 4.78,4.52 3.88,6.91 2.89,9.35 1.91,11.80 1.06,14.14 0.20,16.49 -0.82,20.19 -1.85,23.90 -2.97,27.16 -4.08,30.41 -4.92,33.02 -5.76,35.62 -6.40,37.65 -7.04,39.67 -7.87,42.37 -8.71,45.06 -9.36,47.99 -10.01,50.92 -10.64,53.85 -11.26,56.78 -11.74,59.12 -12.21,61.45 -12.59,63.81 -12.97,66.16 -13.70,70.27 -14.42,74.37 -15.23,78.28 -16.03,82.18 -16.98,85.58 -17.92,88.98 -18.43,91.10 -18.94,93.23 -19.53,95.89 -20.13,98.56 -20.74,101.77 -21.35,104.97 -21.80,108.80 -22.24,112.62 -22.55,116.68 -22.86,120.74 -23.14,124.75 -23.42,128.76 -23.66,133.56 -23.90,138.36 -24.24,141.06 -24.57,143.77 -24.91,145.98 -25.25,148.19 -25.70,151.89 -26.15,155.59 -26.37,157.89 -26.58,160.19 -26.81,163.32 -27.04,166.44 -27.19,170.12 -27.33,173.80 -27.27,178.41 -27.21,183.01 -27.07,189.63 -26.92,196.25 -26.74,200.99 -26.56,205.72 -26.32,211.43 -26.09,217.14 -26.13,222.05 -26.17,226.96 -26.25,229.99 -26.33,233.02 -26.39,235.48 -26.44,237.94 -26.51,240.56 -26.58,243.17 -26.67,246.74 -26.76,250.31 -26.80,252.60 -26.85,254.88 -26.66,258.61 -26.47,262.35 -26.28,264.86 -26.08,267.38 -25.68,270.61 -25.28,273.84 -24.46,278.72 -23.64,283.61 -24.01,286.30 -24.37,288.99 -26.24,287.00 -28.10,285.01 -25.66,284.49 -23.21,283.98 -20.92,283.35 -18.62,282.72 -15.21,281.86 -11.80,281.01 -8.63,279.97 -5.46,278.92 -3.00,278.28 -0.55,277.63 2.44,276.87 5.44,276.12 8.17,275.36 10.90,274.61 13.19,273.92 15.48,273.23 20.70,271.51 25.92,269.79 28.31,269.13 30.70,268.46 33.08,267.69 35.47,266.92 38.43,266.11 41.39,265.29 44.34,264.51 47.30,263.72 49.89,263.13 52.48,262.54 55.11,262.09 57.73,261.65 60.65,261.19 63.56,260.73 65.69,260.77 67.82,260.81 70.39,260.80 72.96,260.79 75.32,260.65 77.68,260.51 80.39,260.37 83.11,260.23 85.78,260.05 88.45,259.86 91.15,259.65 93.85,259.44 96.30,259.18 98.75,258.91 101.59,258.46 104.43,258.01 106.66,257.43 108.89,256.84 111.07,256.28 113.25,255.71 115.89,254.95 118.52,254.18 120.66,253.58 122.80,252.98 125.26,252.17 127.73,251.37 129.83,250.66 131.93,249.95 134.72,248.72 137.50,247.50 139.97,246.60 142.45,245.70 145.08,244.64 147.71,243.59 150.30,242.23 152.89,240.88 154.75,239.79 156.61,238.69 158.78,237.46 160.96,236.22 164.37,234.65 167.79,233.07 170.20,232.32 172.60,231.57 176.02,230.54 179.44,229.50 181.77,228.59 184.10,227.69 187.44,226.25 190.79,224.80 193.30,223.53 195.82,222.26 198.31,221.01 200.81,219.76 204.79,217.97 208.77,216.18 210.82,215.38 212.88,214.58 214.95,213.87 217.02,213.16 215.21,214.34 213.39,215.52 212.75,213.03 212.10,210.54 210.95,206.99 209.81,203.44 208.99,201.44 208.16,199.43 206.66,196.16 205.15,192.90 204.10,190.54 203.05,188.18 202.13,186.25 201.21,184.32 200.38,181.93 199.56,179.53 198.62,176.97 197.68,174.42 195.79,170.39 193.90,166.37 190.95,160.02 188.00,153.67 183.24,143.39 178.48,133.11 173.25,121.67 168.01,110.23 163.75,100.78 159.49,91.33 155.21,81.81 150.92,72.29 146.37,62.02 141.81,51.74 137.54,41.93 133.27,32.12 129.83,23.67 126.39,15.23 123.92,8.43 121.44,1.63 119.96,-3.56 118.48,-8.76 118.07,-13.78 117.67,-18.79 117.92,-21.10 118.18,-23.41 119.25,-25.84 120.31,-28.28 120.84,-28.94 121.36,-29.60 122.03,-30.11 122.70,-30.62 123.47,-30.96 124.24,-31.29 125.07,-31.44 125.90,-31.58 126.74,-31.52 127.58,-31.46 128.38,-31.20 129.18,-30.94 129.90,-30.50 130.61,-30.05 131.20,-29.45 131.79,-28.85 132.22,-28.13 132.64,-27.40 132.88,-26.60 133.13,-25.79 133.17,-24.95 133.21,-24.11 133.05,-23.28 132.89,-22.46 132.54,-21.69 132.18,-20.93 132.31,-22.12 132.44,-23.30 131.09,-20.75 129.73,-18.21 128.10,-16.80 126.47,-15.40 124.54,-13.63 122.61,-11.86 120.12,-10.80 117.63,-9.74 115.42,-8.93 113.21,-8.12 111.03,-7.41 108.84,-6.70 106.56,-6.18 104.28,-5.65 102.04,-5.18 99.79,-4.70 97.22,-4.06 94.64,-3.43 92.23,-2.92 89.81,-2.42 86.41,-1.86 83.01,-1.29 80.66,-0.85 78.31,-0.41 75.19,0.28 72.08,0.99 67.41,2.29 62.74,3.58 56.73,4.73 50.71,5.89 47.70,5.71 44.69,5.53 41.55,5.16 38.42,4.79 35.25,4.59 32.08,4.40 27.33,4.36 22.58,4.32 18.35,4.42 14.12,4.53 10.47,4.54 6.81,4.56 3.35,4.54 -0.10,4.52 -0.64,4.44 -1.18,4.36 -1.68,4.16 -2.19,3.95 -2.63,3.63 -3.07,3.31 -3.43,2.90 -3.78,2.48 -4.02,1.99 -4.26,1.50 -4.38,0.97 -4.50,0.44 -4.49,-0.10 -4.47,-0.64 -4.33,-1.17 -4.19,-1.70 -3.92,-2.17 -3.66,-2.65 -3.29,-3.05 -2.92,-3.45 -2.46,-3.75 -2.01,-4.05 -1.49,-4.23 -0.98,-4.41 -0.43,-4.47 0.10,-4.52 0.10,-4.52 L 0.10,-4.52 Z"></path></g><g transform="translate(206.63281726166957 17.090491367828577) rotate(0 68.56934954105742 117.41628741673793)" stroke="none"><path d="M7.36 0.76 C6.46 0.92, 5.26 0.2, 2.98 0.35 C0.7 0.5, -3.22 1.03, -6.31 1.68 C-9.39 2.32, -11.91 1.36, -15.53 4.2 C-19.16 7.05, -24.6 12.88, -28.08 18.74 C-31.56 24.6, -33.53 34.05, -36.44 39.39 C-39.35 44.73, -42.14 43.84, -45.55 50.78 C-48.95 57.72, -54.32 70.86, -56.86 81.04 C-59.41 91.22, -59.51 102.54, -60.81 111.86 C-62.11 121.18, -64.36 129.9, -64.67 136.94 C-64.99 143.99, -63.21 149.5, -62.69 154.1 C-62.18 158.7, -62.26 160.82, -61.58 164.56 C-60.9 168.3, -60.85 172.78, -58.62 176.55 C-56.4 180.32, -50.73 183.64, -48.22 187.18 C-45.7 190.73, -47.66 192.91, -43.54 197.83 C-39.41 202.75, -29.47 211.86, -23.45 216.69 C-17.43 221.52, -12.8 224.18, -7.42 226.82 C-2.04 229.46, 3.07 230.96, 8.82 232.52 C14.58 234.07, 19.15 235.05, 27.1 236.15 C35.05 237.25, 47.82 238.12, 56.52 239.14 C65.21 240.15, 72.68 242.03, 79.26 242.25 C85.84 242.48, 90.45 241.24, 95.99 240.48 C101.52 239.72, 103.74 240.57, 112.47 237.68 C121.21 234.8, 139.9 226.88, 148.4 223.18 C156.9 219.48, 158.9 218.15, 163.47 215.49 C168.05 212.83, 172.41 209.3, 175.85 207.22 C179.28 205.14, 182.12 205.03, 184.08 203.02 C186.03 201.01, 185.27 200.13, 187.58 195.17 C189.89 190.21, 195.78 181.11, 197.96 173.26 C200.14 165.4, 200.41 157.21, 200.66 148.04 C200.9 138.87, 200.09 128.66, 199.43 118.23 C198.76 107.81, 198.82 97.3, 196.64 85.48 C194.47 73.67, 189.48 54.92, 186.38 47.34 C183.29 39.76, 180.01 42.63, 178.08 39.98 C176.15 37.32, 178.53 34.8, 174.8 31.4 C171.07 28, 161.11 23.44, 155.71 19.59 C150.32 15.74, 149.85 11.89, 142.41 8.31 C134.96 4.73, 120.49 0.19, 111.07 -1.88 C101.65 -3.96, 92.4 -3.63, 85.89 -4.14 C79.38 -4.65, 79.47 -4.49, 72.04 -4.95 C64.6 -5.41, 48.31 -7.34, 41.3 -6.92 C34.28 -6.5, 35.9 -4.43, 29.94 -2.42 C23.97 -0.4, 9.82 3.9, 5.51 5.16" stroke="none" stroke-width="0" fill="#ffffff" fill-rule="evenodd"></path><path fill="#1e1e1e" d="M 7.54,11.60 Q 7.54,11.60 4.75,11.40 1.96,11.20 -3.05,14.48 -8.08,17.77 -11.10,20.78 -14.12,23.79 -19.26,30.55 -24.40,37.31 -27.97,43.00 -31.54,48.68 -34.66,54.69 -37.78,60.69 -40.52,67.13 -43.26,73.57 -45.63,80.53 -48.01,87.49 -49.80,94.53 -51.59,101.58 -52.59,107.99 -53.59,114.41 -54.27,121.40 -54.94,128.40 -55.19,135.77 -55.43,143.14 -54.72,149.35 -54.01,155.56 -52.46,161.13 -50.90,166.69 -48.47,171.86 -46.04,177.04 -42.79,182.11 -39.55,187.18 -35.70,191.76 -31.85,196.34 -27.58,200.35 -23.30,204.37 -17.99,208.36 -12.67,212.36 -5.75,216.47 1.16,220.58 9.01,223.80 16.87,227.01 24.10,228.91 31.32,230.82 39.04,232.00 46.76,233.18 55.93,233.99 65.10,234.79 73.89,234.73 82.69,234.67 90.71,233.72 98.74,232.76 112.65,228.29 126.57,223.82 137.00,219.74 147.44,215.67 154.31,212.12 161.18,208.57 165.80,204.92 170.42,201.27 173.63,197.50 176.85,193.73 179.14,189.86 181.44,185.98 183.12,181.79 184.80,177.60 186.08,172.83 187.36,168.06 188.36,162.45 189.35,156.84 190.62,145.28 191.89,133.72 192.47,124.34 193.04,114.96 192.93,106.72 192.83,98.49 189.07,84.56 185.31,70.64 182.14,61.82 178.96,53.01 175.64,47.41 172.33,41.82 168.91,37.98 165.49,34.15 161.90,31.28 158.32,28.41 154.44,26.04 150.57,23.66 146.48,21.67 142.38,19.67 138.14,18.07 133.90,16.47 129.26,14.97 124.63,13.47 119.99,12.10 115.35,10.72 110.90,9.62 106.46,8.52 100.04,6.97 93.62,5.41 88.90,4.72 84.19,4.04 76.88,3.83 69.58,3.62 63.06,3.81 56.54,4.01 51.53,4.49 46.53,4.98 41.79,6.16 37.04,7.34 32.59,8.72 28.14,10.09 23.24,11.98 18.35,13.87 12.84,16.29 7.33,18.72 5.32,19.05 3.31,19.38 1.30,19.05 -0.70,18.72 -2.50,17.76 -4.30,16.81 -5.70,15.33 -7.11,13.85 -7.96,12.00 -8.82,10.15 -9.04,8.12 -9.26,6.10 -8.82,4.11 -8.38,2.12 -7.33,0.37 -6.28,-1.37 -4.73,-2.69 -3.17,-4.00 -1.28,-4.76 0.60,-5.51 2.64,-5.62 4.67,-5.73 6.64,-5.19 8.60,-4.64 10.29,-3.50 11.97,-2.36 13.21,-0.73 14.44,0.88 15.09,2.81 15.74,4.74 15.74,6.78 15.74,8.82 15.09,10.75 14.44,12.68 13.21,14.30 11.97,15.93 10.29,17.07 8.60,18.21 6.63,18.76 4.67,19.30 2.64,19.19 0.60,19.08 -1.28,18.33 -3.18,17.57 -4.73,16.25 -6.28,14.93 -7.33,13.19 -8.38,11.44 -8.82,9.45 -9.26,7.46 -9.04,5.43 -8.82,3.41 -7.96,1.56 -7.11,-0.28 -5.70,-1.76 -4.30,-3.24 -2.50,-4.19 -0.70,-5.15 -0.70,-5.15 -0.70,-5.15 0.63,-5.63 1.97,-6.11 6.09,-7.55 10.22,-8.99 15.51,-10.62 20.80,-12.25 29.67,-14.81 38.55,-17.36 44.37,-17.79 50.18,-18.21 56.76,-17.97 63.34,-17.73 71.12,-17.13 78.90,-16.53 83.22,-15.88 87.53,-15.23 92.53,-14.22 97.53,-13.22 104.66,-11.93 111.79,-10.64 116.58,-9.17 121.38,-7.70 126.17,-5.99 130.96,-4.28 136.06,-2.30 141.16,-0.33 146.04,2.00 150.91,4.34 155.56,7.22 160.20,10.09 164.58,13.58 168.96,17.06 172.88,21.26 176.81,25.45 180.24,30.56 183.67,35.67 186.91,42.23 190.16,48.79 193.77,58.04 197.38,67.28 201.72,82.56 206.07,97.84 206.70,106.58 207.32,115.31 207.42,125.08 207.51,134.85 207.04,147.49 206.56,160.13 205.21,166.70 203.87,173.26 201.81,179.05 199.76,184.83 196.95,189.90 194.13,194.98 190.53,199.40 186.92,203.82 182.32,207.80 177.73,211.79 172.01,215.27 166.30,218.75 158.91,222.35 151.51,225.96 140.78,230.26 130.04,234.56 115.13,239.40 100.21,244.24 91.57,245.37 82.93,246.50 73.58,246.80 64.24,247.09 54.61,246.58 44.97,246.07 36.46,244.99 27.95,243.91 20.01,241.89 12.08,239.88 3.10,236.81 -5.86,233.74 -14.14,229.72 -22.42,225.69 -28.75,221.15 -35.09,216.60 -39.95,211.79 -44.81,206.98 -49.22,201.48 -53.64,195.99 -57.39,189.86 -61.13,183.72 -63.86,177.20 -66.59,170.69 -68.14,163.91 -69.70,157.14 -70.30,150.05 -70.91,142.96 -70.96,135.03 -71.02,127.09 -70.50,119.47 -69.99,111.85 -68.90,104.90 -67.81,97.95 -66.30,90.25 -64.79,82.55 -62.82,74.76 -60.86,66.97 -58.42,59.63 -55.99,52.29 -53.15,45.38 -50.31,38.47 -46.97,31.46 -43.63,24.45 -40.25,19.25 -36.87,14.05 -33.84,10.60 -30.80,7.16 -27.23,3.55 -23.66,-0.04 -20.32,-2.82 -16.98,-5.61 -10.39,-8.22 -3.80,-10.84 0.52,-10.40 4.85,-9.97 7.59,-9.42 10.33,-8.86 11.54,-8.55 12.74,-8.23 13.84,-7.64 14.93,-7.04 15.85,-6.20 16.77,-5.36 17.46,-4.33 18.16,-3.29 18.58,-2.12 19.00,-0.95 19.14,0.28 19.27,1.52 19.10,2.75 18.93,3.99 18.47,5.15 18.01,6.30 17.29,7.32 16.57,8.33 15.62,9.14 14.68,9.96 13.57,10.52 12.46,11.08 11.24,11.36 10.03,11.64 8.78,11.62 7.54,11.60 7.54,11.60 L 7.54,11.60 Z"></path></g><g transform="translate(296.9824782411826 95.9901334928926) rotate(0 -0.17232435863783735 0)" stroke="none"><path fill="#1e1e1e" d="M -0.19,8.93 Q -0.19,8.93 -1.62,8.69 -3.04,8.46 -4.32,7.78 -5.60,7.10 -6.59,6.06 -7.59,5.01 -8.19,3.70 -8.80,2.38 -8.95,0.95 -9.11,-0.48 -8.80,-1.89 -8.49,-3.30 -7.74,-4.54 -7.00,-5.78 -5.90,-6.71 -4.80,-7.65 -3.45,-8.18 -2.11,-8.72 -0.67,-8.80 0.76,-8.87 2.16,-8.49 3.55,-8.10 4.74,-7.29 5.94,-6.48 6.81,-5.33 7.69,-4.18 8.15,-2.81 8.61,-1.44 8.61,0.00 8.61,1.44 8.15,2.81 7.69,4.18 6.81,5.33 5.94,6.48 4.74,7.29 3.55,8.10 2.15,8.49 0.76,8.87 -0.67,8.80 -2.11,8.72 -3.46,8.18 -4.80,7.65 -5.90,6.71 -7.00,5.78 -7.75,4.54 -8.49,3.30 -8.80,1.89 -9.11,0.48 -8.95,-0.95 -8.80,-2.39 -8.19,-3.70 -7.58,-5.01 -6.59,-6.06 -5.60,-7.11 -4.32,-7.78 -3.04,-8.46 -1.62,-8.69 -0.19,-8.93 -0.19,-8.93 -0.19,-8.93 0.87,-8.82 1.94,-8.71 2.95,-8.35 3.97,-7.99 4.87,-7.40 5.77,-6.81 6.50,-6.02 7.23,-5.23 7.75,-4.29 8.28,-3.35 8.56,-2.31 8.84,-1.27 8.86,-0.19 8.88,0.88 8.65,1.93 8.42,2.98 7.94,3.94 7.46,4.91 6.76,5.73 6.07,6.55 5.19,7.18 4.32,7.81 3.32,8.22 2.32,8.62 1.26,8.77 0.19,8.93 -0.00,8.93 L -0.19,8.93 Z"></path></g><g transform="translate(378.97175881332834 103.48174657888342) rotate(0 0.00004999999998744897 0.00004999999998744897)" stroke="none"><path fill="#1e1e1e" d="M 6.28,-6.28 Q 6.28,-6.28 7.11,-5.11 7.95,-3.94 8.37,-2.57 8.80,-1.19 8.76,0.23 8.72,1.67 8.22,3.02 7.73,4.37 6.83,5.49 5.93,6.61 4.72,7.38 3.50,8.15 2.11,8.50 0.72,8.85 -0.71,8.73 -2.14,8.61 -3.46,8.05 -4.78,7.48 -5.85,6.52 -6.92,5.56 -7.63,4.31 -8.33,3.06 -8.60,1.65 -8.87,0.23 -8.68,-1.18 -8.49,-2.60 -7.85,-3.89 -7.21,-5.18 -6.19,-6.19 -5.18,-7.21 -3.89,-7.85 -2.60,-8.49 -1.18,-8.68 0.24,-8.87 1.65,-8.60 3.06,-8.33 4.31,-7.62 5.56,-6.92 6.52,-5.85 7.48,-4.78 8.05,-3.46 8.62,-2.14 8.73,-0.70 8.85,0.72 8.50,2.11 8.15,3.51 7.38,4.72 6.61,5.93 5.48,6.83 4.36,7.73 3.02,8.22 1.67,8.72 0.23,8.76 -1.20,8.80 -2.57,8.37 -3.94,7.95 -5.11,7.11 -6.28,6.27 -6.28,6.27 -6.28,6.28 -6.94,5.43 -7.60,4.59 -8.04,3.61 -8.48,2.64 -8.67,1.58 -8.86,0.53 -8.80,-0.53 -8.73,-1.60 -8.41,-2.62 -8.09,-3.64 -7.54,-4.56 -6.99,-5.47 -6.23,-6.23 -5.47,-6.99 -4.56,-7.54 -3.64,-8.10 -2.62,-8.41 -1.60,-8.73 -0.53,-8.80 0.53,-8.86 1.59,-8.67 2.64,-8.48 3.61,-8.04 4.59,-7.60 5.43,-6.94 6.28,-6.28 6.28,-6.28 L 6.28,-6.28 Z"></path></g><g transform="translate(353.2439732580071 164.45145000362595) rotate(0 -35.1793443986619 24.18299619170125)" stroke="none"><path fill="#1e1e1e" d="M 0.15,10.35 Q 0.15,10.35 -5.64,10.39 -11.44,10.42 -16.82,10.48 -22.20,10.54 -27.12,10.63 -32.03,10.71 -39.32,10.99 -46.62,11.27 -50.66,13.15 -54.70,15.03 -55.82,19.60 -56.94,24.16 -53.52,27.62 -50.10,31.07 -45.80,32.61 -41.50,34.16 -40.11,34.62 -38.72,35.08 -36.75,36.15 -34.79,37.21 -33.26,38.85 -31.74,40.49 -30.82,42.53 -29.90,44.57 -29.68,46.79 -29.46,49.02 -29.96,51.20 -30.46,53.37 -31.63,55.28 -32.81,57.19 -34.52,58.62 -36.24,60.05 -38.33,60.86 -40.41,61.66 -42.65,61.76 -44.88,61.86 -47.03,61.25 -49.18,60.63 -51.02,59.35 -52.86,58.08 -54.19,56.29 -55.53,54.50 -56.22,52.37 -56.92,50.24 -56.89,48.01 -56.87,45.77 -56.14,43.66 -55.40,41.55 -54.03,39.78 -52.66,38.01 -50.80,36.78 -48.94,35.54 -46.78,34.96 -44.62,34.38 -42.39,34.53 -40.15,34.67 -38.08,35.52 -36.02,36.36 -34.32,37.83 -32.63,39.29 -31.50,41.22 -30.37,43.15 -29.91,45.33 -29.45,47.52 -29.71,49.74 -29.97,51.96 -30.93,53.98 -31.89,56.00 -33.44,57.61 -35.00,59.22 -36.98,60.25 -38.97,61.28 -41.18,61.62 -43.39,61.96 -45.59,61.58 -47.80,61.19 -47.79,61.19 -47.79,61.19 -52.40,59.40 -57.02,57.61 -61.16,55.77 -65.31,53.94 -70.57,50.57 -75.84,47.21 -78.83,43.02 -81.82,38.82 -82.48,33.53 -83.13,28.25 -82.44,23.38 -81.76,18.51 -79.77,12.41 -77.79,6.31 -74.10,0.99 -70.41,-4.32 -64.83,-7.49 -59.26,-10.66 -52.95,-10.66 -46.64,-10.66 -39.37,-10.40 -32.10,-10.14 -27.22,-10.09 -22.35,-10.03 -17.05,-10.05 -11.75,-10.07 -5.95,-10.21 -0.15,-10.35 1.08,-10.22 2.32,-10.09 3.49,-9.66 4.67,-9.24 5.71,-8.55 6.74,-7.85 7.59,-6.93 8.43,-6.01 9.03,-4.91 9.62,-3.82 9.94,-2.61 10.26,-1.40 10.28,-0.15 10.30,1.09 10.02,2.30 9.74,3.52 9.17,4.63 8.61,5.75 7.80,6.70 6.98,7.64 5.96,8.37 4.95,9.09 3.79,9.55 2.63,10.01 1.39,10.18 0.15,10.35 0.15,10.35 L 0.15,10.35 Z"></path></g><g transform="translate(196.3717612386228 238.852449767817) rotate(0 12.824493128814282 81.76721714186607)" stroke="none"><path fill="#1e1e1e" d="M 8.66,2.29 Q 8.66,2.29 6.73,9.07 4.79,15.85 2.57,22.73 0.34,29.61 -2.26,37.00 -4.87,44.39 -7.78,52.60 -10.70,60.81 -12.57,67.54 -14.44,74.28 -15.39,79.14 -16.34,84.01 -16.85,89.69 -17.36,95.38 -12.82,99.41 -8.28,103.44 -3.62,107.43 1.03,111.42 6.43,115.97 11.83,120.52 17.12,124.65 22.40,128.77 27.10,132.18 31.80,135.59 35.55,138.14 39.31,140.68 43.81,143.56 48.31,146.45 51.99,148.98 55.68,151.51 57.47,152.84 59.26,154.17 60.54,155.51 61.82,156.86 62.61,158.55 63.39,160.23 63.59,162.08 63.80,163.92 63.40,165.74 63.00,167.55 62.05,169.15 61.09,170.74 59.68,171.95 58.26,173.15 56.54,173.84 54.81,174.53 52.96,174.64 51.10,174.74 49.31,174.24 47.52,173.75 45.98,172.71 44.44,171.67 43.32,170.19 42.19,168.71 41.59,166.95 41.00,165.19 41.00,163.34 40.99,161.48 41.58,159.72 42.17,157.96 43.30,156.47 44.42,154.99 45.96,153.95 47.49,152.90 49.28,152.40 51.07,151.90 52.93,152.00 54.78,152.10 56.51,152.79 58.24,153.47 59.65,154.67 61.07,155.87 62.03,157.46 62.99,159.05 63.39,160.87 63.80,162.68 63.60,164.53 63.40,166.38 62.62,168.07 61.84,169.75 60.57,171.10 59.29,172.45 57.65,173.33 56.01,174.20 54.18,174.50 52.34,174.80 50.51,174.51 48.68,174.21 47.03,173.34 45.39,172.47 45.39,172.47 45.39,172.47 43.47,170.95 41.55,169.43 38.52,166.40 35.50,163.36 31.59,160.00 27.68,156.63 24.10,153.82 20.51,151.00 15.81,147.53 11.11,144.06 5.47,140.11 -0.16,136.16 -6.17,131.96 -12.19,127.76 -17.21,123.91 -22.23,120.06 -25.67,117.05 -29.12,114.04 -32.76,109.18 -36.40,104.32 -35.90,98.34 -35.40,92.37 -33.60,86.17 -31.81,79.97 -30.22,75.09 -28.62,70.21 -26.60,63.37 -24.58,56.53 -22.34,48.04 -20.11,39.54 -17.99,32.08 -15.87,24.61 -13.94,18.00 -12.01,11.40 -10.34,4.55 -8.66,-2.29 -8.26,-3.29 -7.86,-4.30 -7.23,-5.18 -6.60,-6.05 -5.78,-6.76 -4.96,-7.46 -3.99,-7.94 -3.03,-8.43 -1.97,-8.67 -0.92,-8.91 0.15,-8.89 1.23,-8.87 2.27,-8.60 3.32,-8.32 4.27,-7.80 5.21,-7.28 6.01,-6.55 6.81,-5.82 7.40,-4.92 8.00,-4.02 8.37,-3.01 8.73,-1.99 8.85,-0.91 8.96,0.15 8.81,1.22 8.66,2.29 8.66,2.29 L 8.66,2.29 Z"></path></g><g transform="translate(338.61643399491817 265.26033996973297) rotate(0 91.39990218622023 11.513348382159961)" stroke="none"><path fill="#1e1e1e" d="M 7.09,-7.24 Q 7.09,-7.24 11.23,-3.14 15.37,0.95 19.50,6.05 23.63,11.15 27.36,16.44 31.09,21.72 34.37,26.51 37.66,31.30 40.39,35.27 43.12,39.23 46.99,44.59 50.85,49.95 54.22,54.18 57.59,58.40 61.40,51.46 65.20,44.52 81.91,32.27 98.62,20.03 111.60,10.98 124.57,1.93 134.27,-4.49 143.96,-10.93 150.86,-15.45 157.76,-19.97 162.14,-23.26 166.51,-26.54 170.50,-29.81 174.49,-33.08 173.40,-37.99 172.31,-42.89 172.67,-44.53 173.02,-46.17 173.88,-47.62 174.74,-49.06 176.01,-50.15 177.29,-51.25 178.85,-51.88 180.41,-52.51 182.08,-52.60 183.76,-52.70 185.38,-52.26 187.00,-51.82 188.40,-50.88 189.79,-49.94 190.81,-48.61 191.84,-47.28 192.38,-45.69 192.92,-44.10 192.93,-42.42 192.94,-40.74 192.41,-39.14 191.88,-37.55 190.87,-36.21 189.86,-34.87 188.47,-33.92 187.09,-32.97 185.47,-32.51 183.85,-32.06 182.17,-32.14 180.50,-32.22 178.93,-32.84 177.37,-33.45 176.08,-34.54 174.80,-35.62 173.93,-37.05 173.05,-38.49 172.69,-40.13 172.32,-41.77 172.49,-43.44 172.67,-45.11 173.36,-46.64 174.06,-48.16 175.21,-49.39 176.36,-50.61 177.85,-51.41 179.33,-52.20 180.98,-52.48 182.64,-52.76 184.30,-52.49 185.96,-52.23 187.45,-51.45 188.93,-50.67 190.09,-49.45 191.25,-48.24 191.97,-46.72 192.68,-45.19 192.87,-43.52 193.06,-41.86 193.06,-41.86 193.06,-41.86 192.83,-40.35 192.60,-38.85 191.31,-31.71 190.02,-24.57 186.97,-21.48 183.93,-18.39 179.40,-16.16 174.88,-13.92 170.25,-11.25 165.63,-8.57 159.05,-3.78 152.46,1.01 143.35,7.95 134.24,14.89 122.04,24.62 109.83,34.35 93.95,47.62 78.08,60.89 71.41,67.11 64.74,73.33 59.13,76.03 53.51,78.73 49.29,77.99 45.06,77.26 41.25,73.43 37.44,69.61 35.10,65.64 32.77,61.66 29.50,55.95 26.23,50.24 23.81,46.31 21.40,42.38 18.29,37.78 15.17,33.18 11.70,28.46 8.22,23.75 4.75,19.54 1.28,15.33 -2.90,11.29 -7.09,7.24 -7.85,6.29 -8.61,5.34 -9.13,4.23 -9.64,3.12 -9.88,1.92 -10.11,0.72 -10.05,-0.49 -9.99,-1.71 -9.64,-2.88 -9.29,-4.06 -8.67,-5.11 -8.04,-6.16 -7.19,-7.03 -6.34,-7.91 -5.30,-8.55 -4.26,-9.20 -3.09,-9.57 -1.93,-9.95 -0.71,-10.04 0.50,-10.12 1.70,-9.92 2.91,-9.71 4.03,-9.22 5.15,-8.73 6.12,-7.99 7.09,-7.24 7.09,-7.24 L 7.09,-7.24 Z"></path></g><g transform="translate(161.06475210438242 504.26139189450896) rotate(0 -73.47558090608743 38.01899726366949)" stroke="none"><path fill="#1e1e1e" d="M 9.36,2.23 Q 9.36,2.23 6.59,11.38 3.82,20.53 1.28,28.38 -1.26,36.22 -3.04,42.62 -4.81,49.02 -5.93,53.99 -7.05,58.95 -8.65,65.54 -10.26,72.12 -15.82,77.75 -21.38,83.38 -25.97,84.54 -30.57,85.69 -35.57,86.12 -40.58,86.55 -46.25,86.64 -51.91,86.73 -58.62,86.21 -65.33,85.70 -73.23,83.48 -81.13,81.26 -89.19,76.94 -97.26,72.61 -104.68,67.02 -112.11,61.44 -118.18,56.08 -124.25,50.72 -128.89,46.18 -133.52,41.64 -137.11,37.62 -140.70,33.60 -143.33,30.18 -145.97,26.77 -149.26,21.52 -152.55,16.27 -154.87,10.90 -157.19,5.52 -157.31,3.81 -157.43,2.10 -156.99,0.44 -156.56,-1.21 -155.62,-2.64 -154.68,-4.08 -153.33,-5.14 -151.98,-6.20 -150.36,-6.77 -148.75,-7.34 -147.03,-7.37 -145.32,-7.40 -143.68,-6.87 -142.05,-6.35 -140.67,-5.34 -139.29,-4.32 -138.30,-2.91 -137.32,-1.51 -136.83,0.13 -136.35,1.77 -136.41,3.49 -136.48,5.20 -137.09,6.80 -137.70,8.41 -138.79,9.73 -139.88,11.06 -141.34,11.96 -142.79,12.87 -144.46,13.27 -146.13,13.66 -147.84,13.50 -149.55,13.34 -151.12,12.65 -152.68,11.95 -153.95,10.79 -155.21,9.63 -156.04,8.13 -156.86,6.62 -157.17,4.93 -157.47,3.25 -157.22,1.55 -156.97,-0.14 -156.19,-1.67 -155.41,-3.19 -154.18,-4.39 -152.95,-5.59 -151.41,-6.34 -149.86,-7.08 -148.16,-7.29 -146.46,-7.50 -144.78,-7.16 -143.10,-6.82 -141.61,-5.96 -140.13,-5.09 -139.00,-3.80 -137.87,-2.51 -137.21,-0.93 -136.55,0.64 -136.55,0.64 -136.55,0.64 -136.35,1.48 -136.14,2.32 -134.68,7.03 -133.21,11.74 -130.38,17.38 -127.54,23.02 -124.82,26.84 -122.11,30.66 -118.24,34.94 -114.38,39.23 -108.81,43.86 -103.25,48.48 -96.42,52.65 -89.59,56.81 -82.95,59.58 -76.30,62.35 -70.22,63.64 -64.14,64.93 -58.27,65.09 -52.39,65.24 -47.19,65.09 -41.98,64.93 -34.97,64.98 -27.96,65.04 -25.69,59.73 -23.41,54.43 -21.80,49.51 -20.18,44.59 -18.29,38.26 -16.40,31.93 -14.54,24.26 -12.69,16.59 -11.02,7.17 -9.36,-2.23 -8.96,-3.32 -8.56,-4.41 -7.90,-5.37 -7.25,-6.33 -6.39,-7.11 -5.52,-7.88 -4.50,-8.43 -3.48,-8.98 -2.35,-9.26 -1.23,-9.55 -0.06,-9.56 1.09,-9.56 2.22,-9.29 3.34,-9.03 4.38,-8.49 5.41,-7.96 6.28,-7.20 7.16,-6.43 7.82,-5.48 8.49,-4.53 8.91,-3.45 9.33,-2.37 9.48,-1.22 9.63,-0.06 9.49,1.08 9.36,2.23 9.36,2.23 L 9.36,2.23 Z"></path></g><g transform="translate(13.171754612940703 504.1825871712948) rotate(0 -1.5858773064703513 32.77680301420605)" stroke="none"><path fill="#1e1e1e" d="M 9.66,0.56 Q 9.66,0.56 8.87,8.19 8.07,15.82 7.76,22.66 7.46,29.49 7.46,35.33 7.47,41.17 7.66,45.48 7.85,49.79 8.25,55.14 8.65,60.48 4.96,67.88 1.26,75.28 -0.38,75.70 -2.03,76.12 -3.72,75.99 -5.42,75.86 -6.99,75.19 -8.55,74.53 -9.82,73.40 -11.10,72.27 -11.94,70.80 -12.79,69.32 -13.11,67.65 -13.44,65.98 -13.22,64.30 -13.00,62.61 -12.26,61.08 -11.51,59.56 -10.31,58.35 -9.12,57.14 -7.60,56.37 -6.08,55.61 -4.39,55.37 -2.71,55.13 -1.04,55.45 0.63,55.76 2.11,56.59 3.60,57.42 4.74,58.68 5.88,59.94 6.56,61.49 7.24,63.05 7.39,64.75 7.53,66.44 7.13,68.09 6.73,69.75 5.82,71.18 4.91,72.62 3.59,73.70 2.27,74.77 0.68,75.36 -0.90,75.96 -2.60,76.01 -4.30,76.07 -5.93,75.58 -7.56,75.09 -8.95,74.10 -10.33,73.11 -11.33,71.74 -12.33,70.36 -12.84,68.74 -13.35,67.12 -13.31,65.42 -13.27,63.72 -12.69,62.12 -12.11,60.52 -11.06,59.19 -10.00,57.85 -8.57,56.93 -7.14,56.01 -7.14,56.01 -7.14,56.01 -9.45,58.22 -11.75,60.42 -11.31,55.03 -10.87,49.64 -10.61,45.28 -10.35,40.93 -10.18,34.97 -10.01,29.02 -9.93,21.89 -9.86,14.77 -9.76,7.10 -9.66,-0.56 -9.46,-1.71 -9.25,-2.86 -8.77,-3.92 -8.29,-4.99 -7.58,-5.91 -6.86,-6.83 -5.94,-7.55 -5.02,-8.27 -3.96,-8.76 -2.89,-9.24 -1.75,-9.45 -0.60,-9.66 0.56,-9.59 1.72,-9.53 2.84,-9.18 3.95,-8.84 4.95,-8.23 5.95,-7.63 6.78,-6.81 7.61,-5.98 8.21,-4.98 8.82,-3.99 9.17,-2.87 9.52,-1.76 9.59,-0.59 9.66,0.56 9.66,0.56 L 9.66,0.56 Z"></path></g><g transform="translate(252.9383506050263 532.8621413487338) rotate(0 73.88349290796981 79.54216693920256)" stroke="none"><path fill="#1e1e1e" d="M 5.36,-5.24 Q 5.36,-5.24 14.27,4.29 23.19,13.84 32.97,24.30 42.76,34.75 53.57,46.60 64.38,58.45 74.44,69.78 84.49,81.10 92.97,90.67 101.45,100.23 108.46,107.95 115.47,115.67 120.71,121.06 125.96,126.44 130.04,130.21 134.12,133.98 139.70,138.82 145.28,143.65 148.44,146.57 151.59,149.48 151.84,150.63 152.09,151.77 152.75,152.75 153.41,153.73 153.82,154.84 154.22,155.95 154.35,157.12 154.48,158.30 154.33,159.47 154.17,160.64 153.74,161.74 153.31,162.84 152.63,163.80 151.95,164.77 151.05,165.54 150.16,166.32 149.11,166.85 148.06,167.39 146.91,167.66 145.76,167.93 144.58,167.92 143.40,167.91 142.25,167.61 141.11,167.32 140.07,166.76 139.03,166.20 138.15,165.40 137.28,164.61 138.62,165.69 139.96,166.78 138.72,165.80 137.47,164.82 136.60,163.50 135.73,162.17 135.33,160.64 134.93,159.10 135.04,157.52 135.15,155.94 135.76,154.48 136.37,153.01 137.41,151.82 138.45,150.63 139.83,149.83 141.20,149.04 142.75,148.72 144.30,148.40 145.88,148.60 147.45,148.79 148.88,149.48 150.31,150.17 151.44,151.28 152.57,152.38 153.29,153.79 154.02,155.21 154.25,156.77 154.48,158.34 154.20,159.90 153.92,161.46 153.16,162.85 152.39,164.24 151.22,165.31 150.06,166.39 148.61,167.03 147.16,167.67 145.58,167.82 144.00,167.97 142.46,167.60 140.92,167.24 139.57,166.40 138.23,165.56 137.22,164.34 136.21,163.11 135.65,161.63 135.08,160.15 135.02,158.57 134.96,156.98 135.41,155.46 135.86,153.94 136.77,152.64 137.67,151.35 138.95,150.41 140.23,149.47 141.74,148.98 143.25,148.50 144.83,148.52 146.42,148.55 149.25,150.16 152.09,151.77 152.75,152.75 153.41,153.73 153.81,154.84 154.22,155.95 154.35,157.12 154.48,158.30 154.33,159.47 154.17,160.64 153.74,161.74 153.31,162.84 152.63,163.80 151.95,164.77 151.06,165.54 150.16,166.32 149.11,166.85 148.06,167.39 146.91,167.66 145.76,167.93 144.58,167.92 143.40,167.91 142.25,167.61 141.11,167.32 140.07,166.76 139.03,166.20 138.16,165.40 137.28,164.61 138.03,163.95 138.79,163.30 135.98,159.04 133.17,154.79 128.73,148.98 124.29,143.18 120.79,138.85 117.28,134.52 112.26,128.88 107.24,123.23 100.10,115.55 92.95,107.87 84.35,98.43 75.74,88.99 65.58,77.90 55.42,66.80 44.44,55.26 33.47,43.72 23.39,33.60 13.32,23.49 3.97,14.37 -5.36,5.24 -5.91,4.53 -6.46,3.81 -6.82,2.98 -7.19,2.15 -7.34,1.26 -7.49,0.36 -7.43,-0.53 -7.36,-1.43 -7.08,-2.29 -6.81,-3.15 -6.33,-3.92 -5.85,-4.69 -5.21,-5.32 -4.56,-5.96 -3.78,-6.42 -3.00,-6.87 -2.13,-7.13 -1.26,-7.39 -0.36,-7.44 0.53,-7.48 1.42,-7.31 2.31,-7.14 3.13,-6.76 3.95,-6.38 4.66,-5.81 5.36,-5.24 5.36,-5.24 L 5.36,-5.24 Z"></path></g><g transform="translate(406.1719505497121 697.756988577833) rotate(0 29.729449396051308 -1.0706618982947589)" stroke="none"><path fill="#1e1e1e" d="M 0.14,-10.48 Q 0.14,-10.48 4.89,-10.48 9.64,-10.48 16.96,-10.70 24.27,-10.91 30.12,-11.15 35.98,-11.39 40.38,-11.69 44.77,-12.00 49.37,-13.31 53.96,-14.63 50.51,-10.29 47.05,-5.96 47.97,-7.86 48.88,-9.76 50.35,-11.27 51.82,-12.77 53.70,-13.73 55.57,-14.69 57.66,-15.00 59.74,-15.31 61.82,-14.94 63.89,-14.57 65.74,-13.56 67.58,-12.54 69.01,-10.99 70.44,-9.44 71.29,-7.52 72.15,-5.59 72.35,-3.49 72.55,-1.39 72.06,0.65 71.58,2.70 70.47,4.49 69.35,6.28 67.73,7.62 66.10,8.96 64.13,9.71 62.16,10.46 60.06,10.54 57.95,10.63 55.93,10.03 53.91,9.44 52.18,8.23 50.46,7.02 49.21,5.33 47.96,3.63 47.31,1.62 46.67,-0.37 46.70,-2.48 46.73,-4.59 47.43,-6.57 48.14,-8.56 49.44,-10.22 50.74,-11.88 52.50,-13.03 54.26,-14.19 56.30,-14.73 58.34,-15.26 60.44,-15.11 62.54,-14.97 64.49,-14.16 66.43,-13.35 68.02,-11.96 69.60,-10.57 70.66,-8.75 71.72,-6.93 72.14,-4.87 72.57,-2.80 72.31,-0.71 72.05,1.37 72.05,1.37 72.05,1.37 63.50,6.17 54.95,10.98 50.33,11.65 45.72,12.32 40.84,12.09 35.96,11.85 30.08,11.60 24.19,11.34 16.76,11.05 9.33,10.75 4.59,10.62 -0.14,10.48 -1.40,10.31 -2.65,10.14 -3.83,9.68 -5.00,9.21 -6.03,8.48 -7.06,7.75 -7.89,6.79 -8.71,5.83 -9.28,4.70 -9.86,3.57 -10.14,2.34 -10.43,1.11 -10.41,-0.14 -10.39,-1.41 -10.07,-2.63 -9.75,-3.86 -9.15,-4.97 -8.54,-6.08 -7.69,-7.01 -6.84,-7.95 -5.79,-8.65 -4.74,-9.35 -3.55,-9.78 -2.36,-10.22 -1.10,-10.35 0.15,-10.48 0.15,-10.48 L 0.14,-10.48 Z"></path></g></svg>