<svg version="1.1" xmlns="http://www.w3.org/2000/svg" viewBox="0 0 345.43920632577124 715.2811767634624" width="345.43920632577124" height="715.2811767634624" class="excalidraw-svg">
  <!-- svg-source:excalidraw -->
  
  <defs>
    <style class="style-fonts">
      @font-face {
        font-family: "Virgil";
        src: url("https://excalidraw.com/Virgil.woff2");
      }
      @font-face {
        font-family: "Cascadia";
        src: url("https://excalidraw.com/Cascadia.woff2");
      }
      @font-face {
        font-family: "Assistant";
        src: url("https://excalidraw.com/Assistant-Regular.woff2");
      }
    </style>
    
  </defs>
  <g transform="translate(84.12964873689333 270.091813698868) rotate(14.472628123087542 93.81004383748541 133.8680900856985)" stroke="none"><path d="M2.26 -1.79 C8.63 -2.27, 29.35 -1, 38.44 -0.45 C47.53 0.11, 45.24 3.16, 56.81 1.53 C68.38 -0.1, 97.61 -7.31, 107.86 -10.23 C118.12 -13.15, 115.37 -13.41, 118.32 -15.97 C121.26 -18.54, 124.51 -25.29, 125.52 -25.6 C126.54 -25.91, 124.28 -21.04, 124.41 -17.81 C124.54 -14.58, 124.31 -12.92, 126.31 -6.24 C128.31 0.45, 128.19 0.6, 136.4 22.32 C144.61 44.03, 164.15 97.19, 175.58 124.05 C187.01 150.92, 198.81 171.15, 204.95 183.5 C211.1 195.86, 210.11 192.39, 212.46 198.2 C214.8 204.01, 223.95 212.58, 219.02 218.36 C214.08 224.14, 191.25 229.03, 182.87 232.88 C174.48 236.74, 174.17 238.4, 168.69 241.5 C163.22 244.6, 157.87 248.25, 150.01 251.48 C142.15 254.72, 129.65 258.27, 121.53 260.91 C113.42 263.54, 111.1 266.23, 101.32 267.27 C91.55 268.31, 71.08 267.01, 62.87 267.13 C54.66 267.26, 67.95 263.67, 52.07 268.04 C36.18 272.41, -18.46 295.68, -32.44 293.35 C-46.42 291.02, -31.58 265.4, -31.83 254.05 C-32.08 242.7, -34.41 242.67, -33.94 225.24 C-33.46 207.82, -30.77 168.95, -28.99 149.49 C-27.2 130.03, -25.28 123.96, -23.21 108.48 C-21.13 93.01, -19.04 70.04, -16.54 56.64 C-14.03 43.24, -11.03 37.63, -8.17 28.08 C-5.31 18.52, -1.16 4.48, 0.63 -0.68" stroke="none" stroke-width="0" fill="#ffffff" fill-rule="evenodd"></path><path fill="#1e1e1e" d="M 0.10,-4.52 Q 0.10,-4.52 3.56,-4.38 7.02,-4.24 10.64,-4.10 14.27,-3.95 18.52,-3.63 22.77,-3.31 27.57,-2.95 32.38,-2.58 35.50,-2.60 38.62,-2.62 41.71,-2.89 44.81,-3.15 47.55,-3.46 50.29,-3.77 55.60,-4.63 60.91,-5.48 65.61,-6.25 70.31,-7.02 73.34,-7.78 76.36,-8.55 78.65,-9.22 80.94,-9.90 84.24,-10.93 87.54,-11.95 90.71,-13.26 93.88,-14.57 96.44,-15.45 99.01,-16.33 101.03,-16.98 103.06,-17.63 105.92,-18.79 108.79,-19.94 110.83,-20.82 112.87,-21.71 114.76,-22.72 116.65,-23.74 118.25,-25.83 119.85,-27.92 120.08,-28.10 120.31,-28.28 120.84,-28.94 121.37,-29.60 122.03,-30.11 122.70,-30.62 123.47,-30.96 124.24,-31.29 125.07,-31.44 125.90,-31.58 126.74,-31.52 127.58,-31.46 128.38,-31.20 129.18,-30.94 129.90,-30.50 130.61,-30.05 131.20,-29.45 131.79,-28.85 132.22,-28.13 132.64,-27.40 132.89,-26.60 133.13,-25.79 133.17,-24.95 133.21,-24.11 133.05,-23.28 132.89,-22.46 132.53,-21.69 132.18,-20.93 132.02,-18.10 131.87,-15.28 131.84,-12.43 131.81,-9.57 132.26,-5.09 132.70,-0.61 134.30,5.85 135.89,12.31 138.67,20.70 141.46,29.09 145.25,38.94 149.04,48.78 153.26,59.14 157.48,69.50 161.52,79.10 165.56,88.69 169.64,98.20 173.73,107.71 178.83,119.18 183.93,130.65 188.59,140.96 193.25,151.27 196.13,157.64 199.02,164.02 200.86,168.06 202.70,172.10 204.05,174.46 205.39,176.82 206.73,178.73 208.07,180.65 210.13,183.09 212.19,185.54 213.91,188.30 215.63,191.06 217.65,195.13 219.66,199.21 220.49,201.33 221.32,203.44 222.53,206.70 223.74,209.96 224.74,212.50 225.74,215.03 225.31,218.63 224.88,222.22 222.78,223.60 220.68,224.99 218.42,226.08 216.17,227.17 213.43,228.32 210.70,229.47 208.26,230.41 205.83,231.36 203.40,232.38 200.96,233.40 198.38,234.49 195.80,235.59 193.85,236.48 191.90,237.36 189.42,238.54 186.94,239.72 184.87,240.72 182.79,241.73 179.53,242.71 176.27,243.68 173.89,244.61 171.50,245.54 169.49,246.62 167.47,247.70 165.52,248.89 163.58,250.08 161.75,251.25 159.93,252.41 156.96,253.97 153.99,255.53 151.75,256.57 149.51,257.61 146.79,258.70 144.08,259.78 141.85,260.74 139.62,261.69 137.68,262.73 135.74,263.77 133.61,264.55 131.48,265.33 128.80,266.27 126.12,267.20 123.02,268.07 119.91,268.93 117.45,269.59 115.00,270.26 111.20,270.99 107.41,271.73 104.05,272.21 100.69,272.70 97.94,273.00 95.19,273.31 92.33,273.52 89.47,273.73 86.78,273.92 84.08,274.10 81.06,274.24 78.05,274.37 74.91,274.59 71.76,274.80 69.04,274.86 66.31,274.93 63.25,275.32 60.20,275.71 57.64,276.11 55.08,276.52 52.82,277.10 50.57,277.67 47.94,278.37 45.31,279.07 42.17,279.84 39.03,280.61 36.39,281.52 33.74,282.43 31.49,283.05 29.24,283.67 24.00,284.57 18.77,285.47 16.52,286.05 14.28,286.64 11.70,287.46 9.12,288.29 7.03,288.94 4.94,289.59 2.82,290.26 0.70,290.94 -4.06,291.93 -8.83,292.92 -12.12,293.83 -15.42,294.73 -17.89,295.64 -20.37,296.56 -22.73,297.29 -25.10,298.02 -29.27,297.76 -33.44,297.50 -35.35,295.11 -37.27,292.73 -37.38,289.81 -37.50,286.89 -37.32,280.78 -37.14,274.67 -37.24,271.46 -37.33,268.24 -37.49,265.68 -37.65,263.13 -38.01,259.41 -38.38,255.68 -38.56,253.12 -38.75,250.56 -38.87,246.87 -38.99,243.18 -39.06,240.56 -39.13,237.95 -39.19,235.48 -39.24,233.02 -39.21,229.75 -39.17,226.49 -38.84,221.58 -38.51,216.67 -37.88,211.01 -37.25,205.35 -36.74,200.64 -36.23,195.93 -35.85,189.39 -35.46,182.86 -35.12,178.22 -34.78,173.58 -34.60,169.84 -34.41,166.11 -34.36,162.98 -34.30,159.84 -34.40,157.61 -34.49,155.37 -34.55,151.42 -34.60,147.46 -34.41,145.06 -34.22,142.66 -33.94,139.94 -33.65,137.23 -32.83,132.52 -32.00,127.81 -31.40,123.83 -30.80,119.86 -30.23,115.84 -29.66,111.81 -29.08,107.92 -28.51,104.03 -28.01,100.67 -27.51,97.31 -27.17,94.58 -26.83,91.86 -26.61,89.70 -26.40,87.55 -25.92,83.87 -25.43,80.18 -25.05,76.55 -24.67,72.93 -24.17,68.76 -23.67,64.60 -23.32,62.20 -22.96,59.80 -22.45,57.22 -21.94,54.64 -21.11,51.54 -20.28,48.44 -19.53,45.54 -18.78,42.64 -18.25,39.84 -17.71,37.04 -17.33,34.93 -16.95,32.83 -16.24,29.93 -15.54,27.03 -14.48,23.58 -13.42,20.12 -11.66,16.40 -9.91,12.69 -9.11,10.41 -8.32,8.14 -7.60,5.64 -6.89,3.15 -6.08,-0.51 -5.27,-4.17 -5.02,-4.85 -4.76,-5.53 -4.35,-6.13 -3.94,-6.72 -3.40,-7.21 -2.86,-7.69 -2.22,-8.02 -1.57,-8.36 -0.87,-8.54 -0.17,-8.71 0.55,-8.71 1.27,-8.71 1.98,-8.54 2.68,-8.37 3.32,-8.03 3.97,-7.70 4.51,-7.22 5.05,-6.74 5.47,-6.14 5.88,-5.54 6.14,-4.87 6.39,-4.19 6.48,-3.47 6.57,-2.75 6.48,-2.03 6.40,-1.31 6.45,-1.55 6.49,-1.79 6.19,-0.86 5.88,0.05 5.29,0.83 4.70,1.60 3.90,2.15 3.10,2.70 2.16,2.96 1.22,3.22 0.25,3.17 -0.71,3.12 -1.62,2.77 -2.52,2.41 -3.26,1.78 -4.01,1.15 -4.51,0.32 -5.01,-0.50 -5.23,-1.45 -5.44,-2.40 -5.33,-3.37 -5.23,-4.34 -4.83,-5.22 -4.42,-6.10 -3.75,-6.81 -3.09,-7.52 -2.23,-7.98 -1.37,-8.44 -0.41,-8.60 0.54,-8.76 1.50,-8.60 2.46,-8.45 3.32,-7.99 4.18,-7.54 4.85,-6.83 5.53,-6.13 5.94,-5.25 6.35,-4.37 6.45,-3.40 6.56,-2.43 6.36,-1.48 6.15,-0.53 5.65,0.29 5.15,1.13 4.41,1.76 3.67,2.39 2.77,2.75 1.86,3.12 0.89,3.17 -0.07,3.23 -1.01,2.97 -1.94,2.71 -2.75,2.17 -3.56,1.62 -4.15,0.85 -4.74,0.08 -5.05,-0.83 -5.37,-1.76 -5.32,-2.96 -5.27,-4.17 -5.02,-4.85 -4.76,-5.53 -4.35,-6.13 -3.94,-6.72 -3.40,-7.21 -2.86,-7.69 -2.22,-8.02 -1.57,-8.36 -0.87,-8.54 -0.17,-8.71 0.55,-8.71 1.27,-8.71 1.98,-8.54 2.68,-8.37 3.32,-8.03 3.97,-7.70 4.51,-7.22 5.05,-6.74 5.46,-6.14 5.88,-5.55 6.14,-4.87 6.39,-4.19 6.48,-3.47 6.57,-2.75 6.48,-2.03 6.40,-1.31 6.04,0.40 5.68,2.13 4.78,4.52 3.88,6.91 2.89,9.35 1.91,11.80 1.06,14.14 0.20,16.49 -0.82,20.19 -1.85,23.90 -2.97,27.16 -4.08,30.41 -4.92,33.02 -5.76,35.62 -6.40,37.65 -7.04,39.67 -7.87,42.37 -8.71,45.06 -9.36,47.99 -10.01,50.92 -10.64,53.85 -11.26,56.78 -11.74,59.12 -12.21,61.45 -12.59,63.81 -12.97,66.16 -13.70,70.27 -14.42,74.37 -15.23,78.28 -16.03,82.18 -16.98,85.58 -17.92,88.98 -18.43,91.10 -18.94,93.23 -19.53,95.89 -20.13,98.56 -20.74,101.77 -21.35,104.97 -21.80,108.80 -22.24,112.62 -22.55,116.68 -22.86,120.74 -23.14,124.75 -23.42,128.76 -23.66,133.56 -23.90,138.36 -24.24,141.06 -24.57,143.77 -24.91,145.98 -25.25,148.19 -25.70,151.89 -26.15,155.59 -26.37,157.89 -26.58,160.19 -26.81,163.32 -27.04,166.44 -27.19,170.12 -27.33,173.80 -27.27,178.41 -27.21,183.01 -27.07,189.63 -26.92,196.25 -26.74,200.99 -26.56,205.72 -26.32,211.43 -26.09,217.14 -26.13,222.05 -26.17,226.96 -26.25,229.99 -26.33,233.02 -26.39,235.48 -26.44,237.94 -26.51,240.56 -26.58,243.17 -26.67,246.74 -26.76,250.31 -26.80,252.60 -26.85,254.88 -26.66,258.61 -26.47,262.35 -26.28,264.86 -26.08,267.38 -25.68,270.61 -25.28,273.84 -24.46,278.72 -23.64,283.61 -24.01,286.30 -24.37,288.99 -26.24,287.00 -28.10,285.01 -25.66,284.49 -23.21,283.98 -20.92,283.35 -18.62,282.72 -15.21,281.86 -11.80,281.01 -8.63,279.97 -5.46,278.92 -3.00,278.28 -0.55,277.63 2.44,276.87 5.44,276.12 8.17,275.36 10.90,274.61 13.19,273.92 15.48,273.23 20.70,271.51 25.92,269.79 28.31,269.13 30.70,268.46 33.08,267.69 35.47,266.92 38.43,266.11 41.39,265.29 44.34,264.51 47.30,263.72 49.89,263.13 52.48,262.54 55.11,262.09 57.73,261.65 60.65,261.19 63.56,260.73 65.69,260.77 67.82,260.81 70.39,260.80 72.96,260.79 75.32,260.65 77.68,260.51 80.39,260.37 83.11,260.23 85.78,260.05 88.45,259.86 91.15,259.65 93.85,259.44 96.30,259.18 98.75,258.91 101.59,258.46 104.43,258.01 106.66,257.43 108.89,256.84 111.07,256.28 113.25,255.71 115.89,254.95 118.52,254.18 120.66,253.58 122.80,252.98 125.26,252.17 127.73,251.37 129.83,250.66 131.93,249.95 134.72,248.72 137.50,247.50 139.97,246.60 142.45,245.70 145.08,244.64 147.71,243.59 150.30,242.23 152.89,240.88 154.75,239.79 156.61,238.69 158.78,237.46 160.96,236.22 164.37,234.65 167.79,233.07 170.20,232.32 172.60,231.57 176.02,230.54 179.44,229.50 181.77,228.59 184.10,227.69 187.44,226.25 190.79,224.80 193.30,223.53 195.82,222.26 198.31,221.01 200.81,219.76 204.79,217.97 208.77,216.18 210.82,215.38 212.88,214.58 214.95,213.87 217.02,213.16 215.21,214.34 213.39,215.52 212.75,213.03 212.10,210.54 210.95,206.99 209.81,203.44 208.99,201.44 208.16,199.43 206.66,196.16 205.15,192.90 204.10,190.54 203.05,188.18 202.13,186.25 201.21,184.32 200.38,181.93 199.56,179.53 198.62,176.97 197.68,174.42 195.79,170.39 193.90,166.37 190.95,160.02 188.00,153.67 183.24,143.39 178.48,133.11 173.25,121.67 168.01,110.23 163.75,100.78 159.49,91.33 155.21,81.81 150.92,72.29 146.37,62.02 141.81,51.74 137.54,41.93 133.27,32.12 129.83,23.67 126.39,15.23 123.92,8.43 121.44,1.63 119.96,-3.56 118.48,-8.76 118.07,-13.78 117.67,-18.79 117.92,-21.10 118.18,-23.41 119.25,-25.84 120.31,-28.28 120.84,-28.94 121.36,-29.60 122.03,-30.11 122.70,-30.62 123.47,-30.96 124.24,-31.29 125.07,-31.44 125.90,-31.58 126.74,-31.52 127.58,-31.46 128.38,-31.20 129.18,-30.94 129.90,-30.50 130.61,-30.05 131.20,-29.45 131.79,-28.85 132.22,-28.13 132.64,-27.40 132.88,-26.60 133.13,-25.79 133.17,-24.95 133.21,-24.11 133.05,-23.28 132.89,-22.46 132.54,-21.69 132.18,-20.93 132.31,-22.12 132.44,-23.30 131.09,-20.75 129.73,-18.21 128.10,-16.80 126.47,-15.40 124.54,-13.63 122.61,-11.86 120.12,-10.80 117.63,-9.74 115.42,-8.93 113.21,-8.12 111.03,-7.41 108.84,-6.70 106.56,-6.18 104.28,-5.65 102.04,-5.18 99.79,-4.70 97.22,-4.06 94.64,-3.43 92.23,-2.92 89.81,-2.42 86.41,-1.86 83.01,-1.29 80.66,-0.85 78.31,-0.41 75.19,0.28 72.08,0.99 67.41,2.29 62.74,3.58 56.73,4.73 50.71,5.89 47.70,5.71 44.69,5.53 41.55,5.16 38.42,4.79 35.25,4.59 32.08,4.40 27.33,4.36 22.58,4.32 18.35,4.42 14.12,4.53 10.47,4.54 6.81,4.56 3.35,4.54 -0.10,4.52 -0.64,4.44 -1.18,4.36 -1.68,4.16 -2.19,3.95 -2.63,3.63 -3.07,3.31 -3.43,2.90 -3.78,2.48 -4.02,1.99 -4.26,1.50 -4.38,0.97 -4.50,0.44 -4.49,-0.10 -4.47,-0.64 -4.33,-1.17 -4.19,-1.70 -3.92,-2.17 -3.66,-2.65 -3.29,-3.05 -2.92,-3.45 -2.46,-3.75 -2.01,-4.05 -1.49,-4.23 -0.98,-4.41 -0.43,-4.47 0.10,-4.52 0.10,-4.52 L 0.10,-4.52 Z"></path></g><g transform="translate(134.43730731903565 17.090491367828577) rotate(0 68.56934954105742 117.41628741673793)" stroke="none"><path d="M6.79 0.13 C5.73 -0.66, 6.24 -2.54, 3.78 -2.28 C1.33 -2.01, -5.41 0.74, -7.93 1.71 C-10.46 2.69, -8.54 0.17, -11.37 3.57 C-14.19 6.97, -20.71 16.25, -24.89 22.09 C-29.08 27.94, -33.27 33.84, -36.49 38.65 C-39.7 43.45, -40.72 44.13, -44.2 50.9 C-47.68 57.68, -54.38 69.62, -57.37 79.29 C-60.36 88.96, -61.43 98.7, -62.13 108.92 C-62.83 119.14, -61.43 132.75, -61.55 140.63 C-61.68 148.51, -62.91 152.28, -62.89 156.21 C-62.87 160.13, -62.69 160.8, -61.45 164.18 C-60.2 167.56, -57.33 172.53, -55.43 176.49 C-53.52 180.44, -52.19 184.19, -50 187.9 C-47.82 191.62, -46.54 194.23, -42.3 198.76 C-38.05 203.29, -30.32 210.89, -24.55 215.09 C-18.78 219.29, -12.83 221.05, -7.66 223.95 C-2.5 226.85, 0.91 230.25, 6.45 232.5 C11.99 234.76, 16.68 235.69, 25.57 237.5 C34.46 239.31, 50.73 242.87, 59.8 243.37 C68.88 243.88, 74.14 240.79, 80.02 240.53 C85.9 240.28, 89.82 242.58, 95.06 241.82 C100.3 241.06, 102.37 239.53, 111.46 235.99 C120.55 232.45, 140.29 224.27, 149.6 220.58 C158.92 216.88, 162.95 216.11, 167.37 213.84 C171.78 211.57, 174.03 209.33, 176.09 206.96 C178.14 204.58, 177.74 201.98, 179.68 199.56 C181.62 197.15, 185.18 196.52, 187.74 192.48 C190.3 188.44, 193.09 182.74, 195.05 175.32 C197.01 167.9, 198.66 158.14, 199.51 147.95 C200.35 137.75, 200.15 124.74, 200.13 114.15 C200.12 103.56, 202.08 95.63, 199.39 84.41 C196.7 73.19, 187.15 54.77, 184 46.83 C180.85 38.9, 182.45 39.98, 180.47 36.79 C178.49 33.59, 175.95 30.99, 172.12 27.66 C168.29 24.33, 162.72 19.97, 157.49 16.79 C152.25 13.61, 148.65 11.68, 140.71 8.58 C132.77 5.49, 119.34 0.75, 109.84 -1.8 C100.35 -4.35, 90.05 -5.66, 83.73 -6.71 C77.4 -7.76, 78.66 -7.94, 71.88 -8.08 C65.1 -8.23, 49.97 -8.48, 43.04 -7.58 C36.12 -6.67, 36.6 -4.64, 30.34 -2.64 C24.08 -0.64, 9.91 2.69, 5.47 4.43" stroke="none" stroke-width="0" fill="#ffffff" fill-rule="evenodd"></path><path fill="#1e1e1e" d="M 7.54,11.60 Q 7.54,11.60 4.75,11.40 1.96,11.20 -3.05,14.48 -8.08,17.77 -11.10,20.78 -14.12,23.79 -19.26,30.55 -24.40,37.31 -27.97,43.00 -31.54,48.68 -34.66,54.69 -37.78,60.69 -40.52,67.13 -43.26,73.57 -45.63,80.53 -48.01,87.49 -49.80,94.53 -51.59,101.58 -52.59,107.99 -53.59,114.41 -54.27,121.40 -54.94,128.40 -55.19,135.77 -55.43,143.14 -54.72,149.35 -54.01,155.56 -52.46,161.13 -50.90,166.69 -48.47,171.86 -46.04,177.04 -42.79,182.11 -39.55,187.18 -35.70,191.76 -31.85,196.34 -27.58,200.35 -23.30,204.37 -17.99,208.36 -12.67,212.36 -5.75,216.47 1.16,220.58 9.01,223.80 16.87,227.01 24.10,228.91 31.32,230.82 39.04,232.00 46.76,233.18 55.93,233.99 65.10,234.79 73.89,234.73 82.69,234.67 90.71,233.72 98.74,232.76 112.65,228.29 126.57,223.82 137.00,219.74 147.44,215.67 154.31,212.12 161.18,208.57 165.80,204.92 170.42,201.27 173.63,197.50 176.85,193.73 179.14,189.86 181.44,185.98 183.12,181.79 184.80,177.60 186.08,172.83 187.36,168.06 188.36,162.45 189.35,156.84 190.62,145.28 191.89,133.72 192.47,124.34 193.04,114.96 192.93,106.72 192.83,98.49 189.07,84.56 185.31,70.64 182.14,61.82 178.96,53.01 175.64,47.41 172.33,41.82 168.91,37.98 165.49,34.15 161.90,31.28 158.32,28.41 154.44,26.04 150.57,23.66 146.48,21.67 142.38,19.67 138.14,18.07 133.90,16.47 129.26,14.97 124.63,13.47 119.99,12.10 115.35,10.72 110.90,9.62 106.46,8.52 100.04,6.97 93.62,5.41 88.90,4.72 84.19,4.04 76.88,3.83 69.58,3.62 63.06,3.81 56.54,4.01 51.53,4.49 46.53,4.98 41.79,6.16 37.04,7.34 32.59,8.72 28.14,10.09 23.24,11.98 18.35,13.87 12.84,16.29 7.33,18.72 5.32,19.05 3.31,19.38 1.30,19.05 -0.70,18.72 -2.50,17.76 -4.30,16.81 -5.70,15.33 -7.11,13.85 -7.96,12.00 -8.82,10.15 -9.04,8.12 -9.26,6.10 -8.82,4.11 -8.38,2.12 -7.33,0.37 -6.28,-1.37 -4.73,-2.69 -3.17,-4.00 -1.28,-4.76 0.60,-5.51 2.64,-5.62 4.67,-5.73 6.64,-5.19 8.60,-4.64 10.29,-3.50 11.97,-2.36 13.21,-0.73 14.44,0.88 15.09,2.81 15.74,4.74 15.74,6.78 15.74,8.82 15.09,10.75 14.44,12.68 13.21,14.30 11.97,15.93 10.29,17.07 8.60,18.21 6.63,18.76 4.67,19.30 2.64,19.19 0.60,19.08 -1.28,18.33 -3.18,17.57 -4.73,16.25 -6.28,14.93 -7.33,13.19 -8.38,11.44 -8.82,9.45 -9.26,7.46 -9.04,5.43 -8.82,3.41 -7.96,1.56 -7.11,-0.28 -5.70,-1.76 -4.30,-3.24 -2.50,-4.19 -0.70,-5.15 -0.70,-5.15 -0.70,-5.15 0.63,-5.63 1.97,-6.11 6.09,-7.55 10.22,-8.99 15.51,-10.62 20.80,-12.25 29.67,-14.81 38.55,-17.36 44.37,-17.79 50.18,-18.21 56.76,-17.97 63.34,-17.73 71.12,-17.13 78.90,-16.53 83.22,-15.88 87.53,-15.23 92.53,-14.22 97.53,-13.22 104.66,-11.93 111.79,-10.64 116.58,-9.17 121.38,-7.70 126.17,-5.99 130.96,-4.28 136.06,-2.30 141.16,-0.33 146.04,2.00 150.91,4.34 155.56,7.22 160.20,10.09 164.58,13.58 168.96,17.06 172.88,21.26 176.81,25.45 180.24,30.56 183.67,35.67 186.91,42.23 190.16,48.79 193.77,58.04 197.38,67.28 201.72,82.56 206.07,97.84 206.70,106.58 207.32,115.31 207.42,125.08 207.51,134.85 207.04,147.49 206.56,160.13 205.21,166.70 203.87,173.26 201.81,179.05 199.76,184.83 196.95,189.90 194.13,194.98 190.53,199.40 186.92,203.82 182.32,207.80 177.73,211.79 172.01,215.27 166.30,218.75 158.91,222.35 151.51,225.96 140.78,230.26 130.04,234.56 115.13,239.40 100.21,244.24 91.57,245.37 82.93,246.50 73.58,246.80 64.24,247.09 54.61,246.58 44.97,246.07 36.46,244.99 27.95,243.91 20.01,241.89 12.08,239.88 3.10,236.81 -5.86,233.74 -14.14,229.72 -22.42,225.69 -28.75,221.15 -35.09,216.60 -39.95,211.79 -44.81,206.98 -49.22,201.48 -53.64,195.99 -57.39,189.86 -61.13,183.72 -63.86,177.20 -66.59,170.69 -68.14,163.91 -69.70,157.14 -70.30,150.05 -70.91,142.96 -70.96,135.03 -71.02,127.09 -70.50,119.47 -69.99,111.85 -68.90,104.90 -67.81,97.95 -66.30,90.25 -64.79,82.55 -62.82,74.76 -60.86,66.97 -58.42,59.63 -55.99,52.29 -53.15,45.38 -50.31,38.47 -46.97,31.46 -43.63,24.45 -40.25,19.25 -36.87,14.05 -33.84,10.60 -30.80,7.16 -27.23,3.55 -23.66,-0.04 -20.32,-2.82 -16.98,-5.61 -10.39,-8.22 -3.80,-10.84 0.52,-10.40 4.85,-9.97 7.59,-9.42 10.33,-8.86 11.54,-8.55 12.74,-8.23 13.84,-7.64 14.93,-7.04 15.85,-6.20 16.77,-5.36 17.46,-4.33 18.16,-3.29 18.58,-2.12 19.00,-0.95 19.14,0.28 19.27,1.52 19.10,2.75 18.93,3.99 18.47,5.15 18.01,6.30 17.29,7.32 16.57,8.33 15.62,9.14 14.68,9.96 13.57,10.52 12.46,11.08 11.24,11.36 10.03,11.64 8.78,11.62 7.54,11.60 7.54,11.60 L 7.54,11.60 Z"></path></g><g transform="translate(221.51113173385738 143.4497620309936) rotate(0 -0.17232435863783735 0)" stroke="none"><path fill="#1e1e1e" d="M -0.19,8.93 Q -0.19,8.93 -1.62,8.69 -3.04,8.46 -4.32,7.78 -5.60,7.10 -6.59,6.06 -7.59,5.01 -8.19,3.70 -8.80,2.38 -8.95,0.95 -9.11,-0.48 -8.80,-1.89 -8.49,-3.30 -7.74,-4.54 -7.00,-5.78 -5.90,-6.71 -4.80,-7.65 -3.45,-8.18 -2.11,-8.72 -0.67,-8.80 0.76,-8.87 2.16,-8.49 3.55,-8.10 4.74,-7.29 5.94,-6.48 6.81,-5.33 7.69,-4.18 8.15,-2.81 8.61,-1.44 8.61,0.00 8.61,1.44 8.15,2.81 7.69,4.18 6.81,5.33 5.94,6.48 4.74,7.29 3.55,8.10 2.15,8.49 0.76,8.87 -0.67,8.80 -2.11,8.72 -3.46,8.18 -4.80,7.65 -5.90,6.71 -7.00,5.78 -7.75,4.54 -8.49,3.30 -8.80,1.89 -9.11,0.48 -8.95,-0.95 -8.80,-2.39 -8.19,-3.70 -7.58,-5.01 -6.59,-6.06 -5.60,-7.11 -4.32,-7.78 -3.04,-8.46 -1.62,-8.69 -0.19,-8.93 -0.19,-8.93 -0.19,-8.93 0.87,-8.82 1.94,-8.71 2.95,-8.35 3.97,-7.99 4.87,-7.40 5.77,-6.81 6.50,-6.02 7.23,-5.23 7.75,-4.29 8.28,-3.35 8.56,-2.31 8.84,-1.27 8.86,-0.19 8.88,0.88 8.65,1.93 8.42,2.98 7.94,3.94 7.46,4.91 6.76,5.73 6.07,6.55 5.19,7.18 4.32,7.81 3.32,8.22 2.32,8.62 1.26,8.77 0.19,8.93 -0.00,8.93 L -0.19,8.93 Z"></path></g><g transform="translate(310.8456076514344 139.78347255081246) rotate(0 0.00004999999998744897 0.00004999999998744897)" stroke="none"><path fill="#1e1e1e" d="M 6.28,-6.28 Q 6.28,-6.28 7.11,-5.11 7.95,-3.94 8.37,-2.57 8.80,-1.19 8.76,0.23 8.72,1.67 8.22,3.02 7.73,4.37 6.83,5.49 5.93,6.61 4.72,7.38 3.50,8.15 2.11,8.50 0.72,8.85 -0.71,8.73 -2.14,8.61 -3.46,8.05 -4.78,7.48 -5.85,6.52 -6.92,5.56 -7.63,4.31 -8.33,3.06 -8.60,1.65 -8.87,0.23 -8.68,-1.18 -8.49,-2.60 -7.85,-3.89 -7.21,-5.18 -6.19,-6.19 -5.18,-7.21 -3.89,-7.85 -2.60,-8.49 -1.18,-8.68 0.24,-8.87 1.65,-8.60 3.06,-8.33 4.31,-7.62 5.56,-6.92 6.52,-5.85 7.48,-4.78 8.05,-3.46 8.62,-2.14 8.73,-0.70 8.85,0.72 8.50,2.11 8.15,3.51 7.38,4.72 6.61,5.93 5.48,6.83 4.36,7.73 3.02,8.22 1.67,8.72 0.23,8.76 -1.20,8.80 -2.57,8.37 -3.94,7.95 -5.11,7.11 -6.28,6.27 -6.28,6.27 -6.28,6.28 -6.94,5.43 -7.60,4.59 -8.04,3.61 -8.48,2.64 -8.67,1.58 -8.86,0.53 -8.80,-0.53 -8.73,-1.60 -8.41,-2.62 -8.09,-3.64 -7.54,-4.56 -6.99,-5.47 -6.23,-6.23 -5.47,-6.99 -4.56,-7.54 -3.64,-8.10 -2.62,-8.41 -1.60,-8.73 -0.53,-8.80 0.53,-8.86 1.59,-8.67 2.64,-8.48 3.61,-8.04 4.59,-7.60 5.43,-6.94 6.28,-6.28 6.28,-6.28 L 6.28,-6.28 Z"></path></g><g transform="translate(193.5900600334353 270.1067754519619) rotate(0 63.03064436824661 89.7405782279525)" stroke="none"><path fill="#1e1e1e" d="M 8.59,0 Q 8.59,0 8.43,7.34 8.28,14.68 7.88,23.73 7.47,32.78 7.17,41.85 6.87,50.92 6.65,59.77 6.43,68.62 6.52,76.02 6.61,83.43 6.97,88.69 7.33,93.95 7.99,100.37 8.65,106.79 15.81,109.51 22.98,112.23 29.36,115.34 35.75,118.46 43.42,122.72 51.10,126.98 59.41,131.59 67.71,136.19 75.64,140.71 83.57,145.23 90.15,148.92 96.73,152.62 101.99,155.42 107.26,158.22 111.62,160.56 115.98,162.90 121.27,165.69 126.56,168.48 129.03,169.72 131.50,170.97 132.36,171.78 133.23,172.60 133.88,173.60 134.53,174.61 134.92,175.73 135.31,176.86 135.42,178.05 135.53,179.24 135.35,180.42 135.17,181.60 134.71,182.70 134.25,183.81 133.55,184.77 132.84,185.73 131.92,186.49 131.01,187.26 129.93,187.78 128.86,188.30 127.69,188.55 126.53,188.80 125.33,188.77 124.14,188.73 122.99,188.41 121.84,188.09 120.80,187.50 119.76,186.92 117.47,183.05 115.18,179.18 114.90,177.60 114.62,176.01 114.86,174.42 115.10,172.83 115.84,171.40 116.58,169.97 117.74,168.85 118.89,167.73 120.34,167.04 121.80,166.35 123.39,166.16 124.99,165.96 126.57,166.29 128.14,166.62 129.53,167.43 130.92,168.25 131.98,169.46 133.03,170.68 133.64,172.17 134.26,173.65 134.36,175.26 134.47,176.87 134.05,178.42 133.64,179.98 132.75,181.32 131.86,182.66 130.59,183.65 129.32,184.64 127.80,185.17 126.28,185.70 124.68,185.72 123.07,185.73 121.54,185.24 120.01,184.74 118.71,183.78 117.42,182.82 116.50,181.50 115.59,180.18 115.14,178.63 114.69,177.09 114.76,175.48 114.83,173.87 115.41,172.37 115.99,170.87 117.01,169.63 118.04,168.39 119.41,167.55 120.78,166.70 122.35,166.34 123.92,165.98 125.52,166.13 127.12,166.29 128.59,166.95 130.06,167.61 131.24,168.70 132.42,169.80 133.19,171.21 133.96,172.62 133.96,172.62 133.96,172.62 132.73,171.79 131.49,170.97 132.36,171.78 133.23,172.60 133.88,173.60 134.53,174.60 134.92,175.73 135.31,176.86 135.42,178.05 135.53,179.24 135.35,180.42 135.17,181.60 134.71,182.70 134.26,183.80 133.55,184.77 132.84,185.73 131.92,186.49 131.01,187.26 129.93,187.78 128.86,188.30 127.69,188.55 126.53,188.80 125.33,188.77 124.14,188.73 122.99,188.41 121.84,188.09 120.80,187.51 119.76,186.92 118.04,185.44 116.32,183.96 111.85,180.38 107.39,176.81 103.48,174.04 99.58,171.27 94.69,168.09 89.80,164.91 83.42,161.30 77.04,157.69 68.97,153.83 60.89,149.97 52.34,146.22 43.78,142.48 35.85,139.37 27.91,136.27 21.35,133.69 14.79,131.11 9.82,128.88 4.85,126.66 -1.32,121.37 -7.51,116.09 -8.08,111.44 -8.65,106.79 -7.99,100.37 -7.33,93.95 -6.97,88.69 -6.61,83.43 -6.52,76.02 -6.43,68.62 -6.65,59.77 -6.87,50.92 -7.17,41.85 -7.47,32.78 -7.88,23.73 -8.28,14.68 -8.43,7.34 -8.59,0 -8.46,-1.02 -8.34,-2.05 -7.97,-3.02 -7.60,-3.99 -7.01,-4.84 -6.43,-5.69 -5.65,-6.38 -4.88,-7.07 -3.96,-7.55 -3.04,-8.03 -2.04,-8.28 -1.03,-8.52 0.00,-8.52 1.03,-8.52 2.04,-8.28 3.04,-8.03 3.96,-7.55 4.88,-7.07 5.65,-6.38 6.43,-5.69 7.02,-4.84 7.60,-3.99 7.97,-3.02 8.34,-2.05 8.46,-1.02 8.59,0.00 8.59,0.00 L 8.59,0 Z"></path></g><g transform="translate(74.14186779337388 525.8192623111909) rotate(0 -25.552569573168512 86.04000874319198)" stroke="none"><path fill="#1e1e1e" d="M 7.98,1.74 Q 7.98,1.74 6.25,9.01 4.52,16.28 2.34,23.74 0.16,31.20 -2.01,38.49 -4.19,45.78 -6.69,53.61 -9.20,61.45 -11.55,69.20 -13.90,76.95 -15.60,84.00 -17.29,91.06 -18.44,97.39 -19.58,103.72 -20.46,109.42 -21.33,115.12 -22.20,120.42 -23.07,125.73 -23.99,130.42 -24.91,135.10 -26.83,142.79 -28.75,150.47 -30.56,155.83 -32.38,161.19 -33.90,165.34 -35.43,169.48 -42.37,176.67 -49.31,183.87 -51.24,183.81 -53.17,183.75 -54.98,183.08 -56.79,182.41 -58.29,181.20 -59.79,179.98 -60.82,178.36 -61.86,176.73 -62.32,174.85 -62.78,172.98 -62.61,171.06 -62.45,169.14 -61.69,167.37 -60.92,165.60 -59.63,164.16 -58.33,162.73 -56.65,161.79 -54.97,160.84 -53.07,160.48 -51.18,160.13 -49.27,160.39 -47.36,160.66 -45.63,161.52 -43.90,162.38 -42.54,163.75 -41.18,165.12 -40.33,166.85 -39.48,168.58 -39.23,170.49 -38.97,172.40 -39.34,174.30 -39.71,176.19 -40.66,177.87 -41.62,179.54 -43.06,180.83 -44.50,182.11 -46.27,182.87 -48.05,183.63 -49.97,183.78 -51.89,183.93 -53.76,183.46 -55.63,182.99 -57.26,181.94 -58.88,180.90 -60.08,179.39 -61.29,177.88 -61.95,176.07 -62.61,174.26 -62.65,172.33 -62.70,170.40 -62.13,168.56 -61.56,166.72 -60.43,165.15 -59.29,163.59 -57.72,162.47 -56.15,161.35 -54.31,160.79 -52.46,160.23 -52.46,160.23 -52.47,160.23 -54.34,160.32 -56.21,160.42 -53.91,156.55 -51.61,152.68 -49.40,148.45 -47.19,144.22 -44.54,137.49 -41.90,130.76 -40.54,126.53 -39.18,122.31 -37.84,117.21 -36.51,112.12 -35.13,106.42 -33.75,100.72 -32.18,94.23 -30.62,87.74 -28.75,80.50 -26.89,73.26 -24.80,65.39 -22.71,57.52 -20.64,49.60 -18.56,41.69 -16.59,34.40 -14.61,27.11 -12.76,20.01 -10.92,12.90 -9.45,5.57 -7.98,-1.74 -7.65,-2.67 -7.33,-3.60 -6.79,-4.43 -6.25,-5.25 -5.53,-5.93 -4.81,-6.60 -3.95,-7.08 -3.09,-7.56 -2.14,-7.82 -1.19,-8.08 -0.21,-8.11 0.77,-8.13 1.73,-7.92 2.69,-7.71 3.58,-7.28 4.46,-6.84 5.22,-6.21 5.97,-5.57 6.55,-4.78 7.13,-3.98 7.50,-3.07 7.88,-2.16 8.02,-1.18 8.17,-0.21 8.07,0.76 7.98,1.74 7.98,1.74 L 7.98,1.74 Z"></path></g><g transform="translate(10 700.5887601587357) rotate(0 30.45413806373608 -0.957234913601269)" stroke="none"><path fill="#1e1e1e" d="M 0,-10.19 Q 0,-10.19 6.49,-10.03 12.99,-9.88 18.71,-9.88 24.42,-9.88 29.28,-9.99 34.14,-10.09 41.09,-10.42 48.03,-10.76 52.88,-11.12 57.72,-11.48 53.99,-8.91 50.26,-6.33 51.28,-7.89 52.31,-9.45 53.78,-10.60 55.24,-11.75 57.00,-12.37 58.76,-12.99 60.63,-13.01 62.49,-13.04 64.27,-12.46 66.04,-11.89 67.54,-10.78 69.04,-9.68 70.11,-8.15 71.18,-6.62 71.70,-4.83 72.22,-3.04 72.15,-1.17 72.07,0.68 71.40,2.42 70.74,4.16 69.55,5.60 68.36,7.04 66.78,8.02 65.19,9.00 63.38,9.43 61.56,9.85 59.70,9.68 57.85,9.50 56.14,8.74 54.44,7.98 53.07,6.72 51.70,5.45 50.80,3.82 49.91,2.18 49.58,0.34 49.26,-1.48 49.53,-3.33 49.81,-5.17 50.66,-6.83 51.51,-8.49 52.85,-9.79 54.19,-11.09 55.87,-11.90 57.55,-12.70 59.40,-12.93 61.25,-13.15 63.08,-12.78 64.91,-12.40 66.52,-11.46 68.13,-10.52 69.35,-9.12 70.58,-7.71 71.29,-5.99 72.01,-4.26 72.13,-2.40 72.26,-0.54 71.78,1.25 71.31,3.05 71.31,3.05 71.31,3.05 64.51,7.27 57.72,11.48 52.88,11.12 48.03,10.76 41.09,10.42 34.14,10.09 29.28,9.99 24.42,9.88 18.71,9.88 12.99,9.88 6.49,10.03 0,10.19 -1.21,10.04 -2.43,9.89 -3.58,9.46 -4.73,9.02 -5.74,8.32 -6.75,7.62 -7.57,6.70 -8.38,5.78 -8.95,4.70 -9.52,3.61 -9.82,2.42 -10.11,1.22 -10.11,-0.00 -10.11,-1.22 -9.82,-2.42 -9.52,-3.61 -8.95,-4.70 -8.38,-5.79 -7.57,-6.70 -6.75,-7.62 -5.74,-8.32 -4.73,-9.02 -3.58,-9.46 -2.43,-9.89 -1.21,-10.04 0.00,-10.19 0.00,-10.19 L 0,-10.19 Z"></path></g><g transform="translate(112.25126763968433 258.3634110716238) rotate(0 -40.13937498016935 50.64315968874743)" stroke="none"><path fill="#1e1e1e" d="M 4.23,8.00 Q 4.23,8.00 -3.73,11.66 -11.71,15.32 -18.68,19.24 -25.65,23.17 -32.03,27.48 -38.41,31.78 -43.87,36.21 -49.32,40.65 -53.27,44.34 -57.23,48.04 -61.86,53.09 -66.50,58.15 -68.93,61.82 -71.36,65.49 -66.87,70.32 -62.38,75.15 -59.48,79.28 -56.57,83.41 -53.73,87.08 -50.88,90.74 -49.85,91.99 -48.82,93.25 -47.84,95.06 -46.87,96.86 -46.52,98.89 -46.18,100.92 -46.50,102.95 -46.82,104.98 -47.77,106.80 -48.72,108.62 -50.20,110.04 -51.68,111.46 -53.54,112.34 -55.40,113.21 -57.44,113.45 -59.48,113.69 -61.49,113.26 -63.50,112.83 -65.27,111.78 -67.03,110.73 -68.38,109.18 -69.72,107.62 -70.49,105.72 -71.26,103.81 -71.39,101.76 -71.51,99.71 -70.97,97.73 -70.44,95.74 -69.30,94.04 -68.15,92.33 -66.53,91.07 -64.90,89.82 -62.96,89.15 -61.01,88.48 -58.96,88.47 -56.90,88.45 -54.95,89.10 -53.00,89.74 -51.36,90.97 -49.71,92.21 -48.55,93.90 -47.39,95.59 -46.82,97.57 -46.26,99.55 -46.36,101.60 -46.46,103.65 -47.20,105.56 -47.95,107.48 -49.27,109.05 -50.59,110.63 -52.35,111.70 -54.10,112.77 -56.10,113.22 -58.11,113.68 -60.15,113.47 -62.20,113.26 -64.07,112.41 -65.94,111.56 -67.44,110.15 -68.94,108.75 -68.94,108.75 -68.94,108.75 -71.79,104.66 -74.64,100.56 -77.18,96.42 -79.72,92.29 -82.77,86.81 -85.81,81.33 -88.09,75.73 -90.37,70.14 -90.46,64.98 -90.55,59.83 -88.56,55.96 -86.58,52.10 -82.75,48.59 -78.91,45.08 -73.08,40.60 -67.24,36.12 -62.80,32.76 -58.35,29.40 -52.49,24.74 -46.62,20.08 -40.03,15.28 -33.44,10.49 -26.35,5.78 -19.25,1.08 -11.74,-3.46 -4.23,-8.00 -3.21,-8.39 -2.19,-8.78 -1.11,-8.92 -0.03,-9.05 1.05,-8.92 2.13,-8.80 3.15,-8.41 4.17,-8.03 5.07,-7.41 5.98,-6.80 6.70,-5.98 7.43,-5.17 7.94,-4.20 8.45,-3.24 8.72,-2.18 8.98,-1.12 8.98,-0.03 8.99,1.05 8.73,2.11 8.47,3.18 7.97,4.14 7.47,5.11 6.75,5.93 6.02,6.75 5.13,7.38 4.23,8.00 4.23,8.00 L 4.23,8.00 Z"></path></g><g transform="translate(186.61675855843987 553.6644341503066) rotate(0 -18.111066989719575 54.76832214965981)" stroke="none"><path fill="#1e1e1e" d="M 8.98,-5.03 Q 8.98,-5.03 11.86,0.26 14.73,5.56 17.12,9.55 19.51,13.54 21.82,17.29 24.12,21.04 27.73,27.51 31.35,33.99 33.97,38.53 36.58,43.07 36.34,48.02 36.10,52.97 31.65,57.96 27.20,62.96 20.15,66.91 13.10,70.86 8.73,73.31 4.36,75.76 -0.17,78.44 -4.71,81.11 -9.07,83.79 -13.44,86.46 -19.47,90.31 -25.49,94.16 -29.64,97.44 -33.79,100.71 -39.43,105.85 -45.07,110.99 -52.25,115.70 -59.44,120.42 -61.30,120.52 -63.17,120.62 -64.97,120.12 -66.77,119.61 -68.31,118.56 -69.86,117.51 -70.99,116.03 -72.12,114.54 -72.71,112.77 -73.31,110.99 -73.30,109.13 -73.30,107.26 -72.70,105.49 -72.11,103.72 -70.97,102.23 -69.84,100.74 -68.29,99.70 -66.75,98.65 -64.95,98.15 -63.15,97.65 -61.28,97.76 -59.41,97.86 -57.68,98.55 -55.94,99.25 -54.52,100.46 -53.10,101.67 -52.14,103.27 -51.18,104.87 -50.78,106.70 -50.38,108.52 -50.58,110.38 -50.78,112.24 -51.57,113.93 -52.36,115.63 -53.64,116.98 -54.93,118.34 -56.58,119.21 -58.23,120.08 -60.08,120.39 -61.92,120.69 -63.76,120.38 -65.61,120.08 -67.26,119.20 -68.91,118.32 -70.19,116.96 -71.47,115.61 -72.26,113.91 -73.04,112.21 -73.24,110.36 -73.44,108.50 -73.04,106.67 -72.63,104.85 -71.67,103.25 -70.70,101.65 -69.28,100.44 -67.85,99.23 -66.11,98.54 -64.38,97.86 -64.38,97.86 -64.38,97.86 -63.71,97.42 -63.05,96.99 -58.48,93.51 -53.92,90.03 -50.38,87.16 -46.85,84.28 -42.46,80.77 -38.06,77.26 -31.95,72.08 -25.84,66.90 -21.50,64.06 -17.15,61.21 -12.50,58.14 -7.85,55.08 -3.39,52.31 1.07,49.54 5.03,47.24 9.00,44.93 13.16,42.86 17.32,40.78 16.04,46.35 14.76,51.93 12.99,47.65 11.22,43.37 8.55,37.51 5.88,31.65 3.72,27.71 1.55,23.78 -0.69,19.62 -2.95,15.46 -5.97,10.25 -8.98,5.03 -9.45,3.88 -9.93,2.73 -10.11,1.50 -10.29,0.27 -10.18,-0.95 -10.06,-2.19 -9.65,-3.36 -9.24,-4.53 -8.57,-5.57 -7.89,-6.61 -6.98,-7.46 -6.07,-8.31 -4.99,-8.92 -3.91,-9.52 -2.71,-9.85 -1.51,-10.18 -0.27,-10.22 0.96,-10.25 2.17,-9.99 3.39,-9.72 4.50,-9.17 5.62,-8.63 6.57,-7.83 7.52,-7.03 8.25,-6.03 8.98,-5.03 8.98,-5.03 L 8.98,-5.03 Z"></path></g><g transform="translate(123.74238868934663 662.5964501724221) rotate(0 23.227136640812887 21.34236329552016)" stroke="none"><path fill="#1e1e1e" d="M 6.24,-8.32 Q 6.24,-8.32 9.58,-5.97 12.92,-3.62 17.15,-0.53 21.38,2.55 25.05,5.44 28.73,8.32 31.87,11.25 35.01,14.18 38.38,17.21 41.75,20.24 45.03,23.09 48.31,25.94 52.08,29.34 55.85,32.74 57.15,34.53 58.45,36.32 59.11,38.44 59.77,40.55 59.72,42.76 59.67,44.97 58.91,47.05 58.16,49.13 56.78,50.86 55.40,52.60 53.54,53.80 51.68,55.00 49.54,55.54 47.39,56.08 45.19,55.91 42.98,55.74 40.94,54.88 38.91,54.01 37.25,52.54 35.60,51.07 34.50,49.15 33.40,47.23 32.98,45.06 32.55,42.89 32.84,40.69 33.13,38.50 34.10,36.51 35.08,34.52 36.64,32.95 38.19,31.38 40.17,30.39 42.15,29.40 44.34,29.09 46.53,28.78 48.71,29.19 50.88,29.60 52.81,30.68 54.75,31.76 56.23,33.40 57.72,35.04 58.60,37.07 59.48,39.10 59.67,41.30 59.86,43.51 59.34,45.66 58.81,47.81 57.63,49.68 56.44,51.55 54.72,52.94 53.01,54.33 50.93,55.11 48.86,55.88 46.65,55.95 44.43,56.02 42.32,55.38 40.20,54.73 38.39,53.45 36.59,52.17 36.59,52.17 36.59,52.17 34.99,50.53 33.39,48.89 29.83,45.39 26.28,41.89 23.02,37.98 19.77,34.07 16.66,30.52 13.55,26.96 10.07,23.25 6.59,19.54 3.36,16.48 0.12,13.42 -3.06,10.87 -6.24,8.32 -7.15,7.45 -8.05,6.58 -8.72,5.52 -9.40,4.46 -9.79,3.27 -10.19,2.08 -10.29,0.83 -10.39,-0.41 -10.19,-1.65 -9.99,-2.89 -9.50,-4.04 -9.01,-5.20 -8.25,-6.20 -7.50,-7.20 -6.53,-8.00 -5.56,-8.79 -4.43,-9.33 -3.29,-9.86 -2.06,-10.12 -0.83,-10.37 0.41,-10.32 1.66,-10.27 2.87,-9.92 4.07,-9.57 5.16,-8.94 6.25,-8.32 6.24,-8.32 L 6.24,-8.32 Z"></path></g><g transform="translate(286.25582476833597 172.80231901034324) rotate(0 -35.1793443986619 24.182996191701278)" stroke="none"><path fill="#1e1e1e" d="M 0.15,10.35 Q 0.15,10.35 -5.64,10.39 -11.44,10.42 -16.82,10.48 -22.20,10.54 -27.12,10.63 -32.03,10.71 -39.32,10.99 -46.62,11.27 -50.66,13.15 -54.70,15.03 -55.82,19.60 -56.94,24.16 -53.52,27.62 -50.10,31.07 -45.80,32.61 -41.50,34.16 -40.11,34.62 -38.72,35.08 -36.75,36.15 -34.79,37.21 -33.26,38.85 -31.74,40.49 -30.82,42.53 -29.90,44.57 -29.68,46.79 -29.46,49.02 -29.96,51.20 -30.46,53.37 -31.63,55.28 -32.81,57.19 -34.52,58.62 -36.24,60.05 -38.33,60.86 -40.41,61.66 -42.65,61.76 -44.88,61.86 -47.03,61.25 -49.18,60.63 -51.02,59.35 -52.86,58.08 -54.19,56.29 -55.53,54.50 -56.22,52.37 -56.92,50.24 -56.89,48.01 -56.87,45.77 -56.14,43.66 -55.40,41.55 -54.03,39.78 -52.66,38.01 -50.80,36.78 -48.94,35.54 -46.78,34.96 -44.62,34.38 -42.39,34.53 -40.15,34.67 -38.08,35.52 -36.02,36.36 -34.32,37.83 -32.63,39.29 -31.50,41.22 -30.37,43.15 -29.91,45.33 -29.45,47.52 -29.71,49.74 -29.97,51.96 -30.93,53.98 -31.89,56.00 -33.44,57.61 -35.00,59.22 -36.98,60.25 -38.97,61.28 -41.18,61.62 -43.39,61.96 -45.59,61.58 -47.80,61.19 -47.79,61.19 -47.79,61.19 -52.40,59.40 -57.02,57.61 -61.16,55.77 -65.31,53.94 -70.57,50.57 -75.84,47.21 -78.83,43.02 -81.82,38.82 -82.48,33.53 -83.13,28.25 -82.44,23.38 -81.76,18.51 -79.77,12.41 -77.79,6.31 -74.10,0.99 -70.41,-4.32 -64.83,-7.49 -59.26,-10.66 -52.95,-10.66 -46.64,-10.66 -39.37,-10.40 -32.10,-10.14 -27.22,-10.09 -22.35,-10.03 -17.05,-10.05 -11.75,-10.07 -5.95,-10.21 -0.15,-10.35 1.08,-10.22 2.32,-10.09 3.49,-9.66 4.67,-9.24 5.71,-8.55 6.74,-7.85 7.59,-6.93 8.43,-6.01 9.03,-4.91 9.62,-3.82 9.94,-2.61 10.26,-1.40 10.28,-0.15 10.30,1.09 10.02,2.30 9.74,3.52 9.17,4.63 8.61,5.75 7.80,6.70 6.98,7.64 5.96,8.37 4.95,9.09 3.79,9.55 2.63,10.01 1.39,10.18 0.15,10.35 0.15,10.35 L 0.15,10.35 Z"></path></g></svg>