<svg version="1.1" xmlns="http://www.w3.org/2000/svg" viewBox="0 0 479.3164848749565 708.2631548775371" width="479.3164848749565" height="708.2631548775371" class="excalidraw-svg">
  <!-- svg-source:excalidraw -->
  
  <defs>
    <style class="style-fonts">
      @font-face {
        font-family: "Virgil";
        src: url("https://excalidraw.com/Virgil.woff2");
      }
      @font-face {
        font-family: "Cascadia";
        src: url("https://excalidraw.com/Cascadia.woff2");
      }
      @font-face {
        font-family: "Assistant";
        src: url("https://excalidraw.com/Assistant-Regular.woff2");
      }
    </style>
    
  </defs>
  <g transform="translate(138.41888312380246 256.4683017941062) rotate(27.52326828786026 93.81004383748541 133.8680900856985)" stroke="none"><path d="M2.08 -0.94 C9.2 -0.99, 31.67 0.65, 40.97 1.14 C50.26 1.63, 46.47 4.45, 57.84 2 C69.22 -0.46, 98.57 -10.02, 109.22 -13.6 C119.87 -17.17, 119.25 -17.71, 121.77 -19.44 C124.28 -21.18, 123.51 -23.62, 124.31 -23.99 C125.11 -24.37, 126.19 -25.22, 126.58 -21.7 C126.96 -18.17, 125.25 -10.21, 126.62 -2.85 C127.99 4.51, 126.14 1.76, 134.78 22.48 C143.41 43.19, 166.82 94.83, 178.42 121.44 C190.02 148.04, 198.76 168.9, 204.37 182.08 C209.98 195.26, 209.78 194.5, 212.08 200.49 C214.38 206.48, 223.05 212.4, 218.16 218.01 C213.26 223.63, 190.54 230.98, 182.7 234.18 C174.86 237.39, 176.71 234.23, 171.12 237.26 C165.53 240.29, 157.31 248.79, 149.16 252.33 C141.01 255.88, 130.29 256.64, 122.22 258.52 C114.15 260.41, 110.41 262.21, 100.73 263.65 C91.05 265.1, 71.63 266.18, 64.12 267.19 C56.62 268.19, 71.32 265.91, 55.7 269.71 C40.09 273.51, -15.22 292.63, -29.58 290 C-43.93 287.38, -29.79 264.04, -30.41 253.96 C-31.04 243.88, -33.25 246.52, -33.31 229.51 C-33.37 212.51, -31.72 172.21, -30.75 151.94 C-29.78 131.66, -29.98 123.75, -27.47 107.84 C-24.97 91.93, -19.02 69.54, -15.73 56.45 C-12.45 43.36, -10.89 39.48, -7.77 29.29 C-4.64 19.1, 1.5 0.93, 3 -4.69" stroke="none" stroke-width="0" fill="#ffffff" fill-rule="evenodd"></path><path fill="#1e1e1e" d="M 0.10,-4.52 Q 0.10,-4.52 3.56,-4.38 7.02,-4.24 10.64,-4.10 14.27,-3.95 18.52,-3.63 22.77,-3.31 27.57,-2.95 32.38,-2.58 35.50,-2.60 38.62,-2.62 41.71,-2.89 44.81,-3.15 47.55,-3.46 50.29,-3.77 55.60,-4.63 60.91,-5.48 65.61,-6.25 70.31,-7.02 73.34,-7.78 76.36,-8.55 78.65,-9.22 80.94,-9.90 84.24,-10.93 87.54,-11.95 90.71,-13.26 93.88,-14.57 96.44,-15.45 99.01,-16.33 101.03,-16.98 103.06,-17.63 105.92,-18.79 108.79,-19.94 110.83,-20.82 112.87,-21.71 114.76,-22.72 116.65,-23.74 118.25,-25.83 119.85,-27.92 120.08,-28.10 120.31,-28.28 120.84,-28.94 121.37,-29.60 122.03,-30.11 122.70,-30.62 123.47,-30.96 124.24,-31.29 125.07,-31.44 125.90,-31.58 126.74,-31.52 127.58,-31.46 128.38,-31.20 129.18,-30.94 129.90,-30.50 130.61,-30.05 131.20,-29.45 131.79,-28.85 132.22,-28.13 132.64,-27.40 132.89,-26.60 133.13,-25.79 133.17,-24.95 133.21,-24.11 133.05,-23.28 132.89,-22.46 132.53,-21.69 132.18,-20.93 132.02,-18.10 131.87,-15.28 131.84,-12.43 131.81,-9.57 132.26,-5.09 132.70,-0.61 134.30,5.85 135.89,12.31 138.67,20.70 141.46,29.09 145.25,38.94 149.04,48.78 153.26,59.14 157.48,69.50 161.52,79.10 165.56,88.69 169.64,98.20 173.73,107.71 178.83,119.18 183.93,130.65 188.59,140.96 193.25,151.27 196.13,157.64 199.02,164.02 200.86,168.06 202.70,172.10 204.05,174.46 205.39,176.82 206.73,178.73 208.07,180.65 210.13,183.09 212.19,185.54 213.91,188.30 215.63,191.06 217.65,195.13 219.66,199.21 220.49,201.33 221.32,203.44 222.53,206.70 223.74,209.96 224.74,212.50 225.74,215.03 225.31,218.63 224.88,222.22 222.78,223.60 220.68,224.99 218.42,226.08 216.17,227.17 213.43,228.32 210.70,229.47 208.26,230.41 205.83,231.36 203.40,232.38 200.96,233.40 198.38,234.49 195.80,235.59 193.85,236.48 191.90,237.36 189.42,238.54 186.94,239.72 184.87,240.72 182.79,241.73 179.53,242.71 176.27,243.68 173.89,244.61 171.50,245.54 169.49,246.62 167.47,247.70 165.52,248.89 163.58,250.08 161.75,251.25 159.93,252.41 156.96,253.97 153.99,255.53 151.75,256.57 149.51,257.61 146.79,258.70 144.08,259.78 141.85,260.74 139.62,261.69 137.68,262.73 135.74,263.77 133.61,264.55 131.48,265.33 128.80,266.27 126.12,267.20 123.02,268.07 119.91,268.93 117.45,269.59 115.00,270.26 111.20,270.99 107.41,271.73 104.05,272.21 100.69,272.70 97.94,273.00 95.19,273.31 92.33,273.52 89.47,273.73 86.78,273.92 84.08,274.10 81.06,274.24 78.05,274.37 74.91,274.59 71.76,274.80 69.04,274.86 66.31,274.93 63.25,275.32 60.20,275.71 57.64,276.11 55.08,276.52 52.82,277.10 50.57,277.67 47.94,278.37 45.31,279.07 42.17,279.84 39.03,280.61 36.39,281.52 33.74,282.43 31.49,283.05 29.24,283.67 24.00,284.57 18.77,285.47 16.52,286.05 14.28,286.64 11.70,287.46 9.12,288.29 7.03,288.94 4.94,289.59 2.82,290.26 0.70,290.94 -4.06,291.93 -8.83,292.92 -12.12,293.83 -15.42,294.73 -17.89,295.64 -20.37,296.56 -22.73,297.29 -25.10,298.02 -29.27,297.76 -33.44,297.50 -35.35,295.11 -37.27,292.73 -37.38,289.81 -37.50,286.89 -37.32,280.78 -37.14,274.67 -37.24,271.46 -37.33,268.24 -37.49,265.68 -37.65,263.13 -38.01,259.41 -38.38,255.68 -38.56,253.12 -38.75,250.56 -38.87,246.87 -38.99,243.18 -39.06,240.56 -39.13,237.95 -39.19,235.48 -39.24,233.02 -39.21,229.75 -39.17,226.49 -38.84,221.58 -38.51,216.67 -37.88,211.01 -37.25,205.35 -36.74,200.64 -36.23,195.93 -35.85,189.39 -35.46,182.86 -35.12,178.22 -34.78,173.58 -34.60,169.84 -34.41,166.11 -34.36,162.98 -34.30,159.84 -34.40,157.61 -34.49,155.37 -34.55,151.42 -34.60,147.46 -34.41,145.06 -34.22,142.66 -33.94,139.94 -33.65,137.23 -32.83,132.52 -32.00,127.81 -31.40,123.83 -30.80,119.86 -30.23,115.84 -29.66,111.81 -29.08,107.92 -28.51,104.03 -28.01,100.67 -27.51,97.31 -27.17,94.58 -26.83,91.86 -26.61,89.70 -26.40,87.55 -25.92,83.87 -25.43,80.18 -25.05,76.55 -24.67,72.93 -24.17,68.76 -23.67,64.60 -23.32,62.20 -22.96,59.80 -22.45,57.22 -21.94,54.64 -21.11,51.54 -20.28,48.44 -19.53,45.54 -18.78,42.64 -18.25,39.84 -17.71,37.04 -17.33,34.93 -16.95,32.83 -16.24,29.93 -15.54,27.03 -14.48,23.58 -13.42,20.12 -11.66,16.40 -9.91,12.69 -9.11,10.41 -8.32,8.14 -7.60,5.64 -6.89,3.15 -6.08,-0.51 -5.27,-4.17 -5.02,-4.85 -4.76,-5.53 -4.35,-6.13 -3.94,-6.72 -3.40,-7.21 -2.86,-7.69 -2.22,-8.02 -1.57,-8.36 -0.87,-8.54 -0.17,-8.71 0.55,-8.71 1.27,-8.71 1.98,-8.54 2.68,-8.37 3.32,-8.03 3.97,-7.70 4.51,-7.22 5.05,-6.74 5.47,-6.14 5.88,-5.54 6.14,-4.87 6.39,-4.19 6.48,-3.47 6.57,-2.75 6.48,-2.03 6.40,-1.31 6.45,-1.55 6.49,-1.79 6.19,-0.86 5.88,0.05 5.29,0.83 4.70,1.60 3.90,2.15 3.10,2.70 2.16,2.96 1.22,3.22 0.25,3.17 -0.71,3.12 -1.62,2.77 -2.52,2.41 -3.26,1.78 -4.01,1.15 -4.51,0.32 -5.01,-0.50 -5.23,-1.45 -5.44,-2.40 -5.33,-3.37 -5.23,-4.34 -4.83,-5.22 -4.42,-6.10 -3.75,-6.81 -3.09,-7.52 -2.23,-7.98 -1.37,-8.44 -0.41,-8.60 0.54,-8.76 1.50,-8.60 2.46,-8.45 3.32,-7.99 4.18,-7.54 4.85,-6.83 5.53,-6.13 5.94,-5.25 6.35,-4.37 6.45,-3.40 6.56,-2.43 6.36,-1.48 6.15,-0.53 5.65,0.29 5.15,1.13 4.41,1.76 3.67,2.39 2.77,2.75 1.86,3.12 0.89,3.17 -0.07,3.23 -1.01,2.97 -1.94,2.71 -2.75,2.17 -3.56,1.62 -4.15,0.85 -4.74,0.08 -5.05,-0.83 -5.37,-1.76 -5.32,-2.96 -5.27,-4.17 -5.02,-4.85 -4.76,-5.53 -4.35,-6.13 -3.94,-6.72 -3.40,-7.21 -2.86,-7.69 -2.22,-8.02 -1.57,-8.36 -0.87,-8.54 -0.17,-8.71 0.55,-8.71 1.27,-8.71 1.98,-8.54 2.68,-8.37 3.32,-8.03 3.97,-7.70 4.51,-7.22 5.05,-6.74 5.46,-6.14 5.88,-5.55 6.14,-4.87 6.39,-4.19 6.48,-3.47 6.57,-2.75 6.48,-2.03 6.40,-1.31 6.04,0.40 5.68,2.13 4.78,4.52 3.88,6.91 2.89,9.35 1.91,11.80 1.06,14.14 0.20,16.49 -0.82,20.19 -1.85,23.90 -2.97,27.16 -4.08,30.41 -4.92,33.02 -5.76,35.62 -6.40,37.65 -7.04,39.67 -7.87,42.37 -8.71,45.06 -9.36,47.99 -10.01,50.92 -10.64,53.85 -11.26,56.78 -11.74,59.12 -12.21,61.45 -12.59,63.81 -12.97,66.16 -13.70,70.27 -14.42,74.37 -15.23,78.28 -16.03,82.18 -16.98,85.58 -17.92,88.98 -18.43,91.10 -18.94,93.23 -19.53,95.89 -20.13,98.56 -20.74,101.77 -21.35,104.97 -21.80,108.80 -22.24,112.62 -22.55,116.68 -22.86,120.74 -23.14,124.75 -23.42,128.76 -23.66,133.56 -23.90,138.36 -24.24,141.06 -24.57,143.77 -24.91,145.98 -25.25,148.19 -25.70,151.89 -26.15,155.59 -26.37,157.89 -26.58,160.19 -26.81,163.32 -27.04,166.44 -27.19,170.12 -27.33,173.80 -27.27,178.41 -27.21,183.01 -27.07,189.63 -26.92,196.25 -26.74,200.99 -26.56,205.72 -26.32,211.43 -26.09,217.14 -26.13,222.05 -26.17,226.96 -26.25,229.99 -26.33,233.02 -26.39,235.48 -26.44,237.94 -26.51,240.56 -26.58,243.17 -26.67,246.74 -26.76,250.31 -26.80,252.60 -26.85,254.88 -26.66,258.61 -26.47,262.35 -26.28,264.86 -26.08,267.38 -25.68,270.61 -25.28,273.84 -24.46,278.72 -23.64,283.61 -24.01,286.30 -24.37,288.99 -26.24,287.00 -28.10,285.01 -25.66,284.49 -23.21,283.98 -20.92,283.35 -18.62,282.72 -15.21,281.86 -11.80,281.01 -8.63,279.97 -5.46,278.92 -3.00,278.28 -0.55,277.63 2.44,276.87 5.44,276.12 8.17,275.36 10.90,274.61 13.19,273.92 15.48,273.23 20.70,271.51 25.92,269.79 28.31,269.13 30.70,268.46 33.08,267.69 35.47,266.92 38.43,266.11 41.39,265.29 44.34,264.51 47.30,263.72 49.89,263.13 52.48,262.54 55.11,262.09 57.73,261.65 60.65,261.19 63.56,260.73 65.69,260.77 67.82,260.81 70.39,260.80 72.96,260.79 75.32,260.65 77.68,260.51 80.39,260.37 83.11,260.23 85.78,260.05 88.45,259.86 91.15,259.65 93.85,259.44 96.30,259.18 98.75,258.91 101.59,258.46 104.43,258.01 106.66,257.43 108.89,256.84 111.07,256.28 113.25,255.71 115.89,254.95 118.52,254.18 120.66,253.58 122.80,252.98 125.26,252.17 127.73,251.37 129.83,250.66 131.93,249.95 134.72,248.72 137.50,247.50 139.97,246.60 142.45,245.70 145.08,244.64 147.71,243.59 150.30,242.23 152.89,240.88 154.75,239.79 156.61,238.69 158.78,237.46 160.96,236.22 164.37,234.65 167.79,233.07 170.20,232.32 172.60,231.57 176.02,230.54 179.44,229.50 181.77,228.59 184.10,227.69 187.44,226.25 190.79,224.80 193.30,223.53 195.82,222.26 198.31,221.01 200.81,219.76 204.79,217.97 208.77,216.18 210.82,215.38 212.88,214.58 214.95,213.87 217.02,213.16 215.21,214.34 213.39,215.52 212.75,213.03 212.10,210.54 210.95,206.99 209.81,203.44 208.99,201.44 208.16,199.43 206.66,196.16 205.15,192.90 204.10,190.54 203.05,188.18 202.13,186.25 201.21,184.32 200.38,181.93 199.56,179.53 198.62,176.97 197.68,174.42 195.79,170.39 193.90,166.37 190.95,160.02 188.00,153.67 183.24,143.39 178.48,133.11 173.25,121.67 168.01,110.23 163.75,100.78 159.49,91.33 155.21,81.81 150.92,72.29 146.37,62.02 141.81,51.74 137.54,41.93 133.27,32.12 129.83,23.67 126.39,15.23 123.92,8.43 121.44,1.63 119.96,-3.56 118.48,-8.76 118.07,-13.78 117.67,-18.79 117.92,-21.10 118.18,-23.41 119.25,-25.84 120.31,-28.28 120.84,-28.94 121.36,-29.60 122.03,-30.11 122.70,-30.62 123.47,-30.96 124.24,-31.29 125.07,-31.44 125.90,-31.58 126.74,-31.52 127.58,-31.46 128.38,-31.20 129.18,-30.94 129.90,-30.50 130.61,-30.05 131.20,-29.45 131.79,-28.85 132.22,-28.13 132.64,-27.40 132.88,-26.60 133.13,-25.79 133.17,-24.95 133.21,-24.11 133.05,-23.28 132.89,-22.46 132.54,-21.69 132.18,-20.93 132.31,-22.12 132.44,-23.30 131.09,-20.75 129.73,-18.21 128.10,-16.80 126.47,-15.40 124.54,-13.63 122.61,-11.86 120.12,-10.80 117.63,-9.74 115.42,-8.93 113.21,-8.12 111.03,-7.41 108.84,-6.70 106.56,-6.18 104.28,-5.65 102.04,-5.18 99.79,-4.70 97.22,-4.06 94.64,-3.43 92.23,-2.92 89.81,-2.42 86.41,-1.86 83.01,-1.29 80.66,-0.85 78.31,-0.41 75.19,0.28 72.08,0.99 67.41,2.29 62.74,3.58 56.73,4.73 50.71,5.89 47.70,5.71 44.69,5.53 41.55,5.16 38.42,4.79 35.25,4.59 32.08,4.40 27.33,4.36 22.58,4.32 18.35,4.42 14.12,4.53 10.47,4.54 6.81,4.56 3.35,4.54 -0.10,4.52 -0.64,4.44 -1.18,4.36 -1.68,4.16 -2.19,3.95 -2.63,3.63 -3.07,3.31 -3.43,2.90 -3.78,2.48 -4.02,1.99 -4.26,1.50 -4.38,0.97 -4.50,0.44 -4.49,-0.10 -4.47,-0.64 -4.33,-1.17 -4.19,-1.70 -3.92,-2.17 -3.66,-2.65 -3.29,-3.05 -2.92,-3.45 -2.46,-3.75 -2.01,-4.05 -1.49,-4.23 -0.98,-4.41 -0.43,-4.47 0.10,-4.52 0.10,-4.52 L 0.10,-4.52 Z"></path></g><g transform="translate(234.6305595630875 17.090491367828577) rotate(0 68.56934954105742 117.41628741673793)" stroke="none"><path d="M8.98 -0.3 C8.22 -0.02, 7.35 1.86, 5 1.74 C2.65 1.62, -2.15 -1.33, -5.12 -1.03 C-8.09 -0.73, -9.46 -0.07, -12.82 3.53 C-16.19 7.14, -20.95 14.94, -25.31 20.6 C-29.66 26.25, -35.58 32.09, -38.96 37.49 C-42.34 42.88, -42.4 46.09, -45.57 52.96 C-48.73 59.83, -55.41 69.09, -57.97 78.72 C-60.53 88.35, -59.61 101.14, -60.94 110.73 C-62.27 120.31, -65.42 129.22, -65.96 136.22 C-66.51 143.22, -65.31 147.94, -64.22 152.73 C-63.13 157.53, -60.43 161.07, -59.43 164.97 C-58.43 168.88, -59.84 172.49, -58.22 176.16 C-56.6 179.84, -52.83 183.23, -49.69 187.04 C-46.55 190.85, -43.82 193.66, -39.38 199.01 C-34.94 204.37, -27.92 214.69, -23.06 219.17 C-18.2 223.64, -15.47 223.69, -10.23 225.86 C-5 228.04, 2.12 230.51, 8.34 232.21 C14.57 233.91, 18.92 234.27, 27.14 236.04 C35.36 237.82, 49.33 241.51, 57.64 242.86 C65.95 244.21, 70.69 244.77, 76.99 244.14 C83.28 243.52, 89.73 240.27, 95.4 239.11 C101.06 237.95, 101.82 239.99, 111 237.19 C120.17 234.38, 141.74 226.19, 150.44 222.27 C159.14 218.36, 158.82 215.98, 163.18 213.71 C167.55 211.44, 173.6 210.45, 176.63 208.64 C179.67 206.84, 179.43 205.42, 181.4 202.88 C183.36 200.34, 186.35 197.92, 188.44 193.41 C190.52 188.9, 191.66 182.88, 193.92 175.82 C196.18 168.76, 200.45 161.32, 202.02 151.04 C203.59 140.76, 204.2 124.91, 203.34 114.15 C202.47 103.39, 199.83 97.6, 196.81 86.48 C193.8 75.36, 187.74 55.45, 185.24 47.42 C182.74 39.39, 184.14 41.43, 181.81 38.31 C179.47 35.19, 175.15 32.25, 171.23 28.7 C167.31 25.15, 163.71 20.35, 158.29 17.02 C152.88 13.69, 146.49 11.55, 138.73 8.73 C130.98 5.9, 120.26 2.37, 111.77 0.06 C103.29 -2.25, 94.31 -3.85, 87.84 -5.15 C81.36 -6.46, 80.56 -7.24, 72.93 -7.78 C65.3 -8.33, 49.26 -9.14, 42.05 -8.41 C34.85 -7.69, 36.05 -5.82, 29.72 -3.42 C23.4 -1.03, 8.75 4.52, 4.1 5.96" stroke="none" stroke-width="0" fill="#ffffff" fill-rule="evenodd"></path><path fill="#1e1e1e" d="M 7.54,11.60 Q 7.54,11.60 4.75,11.40 1.96,11.20 -3.05,14.48 -8.08,17.77 -11.10,20.78 -14.12,23.79 -19.26,30.55 -24.40,37.31 -27.97,43.00 -31.54,48.68 -34.66,54.69 -37.78,60.69 -40.52,67.13 -43.26,73.57 -45.63,80.53 -48.01,87.49 -49.80,94.53 -51.59,101.58 -52.59,107.99 -53.59,114.41 -54.27,121.40 -54.94,128.40 -55.19,135.77 -55.43,143.14 -54.72,149.35 -54.01,155.56 -52.46,161.13 -50.90,166.69 -48.47,171.86 -46.04,177.04 -42.79,182.11 -39.55,187.18 -35.70,191.76 -31.85,196.34 -27.58,200.35 -23.30,204.37 -17.99,208.36 -12.67,212.36 -5.75,216.47 1.16,220.58 9.01,223.80 16.87,227.01 24.10,228.91 31.32,230.82 39.04,232.00 46.76,233.18 55.93,233.99 65.10,234.79 73.89,234.73 82.69,234.67 90.71,233.72 98.74,232.76 112.65,228.29 126.57,223.82 137.00,219.74 147.44,215.67 154.31,212.12 161.18,208.57 165.80,204.92 170.42,201.27 173.63,197.50 176.85,193.73 179.14,189.86 181.44,185.98 183.12,181.79 184.80,177.60 186.08,172.83 187.36,168.06 188.36,162.45 189.35,156.84 190.62,145.28 191.89,133.72 192.47,124.34 193.04,114.96 192.93,106.72 192.83,98.49 189.07,84.56 185.31,70.64 182.14,61.82 178.96,53.01 175.64,47.41 172.33,41.82 168.91,37.98 165.49,34.15 161.90,31.28 158.32,28.41 154.44,26.04 150.57,23.66 146.48,21.67 142.38,19.67 138.14,18.07 133.90,16.47 129.26,14.97 124.63,13.47 119.99,12.10 115.35,10.72 110.90,9.62 106.46,8.52 100.04,6.97 93.62,5.41 88.90,4.72 84.19,4.04 76.88,3.83 69.58,3.62 63.06,3.81 56.54,4.01 51.53,4.49 46.53,4.98 41.79,6.16 37.04,7.34 32.59,8.72 28.14,10.09 23.24,11.98 18.35,13.87 12.84,16.29 7.33,18.72 5.32,19.05 3.31,19.38 1.30,19.05 -0.70,18.72 -2.50,17.76 -4.30,16.81 -5.70,15.33 -7.11,13.85 -7.96,12.00 -8.82,10.15 -9.04,8.12 -9.26,6.10 -8.82,4.11 -8.38,2.12 -7.33,0.37 -6.28,-1.37 -4.73,-2.69 -3.17,-4.00 -1.28,-4.76 0.60,-5.51 2.64,-5.62 4.67,-5.73 6.64,-5.19 8.60,-4.64 10.29,-3.50 11.97,-2.36 13.21,-0.73 14.44,0.88 15.09,2.81 15.74,4.74 15.74,6.78 15.74,8.82 15.09,10.75 14.44,12.68 13.21,14.30 11.97,15.93 10.29,17.07 8.60,18.21 6.63,18.76 4.67,19.30 2.64,19.19 0.60,19.08 -1.28,18.33 -3.18,17.57 -4.73,16.25 -6.28,14.93 -7.33,13.19 -8.38,11.44 -8.82,9.45 -9.26,7.46 -9.04,5.43 -8.82,3.41 -7.96,1.56 -7.11,-0.28 -5.70,-1.76 -4.30,-3.24 -2.50,-4.19 -0.70,-5.15 -0.70,-5.15 -0.70,-5.15 0.63,-5.63 1.97,-6.11 6.09,-7.55 10.22,-8.99 15.51,-10.62 20.80,-12.25 29.67,-14.81 38.55,-17.36 44.37,-17.79 50.18,-18.21 56.76,-17.97 63.34,-17.73 71.12,-17.13 78.90,-16.53 83.22,-15.88 87.53,-15.23 92.53,-14.22 97.53,-13.22 104.66,-11.93 111.79,-10.64 116.58,-9.17 121.38,-7.70 126.17,-5.99 130.96,-4.28 136.06,-2.30 141.16,-0.33 146.04,2.00 150.91,4.34 155.56,7.22 160.20,10.09 164.58,13.58 168.96,17.06 172.88,21.26 176.81,25.45 180.24,30.56 183.67,35.67 186.91,42.23 190.16,48.79 193.77,58.04 197.38,67.28 201.72,82.56 206.07,97.84 206.70,106.58 207.32,115.31 207.42,125.08 207.51,134.85 207.04,147.49 206.56,160.13 205.21,166.70 203.87,173.26 201.81,179.05 199.76,184.83 196.95,189.90 194.13,194.98 190.53,199.40 186.92,203.82 182.32,207.80 177.73,211.79 172.01,215.27 166.30,218.75 158.91,222.35 151.51,225.96 140.78,230.26 130.04,234.56 115.13,239.40 100.21,244.24 91.57,245.37 82.93,246.50 73.58,246.80 64.24,247.09 54.61,246.58 44.97,246.07 36.46,244.99 27.95,243.91 20.01,241.89 12.08,239.88 3.10,236.81 -5.86,233.74 -14.14,229.72 -22.42,225.69 -28.75,221.15 -35.09,216.60 -39.95,211.79 -44.81,206.98 -49.22,201.48 -53.64,195.99 -57.39,189.86 -61.13,183.72 -63.86,177.20 -66.59,170.69 -68.14,163.91 -69.70,157.14 -70.30,150.05 -70.91,142.96 -70.96,135.03 -71.02,127.09 -70.50,119.47 -69.99,111.85 -68.90,104.90 -67.81,97.95 -66.30,90.25 -64.79,82.55 -62.82,74.76 -60.86,66.97 -58.42,59.63 -55.99,52.29 -53.15,45.38 -50.31,38.47 -46.97,31.46 -43.63,24.45 -40.25,19.25 -36.87,14.05 -33.84,10.60 -30.80,7.16 -27.23,3.55 -23.66,-0.04 -20.32,-2.82 -16.98,-5.61 -10.39,-8.22 -3.80,-10.84 0.52,-10.40 4.85,-9.97 7.59,-9.42 10.33,-8.86 11.54,-8.55 12.74,-8.23 13.84,-7.64 14.93,-7.04 15.85,-6.20 16.77,-5.36 17.46,-4.33 18.16,-3.29 18.58,-2.12 19.00,-0.95 19.14,0.28 19.27,1.52 19.10,2.75 18.93,3.99 18.47,5.15 18.01,6.30 17.29,7.32 16.57,8.33 15.62,9.14 14.68,9.96 13.57,10.52 12.46,11.08 11.24,11.36 10.03,11.64 8.78,11.62 7.54,11.60 7.54,11.60 L 7.54,11.60 Z"></path></g><g transform="translate(281.15377978514516 105.69826538206246) rotate(0 -0.17232435863783735 0)" stroke="none"><path fill="#1e1e1e" d="M -0.19,8.93 Q -0.19,8.93 -1.62,8.69 -3.04,8.46 -4.32,7.78 -5.60,7.10 -6.59,6.06 -7.59,5.01 -8.19,3.70 -8.80,2.38 -8.95,0.95 -9.11,-0.48 -8.80,-1.89 -8.49,-3.30 -7.74,-4.54 -7.00,-5.78 -5.90,-6.71 -4.80,-7.65 -3.45,-8.18 -2.11,-8.72 -0.67,-8.80 0.76,-8.87 2.16,-8.49 3.55,-8.10 4.74,-7.29 5.94,-6.48 6.81,-5.33 7.69,-4.18 8.15,-2.81 8.61,-1.44 8.61,0.00 8.61,1.44 8.15,2.81 7.69,4.18 6.81,5.33 5.94,6.48 4.74,7.29 3.55,8.10 2.15,8.49 0.76,8.87 -0.67,8.80 -2.11,8.72 -3.46,8.18 -4.80,7.65 -5.90,6.71 -7.00,5.78 -7.75,4.54 -8.49,3.30 -8.80,1.89 -9.11,0.48 -8.95,-0.95 -8.80,-2.39 -8.19,-3.70 -7.58,-5.01 -6.59,-6.06 -5.60,-7.11 -4.32,-7.78 -3.04,-8.46 -1.62,-8.69 -0.19,-8.93 -0.19,-8.93 -0.19,-8.93 0.87,-8.82 1.94,-8.71 2.95,-8.35 3.97,-7.99 4.87,-7.40 5.77,-6.81 6.50,-6.02 7.23,-5.23 7.75,-4.29 8.28,-3.35 8.56,-2.31 8.84,-1.27 8.86,-0.19 8.88,0.88 8.65,1.93 8.42,2.98 7.94,3.94 7.46,4.91 6.76,5.73 6.07,6.55 5.19,7.18 4.32,7.81 3.32,8.22 2.32,8.62 1.26,8.77 0.19,8.93 -0.00,8.93 L -0.19,8.93 Z"></path></g><g transform="translate(370.4882557027222 102.03197590188131) rotate(0 0.00005000000000165983 0.00004999999998744897)" stroke="none"><path fill="#1e1e1e" d="M 6.28,-6.28 Q 6.28,-6.28 7.11,-5.11 7.95,-3.94 8.37,-2.57 8.80,-1.19 8.76,0.23 8.72,1.67 8.22,3.02 7.73,4.37 6.83,5.49 5.93,6.61 4.72,7.38 3.50,8.15 2.11,8.50 0.72,8.85 -0.71,8.73 -2.14,8.61 -3.46,8.05 -4.78,7.48 -5.85,6.52 -6.92,5.56 -7.63,4.31 -8.33,3.06 -8.60,1.65 -8.87,0.23 -8.68,-1.18 -8.49,-2.60 -7.85,-3.89 -7.21,-5.18 -6.19,-6.19 -5.18,-7.21 -3.89,-7.85 -2.60,-8.49 -1.18,-8.68 0.24,-8.87 1.65,-8.60 3.06,-8.33 4.31,-7.62 5.56,-6.92 6.52,-5.85 7.48,-4.78 8.05,-3.46 8.62,-2.14 8.73,-0.70 8.85,0.72 8.50,2.11 8.15,3.51 7.38,4.72 6.61,5.93 5.48,6.83 4.36,7.73 3.02,8.22 1.67,8.72 0.23,8.76 -1.20,8.80 -2.57,8.37 -3.94,7.95 -5.11,7.11 -6.28,6.27 -6.28,6.27 -6.28,6.28 -6.94,5.43 -7.60,4.59 -8.04,3.61 -8.48,2.64 -8.67,1.58 -8.86,0.53 -8.80,-0.53 -8.73,-1.60 -8.41,-2.62 -8.09,-3.64 -7.54,-4.56 -6.99,-5.47 -6.23,-6.23 -5.47,-6.99 -4.56,-7.54 -3.64,-8.10 -2.62,-8.41 -1.60,-8.73 -0.53,-8.80 0.53,-8.86 1.59,-8.67 2.64,-8.48 3.61,-8.04 4.59,-7.60 5.43,-6.94 6.28,-6.28 6.28,-6.28 L 6.28,-6.28 Z"></path></g><g transform="translate(319.7646254514957 164.26396826667371) rotate(0 -35.1793443986619 24.182996191701278)" stroke="none"><path fill="#1e1e1e" d="M 0.15,10.35 Q 0.15,10.35 -5.64,10.39 -11.44,10.42 -16.82,10.48 -22.20,10.54 -27.12,10.63 -32.03,10.71 -39.32,10.99 -46.62,11.27 -50.66,13.15 -54.70,15.03 -55.82,19.60 -56.94,24.16 -53.52,27.62 -50.10,31.07 -45.80,32.61 -41.50,34.16 -40.11,34.62 -38.72,35.08 -36.75,36.15 -34.79,37.21 -33.26,38.85 -31.74,40.49 -30.82,42.53 -29.90,44.57 -29.68,46.79 -29.46,49.02 -29.96,51.20 -30.46,53.37 -31.63,55.28 -32.81,57.19 -34.52,58.62 -36.24,60.05 -38.33,60.86 -40.41,61.66 -42.65,61.76 -44.88,61.86 -47.03,61.25 -49.18,60.63 -51.02,59.35 -52.86,58.08 -54.19,56.29 -55.53,54.50 -56.22,52.37 -56.92,50.24 -56.89,48.01 -56.87,45.77 -56.14,43.66 -55.40,41.55 -54.03,39.78 -52.66,38.01 -50.80,36.78 -48.94,35.54 -46.78,34.96 -44.62,34.38 -42.39,34.53 -40.15,34.67 -38.08,35.52 -36.02,36.36 -34.32,37.83 -32.63,39.29 -31.50,41.22 -30.37,43.15 -29.91,45.33 -29.45,47.52 -29.71,49.74 -29.97,51.96 -30.93,53.98 -31.89,56.00 -33.44,57.61 -35.00,59.22 -36.98,60.25 -38.97,61.28 -41.18,61.62 -43.39,61.96 -45.59,61.58 -47.80,61.19 -47.79,61.19 -47.79,61.19 -52.40,59.40 -57.02,57.61 -61.16,55.77 -65.31,53.94 -70.57,50.57 -75.84,47.21 -78.83,43.02 -81.82,38.82 -82.48,33.53 -83.13,28.25 -82.44,23.38 -81.76,18.51 -79.77,12.41 -77.79,6.31 -74.10,0.99 -70.41,-4.32 -64.83,-7.49 -59.26,-10.66 -52.95,-10.66 -46.64,-10.66 -39.37,-10.40 -32.10,-10.14 -27.22,-10.09 -22.35,-10.03 -17.05,-10.05 -11.75,-10.07 -5.95,-10.21 -0.15,-10.35 1.08,-10.22 2.32,-10.09 3.49,-9.66 4.67,-9.24 5.71,-8.55 6.74,-7.85 7.59,-6.93 8.43,-6.01 9.03,-4.91 9.62,-3.82 9.94,-2.61 10.26,-1.40 10.28,-0.15 10.30,1.09 10.02,2.30 9.74,3.52 9.17,4.63 8.61,5.75 7.80,6.70 6.98,7.64 5.96,8.37 4.95,9.09 3.79,9.55 2.63,10.01 1.39,10.18 0.15,10.35 0.15,10.35 L 0.15,10.35 Z"></path></g><g transform="translate(275.82993142554733 279.40216638210654) rotate(0 17.523763059133216 41.77397357207073)" stroke="none"><path fill="#1e1e1e" d="M 9.25,-2.71 Q 9.25,-2.71 11.07,4.75 12.90,12.22 15.16,18.71 17.42,25.20 20.05,31.44 22.69,37.68 25.25,43.01 27.82,48.35 30.04,52.66 32.26,56.98 35.72,63.37 39.18,69.76 41.66,73.86 44.14,77.96 44.75,79.58 45.35,81.20 45.41,82.92 45.46,84.65 44.97,86.30 44.47,87.95 43.47,89.36 42.47,90.77 41.07,91.78 39.68,92.80 38.03,93.31 36.38,93.83 34.66,93.79 32.93,93.75 31.31,93.17 29.68,92.58 28.33,91.51 26.98,90.43 26.04,88.98 25.11,87.53 24.68,85.86 24.26,84.19 24.39,82.47 24.52,80.75 25.19,79.16 25.86,77.57 27.01,76.28 28.16,74.99 29.65,74.13 31.15,73.27 32.84,72.94 34.54,72.60 36.25,72.83 37.96,73.05 39.51,73.81 41.06,74.57 42.29,75.78 43.52,77.00 44.29,78.54 45.07,80.08 45.31,81.79 45.55,83.50 45.23,85.20 44.92,86.89 44.08,88.40 43.23,89.91 41.96,91.07 40.68,92.23 39.10,92.92 37.51,93.61 35.79,93.75 34.07,93.90 32.40,93.50 30.72,93.09 29.26,92.17 27.80,91.24 26.71,89.90 25.62,88.57 25.63,88.57 25.63,88.57 23.36,83.36 21.10,78.15 18.44,71.36 15.78,64.57 13.94,60.08 12.10,55.58 9.65,50.00 7.20,44.43 4.23,37.83 1.27,31.23 -1.49,24.24 -4.25,17.25 -6.75,9.98 -9.25,2.71 -9.44,1.56 -9.63,0.41 -9.54,-0.73 -9.45,-1.89 -9.08,-3.00 -8.72,-4.10 -8.10,-5.08 -7.48,-6.07 -6.65,-6.88 -5.81,-7.68 -4.81,-8.27 -3.80,-8.85 -2.69,-9.18 -1.57,-9.51 -0.41,-9.56 0.74,-9.61 1.88,-9.38 3.02,-9.15 4.07,-8.66 5.12,-8.16 6.03,-7.43 6.93,-6.70 7.63,-5.77 8.33,-4.84 8.79,-3.77 9.25,-2.71 9.25,-2.71 L 9.25,-2.71 Z"></path></g><g transform="translate(309.4170921732193 358.68847925794887) rotate(0 79.94969635086858 -31.065024518933797)" stroke="none"><path fill="#1e1e1e" d="M -0.49,-7.69 Q -0.49,-7.69 7.09,-8.07 14.68,-8.45 24.50,-10.16 34.32,-11.87 46.73,-15.72 59.14,-19.57 71.24,-24.43 83.33,-29.29 93.92,-34.05 104.51,-38.81 113.18,-42.84 121.86,-46.87 128.00,-50.17 134.14,-53.48 138.63,-56.08 143.13,-58.68 147.63,-61.44 152.13,-64.20 151.30,-62.64 150.48,-61.09 150.65,-62.55 150.82,-64.01 151.44,-65.34 152.07,-66.67 153.08,-67.73 154.10,-68.79 155.40,-69.47 156.71,-70.15 158.16,-70.37 159.61,-70.60 161.06,-70.36 162.51,-70.11 163.80,-69.41 165.09,-68.72 166.10,-67.64 167.10,-66.57 167.71,-65.23 168.32,-63.89 168.47,-62.43 168.62,-60.97 168.29,-59.54 167.97,-58.11 167.20,-56.85 166.43,-55.60 165.31,-54.65 164.18,-53.71 162.81,-53.17 161.45,-52.64 159.98,-52.57 158.51,-52.50 157.10,-52.90 155.68,-53.30 154.47,-54.14 153.26,-54.97 152.38,-56.14 151.50,-57.32 151.04,-58.72 150.58,-60.11 150.59,-61.58 150.60,-63.05 151.08,-64.44 151.56,-65.83 152.45,-66.99 153.35,-68.16 154.57,-68.97 155.79,-69.79 157.21,-70.17 158.63,-70.56 160.10,-70.47 161.56,-70.38 162.92,-69.82 164.28,-69.27 165.40,-68.31 166.51,-67.35 167.26,-66.09 168.01,-64.83 168.32,-63.39 168.62,-61.95 168.62,-61.95 168.62,-61.96 163.82,-55.52 159.01,-49.09 154.10,-47.55 149.19,-46.02 144.41,-44.18 139.63,-42.35 133.20,-39.45 126.76,-36.55 118.10,-32.33 109.44,-28.12 98.74,-23.05 88.03,-17.97 75.59,-12.64 63.15,-7.31 50.11,-2.83 37.06,1.64 26.36,4.07 15.66,6.51 8.07,7.10 0.49,7.69 -0.43,7.64 -1.36,7.59 -2.25,7.31 -3.14,7.04 -3.93,6.56 -4.73,6.08 -5.39,5.43 -6.05,4.77 -6.53,3.98 -7.02,3.18 -7.30,2.30 -7.58,1.41 -7.64,0.48 -7.69,-0.43 -7.53,-1.35 -7.37,-2.26 -6.99,-3.11 -6.61,-3.96 -6.04,-4.70 -5.47,-5.43 -4.74,-6.01 -4.01,-6.58 -3.16,-6.97 -2.31,-7.35 -1.40,-7.52 -0.49,-7.69 -0.49,-7.69 L -0.49,-7.69 Z"></path></g><g transform="translate(212.30160403500372 241.22885148181842) rotate(0 -52.831288274121675 59.717691356241914)" stroke="none"><path fill="#1e1e1e" d="M 4.18,7.20 Q 4.18,7.20 -2.07,10.73 -8.33,14.27 -15.04,18.27 -21.75,22.28 -28.68,26.63 -35.61,30.98 -42.55,35.61 -49.49,40.24 -56.48,45.07 -63.48,49.90 -69.03,54.25 -74.59,58.60 -78.52,62.17 -82.45,65.74 -87.47,70.86 -92.49,75.98 -87.23,81.37 -81.97,86.77 -76.84,91.31 -71.71,95.85 -67.95,98.85 -64.19,101.84 -60.67,104.44 -57.15,107.04 -61.24,107.12 -65.32,107.21 -63.34,106.79 -61.36,106.37 -59.34,106.60 -57.33,106.84 -55.49,107.71 -53.66,108.57 -52.20,109.98 -50.73,111.38 -49.80,113.18 -48.86,114.98 -48.55,116.99 -48.24,118.99 -48.58,120.99 -48.92,122.99 -49.89,124.77 -50.85,126.56 -52.34,127.94 -53.82,129.33 -55.67,130.16 -57.52,131.00 -59.53,131.20 -61.55,131.41 -63.53,130.96 -65.51,130.50 -67.24,129.44 -68.97,128.38 -70.27,126.83 -71.57,125.27 -72.31,123.38 -73.04,121.49 -73.13,119.46 -73.23,117.44 -72.67,115.49 -72.11,113.54 -70.96,111.87 -69.81,110.20 -68.18,108.98 -66.56,107.77 -64.63,107.14 -62.70,106.50 -60.68,106.52 -58.65,106.54 -56.73,107.20 -54.81,107.86 -53.21,109.10 -51.60,110.34 -50.48,112.03 -49.35,113.72 -48.83,115.68 -48.30,117.64 -48.43,119.66 -48.55,121.69 -49.32,123.57 -50.08,125.44 -51.41,126.98 -52.74,128.51 -54.48,129.55 -56.23,130.58 -56.23,130.58 -56.22,130.58 -65.41,127.61 -74.59,124.65 -78.85,120.63 -83.11,116.61 -87.60,112.22 -92.09,107.82 -97.55,102.23 -103.01,96.63 -108.86,90.10 -114.70,83.56 -114.50,78.08 -114.30,72.60 -110.84,69.06 -107.38,65.52 -103.01,62.38 -98.65,59.25 -95.09,56.77 -91.54,54.30 -87.02,51.16 -82.50,48.02 -76.67,43.87 -70.84,39.72 -64.02,34.55 -57.19,29.37 -50.38,24.26 -43.57,19.14 -36.78,14.27 -30.00,9.39 -23.26,4.79 -16.52,0.18 -10.35,-3.50 -4.18,-7.20 -3.26,-7.59 -2.34,-7.99 -1.35,-8.15 -0.36,-8.32 0.63,-8.24 1.64,-8.16 2.59,-7.85 3.54,-7.53 4.39,-7.00 5.24,-6.46 5.94,-5.74 6.64,-5.02 7.14,-4.15 7.65,-3.28 7.93,-2.32 8.21,-1.36 8.26,-0.35 8.30,0.64 8.10,1.62 7.91,2.61 7.48,3.52 7.05,4.43 6.42,5.21 5.78,5.99 4.98,6.59 4.18,7.20 4.18,7.20 L 4.18,7.20 Z"></path></g><g transform="translate(238.6119568239037 521.1009163562588) rotate(0 43.34205755967065 85.47540276494618)" stroke="none"><path fill="#1e1e1e" d="M 7.27,-2.41 Q 7.27,-2.41 9.42,3.75 11.57,9.91 14.52,17.55 17.47,25.20 21.61,34.54 25.74,43.88 29.99,53.15 34.24,62.43 38.17,71.16 42.10,79.89 45.84,88.18 49.58,96.47 52.91,103.04 56.24,109.60 59.13,114.48 62.02,119.35 64.50,123.22 66.99,127.09 70.56,131.81 74.12,136.53 77.40,139.98 80.69,143.44 83.87,146.70 87.05,149.97 89.95,153.38 92.85,156.79 95.42,160.97 97.99,165.16 98.35,166.00 98.70,166.83 98.99,168.29 99.28,169.75 99.21,171.24 99.14,172.73 98.71,174.15 98.29,175.58 97.54,176.86 96.78,178.15 95.75,179.21 94.71,180.28 93.44,181.07 92.18,181.85 90.77,182.32 89.35,182.78 87.87,182.89 86.38,183.00 84.91,182.75 83.45,182.50 82.08,181.91 80.72,181.31 79.53,180.41 78.35,179.51 77.42,178.35 76.48,177.19 75.85,175.84 75.22,174.49 77.37,177.88 79.52,181.26 77.70,180.40 75.88,179.53 74.43,178.13 72.99,176.73 72.06,174.94 71.14,173.15 70.83,171.16 70.53,169.17 70.87,167.19 71.22,165.20 72.18,163.43 73.14,161.66 74.62,160.29 76.10,158.92 77.93,158.10 79.77,157.27 81.77,157.07 83.78,156.88 85.74,157.33 87.70,157.78 89.42,158.84 91.13,159.90 92.42,161.45 93.71,162.99 94.44,164.87 95.16,166.75 95.25,168.76 95.34,170.78 94.78,172.71 94.22,174.65 93.07,176.30 91.92,177.96 90.31,179.16 88.69,180.36 86.78,180.98 84.86,181.61 82.85,181.59 80.83,181.57 78.93,180.90 77.03,180.24 75.44,179.00 73.85,177.77 72.73,176.09 71.62,174.41 71.10,172.46 70.58,170.52 70.71,168.51 70.85,166.50 71.61,164.63 72.38,162.77 73.70,161.25 75.02,159.73 76.75,158.71 78.49,157.69 80.46,157.27 82.43,156.86 84.43,157.10 86.43,157.34 86.43,157.34 86.43,157.34 92.57,162.09 98.70,166.83 98.99,168.29 99.28,169.75 99.21,171.24 99.14,172.73 98.71,174.15 98.29,175.58 97.54,176.86 96.78,178.15 95.75,179.21 94.71,180.28 93.44,181.07 92.18,181.85 90.77,182.32 89.35,182.78 87.87,182.89 86.38,183.00 84.92,182.75 83.45,182.50 82.08,181.91 80.72,181.31 79.53,180.41 78.35,179.51 77.42,178.35 76.48,177.19 75.85,175.84 75.22,174.49 74.95,173.76 74.68,173.03 72.69,168.90 70.71,164.77 67.99,160.54 65.27,156.32 62.22,151.21 59.18,146.11 56.36,140.18 53.54,134.26 51.65,129.91 49.76,125.57 47.47,120.23 45.18,114.89 42.13,108.13 39.08,101.36 35.16,93.16 31.24,84.97 27.09,76.42 22.94,67.87 18.33,58.72 13.72,49.57 9.02,40.23 4.32,30.90 0.48,22.88 -3.36,14.87 -5.31,8.64 -7.27,2.41 -7.45,1.50 -7.63,0.60 -7.59,-0.32 -7.55,-1.24 -7.29,-2.13 -7.04,-3.01 -6.57,-3.81 -6.11,-4.61 -5.47,-5.27 -4.83,-5.94 -4.05,-6.43 -3.26,-6.92 -2.39,-7.21 -1.51,-7.50 -0.59,-7.58 0.32,-7.65 1.23,-7.50 2.14,-7.35 2.99,-6.98 3.84,-6.62 4.58,-6.06 5.31,-5.51 5.90,-4.79 6.48,-4.07 6.87,-3.24 7.27,-2.40 7.27,-2.40 L 7.27,-2.41 Z"></path></g><g transform="translate(331.34222339543294 698.2631548775371) rotate(0 45.058932002101415 -0.24123010404144907)" stroke="none"><path fill="#1e1e1e" d="M 0,-9.70 Q 0,-9.70 5.98,-9.68 11.96,-9.67 18.43,-9.57 24.90,-9.47 31.71,-9.33 38.53,-9.19 45.32,-9.08 52.11,-8.97 57.98,-9.04 63.85,-9.11 68.36,-9.31 72.87,-9.51 78.82,-9.92 84.77,-10.33 83.57,-8.63 82.37,-6.94 83.63,-8.10 84.89,-9.27 86.46,-9.97 88.02,-10.67 89.73,-10.84 91.44,-11.00 93.12,-10.61 94.79,-10.22 96.25,-9.31 97.71,-8.41 98.81,-7.09 99.90,-5.76 100.52,-4.16 101.13,-2.56 101.20,-0.84 101.27,0.87 100.79,2.52 100.31,4.16 99.33,5.57 98.35,6.98 96.97,8.00 95.59,9.03 93.95,9.55 92.32,10.08 90.60,10.06 88.88,10.04 87.26,9.47 85.64,8.90 84.29,7.84 82.93,6.79 81.99,5.35 81.04,3.92 80.60,2.26 80.17,0.60 80.28,-1.11 80.40,-2.82 81.05,-4.41 81.71,-6.00 82.84,-7.29 83.97,-8.59 85.45,-9.45 86.93,-10.32 88.61,-10.67 90.30,-11.01 92.00,-10.81 93.71,-10.60 95.26,-9.86 96.81,-9.12 98.04,-7.92 99.27,-6.72 100.05,-5.19 100.84,-3.67 101.09,-1.97 101.35,-0.27 101.05,1.41 100.75,3.10 99.93,4.61 99.10,6.12 99.10,6.12 99.10,6.12 91.94,8.22 84.77,10.33 78.82,9.92 72.87,9.51 68.36,9.31 63.85,9.11 57.98,9.04 52.11,8.97 45.32,9.08 38.53,9.19 31.71,9.33 24.90,9.47 18.43,9.57 11.96,9.67 5.98,9.68 0,9.70 -1.16,9.56 -2.32,9.42 -3.41,9.01 -4.51,8.59 -5.47,7.93 -6.43,7.26 -7.21,6.39 -7.99,5.51 -8.53,4.47 -9.07,3.44 -9.35,2.30 -9.63,1.16 -9.63,-0.00 -9.63,-1.17 -9.35,-2.30 -9.07,-3.44 -8.53,-4.47 -7.99,-5.51 -7.21,-6.39 -6.43,-7.26 -5.47,-7.93 -4.51,-8.59 -3.41,-9.01 -2.32,-9.42 -1.16,-9.56 0.00,-9.70 0.00,-9.70 L 0,-9.70 Z"></path></g><g transform="translate(184.9234863590707 519.7235838698663) rotate(0 -86.49169909499346 48.23853022788575)" stroke="none"><path fill="#1e1e1e" d="M 8.03,5.05 Q 8.03,5.05 3.71,11.32 -0.60,17.60 -5.14,23.88 -9.67,30.16 -14.05,36.20 -18.43,42.23 -22.55,47.73 -26.66,53.22 -29.84,57.60 -33.03,61.98 -35.58,65.53 -38.13,69.08 -42.78,75.16 -47.43,81.24 -51.22,86.01 -55.01,90.79 -57.97,94.27 -60.93,97.75 -64.59,101.59 -68.25,105.42 -73.07,107.05 -77.90,108.69 -84.17,108.79 -90.44,108.90 -96.24,108.60 -102.05,108.30 -108.56,107.65 -115.07,106.99 -123.30,105.23 -131.53,103.46 -137.00,102.51 -142.47,101.56 -149.42,100.44 -156.37,99.32 -161.38,98.55 -166.39,97.78 -171.40,96.36 -176.41,94.93 -178.12,94.01 -179.83,93.08 -181.15,91.65 -182.47,90.23 -183.27,88.46 -184.07,86.68 -184.26,84.75 -184.45,82.81 -184.02,80.92 -183.58,79.03 -182.56,77.37 -181.54,75.71 -180.05,74.47 -178.55,73.23 -176.74,72.53 -174.93,71.82 -172.98,71.74 -171.04,71.65 -169.17,72.19 -167.31,72.73 -165.71,73.84 -164.11,74.94 -162.95,76.50 -161.79,78.06 -161.19,79.91 -160.58,81.76 -160.60,83.70 -160.62,85.65 -161.26,87.48 -161.90,89.32 -163.09,90.86 -164.29,92.39 -165.91,93.47 -167.53,94.54 -169.40,95.04 -171.28,95.54 -173.22,95.42 -175.16,95.29 -176.96,94.56 -178.76,93.82 -180.23,92.54 -181.70,91.27 -182.68,89.60 -183.67,87.92 -184.07,86.02 -184.47,84.11 -184.24,82.18 -184.01,80.25 -183.17,78.50 -182.34,76.74 -180.99,75.34 -179.64,73.95 -177.91,73.05 -176.18,72.16 -174.26,71.86 -172.34,71.57 -170.42,71.90 -168.51,72.24 -168.51,72.24 -168.51,72.24 -164.79,73.71 -161.08,75.18 -156.41,76.61 -151.75,78.05 -145.32,79.69 -138.89,81.33 -133.76,82.26 -128.62,83.19 -121.18,83.67 -113.74,84.14 -107.72,84.22 -101.70,84.30 -96.08,84.17 -90.46,84.04 -86.01,84.74 -81.56,85.45 -77.89,82.44 -74.22,79.44 -70.55,76.02 -66.88,72.60 -62.24,67.89 -57.61,63.18 -52.05,57.27 -46.49,51.37 -43.08,47.38 -39.67,43.40 -35.69,38.18 -31.72,32.97 -27.63,26.87 -23.55,20.78 -19.58,14.47 -15.60,8.16 -11.82,1.55 -8.03,-5.05 -7.31,-5.94 -6.59,-6.83 -5.67,-7.52 -4.76,-8.21 -3.71,-8.66 -2.66,-9.11 -1.53,-9.29 -0.40,-9.48 0.73,-9.39 1.87,-9.30 2.96,-8.94 4.05,-8.58 5.02,-7.97 5.98,-7.36 6.78,-6.54 7.57,-5.71 8.15,-4.72 8.72,-3.73 9.04,-2.64 9.36,-1.54 9.41,-0.39 9.46,0.74 9.23,1.86 9.01,2.98 8.52,4.02 8.03,5.05 8.03,5.05 L 8.03,5.05 Z"></path></g><g transform="translate(10 597.8157526585848) rotate(0 0 18.50295880789764)" stroke="none"><path fill="#1e1e1e" d="M 10.08,0 Q 10.08,0 10.11,5.37 10.15,10.74 10.46,18.07 10.77,25.40 11.07,31.03 11.37,36.65 11.07,38.47 10.77,40.28 9.91,41.91 9.05,43.53 7.71,44.80 6.38,46.06 4.71,46.84 3.04,47.61 1.21,47.81 -0.61,48.01 -2.41,47.61 -4.20,47.22 -5.78,46.27 -7.36,45.32 -8.55,43.92 -9.74,42.51 -10.42,40.81 -11.10,39.10 -11.20,37.26 -11.30,35.42 -10.81,33.65 -10.31,31.88 -9.28,30.35 -8.25,28.83 -6.78,27.72 -5.32,26.61 -3.58,26.02 -1.83,25.43 0.00,25.43 1.84,25.43 3.58,26.02 5.32,26.61 6.79,27.72 8.25,28.83 9.28,30.36 10.32,31.88 10.81,33.65 11.30,35.43 11.20,37.26 11.10,39.10 10.42,40.81 9.74,42.52 8.55,43.92 7.35,45.32 5.78,46.27 4.20,47.22 2.40,47.61 0.61,48.01 -1.21,47.81 -3.04,47.61 -4.71,46.84 -6.38,46.06 -7.71,44.80 -9.05,43.53 -9.91,41.91 -10.77,40.28 -11.07,38.47 -11.37,36.65 -11.37,36.65 -11.37,36.65 -11.07,31.03 -10.77,25.40 -10.46,18.07 -10.15,10.74 -10.11,5.37 -10.08,0 -9.94,-1.20 -9.79,-2.41 -9.36,-3.55 -8.93,-4.68 -8.24,-5.68 -7.55,-6.69 -6.64,-7.49 -5.73,-8.30 -4.65,-8.86 -3.57,-9.43 -2.39,-9.72 -1.21,-10.01 0.00,-10.01 1.21,-10.01 2.39,-9.72 3.57,-9.43 4.65,-8.86 5.73,-8.30 6.64,-7.49 7.55,-6.69 8.24,-5.68 8.93,-4.68 9.36,-3.55 9.79,-2.41 9.94,-1.20 10.08,0.00 10.08,0.00 L 10.08,0 Z"></path></g></svg>