<svg version="1.1" xmlns="http://www.w3.org/2000/svg" viewBox="0 0 447.4069630231176 785.0885953379359" width="447.4069630231176" height="785.0885953379359" class="excalidraw-svg">
  <!-- svg-source:excalidraw -->
  
  <defs>
    <style class="style-fonts">
      @font-face {
        font-family: "Virgil";
        src: url("https://excalidraw.com/Virgil.woff2");
      }
      @font-face {
        font-family: "Cascadia";
        src: url("https://excalidraw.com/Cascadia.woff2");
      }
      @font-face {
        font-family: "Assistant";
        src: url("https://excalidraw.com/Assistant-Regular.woff2");
      }
    </style>
    
  </defs>
  <g transform="translate(94.04292941182351 17.090491367828577) rotate(0 68.56934954105742 117.41628741673793)" stroke="none"><path d="M7.24 3.48 C6.64 3.36, 5.13 1.23, 3.11 0.6 C1.1 -0.02, -1.75 -0.83, -4.86 -0.29 C-7.98 0.26, -12.17 0.45, -15.58 3.86 C-18.99 7.28, -21.19 14.3, -25.33 20.19 C-29.47 26.08, -37.28 33.52, -40.42 39.19 C-43.56 44.86, -41.43 46.99, -44.18 54.23 C-46.92 61.46, -53.89 72.91, -56.9 82.62 C-59.92 92.33, -61.4 103.08, -62.25 112.5 C-63.11 121.93, -61.84 132.13, -62.04 139.17 C-62.25 146.22, -63.31 150.51, -63.48 154.77 C-63.65 159.03, -64.22 160.68, -63.05 164.74 C-61.89 168.8, -59.04 175.4, -56.48 179.14 C-53.92 182.89, -49.84 183.79, -47.68 187.21 C-45.52 190.62, -47.67 194.27, -43.52 199.63 C-39.36 204.98, -28.59 214.83, -22.74 219.33 C-16.89 223.83, -13.65 224.36, -8.44 226.62 C-3.23 228.88, 2.75 230.6, 8.51 232.9 C14.27 235.19, 17.85 239.09, 26.14 240.38 C34.44 241.66, 49.59 240.39, 58.28 240.61 C66.97 240.83, 71.95 241.61, 78.27 241.71 C84.59 241.8, 90.3 241.77, 96.22 241.18 C102.14 240.59, 104.81 241.32, 113.81 238.15 C122.81 234.97, 141.56 226.09, 150.23 222.14 C158.91 218.19, 162.02 216.39, 165.86 214.45 C169.7 212.51, 170.69 212.79, 173.27 210.5 C175.85 208.21, 178.77 203.7, 181.34 200.71 C183.91 197.72, 185.99 197.06, 188.67 192.58 C191.35 188.11, 195.22 181.19, 197.43 173.87 C199.63 166.55, 201.27 158.24, 201.88 148.67 C202.49 139.1, 201.2 127.13, 201.08 116.45 C200.97 105.77, 203.63 95.82, 201.21 84.6 C198.79 73.38, 190.1 56.59, 186.58 49.14 C183.05 41.69, 182.01 42.95, 180.05 39.89 C178.09 36.84, 178.41 34.78, 174.79 30.82 C171.18 26.87, 163.77 19.93, 158.35 16.16 C152.92 12.4, 150.15 10.68, 142.24 8.25 C134.33 5.82, 120.74 3.85, 110.9 1.57 C101.06 -0.7, 89.62 -3.82, 83.2 -5.42 C76.78 -7.01, 79.59 -8.09, 72.37 -7.97 C65.14 -7.86, 46.93 -5.46, 39.84 -4.72 C32.74 -3.99, 35.74 -5.76, 29.79 -3.57 C23.85 -1.37, 8.82 6.57, 4.17 8.46" stroke="none" stroke-width="0" fill="#ffffff" fill-rule="evenodd"></path><path fill="#1e1e1e" d="M 7.54,11.60 Q 7.54,11.60 4.75,11.40 1.96,11.20 -3.05,14.48 -8.08,17.77 -11.10,20.78 -14.12,23.79 -19.26,30.55 -24.40,37.31 -27.97,43.00 -31.54,48.68 -34.66,54.69 -37.78,60.69 -40.52,67.13 -43.26,73.57 -45.63,80.53 -48.01,87.49 -49.80,94.53 -51.59,101.58 -52.59,107.99 -53.59,114.41 -54.27,121.40 -54.94,128.40 -55.19,135.77 -55.43,143.14 -54.72,149.35 -54.01,155.56 -52.46,161.13 -50.90,166.69 -48.47,171.86 -46.04,177.04 -42.79,182.11 -39.55,187.18 -35.70,191.76 -31.85,196.34 -27.58,200.35 -23.30,204.37 -17.99,208.36 -12.67,212.36 -5.75,216.47 1.16,220.58 9.01,223.80 16.87,227.01 24.10,228.91 31.32,230.82 39.04,232.00 46.76,233.18 55.93,233.99 65.10,234.79 73.89,234.73 82.69,234.67 90.71,233.72 98.74,232.76 112.65,228.29 126.57,223.82 137.00,219.74 147.44,215.67 154.31,212.12 161.18,208.57 165.80,204.92 170.42,201.27 173.63,197.50 176.85,193.73 179.14,189.86 181.44,185.98 183.12,181.79 184.80,177.60 186.08,172.83 187.36,168.06 188.36,162.45 189.35,156.84 190.62,145.28 191.89,133.72 192.47,124.34 193.04,114.96 192.93,106.72 192.83,98.49 189.07,84.56 185.31,70.64 182.14,61.82 178.96,53.01 175.64,47.41 172.33,41.82 168.91,37.98 165.49,34.15 161.90,31.28 158.32,28.41 154.44,26.04 150.57,23.66 146.48,21.67 142.38,19.67 138.14,18.07 133.90,16.47 129.26,14.97 124.63,13.47 119.99,12.10 115.35,10.72 110.90,9.62 106.46,8.52 100.04,6.97 93.62,5.41 88.90,4.72 84.19,4.04 76.88,3.83 69.58,3.62 63.06,3.81 56.54,4.01 51.53,4.49 46.53,4.98 41.79,6.16 37.04,7.34 32.59,8.72 28.14,10.09 23.24,11.98 18.35,13.87 12.84,16.29 7.33,18.72 5.32,19.05 3.31,19.38 1.30,19.05 -0.70,18.72 -2.50,17.76 -4.30,16.81 -5.70,15.33 -7.11,13.85 -7.96,12.00 -8.82,10.15 -9.04,8.12 -9.26,6.10 -8.82,4.11 -8.38,2.12 -7.33,0.37 -6.28,-1.37 -4.73,-2.69 -3.17,-4.00 -1.28,-4.76 0.60,-5.51 2.64,-5.62 4.67,-5.73 6.64,-5.19 8.60,-4.64 10.29,-3.50 11.97,-2.36 13.21,-0.73 14.44,0.88 15.09,2.81 15.74,4.74 15.74,6.78 15.74,8.82 15.09,10.75 14.44,12.68 13.21,14.30 11.97,15.93 10.29,17.07 8.60,18.21 6.63,18.76 4.67,19.30 2.64,19.19 0.60,19.08 -1.28,18.33 -3.18,17.57 -4.73,16.25 -6.28,14.93 -7.33,13.19 -8.38,11.44 -8.82,9.45 -9.26,7.46 -9.04,5.43 -8.82,3.41 -7.96,1.56 -7.11,-0.28 -5.70,-1.76 -4.30,-3.24 -2.50,-4.19 -0.70,-5.15 -0.70,-5.15 -0.70,-5.15 0.63,-5.63 1.97,-6.11 6.09,-7.55 10.22,-8.99 15.51,-10.62 20.80,-12.25 29.67,-14.81 38.55,-17.36 44.37,-17.79 50.18,-18.21 56.76,-17.97 63.34,-17.73 71.12,-17.13 78.90,-16.53 83.22,-15.88 87.53,-15.23 92.53,-14.22 97.53,-13.22 104.66,-11.93 111.79,-10.64 116.58,-9.17 121.38,-7.70 126.17,-5.99 130.96,-4.28 136.06,-2.30 141.16,-0.33 146.04,2.00 150.91,4.34 155.56,7.22 160.20,10.09 164.58,13.58 168.96,17.06 172.88,21.26 176.81,25.45 180.24,30.56 183.67,35.67 186.91,42.23 190.16,48.79 193.77,58.04 197.38,67.28 201.72,82.56 206.07,97.84 206.70,106.58 207.32,115.31 207.42,125.08 207.51,134.85 207.04,147.49 206.56,160.13 205.21,166.70 203.87,173.26 201.81,179.05 199.76,184.83 196.95,189.90 194.13,194.98 190.53,199.40 186.92,203.82 182.32,207.80 177.73,211.79 172.01,215.27 166.30,218.75 158.91,222.35 151.51,225.96 140.78,230.26 130.04,234.56 115.13,239.40 100.21,244.24 91.57,245.37 82.93,246.50 73.58,246.80 64.24,247.09 54.61,246.58 44.97,246.07 36.46,244.99 27.95,243.91 20.01,241.89 12.08,239.88 3.10,236.81 -5.86,233.74 -14.14,229.72 -22.42,225.69 -28.75,221.15 -35.09,216.60 -39.95,211.79 -44.81,206.98 -49.22,201.48 -53.64,195.99 -57.39,189.86 -61.13,183.72 -63.86,177.20 -66.59,170.69 -68.14,163.91 -69.70,157.14 -70.30,150.05 -70.91,142.96 -70.96,135.03 -71.02,127.09 -70.50,119.47 -69.99,111.85 -68.90,104.90 -67.81,97.95 -66.30,90.25 -64.79,82.55 -62.82,74.76 -60.86,66.97 -58.42,59.63 -55.99,52.29 -53.15,45.38 -50.31,38.47 -46.97,31.46 -43.63,24.45 -40.25,19.25 -36.87,14.05 -33.84,10.60 -30.80,7.16 -27.23,3.55 -23.66,-0.04 -20.32,-2.82 -16.98,-5.61 -10.39,-8.22 -3.80,-10.84 0.52,-10.40 4.85,-9.97 7.59,-9.42 10.33,-8.86 11.54,-8.55 12.74,-8.23 13.84,-7.64 14.93,-7.04 15.85,-6.20 16.77,-5.36 17.46,-4.33 18.16,-3.29 18.58,-2.12 19.00,-0.95 19.14,0.28 19.27,1.52 19.10,2.75 18.93,3.99 18.47,5.15 18.01,6.30 17.29,7.32 16.57,8.33 15.62,9.14 14.68,9.96 13.57,10.52 12.46,11.08 11.24,11.36 10.03,11.64 8.78,11.62 7.54,11.60 7.54,11.60 L 7.54,11.60 Z"></path></g><g transform="translate(102.57153157132683 532.9662518421319) rotate(0 -11.278542999965282 121.03924515836809)" stroke="none"><path fill="#1e1e1e" d="M 5.99,-8.47 Q 5.99,-8.47 11.10,-4.67 16.22,-0.87 20.30,2.49 24.37,5.85 27.89,9.43 31.40,13.00 34.60,16.83 37.80,20.65 40.60,24.13 43.40,27.61 45.99,31.00 48.58,34.40 52.41,39.51 56.24,44.62 59.51,51.58 62.77,58.54 59.86,64.51 56.95,70.48 53.10,74.42 49.24,78.35 42.25,84.81 35.26,91.27 26.37,100.52 17.49,109.76 8.82,119.43 0.15,129.11 -7.47,137.94 -15.11,146.77 -21.83,154.64 -28.54,162.51 -33.67,168.71 -38.81,174.91 -42.55,179.90 -46.29,184.88 -49.11,188.97 -51.93,193.05 -55.81,199.16 -59.68,205.27 -62.06,209.70 -64.43,214.13 -66.74,208.69 -69.05,203.24 -63.12,203.62 -57.20,204.01 -52.15,205.80 -47.10,207.59 -41.95,209.43 -36.80,211.27 -31.62,213.25 -26.44,215.23 -21.75,217.12 -17.07,219.02 -13.06,220.69 -9.06,222.36 -2.79,224.85 3.47,227.35 7.82,229.18 12.17,231.02 13.75,232.11 15.32,233.20 16.46,234.73 17.61,236.27 18.20,238.09 18.79,239.91 18.77,241.82 18.76,243.73 18.13,245.54 17.50,247.35 16.33,248.86 15.15,250.37 13.56,251.43 11.97,252.49 10.12,252.98 8.27,253.47 6.36,253.35 4.45,253.23 2.68,252.50 0.91,251.78 -0.53,250.53 -1.97,249.27 -2.94,247.62 -3.91,245.97 -4.31,244.10 -4.70,242.23 -4.47,240.33 -4.25,238.43 -3.43,236.70 -2.61,234.97 -1.28,233.60 0.04,232.22 1.74,231.34 3.44,230.46 5.33,230.17 7.22,229.88 9.11,230.21 10.99,230.54 12.67,231.45 14.35,232.36 15.66,233.76 16.96,235.17 17.74,236.91 18.53,238.66 18.72,240.56 18.91,242.46 18.48,244.33 18.05,246.19 17.04,247.82 16.04,249.45 14.57,250.68 13.10,251.90 11.32,252.59 9.53,253.28 7.62,253.36 5.71,253.45 3.87,252.92 2.03,252.39 2.03,252.39 2.04,252.39 0.15,251.43 -1.73,250.48 -6.52,248.08 -11.31,245.69 -18.33,242.37 -25.34,239.06 -29.67,237.23 -33.99,235.41 -38.93,233.61 -43.86,231.80 -49.08,230.07 -54.31,228.34 -62.53,225.47 -70.75,222.60 -74.49,220.43 -78.23,218.27 -79.04,209.72 -79.85,201.16 -76.97,197.82 -74.10,194.48 -69.10,188.92 -64.11,183.36 -60.70,179.61 -57.29,175.87 -53.16,171.25 -49.04,166.64 -44.05,160.32 -39.06,154.01 -32.77,145.78 -26.48,137.56 -19.37,128.18 -12.26,118.81 -4.24,108.34 3.78,97.87 11.83,87.58 19.89,77.29 28.57,67.47 37.26,57.64 34.01,52.50 30.75,47.37 25.99,40.70 21.23,34.03 16.08,27.71 10.94,21.39 7.76,18.48 4.57,15.58 -0.70,12.02 -5.99,8.47 -6.91,7.63 -7.84,6.79 -8.54,5.75 -9.24,4.71 -9.67,3.54 -10.10,2.36 -10.24,1.12 -10.37,-0.11 -10.21,-1.35 -10.04,-2.59 -9.58,-3.76 -9.13,-4.92 -8.41,-5.94 -7.68,-6.97 -6.74,-7.78 -5.79,-8.60 -4.68,-9.17 -3.56,-9.74 -2.35,-10.03 -1.13,-10.31 0.11,-10.30 1.36,-10.28 2.58,-9.97 3.79,-9.66 4.89,-9.06 5.99,-8.47 5.99,-8.47 L 5.99,-8.47 Z"></path></g><g transform="translate(190.60548926759452 532.2130333636297) rotate(0 4.834908118416934 114.3063077153455)" stroke="none"><path fill="#1e1e1e" d="M 6.00,-8.17 Q 6.00,-8.17 11.72,-3.58 17.44,1.01 22.57,5.70 27.71,10.39 31.75,14.35 35.80,18.30 38.96,21.72 42.13,25.14 44.83,28.54 47.52,31.94 51.55,37.66 55.58,43.37 58.04,46.86 60.50,50.34 62.05,56.16 63.61,61.98 61.19,67.12 58.77,72.26 52.79,78.88 46.81,85.50 42.17,90.58 37.52,95.67 32.93,100.91 28.35,106.15 24.02,111.32 19.69,116.49 15.11,121.94 10.54,127.38 6.43,132.51 2.32,137.64 -0.94,142.15 -4.21,146.65 -7.23,150.92 -10.25,155.18 -12.81,159.01 -15.37,162.83 -19.18,168.95 -23.00,175.06 -25.61,179.16 -28.22,183.25 -30.55,187.24 -32.89,191.24 -34.10,184.90 -35.31,178.57 -30.89,179.59 -26.48,180.62 -22.35,182.90 -18.23,185.19 -13.58,187.81 -8.93,190.43 -4.19,193.09 0.54,195.76 4.73,198.11 8.92,200.46 15.28,204.06 21.63,207.67 25.91,210.64 30.19,213.61 33.50,216.34 36.82,219.06 38.07,220.66 39.31,222.25 39.99,224.17 40.66,226.08 40.68,228.11 40.71,230.13 40.08,232.06 39.46,233.99 38.26,235.62 37.05,237.25 35.39,238.40 33.72,239.56 31.78,240.13 29.83,240.70 27.81,240.61 25.78,240.53 23.89,239.80 22.00,239.07 20.44,237.78 18.88,236.49 17.81,234.77 16.75,233.04 16.29,231.07 15.82,229.10 16.02,227.08 16.21,225.06 17.04,223.21 17.87,221.36 19.24,219.87 20.62,218.39 22.40,217.41 24.18,216.44 26.17,216.09 28.17,215.74 30.17,216.04 32.17,216.34 33.98,217.27 35.78,218.20 37.19,219.65 38.60,221.10 39.48,222.93 40.35,224.76 40.59,226.77 40.84,228.78 40.43,230.77 40.02,232.75 38.99,234.50 37.97,236.25 36.44,237.58 34.91,238.91 33.04,239.69 31.17,240.46 29.14,240.59 27.12,240.73 25.16,240.21 23.20,239.69 21.51,238.58 19.82,237.46 19.82,237.46 19.82,237.46 18.44,236.17 17.05,234.88 13.08,231.43 9.11,227.99 3.35,224.40 -2.39,220.82 -6.39,218.61 -10.39,216.41 -15.24,213.99 -20.09,211.57 -24.90,209.20 -29.70,206.82 -37.19,202.87 -44.67,198.91 -48.25,196.01 -51.83,193.11 -51.81,184.90 -51.79,176.70 -48.94,173.27 -46.10,169.84 -43.21,166.41 -40.33,162.97 -35.86,157.15 -31.39,151.33 -28.50,147.56 -25.62,143.79 -22.39,139.63 -19.17,135.48 -15.67,130.91 -12.16,126.34 -8.17,121.08 -4.18,115.82 0.00,110.09 4.20,104.35 8.23,98.86 12.27,93.36 16.41,87.63 20.55,81.89 24.72,76.11 28.89,70.33 32.65,65.57 36.41,60.81 39.93,57.35 43.45,53.88 42.81,59.22 42.18,64.56 39.62,59.70 37.06,54.84 33.99,49.39 30.93,43.93 26.57,37.80 22.21,31.68 18.72,27.98 15.23,24.28 10.71,20.31 6.19,16.33 0.09,12.25 -6.00,8.17 -6.89,7.34 -7.78,6.50 -8.45,5.47 -9.11,4.45 -9.51,3.29 -9.91,2.14 -10.02,0.92 -10.14,-0.29 -9.95,-1.50 -9.77,-2.71 -9.31,-3.84 -8.84,-4.97 -8.11,-5.95 -7.39,-6.94 -6.45,-7.72 -5.51,-8.51 -4.42,-9.05 -3.32,-9.58 -2.12,-9.84 -0.93,-10.10 0.29,-10.06 1.51,-10.03 2.69,-9.70 3.87,-9.37 4.93,-8.77 6.00,-8.17 6.00,-8.17 L 6.00,-8.17 Z"></path></g><g transform="translate(90.71390781740337 258.48168908738614) rotate(0 0.00005000000000165983 0.00004999999998744897)" stroke="none"><path fill="#1e1e1e" d="M 6.28,-6.28 Q 6.28,-6.28 7.11,-5.11 7.95,-3.94 8.37,-2.57 8.80,-1.19 8.76,0.23 8.72,1.67 8.22,3.02 7.73,4.37 6.83,5.49 5.93,6.61 4.72,7.38 3.50,8.15 2.11,8.50 0.72,8.85 -0.71,8.73 -2.14,8.61 -3.46,8.05 -4.78,7.48 -5.85,6.52 -6.92,5.56 -7.63,4.31 -8.33,3.06 -8.60,1.65 -8.87,0.23 -8.68,-1.18 -8.49,-2.60 -7.85,-3.89 -7.21,-5.18 -6.19,-6.19 -5.18,-7.21 -3.89,-7.85 -2.60,-8.49 -1.18,-8.68 0.24,-8.87 1.65,-8.60 3.06,-8.33 4.31,-7.62 5.56,-6.92 6.52,-5.85 7.48,-4.78 8.05,-3.46 8.62,-2.14 8.73,-0.70 8.85,0.72 8.50,2.11 8.15,3.51 7.38,4.72 6.61,5.93 5.48,6.83 4.36,7.73 3.02,8.22 1.67,8.72 0.23,8.76 -1.20,8.80 -2.57,8.37 -3.94,7.95 -5.11,7.11 -6.28,6.27 -6.28,6.27 -6.28,6.28 -6.94,5.43 -7.60,4.59 -8.04,3.61 -8.48,2.64 -8.67,1.58 -8.86,0.53 -8.80,-0.53 -8.73,-1.60 -8.41,-2.62 -8.09,-3.64 -7.54,-4.56 -6.99,-5.47 -6.23,-6.23 -5.47,-6.99 -4.56,-7.54 -3.64,-8.10 -2.62,-8.41 -1.60,-8.73 -0.53,-8.80 0.53,-8.86 1.59,-8.67 2.64,-8.48 3.61,-8.04 4.59,-7.60 5.43,-6.94 6.28,-6.28 6.28,-6.28 L 6.28,-6.28 Z"></path></g><g transform="translate(132.04072521552501 262.46176937413884) rotate(0 83.57421861495868 65.42685039258197)" stroke="none"><path fill="#1e1e1e" d="M 8.74,0 Q 8.74,0 8.28,10.42 7.82,20.84 7.47,29.94 7.13,39.04 6.87,47.64 6.62,56.25 6.86,63.95 7.10,71.66 7.94,77.93 8.77,84.20 9.84,89.18 10.91,94.16 12.21,98.25 13.51,102.33 16.30,109.59 19.09,116.86 20.98,121.01 22.87,125.15 29.25,120.47 35.63,115.79 43.47,113.44 51.31,111.10 59.85,107.84 68.39,104.59 76.51,101.09 84.64,97.59 91.34,94.16 98.04,90.74 103.33,87.60 108.62,84.46 112.98,81.78 117.35,79.10 121.01,76.83 124.68,74.56 130.98,70.86 137.27,67.17 142.62,64.26 147.97,61.36 152.75,58.81 157.53,56.26 159.66,54.94 161.78,53.63 163.58,53.09 165.38,52.55 167.26,52.61 169.14,52.67 170.90,53.33 172.66,53.99 174.12,55.18 175.58,56.36 176.58,57.95 177.58,59.54 178.02,61.37 178.47,63.20 178.30,65.07 178.14,66.94 177.39,68.66 176.63,70.38 175.37,71.78 174.11,73.17 172.46,74.08 170.82,75.00 168.97,75.34 167.13,75.68 165.26,75.42 163.40,75.15 161.72,74.31 160.05,73.46 158.72,72.13 157.40,70.79 156.58,69.10 155.75,67.41 155.51,65.55 155.27,63.68 155.63,61.84 156.00,60.00 156.94,58.36 157.87,56.73 159.28,55.49 160.68,54.24 162.42,53.51 164.15,52.78 166.02,52.64 167.90,52.49 169.72,52.96 171.54,53.42 173.12,54.45 174.69,55.47 175.86,56.94 177.03,58.41 177.67,60.18 178.30,61.95 178.34,63.83 178.38,65.71 177.82,67.50 177.26,69.30 176.15,70.81 175.05,72.33 173.51,73.42 171.98,74.51 171.98,74.51 171.98,74.51 169.29,75.79 166.60,77.07 161.59,78.85 156.57,80.62 151.20,82.67 145.83,84.71 139.37,87.38 132.91,90.05 129.02,91.79 125.14,93.53 120.57,95.68 116.00,97.83 110.39,100.71 104.77,103.58 97.94,107.26 91.10,110.93 83.09,115.24 75.09,119.55 66.56,123.93 58.03,128.31 49.90,132.20 41.76,136.09 34.73,138.40 27.71,140.70 22.92,141.14 18.14,141.59 11.86,138.96 5.59,136.32 3.92,131.87 2.25,127.42 0.89,121.27 -0.47,115.11 -1.55,110.63 -2.62,106.15 -3.44,101.28 -4.26,96.41 -4.73,90.98 -5.21,85.55 -5.62,78.83 -6.04,72.10 -6.33,64.18 -6.62,56.25 -6.87,47.64 -7.13,39.04 -7.47,29.94 -7.82,20.84 -8.28,10.42 -8.74,0 -8.61,-1.04 -8.48,-2.09 -8.11,-3.07 -7.74,-4.06 -7.14,-4.93 -6.54,-5.79 -5.75,-6.49 -4.96,-7.19 -4.03,-7.68 -3.09,-8.17 -2.07,-8.42 -1.05,-8.67 0.00,-8.67 1.05,-8.67 2.07,-8.42 3.10,-8.17 4.03,-7.68 4.96,-7.19 5.75,-6.49 6.54,-5.79 7.14,-4.92 7.74,-4.06 8.11,-3.07 8.48,-2.09 8.61,-1.04 8.74,0.00 8.74,0.00 L 8.74,0 Z"></path></g><g transform="translate(224.50453495947949 232.97892511997043) rotate(0 106.45121403181906 -8.885167760608283)" stroke="none"><path fill="#1e1e1e" d="M 9.75,-0.69 Q 9.75,-0.69 10.21,3.13 10.67,6.97 14.57,10.67 18.48,14.37 22.09,17.09 25.70,19.81 33.36,16.76 41.01,13.71 51.15,10.94 61.29,8.18 74.32,3.79 87.34,-0.59 102.45,-6.33 117.56,-12.07 131.82,-17.96 146.09,-23.86 157.09,-28.75 168.09,-33.65 176.45,-37.47 184.81,-41.30 190.44,-44.34 196.07,-47.37 200.81,-50.55 205.56,-53.72 206.88,-54.47 208.21,-55.21 209.44,-55.73 210.67,-56.25 212.00,-56.35 213.34,-56.45 214.63,-56.12 215.92,-55.79 217.04,-55.06 218.17,-54.33 218.99,-53.29 219.82,-52.24 220.28,-50.98 220.73,-49.72 220.76,-48.39 220.78,-47.05 220.38,-45.78 219.98,-44.50 219.19,-43.42 218.41,-42.35 217.32,-41.57 216.23,-40.80 214.95,-40.42 213.67,-40.04 212.33,-40.08 211.00,-40.13 209.75,-40.60 208.50,-41.07 207.46,-41.91 206.43,-42.75 205.71,-43.88 205.00,-45.01 204.69,-46.31 204.38,-47.61 204.49,-48.94 204.61,-50.27 205.15,-51.50 205.68,-52.72 206.58,-53.71 207.48,-54.70 208.65,-55.34 209.82,-55.99 211.13,-56.24 212.44,-56.48 213.77,-56.29 215.09,-56.10 216.28,-55.50 217.47,-54.90 218.41,-53.94 219.35,-52.99 219.93,-51.79 220.52,-50.59 220.69,-49.27 220.86,-47.94 220.60,-46.63 220.34,-45.32 219.67,-44.16 219.01,-43.01 218.01,-42.12 217.01,-41.24 217.01,-41.24 217.01,-41.24 214.99,-40.19 212.97,-39.15 207.50,-37.12 202.03,-35.10 196.14,-32.55 190.26,-30.00 182.01,-25.81 173.76,-21.61 162.81,-16.17 151.86,-10.73 137.72,-4.13 123.57,2.47 108.64,9.15 93.72,15.83 80.86,21.48 68.01,27.12 57.87,31.55 47.73,35.97 40.07,38.88 32.40,41.78 27.22,42.65 22.04,43.53 17.33,42.59 12.62,41.66 8.06,37.44 3.50,33.21 0.15,29.79 -3.20,26.36 -6.13,22.51 -9.06,18.66 -9.32,13.53 -9.58,8.40 -9.67,4.54 -9.75,0.69 -9.70,-0.48 -9.64,-1.66 -9.30,-2.79 -8.96,-3.92 -8.36,-4.93 -7.76,-5.95 -6.93,-6.79 -6.11,-7.63 -5.10,-8.26 -4.10,-8.88 -2.98,-9.24 -1.86,-9.60 -0.68,-9.68 0.49,-9.77 1.65,-9.57 2.81,-9.37 3.89,-8.89 4.97,-8.42 5.91,-7.70 6.84,-6.98 7.58,-6.06 8.32,-5.14 8.81,-4.07 9.31,-3.00 9.53,-1.84 9.75,-0.69 9.75,-0.69 L 9.75,-0.69 Z"></path></g><g transform="translate(179.99546614016634 142.28873471504733) rotate(301.24098410300365 -0.17232435863783735 0)" stroke="none"><path fill="#1e1e1e" d="M -0.19,8.93 Q -0.19,8.93 -1.62,8.69 -3.04,8.46 -4.32,7.78 -5.60,7.10 -6.59,6.06 -7.59,5.01 -8.19,3.70 -8.80,2.38 -8.95,0.95 -9.11,-0.48 -8.80,-1.89 -8.49,-3.30 -7.74,-4.54 -7.00,-5.78 -5.90,-6.71 -4.80,-7.65 -3.45,-8.18 -2.11,-8.72 -0.67,-8.80 0.76,-8.87 2.16,-8.49 3.55,-8.10 4.74,-7.29 5.94,-6.48 6.81,-5.33 7.69,-4.18 8.15,-2.81 8.61,-1.44 8.61,0.00 8.61,1.44 8.15,2.81 7.69,4.18 6.81,5.33 5.94,6.48 4.74,7.29 3.55,8.10 2.15,8.49 0.76,8.87 -0.67,8.80 -2.11,8.72 -3.46,8.18 -4.80,7.65 -5.90,6.71 -7.00,5.78 -7.75,4.54 -8.49,3.30 -8.80,1.89 -9.11,0.48 -8.95,-0.95 -8.80,-2.39 -8.19,-3.70 -7.58,-5.01 -6.59,-6.06 -5.60,-7.11 -4.32,-7.78 -3.04,-8.46 -1.62,-8.69 -0.19,-8.93 -0.19,-8.93 -0.19,-8.93 0.87,-8.82 1.94,-8.71 2.95,-8.35 3.97,-7.99 4.87,-7.40 5.77,-6.81 6.50,-6.02 7.23,-5.23 7.75,-4.29 8.28,-3.35 8.56,-2.31 8.84,-1.27 8.86,-0.19 8.88,0.88 8.65,1.93 8.42,2.98 7.94,3.94 7.46,4.91 6.76,5.73 6.07,6.55 5.19,7.18 4.32,7.81 3.32,8.22 2.32,8.62 1.26,8.77 0.19,8.93 -0.00,8.93 L -0.19,8.93 Z"></path></g><g transform="translate(228.8406309513586 75.92647098996724) rotate(301.24098410300365 0.00004999999999988347 0.00004999999998744897)" stroke="none"><path fill="#1e1e1e" d="M 6.28,-6.28 Q 6.28,-6.28 7.11,-5.11 7.95,-3.94 8.37,-2.57 8.80,-1.19 8.76,0.23 8.72,1.67 8.22,3.02 7.73,4.37 6.83,5.49 5.93,6.61 4.72,7.38 3.50,8.15 2.11,8.50 0.72,8.85 -0.71,8.73 -2.14,8.61 -3.46,8.05 -4.78,7.48 -5.85,6.52 -6.92,5.56 -7.63,4.31 -8.33,3.06 -8.60,1.65 -8.87,0.23 -8.68,-1.18 -8.49,-2.60 -7.85,-3.89 -7.21,-5.18 -6.19,-6.19 -5.18,-7.21 -3.89,-7.85 -2.60,-8.49 -1.18,-8.68 0.24,-8.87 1.65,-8.60 3.06,-8.33 4.31,-7.62 5.56,-6.92 6.52,-5.85 7.48,-4.78 8.05,-3.46 8.62,-2.14 8.73,-0.70 8.85,0.72 8.50,2.11 8.15,3.51 7.38,4.72 6.61,5.93 5.48,6.83 4.36,7.73 3.02,8.22 1.67,8.72 0.23,8.76 -1.20,8.80 -2.57,8.37 -3.94,7.95 -5.11,7.11 -6.28,6.27 -6.28,6.27 -6.28,6.28 -6.94,5.43 -7.60,4.59 -8.04,3.61 -8.48,2.64 -8.67,1.58 -8.86,0.53 -8.80,-0.53 -8.73,-1.60 -8.41,-2.62 -8.09,-3.64 -7.54,-4.56 -6.99,-5.47 -6.23,-6.23 -5.47,-6.99 -4.56,-7.54 -3.64,-8.10 -2.62,-8.41 -1.60,-8.73 -0.53,-8.80 0.53,-8.86 1.59,-8.67 2.64,-8.48 3.61,-8.04 4.59,-7.60 5.43,-6.94 6.28,-6.28 6.28,-6.28 L 6.28,-6.28 Z"></path></g><g transform="translate(286.7176270944639 126.44862474823378) rotate(288.2456065277546 -35.1793443986619 24.18299619170125)" stroke="none"><path fill="#1e1e1e" d="M 0.15,10.35 Q 0.15,10.35 -5.64,10.39 -11.44,10.42 -16.82,10.48 -22.20,10.54 -27.12,10.63 -32.03,10.71 -39.32,10.99 -46.62,11.27 -50.66,13.15 -54.70,15.03 -55.82,19.60 -56.94,24.16 -53.52,27.62 -50.10,31.07 -45.80,32.61 -41.50,34.16 -40.11,34.62 -38.72,35.08 -36.75,36.15 -34.79,37.21 -33.26,38.85 -31.74,40.49 -30.82,42.53 -29.90,44.57 -29.68,46.79 -29.46,49.02 -29.96,51.20 -30.46,53.37 -31.63,55.28 -32.81,57.19 -34.52,58.62 -36.24,60.05 -38.33,60.86 -40.41,61.66 -42.65,61.76 -44.88,61.86 -47.03,61.25 -49.18,60.63 -51.02,59.35 -52.86,58.08 -54.19,56.29 -55.53,54.50 -56.22,52.37 -56.92,50.24 -56.89,48.01 -56.87,45.77 -56.14,43.66 -55.40,41.55 -54.03,39.78 -52.66,38.01 -50.80,36.78 -48.94,35.54 -46.78,34.96 -44.62,34.38 -42.39,34.53 -40.15,34.67 -38.08,35.52 -36.02,36.36 -34.32,37.83 -32.63,39.29 -31.50,41.22 -30.37,43.15 -29.91,45.33 -29.45,47.52 -29.71,49.74 -29.97,51.96 -30.93,53.98 -31.89,56.00 -33.44,57.61 -35.00,59.22 -36.98,60.25 -38.97,61.28 -41.18,61.62 -43.39,61.96 -45.59,61.58 -47.80,61.19 -47.79,61.19 -47.79,61.19 -52.40,59.40 -57.02,57.61 -61.16,55.77 -65.31,53.94 -70.57,50.57 -75.84,47.21 -78.83,43.02 -81.82,38.82 -82.48,33.53 -83.13,28.25 -82.44,23.38 -81.76,18.51 -79.77,12.41 -77.79,6.31 -74.10,0.99 -70.41,-4.32 -64.83,-7.49 -59.26,-10.66 -52.95,-10.66 -46.64,-10.66 -39.37,-10.40 -32.10,-10.14 -27.22,-10.09 -22.35,-10.03 -17.05,-10.05 -11.75,-10.07 -5.95,-10.21 -0.15,-10.35 1.08,-10.22 2.32,-10.09 3.49,-9.66 4.67,-9.24 5.71,-8.55 6.74,-7.85 7.59,-6.93 8.43,-6.01 9.03,-4.91 9.62,-3.82 9.94,-2.61 10.26,-1.40 10.28,-0.15 10.30,1.09 10.02,2.30 9.74,3.52 9.17,4.63 8.61,5.75 7.80,6.70 6.98,7.64 5.96,8.37 4.95,9.09 3.79,9.55 2.63,10.01 1.39,10.18 0.15,10.35 0.15,10.35 L 0.15,10.35 Z"></path></g><g transform="translate(66.47493248381653 264.74230711992055) rotate(10.130899519467832 93.81004383748541 133.8680900856985)" stroke="none"><path d="M1.78 -0.73 C8.24 -0.31, 30.33 1.62, 39.31 1.78 C48.29 1.94, 44.8 2.89, 55.68 0.26 C66.55 -2.38, 94.32 -11.36, 104.57 -14.01 C114.82 -16.67, 113.87 -13.64, 117.17 -15.69 C120.47 -17.73, 122.94 -25.31, 124.37 -26.28 C125.79 -27.25, 125.4 -25.1, 125.71 -21.51 C126.02 -17.93, 124.54 -12.16, 126.23 -4.76 C127.92 2.63, 127.04 1.2, 135.86 22.86 C144.68 44.52, 168.04 99.07, 179.16 125.21 C190.27 151.35, 197 167.46, 202.55 179.71 C208.11 191.97, 209.52 192.37, 212.47 198.74 C215.41 205.1, 225.12 212.11, 220.22 217.89 C215.32 223.68, 191.29 230.14, 183.08 233.43 C174.88 236.72, 177.03 234.5, 170.99 237.66 C164.95 240.82, 155.25 248.53, 146.84 252.38 C138.44 256.23, 127.59 258.27, 120.56 260.77 C113.52 263.26, 114.15 266.5, 104.63 267.36 C95.11 268.21, 72.18 265.71, 63.42 265.87 C54.67 266.03, 67.65 263.85, 52.1 268.3 C36.55 272.75, -15.56 295.38, -29.88 292.58 C-44.2 289.79, -33.48 262.47, -33.82 251.53 C-34.17 240.58, -32.69 243.71, -31.94 226.91 C-31.19 210.11, -30.29 171.23, -29.33 150.72 C-28.38 130.21, -28.16 119.48, -26.22 103.83 C-24.28 88.19, -20.15 69.06, -17.7 56.87 C-15.24 44.68, -14.61 40.87, -11.48 30.72 C-8.35 20.56, -0.74 1.44, 1.07 -4.06" stroke="none" stroke-width="0" fill="#ffffff" fill-rule="evenodd"></path><path fill="#1e1e1e" d="M 0.10,-4.52 Q 0.10,-4.52 3.56,-4.38 7.02,-4.24 10.64,-4.10 14.27,-3.95 18.52,-3.63 22.77,-3.31 27.57,-2.95 32.38,-2.58 35.50,-2.60 38.62,-2.62 41.71,-2.89 44.81,-3.15 47.55,-3.46 50.29,-3.77 55.60,-4.63 60.91,-5.48 65.61,-6.25 70.31,-7.02 73.34,-7.78 76.36,-8.55 78.65,-9.22 80.94,-9.90 84.24,-10.93 87.54,-11.95 90.71,-13.26 93.88,-14.57 96.44,-15.45 99.01,-16.33 101.03,-16.98 103.06,-17.63 105.92,-18.79 108.79,-19.94 110.83,-20.82 112.87,-21.71 114.76,-22.72 116.65,-23.74 118.25,-25.83 119.85,-27.92 120.08,-28.10 120.31,-28.28 120.84,-28.94 121.37,-29.60 122.03,-30.11 122.70,-30.62 123.47,-30.96 124.24,-31.29 125.07,-31.44 125.90,-31.58 126.74,-31.52 127.58,-31.46 128.38,-31.20 129.18,-30.94 129.90,-30.50 130.61,-30.05 131.20,-29.45 131.79,-28.85 132.22,-28.13 132.64,-27.40 132.89,-26.60 133.13,-25.79 133.17,-24.95 133.21,-24.11 133.05,-23.28 132.89,-22.46 132.53,-21.69 132.18,-20.93 132.02,-18.10 131.87,-15.28 131.84,-12.43 131.81,-9.57 132.26,-5.09 132.70,-0.61 134.30,5.85 135.89,12.31 138.67,20.70 141.46,29.09 145.25,38.94 149.04,48.78 153.26,59.14 157.48,69.50 161.52,79.10 165.56,88.69 169.64,98.20 173.73,107.71 178.83,119.18 183.93,130.65 188.59,140.96 193.25,151.27 196.13,157.64 199.02,164.02 200.86,168.06 202.70,172.10 204.05,174.46 205.39,176.82 206.73,178.73 208.07,180.65 210.13,183.09 212.19,185.54 213.91,188.30 215.63,191.06 217.65,195.13 219.66,199.21 220.49,201.33 221.32,203.44 222.53,206.70 223.74,209.96 224.74,212.50 225.74,215.03 225.31,218.63 224.88,222.22 222.78,223.60 220.68,224.99 218.42,226.08 216.17,227.17 213.43,228.32 210.70,229.47 208.26,230.41 205.83,231.36 203.40,232.38 200.96,233.40 198.38,234.49 195.80,235.59 193.85,236.48 191.90,237.36 189.42,238.54 186.94,239.72 184.87,240.72 182.79,241.73 179.53,242.71 176.27,243.68 173.89,244.61 171.50,245.54 169.49,246.62 167.47,247.70 165.52,248.89 163.58,250.08 161.75,251.25 159.93,252.41 156.96,253.97 153.99,255.53 151.75,256.57 149.51,257.61 146.79,258.70 144.08,259.78 141.85,260.74 139.62,261.69 137.68,262.73 135.74,263.77 133.61,264.55 131.48,265.33 128.80,266.27 126.12,267.20 123.02,268.07 119.91,268.93 117.45,269.59 115.00,270.26 111.20,270.99 107.41,271.73 104.05,272.21 100.69,272.70 97.94,273.00 95.19,273.31 92.33,273.52 89.47,273.73 86.78,273.92 84.08,274.10 81.06,274.24 78.05,274.37 74.91,274.59 71.76,274.80 69.04,274.86 66.31,274.93 63.25,275.32 60.20,275.71 57.64,276.11 55.08,276.52 52.82,277.10 50.57,277.67 47.94,278.37 45.31,279.07 42.17,279.84 39.03,280.61 36.39,281.52 33.74,282.43 31.49,283.05 29.24,283.67 24.00,284.57 18.77,285.47 16.52,286.05 14.28,286.64 11.70,287.46 9.12,288.29 7.03,288.94 4.94,289.59 2.82,290.26 0.70,290.94 -4.06,291.93 -8.83,292.92 -12.12,293.83 -15.42,294.73 -17.89,295.64 -20.37,296.56 -22.73,297.29 -25.10,298.02 -29.27,297.76 -33.44,297.50 -35.35,295.11 -37.27,292.73 -37.38,289.81 -37.50,286.89 -37.32,280.78 -37.14,274.67 -37.24,271.46 -37.33,268.24 -37.49,265.68 -37.65,263.13 -38.01,259.41 -38.38,255.68 -38.56,253.12 -38.75,250.56 -38.87,246.87 -38.99,243.18 -39.06,240.56 -39.13,237.95 -39.19,235.48 -39.24,233.02 -39.21,229.75 -39.17,226.49 -38.84,221.58 -38.51,216.67 -37.88,211.01 -37.25,205.35 -36.74,200.64 -36.23,195.93 -35.85,189.39 -35.46,182.86 -35.12,178.22 -34.78,173.58 -34.60,169.84 -34.41,166.11 -34.36,162.98 -34.30,159.84 -34.40,157.61 -34.49,155.37 -34.55,151.42 -34.60,147.46 -34.41,145.06 -34.22,142.66 -33.94,139.94 -33.65,137.23 -32.83,132.52 -32.00,127.81 -31.40,123.83 -30.80,119.86 -30.23,115.84 -29.66,111.81 -29.08,107.92 -28.51,104.03 -28.01,100.67 -27.51,97.31 -27.17,94.58 -26.83,91.86 -26.61,89.70 -26.40,87.55 -25.92,83.87 -25.43,80.18 -25.05,76.55 -24.67,72.93 -24.17,68.76 -23.67,64.60 -23.32,62.20 -22.96,59.80 -22.45,57.22 -21.94,54.64 -21.11,51.54 -20.28,48.44 -19.53,45.54 -18.78,42.64 -18.25,39.84 -17.71,37.04 -17.33,34.93 -16.95,32.83 -16.24,29.93 -15.54,27.03 -14.48,23.58 -13.42,20.12 -11.66,16.40 -9.91,12.69 -9.11,10.41 -8.32,8.14 -7.60,5.64 -6.89,3.15 -6.08,-0.51 -5.27,-4.17 -5.02,-4.85 -4.76,-5.53 -4.35,-6.13 -3.94,-6.72 -3.40,-7.21 -2.86,-7.69 -2.22,-8.02 -1.57,-8.36 -0.87,-8.54 -0.17,-8.71 0.55,-8.71 1.27,-8.71 1.98,-8.54 2.68,-8.37 3.32,-8.03 3.97,-7.70 4.51,-7.22 5.05,-6.74 5.47,-6.14 5.88,-5.54 6.14,-4.87 6.39,-4.19 6.48,-3.47 6.57,-2.75 6.48,-2.03 6.40,-1.31 6.45,-1.55 6.49,-1.79 6.19,-0.86 5.88,0.05 5.29,0.83 4.70,1.60 3.90,2.15 3.10,2.70 2.16,2.96 1.22,3.22 0.25,3.17 -0.71,3.12 -1.62,2.77 -2.52,2.41 -3.26,1.78 -4.01,1.15 -4.51,0.32 -5.01,-0.50 -5.23,-1.45 -5.44,-2.40 -5.33,-3.37 -5.23,-4.34 -4.83,-5.22 -4.42,-6.10 -3.75,-6.81 -3.09,-7.52 -2.23,-7.98 -1.37,-8.44 -0.41,-8.60 0.54,-8.76 1.50,-8.60 2.46,-8.45 3.32,-7.99 4.18,-7.54 4.85,-6.83 5.53,-6.13 5.94,-5.25 6.35,-4.37 6.45,-3.40 6.56,-2.43 6.36,-1.48 6.15,-0.53 5.65,0.29 5.15,1.13 4.41,1.76 3.67,2.39 2.77,2.75 1.86,3.12 0.89,3.17 -0.07,3.23 -1.01,2.97 -1.94,2.71 -2.75,2.17 -3.56,1.62 -4.15,0.85 -4.74,0.08 -5.05,-0.83 -5.37,-1.76 -5.32,-2.96 -5.27,-4.17 -5.02,-4.85 -4.76,-5.53 -4.35,-6.13 -3.94,-6.72 -3.40,-7.21 -2.86,-7.69 -2.22,-8.02 -1.57,-8.36 -0.87,-8.54 -0.17,-8.71 0.55,-8.71 1.27,-8.71 1.98,-8.54 2.68,-8.37 3.32,-8.03 3.97,-7.70 4.51,-7.22 5.05,-6.74 5.46,-6.14 5.88,-5.55 6.14,-4.87 6.39,-4.19 6.48,-3.47 6.57,-2.75 6.48,-2.03 6.40,-1.31 6.04,0.40 5.68,2.13 4.78,4.52 3.88,6.91 2.89,9.35 1.91,11.80 1.06,14.14 0.20,16.49 -0.82,20.19 -1.85,23.90 -2.97,27.16 -4.08,30.41 -4.92,33.02 -5.76,35.62 -6.40,37.65 -7.04,39.67 -7.87,42.37 -8.71,45.06 -9.36,47.99 -10.01,50.92 -10.64,53.85 -11.26,56.78 -11.74,59.12 -12.21,61.45 -12.59,63.81 -12.97,66.16 -13.70,70.27 -14.42,74.37 -15.23,78.28 -16.03,82.18 -16.98,85.58 -17.92,88.98 -18.43,91.10 -18.94,93.23 -19.53,95.89 -20.13,98.56 -20.74,101.77 -21.35,104.97 -21.80,108.80 -22.24,112.62 -22.55,116.68 -22.86,120.74 -23.14,124.75 -23.42,128.76 -23.66,133.56 -23.90,138.36 -24.24,141.06 -24.57,143.77 -24.91,145.98 -25.25,148.19 -25.70,151.89 -26.15,155.59 -26.37,157.89 -26.58,160.19 -26.81,163.32 -27.04,166.44 -27.19,170.12 -27.33,173.80 -27.27,178.41 -27.21,183.01 -27.07,189.63 -26.92,196.25 -26.74,200.99 -26.56,205.72 -26.32,211.43 -26.09,217.14 -26.13,222.05 -26.17,226.96 -26.25,229.99 -26.33,233.02 -26.39,235.48 -26.44,237.94 -26.51,240.56 -26.58,243.17 -26.67,246.74 -26.76,250.31 -26.80,252.60 -26.85,254.88 -26.66,258.61 -26.47,262.35 -26.28,264.86 -26.08,267.38 -25.68,270.61 -25.28,273.84 -24.46,278.72 -23.64,283.61 -24.01,286.30 -24.37,288.99 -26.24,287.00 -28.10,285.01 -25.66,284.49 -23.21,283.98 -20.92,283.35 -18.62,282.72 -15.21,281.86 -11.80,281.01 -8.63,279.97 -5.46,278.92 -3.00,278.28 -0.55,277.63 2.44,276.87 5.44,276.12 8.17,275.36 10.90,274.61 13.19,273.92 15.48,273.23 20.70,271.51 25.92,269.79 28.31,269.13 30.70,268.46 33.08,267.69 35.47,266.92 38.43,266.11 41.39,265.29 44.34,264.51 47.30,263.72 49.89,263.13 52.48,262.54 55.11,262.09 57.73,261.65 60.65,261.19 63.56,260.73 65.69,260.77 67.82,260.81 70.39,260.80 72.96,260.79 75.32,260.65 77.68,260.51 80.39,260.37 83.11,260.23 85.78,260.05 88.45,259.86 91.15,259.65 93.85,259.44 96.30,259.18 98.75,258.91 101.59,258.46 104.43,258.01 106.66,257.43 108.89,256.84 111.07,256.28 113.25,255.71 115.89,254.95 118.52,254.18 120.66,253.58 122.80,252.98 125.26,252.17 127.73,251.37 129.83,250.66 131.93,249.95 134.72,248.72 137.50,247.50 139.97,246.60 142.45,245.70 145.08,244.64 147.71,243.59 150.30,242.23 152.89,240.88 154.75,239.79 156.61,238.69 158.78,237.46 160.96,236.22 164.37,234.65 167.79,233.07 170.20,232.32 172.60,231.57 176.02,230.54 179.44,229.50 181.77,228.59 184.10,227.69 187.44,226.25 190.79,224.80 193.30,223.53 195.82,222.26 198.31,221.01 200.81,219.76 204.79,217.97 208.77,216.18 210.82,215.38 212.88,214.58 214.95,213.87 217.02,213.16 215.21,214.34 213.39,215.52 212.75,213.03 212.10,210.54 210.95,206.99 209.81,203.44 208.99,201.44 208.16,199.43 206.66,196.16 205.15,192.90 204.10,190.54 203.05,188.18 202.13,186.25 201.21,184.32 200.38,181.93 199.56,179.53 198.62,176.97 197.68,174.42 195.79,170.39 193.90,166.37 190.95,160.02 188.00,153.67 183.24,143.39 178.48,133.11 173.25,121.67 168.01,110.23 163.75,100.78 159.49,91.33 155.21,81.81 150.92,72.29 146.37,62.02 141.81,51.74 137.54,41.93 133.27,32.12 129.83,23.67 126.39,15.23 123.92,8.43 121.44,1.63 119.96,-3.56 118.48,-8.76 118.07,-13.78 117.67,-18.79 117.92,-21.10 118.18,-23.41 119.25,-25.84 120.31,-28.28 120.84,-28.94 121.36,-29.60 122.03,-30.11 122.70,-30.62 123.47,-30.96 124.24,-31.29 125.07,-31.44 125.90,-31.58 126.74,-31.52 127.58,-31.46 128.38,-31.20 129.18,-30.94 129.90,-30.50 130.61,-30.05 131.20,-29.45 131.79,-28.85 132.22,-28.13 132.64,-27.40 132.88,-26.60 133.13,-25.79 133.17,-24.95 133.21,-24.11 133.05,-23.28 132.89,-22.46 132.54,-21.69 132.18,-20.93 132.31,-22.12 132.44,-23.30 131.09,-20.75 129.73,-18.21 128.10,-16.80 126.47,-15.40 124.54,-13.63 122.61,-11.86 120.12,-10.80 117.63,-9.74 115.42,-8.93 113.21,-8.12 111.03,-7.41 108.84,-6.70 106.56,-6.18 104.28,-5.65 102.04,-5.18 99.79,-4.70 97.22,-4.06 94.64,-3.43 92.23,-2.92 89.81,-2.42 86.41,-1.86 83.01,-1.29 80.66,-0.85 78.31,-0.41 75.19,0.28 72.08,0.99 67.41,2.29 62.74,3.58 56.73,4.73 50.71,5.89 47.70,5.71 44.69,5.53 41.55,5.16 38.42,4.79 35.25,4.59 32.08,4.40 27.33,4.36 22.58,4.32 18.35,4.42 14.12,4.53 10.47,4.54 6.81,4.56 3.35,4.54 -0.10,4.52 -0.64,4.44 -1.18,4.36 -1.68,4.16 -2.19,3.95 -2.63,3.63 -3.07,3.31 -3.43,2.90 -3.78,2.48 -4.02,1.99 -4.26,1.50 -4.38,0.97 -4.50,0.44 -4.49,-0.10 -4.47,-0.64 -4.33,-1.17 -4.19,-1.70 -3.92,-2.17 -3.66,-2.65 -3.29,-3.05 -2.92,-3.45 -2.46,-3.75 -2.01,-4.05 -1.49,-4.23 -0.98,-4.41 -0.43,-4.47 0.10,-4.52 0.10,-4.52 L 0.10,-4.52 Z"></path></g></svg>