<svg version="1.1" xmlns="http://www.w3.org/2000/svg" viewBox="0 0 813.3285658254912 1333.4009897363408" width="813.3285658254912" height="1333.4009897363408" class="excalidraw-svg">
  <!-- svg-source:excalidraw -->
  
  <defs>
    <style class="style-fonts">
      @font-face {
        font-family: "Virgil";
        src: url("https://excalidraw.com/Virgil.woff2");
      }
      @font-face {
        font-family: "Cascadia";
        src: url("https://excalidraw.com/Cascadia.woff2");
      }
      @font-face {
        font-family: "Assistant";
        src: url("https://excalidraw.com/Assistant-Regular.woff2");
      }
    </style>
    
  </defs>
  <g transform="translate(237.51254700805185 79.51148017870526) rotate(0 68.56934954105742 117.41628741673793)" stroke="none"><path d="M8.56 3.54 C8.33 3.29, 7.62 0.49, 5.48 0.33 C3.34 0.16, -1.09 1.26, -4.3 2.54 C-7.52 3.82, -9.64 5.13, -13.83 8.02 C-18.03 10.9, -25.21 15.27, -29.47 19.86 C-33.74 24.45, -36.93 30.25, -39.42 35.58 C-41.91 40.91, -41.98 44.32, -44.41 51.85 C-46.85 59.38, -51.09 70.85, -54.01 80.77 C-56.93 90.68, -60.65 101.3, -61.92 111.34 C-63.2 121.37, -61.46 133.63, -61.66 140.96 C-61.87 148.29, -63.11 151.41, -63.16 155.32 C-63.2 159.23, -62.65 160.43, -61.94 164.4 C-61.23 168.37, -60.94 174.73, -58.89 179.15 C-56.84 183.57, -52.15 187.59, -49.62 190.9 C-47.1 194.2, -48.01 194.84, -43.72 198.98 C-39.43 203.13, -29.74 211.05, -23.88 215.78 C-18.02 220.51, -14.19 224.57, -8.56 227.36 C-2.93 230.16, 4 230.96, 9.89 232.55 C15.77 234.13, 18.94 235.41, 26.77 236.88 C34.59 238.35, 48.29 240.79, 56.85 241.36 C65.41 241.93, 71.89 240.82, 78.13 240.29 C84.38 239.76, 88.31 238.65, 94.32 238.18 C100.32 237.71, 105.21 240.1, 114.17 237.48 C123.12 234.86, 139.44 226.16, 148.05 222.47 C156.66 218.78, 161.55 217.63, 165.83 215.34 C170.11 213.04, 170.91 211.06, 173.73 208.7 C176.56 206.35, 180.47 203.47, 182.8 201.2 C185.12 198.94, 185.62 199.62, 187.69 195.12 C189.75 190.61, 193.46 181.77, 195.2 174.16 C196.93 166.55, 196.88 159.48, 198.11 149.46 C199.33 139.43, 202.07 124.8, 202.55 113.99 C203.02 103.18, 203.52 95.54, 200.96 84.61 C198.39 73.68, 191.05 56.29, 187.18 48.41 C183.3 40.53, 180.09 40.62, 177.68 37.33 C175.28 34.03, 176.36 32.16, 172.72 28.65 C169.09 25.14, 161.6 19.63, 155.89 16.27 C150.18 12.91, 145.58 11.7, 138.46 8.5 C131.33 5.3, 121.83 -0.45, 113.14 -2.95 C104.44 -5.45, 93.13 -5.75, 86.3 -6.52 C79.46 -7.3, 79.58 -8.03, 72.13 -7.6 C64.68 -7.17, 49.02 -4.98, 41.6 -3.93 C34.17 -2.88, 33.85 -3.09, 27.58 -1.31 C21.32 0.47, 8.44 5.52, 4.01 6.76" stroke="none" stroke-width="0" fill="#ffffff" fill-rule="evenodd"></path><path fill="#1e1e1e" d="M 7.54,11.60 Q 7.54,11.60 4.75,11.40 1.96,11.20 -3.05,14.48 -8.08,17.77 -11.10,20.78 -14.12,23.79 -19.26,30.55 -24.40,37.31 -27.97,43.00 -31.54,48.68 -34.66,54.69 -37.78,60.69 -40.52,67.13 -43.26,73.57 -45.63,80.53 -48.01,87.49 -49.80,94.53 -51.59,101.58 -52.59,107.99 -53.59,114.41 -54.27,121.40 -54.94,128.40 -55.19,135.77 -55.43,143.14 -54.72,149.35 -54.01,155.56 -52.46,161.13 -50.90,166.69 -48.47,171.86 -46.04,177.04 -42.79,182.11 -39.55,187.18 -35.70,191.76 -31.85,196.34 -27.58,200.35 -23.30,204.37 -17.99,208.36 -12.67,212.36 -5.75,216.47 1.16,220.58 9.01,223.80 16.87,227.01 24.10,228.91 31.32,230.82 39.04,232.00 46.76,233.18 55.93,233.99 65.10,234.79 73.89,234.73 82.69,234.67 90.71,233.72 98.74,232.76 112.65,228.29 126.57,223.82 137.00,219.74 147.44,215.67 154.31,212.12 161.18,208.57 165.80,204.92 170.42,201.27 173.63,197.50 176.85,193.73 179.14,189.86 181.44,185.98 183.12,181.79 184.80,177.60 186.08,172.83 187.36,168.06 188.36,162.45 189.35,156.84 190.62,145.28 191.89,133.72 192.47,124.34 193.04,114.96 192.93,106.72 192.83,98.49 189.07,84.56 185.31,70.64 182.14,61.82 178.96,53.01 175.64,47.41 172.33,41.82 168.91,37.98 165.49,34.15 161.90,31.28 158.32,28.41 154.44,26.04 150.57,23.66 146.48,21.67 142.38,19.67 138.14,18.07 133.90,16.47 129.26,14.97 124.63,13.47 119.99,12.10 115.35,10.72 110.90,9.62 106.46,8.52 100.04,6.97 93.62,5.41 88.90,4.72 84.19,4.04 76.88,3.83 69.58,3.62 63.06,3.81 56.54,4.01 51.53,4.49 46.53,4.98 41.79,6.16 37.04,7.34 32.59,8.72 28.14,10.09 23.24,11.98 18.35,13.87 12.84,16.29 7.33,18.72 5.32,19.05 3.31,19.38 1.30,19.05 -0.70,18.72 -2.50,17.76 -4.30,16.81 -5.70,15.33 -7.11,13.85 -7.96,12.00 -8.82,10.15 -9.04,8.12 -9.26,6.10 -8.82,4.11 -8.38,2.12 -7.33,0.37 -6.28,-1.37 -4.73,-2.69 -3.17,-4.00 -1.28,-4.76 0.60,-5.51 2.64,-5.62 4.67,-5.73 6.64,-5.19 8.60,-4.64 10.29,-3.50 11.97,-2.36 13.21,-0.73 14.44,0.88 15.09,2.81 15.74,4.74 15.74,6.78 15.74,8.82 15.09,10.75 14.44,12.68 13.21,14.30 11.97,15.93 10.29,17.07 8.60,18.21 6.63,18.76 4.67,19.30 2.64,19.19 0.60,19.08 -1.28,18.33 -3.18,17.57 -4.73,16.25 -6.28,14.93 -7.33,13.19 -8.38,11.44 -8.82,9.45 -9.26,7.46 -9.04,5.43 -8.82,3.41 -7.96,1.56 -7.11,-0.28 -5.70,-1.76 -4.30,-3.24 -2.50,-4.19 -0.70,-5.15 -0.70,-5.15 -0.70,-5.15 0.63,-5.63 1.97,-6.11 6.09,-7.55 10.22,-8.99 15.51,-10.62 20.80,-12.25 29.67,-14.81 38.55,-17.36 44.37,-17.79 50.18,-18.21 56.76,-17.97 63.34,-17.73 71.12,-17.13 78.90,-16.53 83.22,-15.88 87.53,-15.23 92.53,-14.22 97.53,-13.22 104.66,-11.93 111.79,-10.64 116.58,-9.17 121.38,-7.70 126.17,-5.99 130.96,-4.28 136.06,-2.30 141.16,-0.33 146.04,2.00 150.91,4.34 155.56,7.22 160.20,10.09 164.58,13.58 168.96,17.06 172.88,21.26 176.81,25.45 180.24,30.56 183.67,35.67 186.91,42.23 190.16,48.79 193.77,58.04 197.38,67.28 201.72,82.56 206.07,97.84 206.70,106.58 207.32,115.31 207.42,125.08 207.51,134.85 207.04,147.49 206.56,160.13 205.21,166.70 203.87,173.26 201.81,179.05 199.76,184.83 196.95,189.90 194.13,194.98 190.53,199.40 186.92,203.82 182.32,207.80 177.73,211.79 172.01,215.27 166.30,218.75 158.91,222.35 151.51,225.96 140.78,230.26 130.04,234.56 115.13,239.40 100.21,244.24 91.57,245.37 82.93,246.50 73.58,246.80 64.24,247.09 54.61,246.58 44.97,246.07 36.46,244.99 27.95,243.91 20.01,241.89 12.08,239.88 3.10,236.81 -5.86,233.74 -14.14,229.72 -22.42,225.69 -28.75,221.15 -35.09,216.60 -39.95,211.79 -44.81,206.98 -49.22,201.48 -53.64,195.99 -57.39,189.86 -61.13,183.72 -63.86,177.20 -66.59,170.69 -68.14,163.91 -69.70,157.14 -70.30,150.05 -70.91,142.96 -70.96,135.03 -71.02,127.09 -70.50,119.47 -69.99,111.85 -68.90,104.90 -67.81,97.95 -66.30,90.25 -64.79,82.55 -62.82,74.76 -60.86,66.97 -58.42,59.63 -55.99,52.29 -53.15,45.38 -50.31,38.47 -46.97,31.46 -43.63,24.45 -40.25,19.25 -36.87,14.05 -33.84,10.60 -30.80,7.16 -27.23,3.55 -23.66,-0.04 -20.32,-2.82 -16.98,-5.61 -10.39,-8.22 -3.80,-10.84 0.52,-10.40 4.85,-9.97 7.59,-9.42 10.33,-8.86 11.54,-8.55 12.74,-8.23 13.84,-7.64 14.93,-7.04 15.85,-6.20 16.77,-5.36 17.46,-4.33 18.16,-3.29 18.58,-2.12 19.00,-0.95 19.14,0.28 19.27,1.52 19.10,2.75 18.93,3.99 18.47,5.15 18.01,6.30 17.29,7.32 16.57,8.33 15.62,9.14 14.68,9.96 13.57,10.52 12.46,11.08 11.24,11.36 10.03,11.64 8.78,11.62 7.54,11.60 7.54,11.60 L 7.54,11.60 Z"></path></g><g transform="translate(315.57660940305504 330.0243769449289) rotate(0 -152.78830470152752 -90.83750841502524)" stroke="none"><path fill="#1e1e1e" d="M -0.42,6.23 Q -0.42,6.23 -11.76,5.32 -23.10,4.41 -36.24,1.51 -49.38,-1.38 -65.25,-7.67 -81.12,-13.96 -99.81,-23.58 -118.50,-33.19 -135.94,-43.58 -153.39,-53.97 -168.96,-64.78 -184.53,-75.58 -198.85,-86.59 -213.17,-97.59 -224.48,-106.92 -235.79,-116.25 -244.41,-123.62 -253.02,-130.98 -259.78,-136.85 -266.53,-142.71 -272.15,-147.28 -277.77,-151.84 -282.45,-155.23 -287.14,-158.62 -290.78,-161.04 -294.42,-163.46 -299.15,-166.41 -303.88,-169.36 -306.77,-171.28 -309.67,-173.20 -310.88,-174.11 -312.10,-175.03 -312.96,-176.28 -313.82,-177.54 -314.23,-179.00 -314.65,-180.47 -314.57,-181.99 -314.50,-183.51 -313.94,-184.92 -313.39,-186.34 -312.41,-187.50 -311.43,-188.67 -310.13,-189.46 -308.83,-190.25 -307.34,-190.58 -305.86,-190.92 -304.34,-190.76 -302.83,-190.60 -301.45,-189.97 -300.06,-189.34 -298.95,-188.30 -297.84,-187.26 -297.12,-185.92 -296.40,-184.58 -296.15,-183.07 -295.90,-181.57 -296.13,-180.07 -296.37,-178.57 -297.08,-177.22 -297.79,-175.87 -298.89,-174.82 -299.99,-173.77 -301.36,-173.12 -302.74,-172.48 -304.25,-172.31 -305.77,-172.13 -307.25,-172.45 -308.74,-172.77 -310.05,-173.55 -311.36,-174.33 -312.35,-175.49 -313.34,-176.64 -313.91,-178.05 -314.48,-179.46 -314.57,-180.98 -314.66,-182.50 -314.26,-183.97 -313.86,-185.44 -313.01,-186.70 -312.16,-187.97 -310.95,-188.89 -309.75,-189.82 -308.31,-190.31 -306.87,-190.80 -305.35,-190.81 -303.82,-190.82 -302.38,-190.34 -300.93,-189.86 -300.94,-189.86 -300.94,-189.86 -297.03,-186.42 -293.13,-182.98 -289.12,-178.98 -285.10,-174.98 -281.90,-171.87 -278.70,-168.76 -274.41,-164.68 -270.12,-160.60 -264.86,-155.66 -259.60,-150.71 -252.86,-144.89 -246.13,-139.06 -237.57,-131.77 -229.02,-124.48 -217.83,-115.29 -206.65,-106.10 -192.52,-95.28 -178.38,-84.46 -163.10,-73.91 -147.82,-63.35 -130.64,-53.19 -113.46,-43.03 -95.22,-33.74 -76.98,-24.44 -61.95,-18.56 -46.93,-12.67 -34.60,-10.08 -22.27,-7.50 -10.92,-6.86 0.42,-6.23 1.16,-6.09 1.90,-5.95 2.58,-5.63 3.27,-5.32 3.86,-4.85 4.45,-4.38 4.91,-3.78 5.37,-3.19 5.67,-2.50 5.97,-1.81 6.10,-1.07 6.23,-0.33 6.18,0.42 6.13,1.17 5.90,1.88 5.67,2.60 5.28,3.24 4.88,3.89 4.35,4.41 3.81,4.94 3.16,5.33 2.52,5.71 1.80,5.93 1.07,6.15 0.32,6.19 -0.42,6.23 -0.42,6.23 L -0.42,6.23 Z"></path></g><g transform="translate(402.40333554967015 297.52574671248794) rotate(0 0.00004999999999988347 0.00004999999998744897)" stroke="none"><path fill="#1e1e1e" d="M 6.28,-6.28 Q 6.28,-6.28 7.11,-5.11 7.95,-3.94 8.37,-2.57 8.80,-1.19 8.76,0.23 8.72,1.67 8.22,3.02 7.73,4.37 6.83,5.49 5.93,6.61 4.72,7.38 3.50,8.15 2.11,8.50 0.72,8.85 -0.71,8.73 -2.14,8.61 -3.46,8.05 -4.78,7.48 -5.85,6.52 -6.92,5.56 -7.63,4.31 -8.33,3.06 -8.60,1.65 -8.87,0.23 -8.68,-1.18 -8.49,-2.60 -7.85,-3.89 -7.21,-5.18 -6.19,-6.19 -5.18,-7.21 -3.89,-7.85 -2.60,-8.49 -1.18,-8.68 0.24,-8.87 1.65,-8.60 3.06,-8.33 4.31,-7.62 5.56,-6.92 6.52,-5.85 7.48,-4.78 8.05,-3.46 8.62,-2.14 8.73,-0.70 8.85,0.72 8.50,2.11 8.15,3.51 7.38,4.72 6.61,5.93 5.48,6.83 4.36,7.73 3.02,8.22 1.67,8.72 0.23,8.76 -1.20,8.80 -2.57,8.37 -3.94,7.95 -5.11,7.11 -6.28,6.27 -6.28,6.27 -6.28,6.28 -6.94,5.43 -7.60,4.59 -8.04,3.61 -8.48,2.64 -8.67,1.58 -8.86,0.53 -8.80,-0.53 -8.73,-1.60 -8.41,-2.62 -8.09,-3.64 -7.54,-4.56 -6.99,-5.47 -6.23,-6.23 -5.47,-6.99 -4.56,-7.54 -3.64,-8.10 -2.62,-8.41 -1.60,-8.73 -0.53,-8.80 0.53,-8.86 1.59,-8.67 2.64,-8.48 3.61,-8.04 4.59,-7.60 5.43,-6.94 6.28,-6.28 6.28,-6.28 L 6.28,-6.28 Z"></path></g><g transform="translate(177.12203970889504 128.2733081493393) rotate(0 -48.353433207905255 -58.99639048999427)" stroke="none"><path fill="#1e1e1e" d="M -6.49,4.89 Q -6.49,4.89 -12.29,-3.44 -18.09,-11.77 -24.07,-20.27 -30.05,-28.78 -36.38,-37.60 -42.71,-46.43 -49.10,-55.03 -55.48,-63.63 -60.66,-70.57 -65.85,-77.52 -70.26,-82.52 -74.68,-87.52 -78.54,-91.16 -82.41,-94.80 -87.92,-99.29 -93.43,-103.79 -96.96,-106.24 -100.49,-108.68 -101.53,-109.65 -102.58,-110.63 -103.61,-111.79 -104.65,-112.95 -105.26,-114.39 -105.87,-115.82 -105.99,-117.38 -106.11,-118.93 -105.73,-120.44 -105.34,-121.96 -104.50,-123.27 -103.65,-124.58 -102.43,-125.55 -101.22,-126.52 -99.75,-127.05 -98.28,-127.58 -96.73,-127.62 -95.17,-127.65 -93.68,-127.19 -92.19,-126.73 -90.93,-125.81 -89.67,-124.90 -88.76,-123.63 -87.86,-122.36 -87.41,-120.86 -86.95,-119.37 -87.00,-117.81 -87.05,-116.26 -87.60,-114.79 -88.14,-113.33 -89.12,-112.12 -90.10,-110.91 -91.42,-110.08 -92.74,-109.24 -94.25,-108.87 -95.77,-108.50 -97.32,-108.64 -98.87,-108.77 -100.30,-109.39 -101.73,-110.01 -102.89,-111.06 -104.04,-112.11 -104.81,-113.47 -105.57,-114.83 -105.85,-116.36 -106.14,-117.89 -105.92,-119.44 -105.71,-120.98 -105.01,-122.37 -104.31,-123.77 -103.20,-124.86 -102.09,-125.96 -100.70,-126.65 -99.30,-127.33 -97.75,-127.54 -96.20,-127.74 -94.67,-127.44 -93.15,-127.14 -91.79,-126.37 -90.44,-125.59 -90.44,-125.60 -90.44,-125.60 -87.51,-122.48 -84.58,-119.36 -81.04,-115.26 -77.51,-111.16 -74.74,-107.81 -71.97,-104.46 -68.36,-100.02 -64.75,-95.58 -60.66,-90.11 -56.56,-84.63 -51.20,-77.82 -45.84,-71.01 -39.16,-62.53 -32.49,-54.06 -25.82,-45.48 -19.15,-36.90 -12.73,-28.77 -6.32,-20.63 0.08,-12.76 6.49,-4.89 6.98,-4.04 7.47,-3.19 7.75,-2.25 8.02,-1.31 8.06,-0.33 8.10,0.64 7.91,1.60 7.71,2.56 7.29,3.45 6.88,4.33 6.26,5.09 5.64,5.85 4.85,6.44 4.07,7.03 3.17,7.42 2.27,7.81 1.30,7.96 0.33,8.12 -0.64,8.04 -1.61,7.97 -2.54,7.66 -3.47,7.35 -4.30,6.82 -5.13,6.30 -5.81,5.60 -6.49,4.89 -6.49,4.89 L -6.49,4.89 Z"></path></g><g transform="translate(420.55940781951904 592.0649580373492) rotate(0 103.22505645808405 84.16157534848048)" stroke="none"><path fill="#1e1e1e" d="M 4.17,-4.83 Q 4.17,-4.83 9.36,-0.66 14.55,3.51 21.77,10.21 28.98,16.91 37.94,25.39 46.90,33.88 56.46,42.83 66.02,51.78 76.23,61.02 86.45,70.27 96.36,79.33 106.28,88.39 115.29,96.84 124.30,105.29 132.06,112.67 139.82,120.06 145.97,126.01 152.12,131.97 157.26,136.71 162.40,141.46 166.72,145.39 171.05,149.32 176.26,153.69 181.47,158.06 184.49,151.76 187.50,145.47 190.85,142.00 194.21,138.53 194.61,137.88 195.02,137.23 195.86,135.52 196.69,133.81 198.03,132.46 199.37,131.10 201.07,130.25 202.77,129.39 204.65,129.12 206.54,128.86 208.41,129.20 210.28,129.55 211.95,130.48 213.61,131.41 214.89,132.81 216.17,134.22 216.93,135.97 217.69,137.71 217.86,139.61 218.02,141.51 217.58,143.36 217.13,145.21 216.11,146.82 215.10,148.43 213.62,149.63 212.14,150.83 210.36,151.50 208.58,152.16 206.67,152.23 204.77,152.29 202.95,151.74 201.12,151.19 199.57,150.09 198.02,148.99 196.90,147.45 195.78,145.91 195.21,144.09 194.64,142.28 194.68,140.37 194.72,138.47 195.37,136.68 196.01,134.89 197.20,133.40 198.38,131.91 199.98,130.87 201.58,129.84 203.42,129.37 205.27,128.90 207.17,129.04 209.07,129.18 210.82,129.93 212.57,130.67 214.00,131.93 215.42,133.20 216.37,134.85 217.31,136.50 217.68,138.37 218.05,140.23 217.81,142.12 217.56,144.01 217.56,144.01 217.56,144.01 213.32,149.83 209.09,155.66 205.41,158.40 201.73,161.14 197.12,164.94 192.50,168.74 187.03,172.17 181.55,175.60 175.63,172.53 169.72,169.46 165.54,164.06 161.36,158.67 157.64,154.27 153.92,149.88 149.30,144.80 144.67,139.71 138.51,133.82 132.36,127.93 124.59,120.63 116.82,113.32 107.81,104.98 98.79,96.65 88.82,87.71 78.85,78.76 68.47,69.58 58.08,60.41 48.36,51.62 38.63,42.83 29.55,34.66 20.47,26.49 13.05,20.18 5.62,13.87 0.72,9.35 -4.17,4.83 -4.68,4.27 -5.20,3.70 -5.57,3.02 -5.94,2.34 -6.13,1.60 -6.33,0.85 -6.34,0.08 -6.35,-0.68 -6.17,-1.43 -6.00,-2.18 -5.65,-2.86 -5.30,-3.55 -4.80,-4.14 -4.30,-4.72 -3.67,-5.16 -3.04,-5.61 -2.33,-5.89 -1.61,-6.18 -0.85,-6.28 -0.08,-6.38 0.67,-6.30 1.44,-6.22 2.16,-5.96 2.89,-5.69 3.53,-5.26 4.17,-4.83 4.17,-4.83 L 4.17,-4.83 Z"></path></g><g transform="translate(323.04601390104995 599.8674944943359) rotate(0 88.7115567107096 84.50345891804528)" stroke="none"><path fill="#1e1e1e" d="M 5.66,-3.50 Q 5.66,-3.50 10.01,3.88 14.36,11.27 20.14,19.79 25.92,28.31 32.85,38.11 39.77,47.91 47.27,58.30 54.76,68.69 61.81,78.72 68.85,88.74 74.90,97.28 80.94,105.81 86.21,112.84 91.49,119.86 96.48,126.00 101.47,132.14 106.16,137.44 110.85,142.74 114.75,146.74 118.65,150.75 123.36,155.01 128.06,159.27 123.65,160.79 119.25,162.30 121.81,158.85 124.37,155.40 129.32,149.96 134.28,144.53 138.14,140.78 142.01,137.03 145.38,134.33 148.76,131.63 152.61,129.28 156.46,126.94 160.51,124.69 164.56,122.45 166.11,130.17 167.65,137.90 166.15,136.35 164.64,134.81 163.71,132.86 162.77,130.92 162.51,128.78 162.25,126.64 162.68,124.52 163.11,122.41 164.20,120.55 165.28,118.68 166.91,117.26 168.53,115.84 170.52,115.02 172.52,114.19 174.67,114.04 176.82,113.90 178.91,114.44 180.99,114.99 182.80,116.18 184.60,117.36 185.93,119.06 187.26,120.76 187.98,122.79 188.69,124.83 188.72,126.98 188.75,129.14 188.09,131.19 187.43,133.25 186.15,134.98 184.87,136.72 183.10,137.95 181.34,139.19 179.27,139.80 177.20,140.40 175.04,140.32 172.89,140.23 170.87,139.46 168.86,138.69 167.19,137.32 165.53,135.94 164.39,134.11 163.25,132.28 162.76,130.18 162.27,128.08 162.47,125.93 162.67,123.78 163.55,121.81 164.43,119.84 165.89,118.26 167.35,116.67 169.24,115.63 171.13,114.60 173.26,114.22 175.38,113.84 177.51,114.16 179.65,114.48 181.57,115.46 183.49,116.44 183.49,116.44 183.48,116.44 186.88,124.71 190.28,132.97 186.60,137.52 182.93,142.07 178.46,144.08 173.99,146.09 169.97,147.71 165.96,149.34 161.11,151.84 156.27,154.34 152.66,157.04 149.05,159.74 143.92,164.34 138.79,168.94 134.77,171.83 130.74,174.72 123.24,172.51 115.75,170.31 111.98,164.96 108.21,159.61 104.84,155.05 101.47,150.49 97.08,144.80 92.68,139.10 87.77,132.74 82.86,126.37 77.46,119.27 72.05,112.16 65.94,103.66 59.82,95.15 52.73,85.25 45.64,75.35 38.00,65.02 30.37,54.68 23.22,44.93 16.08,35.18 9.88,26.53 3.68,17.88 -0.98,10.69 -5.66,3.50 -6.00,2.77 -6.34,2.04 -6.49,1.26 -6.64,0.47 -6.60,-0.32 -6.56,-1.13 -6.33,-1.90 -6.10,-2.67 -5.69,-3.36 -5.28,-4.05 -4.72,-4.62 -4.16,-5.20 -3.48,-5.62 -2.79,-6.04 -2.03,-6.29 -1.27,-6.54 -0.46,-6.59 0.33,-6.65 1.12,-6.51 1.91,-6.38 2.65,-6.06 3.38,-5.73 4.02,-5.24 4.66,-4.76 5.16,-4.13 5.66,-3.50 5.66,-3.50 L 5.66,-3.50 Z"></path></g><g transform="translate(362.02330923888235 211.20751767803426) rotate(0 -20.413559729817166 32.029634275611045)" stroke="none"><path fill="#1e1e1e" d="M 0,10.64 Q 0,10.64 -4.72,10.70 -9.44,10.76 -16.61,11.00 -23.78,11.24 -25.86,16.89 -27.94,22.54 -27.95,27.83 -27.95,33.13 -24.82,36.87 -21.69,40.62 -17.50,43.39 -13.30,46.15 -9.22,48.17 -5.14,50.19 -3.59,50.29 -2.04,50.39 0.10,50.64 2.26,50.89 4.22,51.81 6.18,52.74 7.74,54.24 9.31,55.74 10.31,57.66 11.31,59.58 11.65,61.72 11.99,63.86 11.62,65.99 11.26,68.13 10.23,70.04 9.20,71.95 7.62,73.43 6.04,74.91 4.06,75.80 2.09,76.70 -0.05,76.92 -2.21,77.14 -4.32,76.66 -6.44,76.18 -8.28,75.05 -10.13,73.93 -11.53,72.26 -12.92,70.60 -13.71,68.59 -14.50,66.57 -14.60,64.40 -14.70,62.24 -14.11,60.15 -13.52,58.07 -12.29,56.29 -11.06,54.50 -9.33,53.20 -7.59,51.90 -5.54,51.22 -3.48,50.54 -1.31,50.56 0.84,50.57 2.89,51.28 4.94,51.98 6.66,53.30 8.38,54.63 9.58,56.43 10.78,58.23 11.35,60.32 11.92,62.41 11.78,64.58 11.65,66.74 10.84,68.75 10.02,70.75 8.61,72.40 7.20,74.04 5.33,75.14 3.47,76.25 1.35,76.70 -0.76,77.15 -0.76,77.15 -0.76,77.15 -6.73,76.33 -12.69,75.51 -17.02,73.42 -21.34,71.33 -27.39,67.69 -33.43,64.05 -36.89,61.26 -40.36,58.48 -43.75,54.74 -47.14,51.00 -49.65,46.20 -52.16,41.40 -52.79,34.16 -53.41,26.93 -52.88,20.38 -52.36,13.83 -49.99,7.00 -47.63,0.17 -41.63,-4.87 -35.63,-9.92 -29.71,-10.58 -23.79,-11.24 -16.61,-11.00 -9.44,-10.76 -4.72,-10.70 0,-10.64 1.27,-10.49 2.54,-10.33 3.74,-9.88 4.94,-9.42 6.00,-8.69 7.06,-7.96 7.91,-7.00 8.76,-6.04 9.35,-4.91 9.95,-3.77 10.26,-2.52 10.56,-1.28 10.56,0.00 10.56,1.28 10.26,2.52 9.95,3.77 9.35,4.91 8.76,6.04 7.91,7.00 7.05,7.96 6.00,8.69 4.94,9.42 3.74,9.88 2.54,10.33 1.27,10.49 -0.00,10.64 -0.00,10.64 L 0,10.64 Z"></path></g><g transform="translate(394.3553734918273 142.4405009587615) rotate(0 0 -0.14026358467538103)" stroke="none"><path fill="#1e1e1e" d="M -8.92,-0.16 Q -8.92,-0.16 -8.68,-1.58 -8.45,-3.01 -7.77,-4.28 -7.10,-5.56 -6.05,-6.55 -5.00,-7.54 -3.69,-8.15 -2.38,-8.75 -0.95,-8.91 0.48,-9.07 1.89,-8.75 3.30,-8.44 4.53,-7.70 5.77,-6.96 6.71,-5.86 7.64,-4.76 8.17,-3.41 8.71,-2.07 8.79,-0.63 8.86,0.80 8.48,2.19 8.09,3.58 7.28,4.78 6.47,5.97 5.32,6.84 4.17,7.72 2.81,8.18 1.44,8.64 -0.00,8.64 -1.44,8.64 -2.81,8.18 -4.18,7.72 -5.32,6.84 -6.47,5.97 -7.28,4.77 -8.09,3.58 -8.48,2.19 -8.86,0.80 -8.79,-0.63 -8.71,-2.08 -8.17,-3.42 -7.64,-4.76 -6.70,-5.86 -5.77,-6.96 -4.53,-7.70 -3.30,-8.45 -1.89,-8.76 -0.48,-9.07 0.95,-8.91 2.38,-8.75 3.69,-8.15 5.00,-7.54 6.05,-6.55 7.10,-5.55 7.78,-4.28 8.45,-3.00 8.68,-1.58 8.92,-0.15 8.92,-0.15 8.92,-0.16 8.81,0.90 8.70,1.97 8.33,2.99 7.97,4.00 7.37,4.89 6.78,5.79 5.99,6.52 5.20,7.25 4.25,7.76 3.31,8.28 2.27,8.56 1.23,8.83 0.15,8.85 -0.91,8.87 -1.96,8.63 -3.01,8.39 -3.97,7.91 -4.93,7.43 -5.75,6.73 -6.57,6.03 -7.19,5.16 -7.82,4.28 -8.22,3.28 -8.62,2.29 -8.77,1.22 -8.92,0.16 -8.92,-0.00 L -8.92,-0.16 Z"></path></g><g transform="translate(319.0745900986685 140.26634405164214) rotate(0 -0.14026358467526734 0)" stroke="none"><path fill="#1e1e1e" d="M -0.16,8.92 Q -0.16,8.92 -1.58,8.68 -3.01,8.45 -4.28,7.77 -5.56,7.10 -6.55,6.05 -7.54,5.00 -8.15,3.69 -8.75,2.38 -8.91,0.95 -9.07,-0.48 -8.75,-1.89 -8.44,-3.30 -7.70,-4.53 -6.96,-5.77 -5.86,-6.71 -4.76,-7.64 -3.41,-8.17 -2.07,-8.71 -0.63,-8.79 0.80,-8.86 2.19,-8.48 3.58,-8.09 4.78,-7.28 5.97,-6.47 6.84,-5.32 7.72,-4.17 8.18,-2.81 8.64,-1.44 8.64,0.00 8.64,1.44 8.18,2.81 7.72,4.18 6.84,5.32 5.97,6.47 4.77,7.28 3.58,8.09 2.19,8.48 0.80,8.86 -0.63,8.79 -2.08,8.71 -3.42,8.17 -4.76,7.64 -5.86,6.70 -6.96,5.77 -7.70,4.53 -8.45,3.30 -8.76,1.89 -9.07,0.48 -8.91,-0.95 -8.75,-2.38 -8.15,-3.69 -7.54,-5.00 -6.55,-6.05 -5.55,-7.10 -4.28,-7.78 -3.00,-8.45 -1.58,-8.68 -0.15,-8.92 -0.15,-8.92 -0.16,-8.92 0.90,-8.81 1.97,-8.70 2.99,-8.33 4.00,-7.97 4.89,-7.37 5.79,-6.78 6.52,-5.99 7.25,-5.20 7.76,-4.25 8.28,-3.31 8.56,-2.27 8.83,-1.23 8.85,-0.15 8.87,0.91 8.63,1.96 8.39,3.01 7.91,3.97 7.43,4.93 6.73,5.75 6.03,6.57 5.16,7.19 4.28,7.82 3.28,8.22 2.29,8.62 1.22,8.77 0.16,8.92 -0.00,8.92 L -0.16,8.92 Z"></path></g><g stroke-opacity="0" fill-opacity="0" stroke-linecap="round" transform="translate(208.31565536579922 788.0239574478828) rotate(0 297.506455229846 267.68851614422897)"><path d="M32 0 C169.2 2.37, 307.39 1.62, 563.01 0 M32 0 C235.53 -0.65, 439.08 -0.31, 563.01 0 M563.01 0 C584.67 1.84, 596.19 8.72, 595.01 32 M563.01 0 C586.25 -1.88, 593.03 12.47, 595.01 32 M595.01 32 C595.34 177.38, 595.35 324.36, 595.01 503.38 M595.01 32 C597.09 197.7, 597.14 363.63, 595.01 503.38 M595.01 503.38 C594.66 526.23, 583.39 533.55, 563.01 535.38 M595.01 503.38 C593.99 523.46, 583.67 533.99, 563.01 535.38 M563.01 535.38 C443.06 537.15, 322.91 537.22, 32 535.38 M563.01 535.38 C416.19 537.48, 269.61 537.22, 32 535.38 M32 535.38 C9.86 536.03, 0.22 522.81, 0 503.38 M32 535.38 C9.68 537.52, 0.79 523.73, 0 503.38 M0 503.38 C-1.49 385.89, -1.11 267.56, 0 32 M0 503.38 C1.69 389.14, 1.67 275.06, 0 32 M0 32 C1.59 9.03, 8.88 -1.13, 32 0 M0 32 C1.75 11.58, 10.12 -0.71, 32 0" stroke="#1e1e1e" stroke-width="2" fill="none"></path></g><g transform="translate(304.5351869841151 315.89728014946394) rotate(348.84338921728846 93.81004383748541 133.8680900856985)" stroke="none"><path d="M-0.35 -1.22 C6.05 -1.28, 30.98 0.91, 40.77 1.22 C50.56 1.53, 47.71 2.87, 58.39 0.64 C69.08 -1.59, 94.84 -9.4, 104.88 -12.18 C114.92 -14.96, 114.99 -13.8, 118.63 -16.05 C122.28 -18.3, 125.9 -25.26, 126.76 -25.65 C127.62 -26.05, 124.38 -22.18, 123.79 -18.43 C123.2 -14.68, 121.78 -10.33, 123.21 -3.14 C124.65 4.05, 123.44 4, 132.41 24.71 C141.37 45.43, 165.19 95.03, 177.02 121.15 C188.86 147.28, 196.8 168.66, 203.39 181.46 C209.99 194.26, 213.74 192.06, 216.59 197.94 C219.43 203.81, 226.03 210.36, 220.47 216.7 C214.91 223.03, 191.67 231.83, 183.22 235.95 C174.77 240.06, 175.05 239.14, 169.75 241.38 C164.45 243.63, 159.57 246.54, 151.43 249.41 C143.28 252.28, 129.21 255.9, 120.9 258.61 C112.59 261.32, 111.3 264.2, 101.59 265.69 C91.87 267.17, 70.72 266.69, 62.61 267.54 C54.5 268.38, 68.45 266.34, 52.92 270.75 C37.38 275.16, -16.24 297.12, -30.61 294 C-44.97 290.88, -32.99 262.74, -33.26 252.04 C-33.54 241.34, -32.95 246.99, -32.27 229.82 C-31.58 212.66, -30.09 169.69, -29.16 149.05 C-28.24 128.42, -28.44 121.09, -26.74 106.01 C-25.05 90.93, -21.97 71.11, -18.98 58.59 C-15.99 46.06, -12.19 40.98, -8.82 30.84 C-5.45 20.7, -0.68 3.65, 1.26 -2.26" stroke="none" stroke-width="0" fill="#ffffff" fill-rule="evenodd"></path><path fill="#1e1e1e" d="M 0.10,-4.52 Q 0.10,-4.52 3.56,-4.38 7.02,-4.24 10.64,-4.10 14.27,-3.95 18.52,-3.63 22.77,-3.31 27.57,-2.95 32.38,-2.58 35.50,-2.60 38.62,-2.62 41.71,-2.89 44.81,-3.15 47.55,-3.46 50.29,-3.77 55.60,-4.63 60.91,-5.48 65.61,-6.25 70.31,-7.02 73.34,-7.78 76.36,-8.55 78.65,-9.22 80.94,-9.90 84.24,-10.93 87.54,-11.95 90.71,-13.26 93.88,-14.57 96.44,-15.45 99.01,-16.33 101.03,-16.98 103.06,-17.63 105.92,-18.79 108.79,-19.94 110.83,-20.82 112.87,-21.71 114.76,-22.72 116.65,-23.74 118.25,-25.83 119.85,-27.92 120.08,-28.10 120.31,-28.28 120.84,-28.94 121.37,-29.60 122.03,-30.11 122.70,-30.62 123.47,-30.96 124.24,-31.29 125.07,-31.44 125.90,-31.58 126.74,-31.52 127.58,-31.46 128.38,-31.20 129.18,-30.94 129.90,-30.50 130.61,-30.05 131.20,-29.45 131.79,-28.85 132.22,-28.13 132.64,-27.40 132.89,-26.60 133.13,-25.79 133.17,-24.95 133.21,-24.11 133.05,-23.28 132.89,-22.46 132.53,-21.69 132.18,-20.93 132.02,-18.10 131.87,-15.28 131.84,-12.43 131.81,-9.57 132.26,-5.09 132.70,-0.61 134.30,5.85 135.89,12.31 138.67,20.70 141.46,29.09 145.25,38.94 149.04,48.78 153.26,59.14 157.48,69.50 161.52,79.10 165.56,88.69 169.64,98.20 173.73,107.71 178.83,119.18 183.93,130.65 188.59,140.96 193.25,151.27 196.13,157.64 199.02,164.02 200.86,168.06 202.70,172.10 204.05,174.46 205.39,176.82 206.73,178.73 208.07,180.65 210.13,183.09 212.19,185.54 213.91,188.30 215.63,191.06 217.65,195.13 219.66,199.21 220.49,201.33 221.32,203.44 222.53,206.70 223.74,209.96 224.74,212.50 225.74,215.03 225.31,218.63 224.88,222.22 222.78,223.60 220.68,224.99 218.42,226.08 216.17,227.17 213.43,228.32 210.70,229.47 208.26,230.41 205.83,231.36 203.40,232.38 200.96,233.40 198.38,234.49 195.80,235.59 193.85,236.48 191.90,237.36 189.42,238.54 186.94,239.72 184.87,240.72 182.79,241.73 179.53,242.71 176.27,243.68 173.89,244.61 171.50,245.54 169.49,246.62 167.47,247.70 165.52,248.89 163.58,250.08 161.75,251.25 159.93,252.41 156.96,253.97 153.99,255.53 151.75,256.57 149.51,257.61 146.79,258.70 144.08,259.78 141.85,260.74 139.62,261.69 137.68,262.73 135.74,263.77 133.61,264.55 131.48,265.33 128.80,266.27 126.12,267.20 123.02,268.07 119.91,268.93 117.45,269.59 115.00,270.26 111.20,270.99 107.41,271.73 104.05,272.21 100.69,272.70 97.94,273.00 95.19,273.31 92.33,273.52 89.47,273.73 86.78,273.92 84.08,274.10 81.06,274.24 78.05,274.37 74.91,274.59 71.76,274.80 69.04,274.86 66.31,274.93 63.25,275.32 60.20,275.71 57.64,276.11 55.08,276.52 52.82,277.10 50.57,277.67 47.94,278.37 45.31,279.07 42.17,279.84 39.03,280.61 36.39,281.52 33.74,282.43 31.49,283.05 29.24,283.67 24.00,284.57 18.77,285.47 16.52,286.05 14.28,286.64 11.70,287.46 9.12,288.29 7.03,288.94 4.94,289.59 2.82,290.26 0.70,290.94 -4.06,291.93 -8.83,292.92 -12.12,293.83 -15.42,294.73 -17.89,295.64 -20.37,296.56 -22.73,297.29 -25.10,298.02 -29.27,297.76 -33.44,297.50 -35.35,295.11 -37.27,292.73 -37.38,289.81 -37.50,286.89 -37.32,280.78 -37.14,274.67 -37.24,271.46 -37.33,268.24 -37.49,265.68 -37.65,263.13 -38.01,259.41 -38.38,255.68 -38.56,253.12 -38.75,250.56 -38.87,246.87 -38.99,243.18 -39.06,240.56 -39.13,237.95 -39.19,235.48 -39.24,233.02 -39.21,229.75 -39.17,226.49 -38.84,221.58 -38.51,216.67 -37.88,211.01 -37.25,205.35 -36.74,200.64 -36.23,195.93 -35.85,189.39 -35.46,182.86 -35.12,178.22 -34.78,173.58 -34.60,169.84 -34.41,166.11 -34.36,162.98 -34.30,159.84 -34.40,157.61 -34.49,155.37 -34.55,151.42 -34.60,147.46 -34.41,145.06 -34.22,142.66 -33.94,139.94 -33.65,137.23 -32.83,132.52 -32.00,127.81 -31.40,123.83 -30.80,119.86 -30.23,115.84 -29.66,111.81 -29.08,107.92 -28.51,104.03 -28.01,100.67 -27.51,97.31 -27.17,94.58 -26.83,91.86 -26.61,89.70 -26.40,87.55 -25.92,83.87 -25.43,80.18 -25.05,76.55 -24.67,72.93 -24.17,68.76 -23.67,64.60 -23.32,62.20 -22.96,59.80 -22.45,57.22 -21.94,54.64 -21.11,51.54 -20.28,48.44 -19.53,45.54 -18.78,42.64 -18.25,39.84 -17.71,37.04 -17.33,34.93 -16.95,32.83 -16.24,29.93 -15.54,27.03 -14.48,23.58 -13.42,20.12 -11.66,16.40 -9.91,12.69 -9.11,10.41 -8.32,8.14 -7.60,5.64 -6.89,3.15 -6.08,-0.51 -5.27,-4.17 -5.02,-4.85 -4.76,-5.53 -4.35,-6.13 -3.94,-6.72 -3.40,-7.21 -2.86,-7.69 -2.22,-8.02 -1.57,-8.36 -0.87,-8.54 -0.17,-8.71 0.55,-8.71 1.27,-8.71 1.98,-8.54 2.68,-8.37 3.32,-8.03 3.97,-7.70 4.51,-7.22 5.05,-6.74 5.47,-6.14 5.88,-5.54 6.14,-4.87 6.39,-4.19 6.48,-3.47 6.57,-2.75 6.48,-2.03 6.40,-1.31 6.45,-1.55 6.49,-1.79 6.19,-0.86 5.88,0.05 5.29,0.83 4.70,1.60 3.90,2.15 3.10,2.70 2.16,2.96 1.22,3.22 0.25,3.17 -0.71,3.12 -1.62,2.77 -2.52,2.41 -3.26,1.78 -4.01,1.15 -4.51,0.32 -5.01,-0.50 -5.23,-1.45 -5.44,-2.40 -5.33,-3.37 -5.23,-4.34 -4.83,-5.22 -4.42,-6.10 -3.75,-6.81 -3.09,-7.52 -2.23,-7.98 -1.37,-8.44 -0.41,-8.60 0.54,-8.76 1.50,-8.60 2.46,-8.45 3.32,-7.99 4.18,-7.54 4.85,-6.83 5.53,-6.13 5.94,-5.25 6.35,-4.37 6.45,-3.40 6.56,-2.43 6.36,-1.48 6.15,-0.53 5.65,0.29 5.15,1.13 4.41,1.76 3.67,2.39 2.77,2.75 1.86,3.12 0.89,3.17 -0.07,3.23 -1.01,2.97 -1.94,2.71 -2.75,2.17 -3.56,1.62 -4.15,0.85 -4.74,0.08 -5.05,-0.83 -5.37,-1.76 -5.32,-2.96 -5.27,-4.17 -5.02,-4.85 -4.76,-5.53 -4.35,-6.13 -3.94,-6.72 -3.40,-7.21 -2.86,-7.69 -2.22,-8.02 -1.57,-8.36 -0.87,-8.54 -0.17,-8.71 0.55,-8.71 1.27,-8.71 1.98,-8.54 2.68,-8.37 3.32,-8.03 3.97,-7.70 4.51,-7.22 5.05,-6.74 5.46,-6.14 5.88,-5.55 6.14,-4.87 6.39,-4.19 6.48,-3.47 6.57,-2.75 6.48,-2.03 6.40,-1.31 6.04,0.40 5.68,2.13 4.78,4.52 3.88,6.91 2.89,9.35 1.91,11.80 1.06,14.14 0.20,16.49 -0.82,20.19 -1.85,23.90 -2.97,27.16 -4.08,30.41 -4.92,33.02 -5.76,35.62 -6.40,37.65 -7.04,39.67 -7.87,42.37 -8.71,45.06 -9.36,47.99 -10.01,50.92 -10.64,53.85 -11.26,56.78 -11.74,59.12 -12.21,61.45 -12.59,63.81 -12.97,66.16 -13.70,70.27 -14.42,74.37 -15.23,78.28 -16.03,82.18 -16.98,85.58 -17.92,88.98 -18.43,91.10 -18.94,93.23 -19.53,95.89 -20.13,98.56 -20.74,101.77 -21.35,104.97 -21.80,108.80 -22.24,112.62 -22.55,116.68 -22.86,120.74 -23.14,124.75 -23.42,128.76 -23.66,133.56 -23.90,138.36 -24.24,141.06 -24.57,143.77 -24.91,145.98 -25.25,148.19 -25.70,151.89 -26.15,155.59 -26.37,157.89 -26.58,160.19 -26.81,163.32 -27.04,166.44 -27.19,170.12 -27.33,173.80 -27.27,178.41 -27.21,183.01 -27.07,189.63 -26.92,196.25 -26.74,200.99 -26.56,205.72 -26.32,211.43 -26.09,217.14 -26.13,222.05 -26.17,226.96 -26.25,229.99 -26.33,233.02 -26.39,235.48 -26.44,237.94 -26.51,240.56 -26.58,243.17 -26.67,246.74 -26.76,250.31 -26.80,252.60 -26.85,254.88 -26.66,258.61 -26.47,262.35 -26.28,264.86 -26.08,267.38 -25.68,270.61 -25.28,273.84 -24.46,278.72 -23.64,283.61 -24.01,286.30 -24.37,288.99 -26.24,287.00 -28.10,285.01 -25.66,284.49 -23.21,283.98 -20.92,283.35 -18.62,282.72 -15.21,281.86 -11.80,281.01 -8.63,279.97 -5.46,278.92 -3.00,278.28 -0.55,277.63 2.44,276.87 5.44,276.12 8.17,275.36 10.90,274.61 13.19,273.92 15.48,273.23 20.70,271.51 25.92,269.79 28.31,269.13 30.70,268.46 33.08,267.69 35.47,266.92 38.43,266.11 41.39,265.29 44.34,264.51 47.30,263.72 49.89,263.13 52.48,262.54 55.11,262.09 57.73,261.65 60.65,261.19 63.56,260.73 65.69,260.77 67.82,260.81 70.39,260.80 72.96,260.79 75.32,260.65 77.68,260.51 80.39,260.37 83.11,260.23 85.78,260.05 88.45,259.86 91.15,259.65 93.85,259.44 96.30,259.18 98.75,258.91 101.59,258.46 104.43,258.01 106.66,257.43 108.89,256.84 111.07,256.28 113.25,255.71 115.89,254.95 118.52,254.18 120.66,253.58 122.80,252.98 125.26,252.17 127.73,251.37 129.83,250.66 131.93,249.95 134.72,248.72 137.50,247.50 139.97,246.60 142.45,245.70 145.08,244.64 147.71,243.59 150.30,242.23 152.89,240.88 154.75,239.79 156.61,238.69 158.78,237.46 160.96,236.22 164.37,234.65 167.79,233.07 170.20,232.32 172.60,231.57 176.02,230.54 179.44,229.50 181.77,228.59 184.10,227.69 187.44,226.25 190.79,224.80 193.30,223.53 195.82,222.26 198.31,221.01 200.81,219.76 204.79,217.97 208.77,216.18 210.82,215.38 212.88,214.58 214.95,213.87 217.02,213.16 215.21,214.34 213.39,215.52 212.75,213.03 212.10,210.54 210.95,206.99 209.81,203.44 208.99,201.44 208.16,199.43 206.66,196.16 205.15,192.90 204.10,190.54 203.05,188.18 202.13,186.25 201.21,184.32 200.38,181.93 199.56,179.53 198.62,176.97 197.68,174.42 195.79,170.39 193.90,166.37 190.95,160.02 188.00,153.67 183.24,143.39 178.48,133.11 173.25,121.67 168.01,110.23 163.75,100.78 159.49,91.33 155.21,81.81 150.92,72.29 146.37,62.02 141.81,51.74 137.54,41.93 133.27,32.12 129.83,23.67 126.39,15.23 123.92,8.43 121.44,1.63 119.96,-3.56 118.48,-8.76 118.07,-13.78 117.67,-18.79 117.92,-21.10 118.18,-23.41 119.25,-25.84 120.31,-28.28 120.84,-28.94 121.36,-29.60 122.03,-30.11 122.70,-30.62 123.47,-30.96 124.24,-31.29 125.07,-31.44 125.90,-31.58 126.74,-31.52 127.58,-31.46 128.38,-31.20 129.18,-30.94 129.90,-30.50 130.61,-30.05 131.20,-29.45 131.79,-28.85 132.22,-28.13 132.64,-27.40 132.88,-26.60 133.13,-25.79 133.17,-24.95 133.21,-24.11 133.05,-23.28 132.89,-22.46 132.54,-21.69 132.18,-20.93 132.31,-22.12 132.44,-23.30 131.09,-20.75 129.73,-18.21 128.10,-16.80 126.47,-15.40 124.54,-13.63 122.61,-11.86 120.12,-10.80 117.63,-9.74 115.42,-8.93 113.21,-8.12 111.03,-7.41 108.84,-6.70 106.56,-6.18 104.28,-5.65 102.04,-5.18 99.79,-4.70 97.22,-4.06 94.64,-3.43 92.23,-2.92 89.81,-2.42 86.41,-1.86 83.01,-1.29 80.66,-0.85 78.31,-0.41 75.19,0.28 72.08,0.99 67.41,2.29 62.74,3.58 56.73,4.73 50.71,5.89 47.70,5.71 44.69,5.53 41.55,5.16 38.42,4.79 35.25,4.59 32.08,4.40 27.33,4.36 22.58,4.32 18.35,4.42 14.12,4.53 10.47,4.54 6.81,4.56 3.35,4.54 -0.10,4.52 -0.64,4.44 -1.18,4.36 -1.68,4.16 -2.19,3.95 -2.63,3.63 -3.07,3.31 -3.43,2.90 -3.78,2.48 -4.02,1.99 -4.26,1.50 -4.38,0.97 -4.50,0.44 -4.49,-0.10 -4.47,-0.64 -4.33,-1.17 -4.19,-1.70 -3.92,-2.17 -3.66,-2.65 -3.29,-3.05 -2.92,-3.45 -2.46,-3.75 -2.01,-4.05 -1.49,-4.23 -0.98,-4.41 -0.43,-4.47 0.10,-4.52 0.10,-4.52 L 0.10,-4.52 Z"></path></g></svg>